<svg id="Mark" xmlns="http://www.w3.org/2000/svg" viewBox="0 0 574.6 164.83"><defs><style>.cls-1{fill:#fff;}.cls-2{fill:#e3a82b;}.cls-3{fill:#65799e;}.cls-4{fill:none;}</style></defs><title>WorkBC_lrg_RGB_rev</title><path class="cls-1" d="M193.32,67.07a1.76,1.76,0,0,1,.32-2.56c2.87.22,7.65.32,11,.32,3,0,8.4-.1,12.12-.32.95.32.85,1.81.21,2.56l-2.45.21c-2.23.21-3.5.85-3.5,1.8,0,1.28,2.23,6.7,5.52,14.25,5.95,13.28,12.23,26.57,18.39,39.64,2.55-5.31,5.42-11.27,8.19-17.22a19.47,19.47,0,0,0,1.7-4.35,9.24,9.24,0,0,0-.85-2.77c-3.72-8.5-7.66-17-11.7-25.51-1.59-3.29-3.18-5.52-6.8-5.84l-2.55-.21a1.65,1.65,0,0,1,.21-2.56c3.09.22,7.13.32,11.38.32,5.31,0,9.24-.1,11.69-.32.74.32.85,1.7.21,2.56l-2.76.21c-4.15.32-4.25,1.06-2.23,5.84,2.23,5.21,5.2,11.91,8.18,18.5,2-4.15,3.93-8.19,6.27-13.93,3.83-9,3.3-10.2-.11-10.41l-3.18-.21c-.75-1.07-.54-2.24.21-2.56,2.87.22,6.06.32,10,.32,3.51,0,7.76-.1,10.2-.32.75.32.85,1.7.22,2.56l-3.09.21c-4.46.32-6.37,5.1-8.71,9.46-2.23,3.93-6.7,13.18-8.29,16.9a8.67,8.67,0,0,0-1,2.55,8.12,8.12,0,0,0,.74,2.55c3.62,8.18,7.34,16.16,10.85,24.23,3.29-7.44,6.48-14.88,9.56-22.42,2.13-5.11,7.76-19.24,8.5-21.15,1.39-3.83,3.19-8.4,3.19-9.68,0-1.49-1.27-2.34-3.51-2.44l-3.08-.21c-.85-1-.74-2.13.11-2.56,4,.22,6.91.32,10.2.32,4,0,7.13-.1,9.89-.32.85.32.95,1.7.21,2.56l-2,.21c-5.31.53-6.27,3.72-12.65,18.49l-7.76,18c-4.67,10.84-8.92,21.25-13.28,32.63a2.31,2.31,0,0,1-1.28.31,3.46,3.46,0,0,1-1.49-.31c-3.4-9.47-9.56-22.75-12.86-30.19-3.82,7.76-10.2,21.36-13.28,30.19a2.31,2.31,0,0,1-1.28.31,4.28,4.28,0,0,1-1.59-.31c-1.81-4.47-6-14-7.34-17.12-6.8-14.77-13.39-29.55-20.3-44.32-2-4.36-3.29-7.23-7.76-7.65Z"/><path class="cls-1" d="M327.32,113.62c0,13.28-9.14,22.85-22.43,22.85-12.22,0-21.76-8.61-21.76-21.89s10.07-23,22.61-23C317.65,91.62,327.32,100.55,327.32,113.62ZM304.46,94.8c-7,0-12.22,6.7-12.22,18.39,0,9.68,4.36,20.09,13.71,20.09s12.23-9.78,12.23-18C318.18,106.28,314.56,94.8,304.46,94.8Z"/><path class="cls-1" d="M337.3,104.48c0-4.15,0-4.68-2.87-6.59l-.95-.64a1.45,1.45,0,0,1,.1-1.91,82.75,82.75,0,0,0,10.74-5.21c.53.11.85.32.85.74V97c0,.53.11.85.32,1,3.72-3.09,7.76-6.38,11.69-6.38,2.66,0,4.78,1.7,4.78,4.25a4.71,4.71,0,0,1-4.57,4.89,4.08,4.08,0,0,1-2.34-.75,8.7,8.7,0,0,0-4.67-1.7,4.72,4.72,0,0,0-3.83,2.13c-1.06,1.49-1.38,4.57-1.38,8.18v14.46c0,7.65.21,8.93,4.25,9.25l3.83.31a1.86,1.86,0,0,1-.22,2.66c-5-.21-8.07-.32-11.79-.32s-7,.11-9.78.32a1.86,1.86,0,0,1-.22-2.66l2-.31c3.94-.64,4-1.6,4-9.25Z"/><path class="cls-1" d="M368.76,75c0-6.27-.1-6.91-3.29-8.83l-1.06-.63a1.6,1.6,0,0,1,0-2.13A75.23,75.23,0,0,0,375.88,59a1.17,1.17,0,0,1,1.07.64c-.11,3.18-.32,8.5-.32,13.17v36.46c0,1.38.11,1.6,1.91,1.6,2.34,0,4.36-1.17,7.23-4.15l4.36-4.68c3-3.19,3.72-4.35,3.72-4.89s-.53-.85-2.34-1.06L389,95.76c-1-.32-1-2.34,0-2.65h2.44a165.66,165.66,0,0,0,16.9-.86c.75.32.85,2.13.22,2.66l-3.41.64c-2.12.43-3.93,1.49-6.69,3.72-4.15,3.3-7.76,7.12-9.67,8.93-1.28,1.17-1.39,1.7-.75,2.55,1.81,2.44,3.51,4.46,7.12,8.5,4.15,4.68,7.87,8.82,10,10.84a10.67,10.67,0,0,0,5.53,2.34l1.49.21c.74.54.64,2.34-.21,2.66-3.08-.21-6.7-.32-10.1-.32-4.25,0-8,.11-11.06.32a1.79,1.79,0,0,1-.21-2.66l1.92-.31c1.59-.22,2.65-.43,2.65-1.07s-.42-1.38-1.8-3l-11.38-13.18a4.27,4.27,0,0,0-3.29-1.49c-1.91,0-2,.32-2,3.61v5.85c0,7.65.21,8.71,4,9.25l2.55.31a1.87,1.87,0,0,1-.21,2.66c-3.51-.21-6.59-.32-10.31-.32s-7,.11-10.21.32a1.78,1.78,0,0,1-.1-2.66l2.33-.31c3.94-.54,4-1.6,4-9.25Z"/><path class="cls-2" d="M422.12,78.65c0-7.86-.43-9.88-5.21-10.31l-3.4-.32a1.69,1.69,0,0,1,.11-2.65c5.74-.54,13-.86,22.85-.86,6.69,0,13.07.53,17.85,3,4.57,2.23,8.08,6.48,8.08,13.29,0,7.65-4.46,11.58-10.84,14.56,0,1.06.85,1.38,2,1.59a17.59,17.59,0,0,1,14.24,17.75c0,12.33-9.14,20.62-28.27,20.62-3.08,0-8.29-.32-12.76-.32-4.67,0-8.28.22-12.22.32a2.07,2.07,0,0,1-.21-2.66l1.91-.31c5.64-1,5.85-2.13,5.85-13.29Zm8.72,14.14c0,3,.1,3.19,5.52,3,10.84-.42,16.69-3.61,16.69-13.6,0-10.42-7.76-14.35-15.84-14.35a13,13,0,0,0-4.89.64c-1.06.32-1.48.85-1.48,2.76Zm0,24.66c0,3.82.21,9.24,2.23,11.58s5.21,3,8.39,3c9.46,0,16.69-4.26,16.69-14.88,0-8.4-4.25-18.18-21.15-18.18-5.74,0-6.16.64-6.16,2.76Z"/><path class="cls-2" d="M488.76,72.17c7.76-6.06,17.65-9,28.7-9a82,82,0,0,1,18.81,2.55,8.17,8.17,0,0,0,3,.43c.1,2.44.64,9.14,1.49,15.62a2.24,2.24,0,0,1-2.87.22c-1.6-7.23-6.38-15.52-21.79-15.52C499.82,66.43,486,76.74,486,98.74c0,22.32,14.14,34.65,31.57,34.65,13.71,0,19.77-8.93,22.21-15.2a2.24,2.24,0,0,1,2.76.42c-.74,5.53-3.5,12.55-5.1,14.57a20.91,20.91,0,0,0-3.72,1.06,62.69,62.69,0,0,1-16.79,2.44c-9.57,0-18.71-1.91-26.47-7.12-8.5-5.84-15.09-15.52-15.09-29.23A35.3,35.3,0,0,1,488.76,72.17Z"/><rect class="cls-2" x="175.21" y="29.13" width="1.13" height="106.97"/><g id="British_Columbia" data-name="British Columbia"><path id="A" class="cls-1" d="M157.09,135.66l-.09-.06-.34,0c-1-.22-1.35-1.39-1.71-2.22l-5-11.83c0-.14-.15-.45-.34-.45s-.35.33-.42.52l-4.78,11.81a7.92,7.92,0,0,1-.94,1.86,1.42,1.42,0,0,1-.91.34l-.4,0-.59,0a.41.41,0,0,0,.05.57l.93,0c.65,0,1.3-.09,2-.09s1.1.06,1.65.08l.92,0a.4.4,0,0,0,0-.56l-.62-.07-.34,0c-.57-.07-1.29-.17-1.29-.8a3.86,3.86,0,0,1,.35-1.3l.74-1.77c.37-.84.22-.94,1.21-.94h3.37c1.18,0,1,0,1.53,1.2l.79,1.79a3.78,3.78,0,0,1,.35,1.16c0,.59-.65.63-1.25.68l-.38,0-.59,0a.4.4,0,0,0,.05.56l.92,0c.7,0,1.41-.08,2.09-.08.87,0,1.74.06,2.6.08h0c.29,0,.05,0,.38,0C157.18,136.16,157.23,135.8,157.09,135.66Zm-6.55-5.56h-2.92c-.1,0-.91.1-.91-.14a1.53,1.53,0,0,1,.07-.29l1.75-4.33c.05-.12.23-.72.43-.72s.36.62.41.72l1.72,4c0,.05.18.43.18.52C151.27,130.17,150.69,130.1,150.54,130.1Z"/><path id="I" class="cls-1" d="M136,124.75c0-2.37-.05-2.76-1.48-2.87l-.61,0c-.15-.08-.1-.49,0-.56,1.21,0,2,.07,3.05.07s1.8,0,3-.07c.15.07.2.48.05.56l-.61,0c-1.43.11-1.47.5-1.47,2.87v8c0,2.38,0,2.7,1.47,2.86l.61.06c.15.1.1.5-.05.57-1.21-.05-2-.07-3-.07s-1.84,0-3.05.07a.41.41,0,0,1,0-.57l.61-.06c1.43-.16,1.48-.48,1.48-2.86Z"/><path id="B" class="cls-1" d="M121.25,124.12c0-1.68-.11-2.11-1.29-2.2l-.85-.08c-.09-.09-.14-.54,0-.56,1.42-.1,3.21-.18,5.66-.18a11.45,11.45,0,0,1,4.42.64,3,3,0,0,1,2,2.83c0,1.64-1.1,2.48-2.68,3.11,0,.23.21.3.5.34a4,4,0,0,1,3.52,3.79c0,2.63-2.26,4.4-7,4.4-.76,0-2-.07-3.16-.07s-2.05.05-3,.07a.39.39,0,0,1-.06-.56l.48-.07c1.39-.2,1.45-.46,1.45-2.84Zm2.16,3c0,.63,0,.68,1.36.63,2.69-.09,4.14-.77,4.14-2.9S127,121.8,125,121.8a3.76,3.76,0,0,0-1.21.14c-.26.07-.36.18-.36.59Zm0,5.26a4,4,0,0,0,.55,2.48,2.81,2.81,0,0,0,2.08.63c2.34,0,4.13-.91,4.13-3.18,0-1.79-1-3.88-5.24-3.88-1.42,0-1.52.14-1.52.59Z"/><path id="M" class="cls-1" d="M116.57,135.6l-.36,0a1,1,0,0,1-.67-.26c-.31-.33-.28-1.29-.28-1.67V123.8c0-.43-.11-1.36.21-1.7a1.2,1.2,0,0,1,.77-.22h0l.34,0,.62,0c.15-.09.1-.49,0-.56l-.92,0h-2.65c-.29,0-.55,0-.71.31l-5.4,11.25L102.7,122c-.16-.38-.19-.69-.69-.69H99.25l-.93,0c-.15.07-.2.47,0,.56l.62,0,.36,0c1,.07,1.1.3,1,1.39l-.81,10.56c-.08,1.06-.13,1.62-1.24,1.72l-.37,0-.62.07a.4.4,0,0,0,0,.56l.91,0c.56,0,1.14-.08,1.71-.08s1.24.06,1.86.08h0l.92,0c.15-.06.2-.42,0-.56l-.62-.06-.35,0c-1.6-.11-1.57-1.25-1.47-2.63l.76-9.82h.19l5.16,12.08c.06.17.13.46.4.46s.31-.26.39-.43l5.82-12.4h.18v10.8c0,.43.06,1.31-.39,1.65a3.28,3.28,0,0,1-1,.27l-.34.05-.62.06a.41.41,0,0,0,0,.57l.91,0c.84,0,1.7-.08,2.56-.08.62,0,1.83.06,1.83.06l1,0a.4.4,0,0,0,0-.56Z"/><path id="U" class="cls-1" d="M93.57,126.93c0-1.4,0-4-.46-4.65a1.51,1.51,0,0,0-1.19-.48l-.59,0a.39.39,0,0,1,0-.54c.9,0,1.78.07,2.71.07s1.64,0,2.5-.07a.37.37,0,0,1,0,.54l-.57,0a1.43,1.43,0,0,0-1.19.54,18.66,18.66,0,0,0-.34,4.59v2.53c0,2-.33,4-1.66,5.37a6.48,6.48,0,0,1-4.55,1.64,7.06,7.06,0,0,1-4.45-1.23c-1.27-1-1.86-2.63-1.86-5.3v-5.31c0-2.33,0-2.71-1.43-2.83l-.6,0c-.14-.09-.09-.47.05-.54,1.19,0,2,.07,2.95.07s1.77,0,2.93-.07c.15.07.19.45,0,.54l-.57,0c-1.38.12-1.43.5-1.43,2.83v4.86c0,3.61,1.19,6,4.83,6,3.46,0,4.77-2.57,4.77-6Z"/><path id="L" class="cls-1" d="M69.75,124.71c0-2.36,0-2.72-1.6-2.83l-.62,0c-.15-.08-.1-.49,0-.56,1.38,0,2.22.07,3.21.07s1.81,0,3-.07c.15.07.2.48,0,.56l-.59,0c-1.46.11-1.51.47-1.51,2.83v7.82c0,1.41.07,2,.52,2.42.27.25.74.52,2.69.52,2.1,0,2.62-.09,3-.29A4.91,4.91,0,0,0,79.64,133c.15-.12.62,0,.62.13a17.33,17.33,0,0,1-1,3.15c-1.26-.05-3.61-.07-6.16-.07H70.79c-1,0-1.83,0-3.21.07a.41.41,0,0,1,0-.57l.74-.06c1.43-.14,1.48-.45,1.48-2.81Z"/><path id="O" class="cls-1" d="M50.37,128.86c0-4.49,3.54-7.93,8.4-7.93,5.45,0,8.18,3.75,8.18,7.7a7.86,7.86,0,0,1-8.18,7.84C53.53,136.47,50.37,132.9,50.37,128.86Zm14.23.47c0-3.71-1.73-7.71-6.23-7.71-2.46,0-5.64,1.6-5.64,6.52,0,3.32,1.7,7.64,6.35,7.64C61.91,135.78,64.6,133.76,64.6,129.33Z"/><path id="C" class="cls-1" d="M35.48,120.08a11.8,11.8,0,0,1,7.35-2.3,21.24,21.24,0,0,1,4.82.65,2,2,0,0,0,.76.11c0,.62.17,2.33.39,4a.59.59,0,0,1-.74,0c-.41-1.84-1.63-4-5.58-4-4.16,0-7.7,2.63-7.7,8.25s3.62,8.84,8.08,8.84a5.81,5.81,0,0,0,5.69-3.88.57.57,0,0,1,.71.11A10.18,10.18,0,0,1,48,135.66a5.77,5.77,0,0,0-1,.26,15.93,15.93,0,0,1-4.3.63,12,12,0,0,1-6.78-1.82,8.72,8.72,0,0,1-3.86-7.46A9,9,0,0,1,35.48,120.08Z"/><path id="H" class="cls-1" d="M130.53,107.82c-1.16,0-1.21.05-1.21.72v3.17c0,2.36.12,2.68,1.48,2.81l.7.07c.14.09.1.49-.05.56-1.3-.05-2.13-.07-3.07-.07s-1.86,0-2.8.07a.4.4,0,0,1,0-.56l.41-.07c1.35-.23,1.4-.45,1.4-2.81v-8.09c0-2.36-.17-2.74-1.43-2.83l-.62,0c-.15-.09-.1-.5,0-.56,1.19,0,2,.06,3,.06s1.77,0,2.8-.06c.15.06.2.47,0,.56l-.46,0c-1.4.14-1.45.47-1.45,2.83v2.59c0,.69.05.72,1.21.72h6.92c1.16,0,1.21,0,1.21-.72v-2.59c0-2.36,0-2.69-1.48-2.83l-.46,0a.42.42,0,0,1,.05-.56c1.11,0,1.93.06,2.92.06s1.77,0,2.86-.06c.14.06.19.47,0,.56l-.51,0c-1.4.14-1.45.47-1.45,2.83v8.09c0,2.36.05,2.65,1.45,2.81l.58.07c.14.09.1.49,0,.56-1.16-.05-2-.07-2.93-.07s-1.86,0-2.92.07a.41.41,0,0,1-.05-.56l.46-.07c1.48-.23,1.48-.45,1.48-2.81v-3.17c0-.67,0-.72-1.21-.72Z"/><path id="S" class="cls-1" d="M117.19,115.38a9.61,9.61,0,0,1-4.14-.83,9,9,0,0,1-.71-3.15c.13-.16.53-.2.63-.07a4.6,4.6,0,0,0,4.56,3.35c2.23,0,3.32-1.23,3.32-2.58,0-1-.24-2.09-2.18-3.15l-2.51-1.39c-1.33-.74-2.87-2-2.87-3.86,0-2.14,2-3.87,5.41-3.87a12.38,12.38,0,0,1,2.46.29,4.28,4.28,0,0,0,.93.14,8.43,8.43,0,0,1,.48,2.74.61.61,0,0,1-.66.07,3.33,3.33,0,0,0-3.61-2.54c-2.6,0-3.15,1.46-3.15,2.49,0,1.31,1.27,2.25,2.25,2.77l2.12,1.12c1.67.87,3.32,2.18,3.32,4.31C122.84,113.69,120.64,115.38,117.19,115.38Z"/><path id="I-2" data-name="I" class="cls-1" d="M106,103.67c0-2.38-.05-2.76-1.52-2.88l-.62,0c-.15-.09-.1-.5,0-.56,1.25,0,2.09.06,3.14.06s1.85,0,3.09-.06c.15.06.2.47,0,.56l-.62,0c-1.47.12-1.52.5-1.52,2.88v8c0,2.38,0,2.69,1.52,2.85l.62.07c.15.09.1.49,0,.56-1.24-.05-2.09-.07-3.09-.07s-1.89,0-3.14.07a.4.4,0,0,1,0-.56l.62-.07c1.47-.16,1.52-.47,1.52-2.85Z"/><path id="T" class="cls-1" d="M96,111.71c0,2.36,0,2.7,1.4,2.81l.75.07c.14.09.09.49-.05.56-1.33-.05-2.12-.07-3.06-.07s-1.75,0-3.25.07a.39.39,0,0,1,0-.56l.85-.07c1.33-.11,1.44-.45,1.44-2.81v-10c0-.7,0-.72-.7-.72H92.1a5,5,0,0,0-2.88.56,4.19,4.19,0,0,0-1,1.55.45.45,0,0,1-.6-.16,23.05,23.05,0,0,0,.88-3.34.59.59,0,0,1,.45,0c.14.72.91.69,2,.69h9.47c1.26,0,1.47,0,1.82-.63.12,0,.37,0,.42.07a13,13,0,0,0-.35,3.42.45.45,0,0,1-.61,0c-.07-.56-.23-1.39-.58-1.64a4.84,4.84,0,0,0-2.71-.56H96.68c-.7,0-.68,0-.68.76Z"/><path id="I-3" data-name="I" class="cls-1" d="M82.17,103.67c0-2.38,0-2.76-1.53-2.88l-.62,0c-.15-.09-.1-.5,0-.56,1.25,0,2.1.06,3.14.06s1.85,0,3.1-.06c.14.06.19.47,0,.56l-.62,0c-1.47.12-1.52.5-1.52,2.88v8c0,2.38.05,2.69,1.52,2.85l.62.07c.15.09.1.49,0,.56-1.25-.05-2.1-.07-3.1-.07s-1.89,0-3.14.07a.4.4,0,0,1,0-.56l.62-.07c1.48-.16,1.53-.47,1.53-2.85Z"/><path id="R" class="cls-1" d="M78.35,114.59l-.62-.06-.34,0c-.92-.17-1.28-1-1.71-1.73L73.52,109c-.37-.62-.77-1.47-1.62-1.59,2.21-.26,4.2-1.54,4.2-3.73,0-2.52-2.5-3.66-5-3.66-1.51,0-2.9,0-4.44,0-.85,0-1.87,0-2.72,0-.47,0-.48.1-.48.36s.17.29.67.32c1.8.1,1.73.43,1.73,2v9.85c0,1.41.12,1.83-1.36,2l-.36,0-.62.06c-.15.14-.1.5,0,.56l.92,0c.82,0,1.64-.09,2.46-.09s1.61.06,2.42.09h0l.92,0a.4.4,0,0,0,0-.56l-.63-.06-.35,0c-1.49-.1-1.4-.52-1.4-2v-3.71c0-.22,0-.79.13-1s.38-.12.59-.12c2,0,2,.19,3,1.88l2.6,4.69c.22.36.38.82.91.82h2.27l.91,0A.4.4,0,0,0,78.35,114.59Zm-9.09-7.39c-.45,0-1.35.17-1.35-.43v-4.31c0-1.68,0-1.92,2.07-1.92,2.37,0,3.84,1.2,3.84,3.41a2.82,2.82,0,0,1-1.23,2.46A5.47,5.47,0,0,1,69.26,107.2Z"/><path id="B-2" data-name="B" class="cls-1" d="M49.32,101.08c0-2-.14-2.46-1.45-2.57L47,98.45c-.15-.12-.11-.65,0-.66,1.57-.14,3.56-.21,6.27-.21a12.15,12.15,0,0,1,4.91.74,3.45,3.45,0,0,1,2.22,3.29c0,1.89-1.23,2.86-3,3.6,0,.26.23.34.55.39a4.52,4.52,0,0,1,3.91,4.4c0,3-2.51,5.1-7.76,5.1-.85,0-2.28-.08-3.5-.08s-2.28,0-3.36.08a.47.47,0,0,1-.06-.66l.53-.08c1.54-.24,1.6-.53,1.6-3.29Zm2.39,3.5c0,.73,0,.79,1.52.73,3-.1,4.59-.89,4.59-3.36s-2.13-3.55-4.35-3.55a4.2,4.2,0,0,0-1.35.15c-.29.08-.41.22-.41.69Zm0,6.1c0,.95.06,2.29.62,2.87a3,3,0,0,0,2.3.73c2.6,0,4.59-1,4.59-3.68,0-2.08-1.17-4.5-5.81-4.5-1.58,0-1.7.16-1.7.69Z"/></g><path id="White_Symbol_Bkgd" data-name="White Symbol Bkgd" class="cls-1" d="M59.65,84.45c15.79,0,37.64,8.89,53.49,8.89,11.31,0,22.35-3,28.63-7.46A48.06,48.06,0,1,0,47,85.79,78.21,78.21,0,0,1,59.65,84.45Z"/><g id="Gold_Sunrays" data-name="Gold Sunrays"><polygon class="cls-2" points="125.43 66.74 127.33 67.53 131.54 64.59 125.43 66.74"/><path class="cls-2" d="M54.62,63.46l-5-1.76.25-.61L55.5,63l0,0,.75-.42.29-.18-6.13-2.61.26-.64,13.69,5.53.45-.18L51.25,57.83l.3-.62L65.94,63.9l.2-.1-14-7.91.29-.6,20.14,11c.17-.31.52-.86.69-1.16A180.11,180.11,0,0,0,58.26,52.49a179.12,179.12,0,0,0,17,9.82c.31-.38.57-.69.9-1.06L59,46.12l.46-.48L73.29,57.47,60.43,44.6l.48-.5L75.34,58,61.91,43.13l.52-.46L74.84,56,63.51,41.69l.49-.45L78.52,58.92c.38-.32.69-.57,1.08-.87a178.15,178.15,0,0,0-9.19-17.24,179.38,179.38,0,0,0,12,15.39c.42-.24.84-.47,1.28-.68l-.07-.05L73.44,35.16l.6-.27,8.44,16.16L75.38,34.3,76,34l8.16,18.34L77.3,33.5l.65-.23,6.53,17L79.32,32.76l.62-.23,6.79,21.68v.06h0c.45-.16.91-.29,1.37-.42a180,180,0,0,0-2.06-19.32,180.1,180.1,0,0,0,5.33,18.68c.48-.06,1-.11,1.44-.14l0,0h.06l0,0L91,30.35l.66,0,1.77,18.14-.31-18.19.69,0,.7,20.05.69-20,.69,0-.3,18.19,1.76-18.14.66,0L96.19,53l0,0h0c.47,0,.94.08,1.4.13a177.64,177.64,0,0,0,5.32-18.65,180.47,180.47,0,0,0-2,19.28c.47.12.93.26,1.38.41L109,32.61l.62.23-5.16,17.48,6.53-17,.65.24-6.87,18.85,8.16-18.33.63.28-7.1,16.75L114.91,35l.6.27L105.37,55.48h0c.41.2.82.42,1.23.64a180.34,180.34,0,0,0,11.94-15.32A178.66,178.66,0,0,0,109.41,58c.39.3.77.6,1.15.92l14.35-17.48.49.44L114.07,56.11l12.41-13.3.52.47L113.56,58.19,128,44.24l.48.5L115.62,57.61l13.87-11.82.47.47-17,15h0c.29.33.58.67.86,1a181.73,181.73,0,0,0,16.86-9.76,177.88,177.88,0,0,0-15,12.5c.21.35.55,1,.74,1.31l19.87-10.82.28.6-15.85,9,16.49-7.67.3.62L122.23,65.5l.3.1,15.62-6.32.26.64L123.89,66.1l.27.12L133.84,63l1.46-1,.48.37L139,61.28l.25.61-2.76,1,4,3,1.28.71a48.69,48.69,0,0,0-94.94,1.13l.18-.08.59-.27.35-.17Z"/></g><path id="Blue_Mountains_Water" data-name="Blue Mountains Water" class="cls-3" d="M46.51,86.83a79.81,79.81,0,0,1,13.17-1.44c15.8,0,37.64,8.9,53.49,8.9,11.63,0,23-3.19,29.15-7.84a49.43,49.43,0,0,0,.74-8.48,48.92,48.92,0,0,0-1.34-11.36l-6.61-3.69-7.75,5.44-5.22-2c-1.76.89-12.66,8.18-12.66,8.18l-4.18-3-4.48-.89-6-4.35L88,71s-7.65,4.44-7.92,4.44-9.23-7.11-9.23-7.11l-4.13-4.35c-.71.44-3.52,1.73-3.52,1.73l-.15,0-2.72-.84L57,63.11,47,67.66l-.18.08A49.24,49.24,0,0,0,45.7,78,48.75,48.75,0,0,0,46.51,86.83Z"/><rect class="cls-4" width="574.6" height="164.83"/></svg>