<svg width="167" height="89" viewBox="0 0 167 89" fill="none" xmlns="http://www.w3.org/2000/svg">
<path fill-rule="evenodd" clip-rule="evenodd" d="M160 9.80591C163.866 9.80591 167 12.9399 167 16.8059C167 20.6719 163.866 23.8059 160 23.8059H120C123.866 23.8059 127 26.9399 127 30.8059C127 34.6719 123.866 37.8059 120 37.8059H142C145.866 37.8059 149 40.9399 149 44.8059C149 48.6719 145.866 51.8059 142 51.8059H131.826C126.952 51.8059 123 54.9399 123 58.8059C123 61.3832 125 63.7166 129 65.8059C132.866 65.8059 136 68.9399 136 72.8059C136 76.6719 132.866 79.8059 129 79.8059H46C42.134 79.8059 39 76.6719 39 72.8059C39 68.9399 42.134 65.8059 46 65.8059H7C3.13401 65.8059 0 62.6719 0 58.8059C0 54.9399 3.13401 51.8059 7 51.8059H47C50.866 51.8059 54 48.6719 54 44.8059C54 40.9399 50.866 37.8059 47 37.8059H22C18.134 37.8059 15 34.6719 15 30.8059C15 26.9399 18.134 23.8059 22 23.8059H62C58.134 23.8059 55 20.6719 55 16.8059C55 12.9399 58.134 9.80591 62 9.80591H160ZM160 37.8059C163.866 37.8059 167 40.9399 167 44.8059C167 48.6719 163.866 51.8059 160 51.8059C156.134 51.8059 153 48.6719 153 44.8059C153 40.9399 156.134 37.8059 160 37.8059Z" fill="#C4C6CF"/>
<path fill-rule="evenodd" clip-rule="evenodd" d="M74 18.3059V14.3059C74 11.8206 76.0147 9.80591 78.5 9.80591C80.9853 9.80591 83 11.8206 83 14.3059V18.3059" fill="#F9F9FF"/>
<path d="M74 18.3059V14.3059C74 11.8206 76.0147 9.80591 78.5 9.80591C80.9853 9.80591 83 11.8206 83 14.3059V18.3059" stroke="#5B5E66" stroke-width="2.5"/>
<path fill-rule="evenodd" clip-rule="evenodd" d="M78.5002 17.8059C91.1645 17.8059 102 26.7749 102 40.3059L102.753 54.9885C102.916 58.1624 103.764 61.2634 105.24 64.078L109.119 71.4746C109.854 73.5578 108.761 75.8426 106.678 76.5779C106.25 76.7288 105.8 76.8059 105.347 76.8059H51.6538C49.4447 76.8059 47.6538 75.015 47.6538 72.8059C47.6538 72.3524 47.7309 71.9022 47.8818 71.4746L51.7602 64.078C53.236 61.2634 54.0845 58.1624 54.2473 54.9885L55.0002 40.3059C55.0002 26.7749 65.8359 17.8059 78.5002 17.8059Z" fill="#F9F9FF" stroke="#5B5E66" stroke-width="2.5"/>
<path fill-rule="evenodd" clip-rule="evenodd" d="M78.5005 21.8059C89.7053 21.8059 97.6095 30.6467 97.6095 40.9669L98.2348 55.4688C98.3311 57.7031 98.7675 59.9096 99.529 62.0123L103.467 70.1249C103.843 71.1635 103.306 72.3103 102.268 72.6864C102.049 72.7655 101.819 72.8059 101.587 72.8059H86.0729C85.1781 72.8059 84.3922 72.2116 84.1485 71.3506L81.3271 61.3823C80.8303 59.6275 80.5539 57.8185 80.5036 55.9971L80.4952 55.3895V35.572C80.4952 30.9909 79.4443 26.6552 77.5712 23.0209C77.3606 22.6124 77.5211 22.1106 77.9296 21.9001C78.0433 21.8415 78.169 21.8099 78.2969 21.8077C78.37 21.8065 78.4379 21.8059 78.5005 21.8059Z" fill="#C4C6CF" fill-opacity="0.6"/>
<path d="M44.2173 30C44.2173 19.9361 50.6339 12.5757 59.2173 10" stroke="#8E9199" stroke-width="2.5" stroke-linecap="round"/>
<path d="M36.2173 30C36.2173 15.9105 46.0562 5.60603 59.2173 2" stroke="#8E9199" stroke-width="2.5" stroke-linecap="round"/>
<path d="M112 30C112 19.9361 105.583 12.5757 97 10" stroke="#8E9199" stroke-width="2.5" stroke-linecap="round"/>
<path d="M120 30C120 15.9105 110.161 5.60603 97 2" stroke="#8E9199" stroke-width="2.5" stroke-linecap="round"/>
<path d="M73 80.8059C73 84.1196 75.6863 86.8059 79 86.8059C82.3137 86.8059 85 84.1196 85 80.8059" stroke="#5B5E66" stroke-width="2.5" stroke-linecap="round"/>
</svg>
