<svg width="27" height="28" viewBox="0 0 27 28" fill="none" xmlns="http://www.w3.org/2000/svg">
<path fill-rule="evenodd" clip-rule="evenodd" d="M20.3274 8.48597V8.13076H16.2619C15.3625 8.13076 14.6357 7.40406 14.6357 6.50457V2.4391H6.5048C6.0576 2.4391 5.69171 2.80499 5.69171 3.2522V5.23359H9.96549C10.9361 5.23359 11.8661 5.61981 12.5521 6.30586L14.7323 8.48597H20.3274ZM3.25242 5.23359V3.2522C3.25242 1.45831 4.71091 -0.000183105 6.5048 -0.000183105H14.9152C15.7792 -0.000183105 16.6075 0.3403 17.2173 0.950121L21.8164 5.54919C22.4262 6.15901 22.7667 6.98735 22.7667 7.85126V8.48597C24.5606 8.48599 26.019 9.94447 26.019 11.7383V24.7479C26.019 26.5417 24.5605 28.0002 22.7667 28.0002H3.25238C1.45849 28.0002 0 26.5417 0 24.7479V8.48597C0 6.69208 1.45849 5.23359 3.25238 5.23359H3.25242ZM11.3833 13.9238C11.3833 13.4766 11.7492 13.1107 12.1964 13.1107H13.8226C14.2698 13.1107 14.6357 13.4766 14.6357 13.9238V16.3631H17.075C17.5222 16.3631 17.8881 16.7289 17.8881 17.1761V18.8023C17.8881 19.2495 17.5222 19.6154 17.075 19.6154H14.6357V22.0547C14.6357 22.5019 14.2698 22.8678 13.8226 22.8678H12.1964C11.7492 22.8678 11.3833 22.5019 11.3833 22.0547V19.6154H8.94403C8.49683 19.6154 8.13094 19.2495 8.13094 18.8023V17.1761C8.13094 16.7289 8.49683 16.3631 8.94403 16.3631H11.3833V13.9238ZM2.43928 8.48597C2.43928 8.03876 2.80518 7.67287 3.25238 7.67287H9.96549C10.2907 7.67287 10.6007 7.79992 10.8294 8.0286L13.1264 10.3307C13.5075 10.7118 14.0259 10.9253 14.5646 10.9253H22.7667C23.2139 10.9253 23.5797 11.2911 23.5797 11.7383V24.7479C23.5797 25.1951 23.2139 25.561 22.7667 25.561H3.25238C2.80518 25.561 2.43928 25.1951 2.43928 24.7479V8.48597Z" fill="#313132"/>
</svg>
