<svg width="158" height="96" viewBox="0 0 158 96" fill="none" xmlns="http://www.w3.org/2000/svg">
<g clip-path="url(#clip0_1347_437)">
<path d="M81.0538 77.632L25.8192 91.7869C23.9456 92.2648 21.958 91.9836 20.2925 91.0049C18.627 90.0262 17.4195 88.4301 16.9351 86.5666L0.231625 22.0104C-0.248576 20.1458 0.0340219 18.1678 1.01742 16.5103C2.00082 14.8528 3.60472 13.6512 5.47724 13.169L56.864 0.000183105L70.0156 5.85959L86.2995 68.7904C86.7797 70.655 86.4972 72.6331 85.5138 74.2906C84.5303 75.9482 82.9264 77.1498 81.0538 77.632Z" fill="#F2F2F2"/>
<path d="M6 15.1931C4.66654 15.5364 3.52435 16.3921 2.82404 17.5724C2.12372 18.7527 1.92246 20.1613 2.26441 21.4891L18.9689 86.0455C19.3139 87.3725 20.1737 88.5092 21.3597 89.2061C22.5458 89.9031 23.9612 90.1034 25.2954 89.7631L80.5301 75.6084C81.8635 75.265 83.0057 74.4093 83.706 73.229C84.4064 72.0487 84.6076 70.6401 84.2657 69.3123L68.2341 7.35602L56.6755 2.20642L6 15.1931Z" fill="white"/>
<path d="M69.8751 6.19315L61.3268 8.38387C60.7027 8.54377 60.0404 8.45042 59.4855 8.12435C58.9306 7.79827 58.5286 7.2662 58.3679 6.64515L56.7421 0.36188C56.735 0.334387 56.7358 0.305466 56.7445 0.278428C56.7532 0.25139 56.7693 0.227325 56.7911 0.208991C56.8128 0.190656 56.8394 0.178793 56.8676 0.174756C56.8958 0.170718 56.9246 0.174669 56.9507 0.18616L69.8989 5.90869C69.9277 5.92144 69.9518 5.9428 69.9679 5.96979C69.9839 5.99679 69.9911 6.02809 69.9885 6.05935C69.9859 6.09061 69.9736 6.12028 69.9532 6.14426C69.9329 6.16823 69.9056 6.18532 69.8751 6.19315Z" fill="#F2F2F2"/>
<path d="M65.3785 61.3222L40.2309 67.7673C39.9196 67.8452 39.5899 67.7974 39.314 67.6341C39.038 67.4709 38.8382 67.2057 38.7581 66.8963C38.6781 66.5869 38.7243 66.2585 38.8868 65.983C39.0492 65.7074 39.3146 65.5071 39.6251 65.4257L64.7726 58.9805C64.9274 58.9399 65.0888 58.9302 65.2474 58.9519C65.4061 58.9735 65.5588 59.0262 65.6969 59.1068C65.835 59.1875 65.9558 59.2945 66.0522 59.4217C66.1486 59.5489 66.2188 59.6939 66.2587 59.8482C66.2986 60.0025 66.3075 60.1631 66.2848 60.3209C66.2621 60.4786 66.2084 60.6303 66.1266 60.7673C66.0448 60.9043 65.9366 61.0239 65.8082 61.1191C65.6798 61.2143 65.5337 61.2833 65.3785 61.3222Z" fill="#CCCCCC"/>
<path d="M71.2536 64.03L41.253 71.7184C41.0981 71.759 40.9368 71.7687 40.7781 71.747C40.6195 71.7254 40.4668 71.6727 40.3286 71.5921C40.1905 71.5114 40.0698 71.4044 39.9734 71.2772C39.877 71.15 39.8068 71.005 39.7669 70.8507C39.727 70.6964 39.7181 70.5358 39.7408 70.378C39.7634 70.2203 39.8172 70.0685 39.899 69.9316C39.9808 69.7946 40.089 69.675 40.2174 69.5798C40.3458 69.4846 40.4918 69.4156 40.6471 69.3767L70.6477 61.6883C70.959 61.6104 71.2887 61.6583 71.5646 61.8215C71.8406 61.9847 72.0405 62.25 72.1205 62.5594C72.2005 62.8687 72.1543 63.1971 71.9919 63.4726C71.8294 63.7482 71.564 63.9486 71.2536 64.03Z" fill="#CCCCCC"/>
<path d="M29.9668 75.5288C32.3384 75.5288 34.2608 73.6156 34.2608 71.2555C34.2608 68.8954 32.3384 66.9822 29.9668 66.9822C27.5953 66.9822 25.6729 68.8954 25.6729 71.2555C25.6729 73.6156 27.5953 75.5288 29.9668 75.5288Z" fill="#F8BB47"/>
<path d="M62.7038 50.1389L29.3052 58.6948C28.3399 58.9409 27.316 58.796 26.4581 58.2917C25.6001 57.7875 24.9782 56.9651 24.7287 56.005L17.7299 28.9462C17.4828 27.9857 17.6286 26.9669 18.1352 26.1133C18.6419 25.2597 19.4681 24.6409 20.4326 24.3926L53.8311 15.8367C54.7963 15.5906 55.8202 15.7356 56.6782 16.2398C57.5361 16.7441 58.1581 17.5664 58.4075 18.5265L65.4066 45.5853C65.6537 46.5458 65.5079 47.5646 65.0012 48.4182C64.4945 49.2719 63.6683 49.8907 62.7038 50.1389Z" fill="white"/>
<path d="M62.7038 50.1389L29.3052 58.6948C28.3399 58.9409 27.316 58.796 26.4581 58.2917C25.6001 57.7875 24.9782 56.9651 24.7287 56.005L17.7299 28.9462C17.4828 27.9857 17.6286 26.9669 18.1352 26.1133C18.6419 25.2597 19.4681 24.6409 20.4326 24.3926L53.8311 15.8367C54.7963 15.5906 55.8202 15.7356 56.6782 16.2398C57.5361 16.7441 58.1581 17.5664 58.4075 18.5265L65.4066 45.5853C65.6537 46.5458 65.5079 47.5646 65.0012 48.4182C64.4945 49.2719 63.6683 49.8907 62.7038 50.1389ZM20.5427 24.8179C19.6917 25.0372 18.9628 25.5834 18.5159 26.3368C18.0691 27.0901 17.9407 27.9891 18.1589 28.8366L25.158 55.8955C25.3783 56.7424 25.9272 57.4678 26.6842 57.9125C27.4412 58.3572 28.3446 58.485 29.1961 58.2678L62.5939 49.7127C63.4449 49.4935 64.1738 48.9473 64.6207 48.1939C65.0676 47.4405 65.196 46.5415 64.9777 45.6941L57.9793 18.6352C57.759 17.7883 57.2101 17.0629 56.4531 16.6182C55.6961 16.1735 54.7927 16.0457 53.9412 16.2629L20.5427 24.8179Z" fill="#E6E6E6"/>
<path d="M52.1371 24.9343L35.2818 29.2523C35.1345 29.2933 34.977 29.277 34.8413 29.2069C34.7055 29.1367 34.6015 29.0179 34.5504 28.8744C34.5266 28.7994 34.5184 28.7204 34.5264 28.6422C34.5343 28.5639 34.5581 28.4881 34.5965 28.4194C34.6348 28.3506 34.6868 28.2903 34.7493 28.2422C34.8119 28.1941 34.8836 28.1592 34.9601 28.1396L52.1181 23.7441C52.8113 24.0937 52.6289 24.8085 52.1373 24.9345L52.1371 24.9343Z" fill="#F2F2F2"/>
<path d="M52.8979 27.8757L36.0425 32.1937C35.8952 32.2347 35.7378 32.2184 35.602 32.1483C35.4662 32.0781 35.3623 31.9593 35.3112 31.8158C35.2874 31.7408 35.2792 31.6618 35.2871 31.5836C35.295 31.5053 35.3189 31.4295 35.3572 31.3608C35.3956 31.292 35.4476 31.2317 35.5101 31.1836C35.5726 31.1356 35.6443 31.1006 35.7208 31.081L52.8789 26.6855C53.5721 27.0351 53.3896 27.7499 52.8981 27.8759L52.8979 27.8757Z" fill="#F2F2F2"/>
<path d="M32.8318 34.8033L27.6876 36.1207C27.6044 36.142 27.5178 36.1468 27.4328 36.1349C27.3477 36.1229 27.2658 36.0943 27.1919 36.0509C27.1179 36.0074 27.0533 35.9498 27.0017 35.8815C26.95 35.8131 26.9125 35.7353 26.8911 35.6525L25.3283 29.6126C25.3069 29.5298 25.302 29.4436 25.3141 29.3589C25.3261 29.2743 25.3548 29.1928 25.3985 29.1192C25.4422 29.0456 25.5 28.9813 25.5687 28.9299C25.6374 28.8785 25.7155 28.8411 25.7987 28.8198L30.9429 27.5021C31.1109 27.4593 31.2891 27.4845 31.4384 27.5723C31.5877 27.66 31.696 27.8031 31.7394 27.9702L33.3022 34.0116C33.3236 34.0944 33.3285 34.1806 33.3164 34.2653C33.3044 34.3499 33.2757 34.4314 33.232 34.505C33.1883 34.5786 33.1305 34.643 33.0618 34.6943C32.9932 34.7457 32.915 34.7831 32.8318 34.8044V34.8033Z" fill="#F8BB47"/>
<path d="M54.4071 33.9138L28.6822 40.5038C28.5349 40.5447 28.3774 40.5285 28.2416 40.4583C28.1059 40.3882 28.0019 40.2694 27.9508 40.1259C27.927 40.0509 27.9188 39.9719 27.9268 39.8937C27.9347 39.8154 27.9585 39.7396 27.9969 39.6708C28.0352 39.6021 28.0872 39.5418 28.1497 39.4937C28.2123 39.4456 28.284 39.4107 28.3605 39.3911L54.3881 32.7234C55.0813 33.073 54.8987 33.7878 54.4071 33.9138Z" fill="#F2F2F2"/>
<path d="M55.1693 36.8567L29.4439 43.4469C29.2966 43.4879 29.1391 43.4716 29.0034 43.4015C28.8676 43.3313 28.7637 43.2125 28.7125 43.069C28.6887 42.994 28.6806 42.915 28.6885 42.8368C28.6964 42.7585 28.7203 42.6827 28.7586 42.614C28.7969 42.5452 28.8489 42.4849 28.9115 42.4368C28.974 42.3887 29.0457 42.3538 29.1222 42.3342L55.1499 35.6666C55.8431 36.0161 55.6606 36.731 55.1691 36.8569L55.1693 36.8567Z" fill="#F2F2F2"/>
<path d="M55.9296 39.7984L30.2047 46.3884C30.0573 46.4293 29.8999 46.4131 29.7641 46.3429C29.6283 46.2728 29.5244 46.154 29.4733 46.0105C29.4495 45.9355 29.4413 45.8565 29.4492 45.7782C29.4571 45.7 29.481 45.6242 29.5193 45.5554C29.5577 45.4867 29.6097 45.4264 29.6722 45.3783C29.7347 45.3302 29.8064 45.2953 29.8829 45.2757L55.9104 38.608C56.6036 38.9576 56.4211 39.6724 55.9296 39.7984Z" fill="#F2F2F2"/>
<path d="M56.6905 42.7413L30.9654 49.3313C30.8181 49.3723 30.6606 49.356 30.5248 49.2859C30.3891 49.2157 30.2851 49.0969 30.234 48.9534C30.2102 48.8784 30.202 48.7994 30.21 48.7212C30.2179 48.6429 30.2417 48.5671 30.2801 48.4984C30.3184 48.4296 30.3704 48.3693 30.4329 48.3212C30.4955 48.2731 30.5672 48.2382 30.6437 48.2186L56.6713 41.551C57.3643 41.9005 57.1821 42.6154 56.6905 42.7413Z" fill="#F2F2F2"/>
<path d="M57.4511 45.6828L31.7261 52.2728C31.5788 52.3137 31.4213 52.2975 31.2856 52.2273C31.1498 52.1572 31.0459 52.0384 30.9948 51.8949C30.971 51.8199 30.9628 51.7409 30.9707 51.6626C30.9786 51.5844 31.0025 51.5086 31.0408 51.4398C31.0791 51.3711 31.1312 51.3108 31.1937 51.2627C31.2562 51.2146 31.3279 51.1797 31.4044 51.1601L57.4321 44.4924C58.1251 44.842 57.9426 45.5568 57.4511 45.6828Z" fill="#F2F2F2"/>
<path d="M30.2836 72.7534C30.1901 72.7775 30.0912 72.7708 30.0019 72.7341L29.9965 72.7318L28.8267 72.2382C28.7725 72.2153 28.7234 72.1819 28.6821 72.1401C28.6409 72.0983 28.6083 72.0488 28.5863 71.9944C28.5642 71.94 28.5532 71.8819 28.5537 71.8233C28.5543 71.7647 28.5664 71.7067 28.5895 71.6528C28.6125 71.5989 28.646 71.55 28.6881 71.5089C28.7301 71.4679 28.7799 71.4354 28.8345 71.4135C28.8891 71.3916 28.9475 71.3806 29.0064 71.3812C29.0653 71.3817 29.1235 71.3938 29.1777 71.4167L29.9357 71.7375L30.9289 69.4122C30.9754 69.3034 31.0635 69.2173 31.1737 69.1731C31.284 69.1288 31.4074 69.13 31.5168 69.1763L31.5109 69.1914L31.517 69.176C31.6264 69.2224 31.7128 69.3101 31.7573 69.4199C31.8017 69.5296 31.8006 69.6524 31.7541 69.7614L30.5856 72.4954C30.5585 72.5584 30.5172 72.6144 30.4649 72.659C30.4125 72.7035 30.3505 72.7355 30.2838 72.7524L30.2836 72.7534Z" fill="white"/>
<path d="M135.256 94.6171L79.2826 83.8006C77.3848 83.4316 75.7119 82.3281 74.631 80.7322C73.5501 79.1363 73.1495 77.1784 73.5171 75.2879L86.3142 9.83581C86.6859 7.94627 87.7952 6.28023 89.3986 5.2032C91.0021 4.12618 92.9689 3.72612 94.8675 4.09079L146.941 14.1538L156.284 25.0671L143.809 88.8714C143.438 90.7611 142.329 92.4273 140.725 93.5045C139.121 94.5816 137.155 94.9818 135.256 94.6171Z" fill="#E6E6E6"/>
<path d="M94.4655 6.14306C93.1135 5.88338 91.713 6.16827 90.5711 6.93523C89.4293 7.7022 88.6393 8.88859 88.3747 10.2341L75.5775 75.6862C75.3159 77.0323 75.6013 78.4265 76.371 79.5629C77.1407 80.6992 78.3319 81.485 79.6833 81.7477L135.657 92.5642C137.008 92.8238 138.409 92.5389 139.551 91.772C140.693 91.005 141.483 89.8186 141.747 88.4731L154.029 25.6576L145.819 16.0667L94.4655 6.14306Z" fill="white"/>
<path d="M135.831 33.8959L110.341 28.9672C110.024 28.906 109.745 28.7222 109.565 28.4562C109.385 28.1901 109.319 27.8636 109.38 27.5485C109.442 27.2334 109.626 26.9555 109.894 26.7759C110.161 26.5964 110.489 26.5298 110.805 26.591L136.296 31.5199C136.612 31.581 136.891 31.7648 137.071 32.0309C137.251 32.297 137.318 32.6234 137.256 32.9385C137.194 33.2536 137.01 33.5315 136.743 33.7111C136.475 33.8907 136.148 33.9572 135.831 33.896L135.831 33.8959Z" fill="#F8BB47"/>
<path d="M139.968 38.8532L109.558 32.9729C109.242 32.9118 108.963 32.7279 108.783 32.4619C108.603 32.1958 108.536 31.8693 108.598 31.5542C108.659 31.2391 108.844 30.9611 109.111 30.7816C109.379 30.602 109.706 30.5355 110.023 30.5966L140.432 36.4768C140.748 36.538 141.027 36.7218 141.207 36.9879C141.388 37.254 141.454 37.5805 141.393 37.8956C141.331 38.2107 141.146 38.4886 140.879 38.6682C140.612 38.8478 140.284 38.9143 139.968 38.8532Z" fill="#F8BB47"/>
<path d="M132.789 49.4697L107.3 44.5411C106.984 44.48 106.656 44.5465 106.389 44.726C106.122 44.9056 105.937 45.1835 105.875 45.4985C105.814 45.8136 105.88 46.1401 106.06 46.4061C106.24 46.6721 106.519 46.8559 106.836 46.9171L132.325 51.8457C132.64 51.9022 132.964 51.8331 133.227 51.6534C133.491 51.4736 133.673 51.1977 133.734 50.8853C133.795 50.5729 133.73 50.2492 133.553 49.9843C133.377 49.7193 133.102 49.5345 132.789 49.4697Z" fill="#CCCCCC"/>
<path d="M136.926 54.4273L106.517 48.5472C106.359 48.5145 106.197 48.5134 106.039 48.5439C105.881 48.5743 105.731 48.6357 105.597 48.7245C105.463 48.8133 105.348 48.9277 105.258 49.0611C105.169 49.1945 105.107 49.3442 105.076 49.5016C105.046 49.6589 105.047 49.8208 105.079 49.9777C105.112 50.1347 105.175 50.2836 105.266 50.4159C105.357 50.5481 105.473 50.6611 105.608 50.7482C105.743 50.8353 105.894 50.8948 106.053 50.9233L136.462 56.8034C136.619 56.836 136.781 56.8371 136.939 56.8066C137.097 56.7762 137.248 56.7148 137.382 56.626C137.516 56.5372 137.631 56.4228 137.72 56.2894C137.809 56.156 137.871 56.0063 137.902 55.8489C137.933 55.6916 137.932 55.5298 137.899 55.3728C137.867 55.2159 137.803 55.0669 137.712 54.9347C137.621 54.8024 137.505 54.6894 137.37 54.6023C137.235 54.5152 137.084 54.4558 136.926 54.4273Z" fill="#CCCCCC"/>
<path d="M128.818 69.7971L103.328 64.8684C103.012 64.8072 102.733 64.6234 102.553 64.3573C102.372 64.0913 102.306 63.7648 102.367 63.4497C102.429 63.1346 102.614 62.8567 102.881 62.6771C103.148 62.4976 103.476 62.431 103.792 62.4922L129.283 67.421C129.599 67.4822 129.878 67.666 130.058 67.9321C130.238 68.1981 130.305 68.5246 130.243 68.8397C130.182 69.1548 129.997 69.4327 129.73 69.6123C129.463 69.7919 129.135 69.8584 128.819 69.7972L128.818 69.7971Z" fill="#CCCCCC"/>
<path d="M132.955 74.7542L102.546 68.8739C102.229 68.8128 101.95 68.6289 101.77 68.3629C101.59 68.0968 101.524 67.7703 101.585 67.4552C101.647 67.1401 101.831 66.8621 102.099 66.6826C102.366 66.503 102.694 66.4365 103.01 66.4976L133.42 72.3779C133.736 72.439 134.015 72.6228 134.195 72.8889C134.375 73.155 134.441 73.4815 134.38 73.7966C134.318 74.1117 134.134 74.3896 133.866 74.5692C133.599 74.7488 133.271 74.8153 132.955 74.7542Z" fill="#CCCCCC"/>
<path d="M98.7462 31.9233C101.074 32.373 103.328 30.8591 103.781 28.5418C104.234 26.2244 102.714 23.9813 100.387 23.5316C98.0596 23.0818 95.8056 24.5958 95.3525 26.9131C94.8994 29.2304 96.4188 31.4735 98.7462 31.9233Z" fill="#F8BB47"/>
<path d="M98.8362 29.2472C98.7413 29.2291 98.655 29.1807 98.5903 29.1094L98.5862 29.105L97.7432 28.1591C97.6663 28.0702 97.6276 27.9547 97.6355 27.8376C97.6435 27.7205 97.6974 27.6111 97.7857 27.5333C97.8741 27.4555 97.9896 27.4154 98.1073 27.4217C98.2251 27.428 98.3355 27.4803 98.4148 27.5671L98.9609 28.1809L100.861 26.5047C100.905 26.4659 100.957 26.436 101.012 26.4169C101.068 26.3978 101.127 26.3898 101.186 26.3933C101.245 26.3969 101.302 26.4119 101.355 26.4376C101.408 26.4633 101.455 26.4991 101.494 26.5429L101.482 26.5537L101.495 26.5426C101.573 26.6313 101.613 26.7474 101.606 26.8655C101.599 26.9837 101.545 27.0941 101.456 27.1726L99.2198 29.1434C99.1681 29.1887 99.1066 29.2217 99.0401 29.2396C98.9736 29.2575 98.9039 29.2599 98.8363 29.2466L98.8362 29.2472Z" fill="white"/>
<path d="M100.707 46.5755C100.6 47.1266 100.384 47.6513 100.073 48.1196C99.762 48.5879 99.3612 48.9906 98.8937 49.3048C98.4263 49.619 97.9013 49.8384 97.3488 49.9506C96.7962 50.0628 96.227 50.0655 95.6735 49.9587C95.6371 49.9524 95.6012 49.9439 95.5658 49.9334C94.7414 49.7521 93.9892 49.3327 93.4032 48.7278C92.8172 48.1229 92.4235 47.3593 92.2714 46.5324C92.1193 45.7056 92.2155 44.8524 92.548 44.0795C92.8805 43.3066 93.4346 42.6483 94.1408 42.1871C94.847 41.7259 95.674 41.4822 96.5184 41.4865C97.3628 41.4908 98.187 41.743 98.8879 42.2114C99.5888 42.6798 100.135 43.3436 100.459 44.1199C100.782 44.8962 100.869 45.7503 100.707 46.5755Z" fill="#F8BB47"/>
<path d="M91.7335 67.8243C94.0608 68.274 96.3148 66.7601 96.7679 64.4428C97.221 62.1254 95.7016 59.8823 93.3742 59.4326C91.0469 58.9828 88.7929 60.4968 88.3398 62.8141C87.8867 65.1314 89.4061 67.3745 91.7335 67.8243Z" fill="#F8BB47"/>
<path d="M156.013 25.3239L147.35 23.6498C146.717 23.5276 146.16 23.1602 145.8 22.6285C145.44 22.0968 145.306 21.4443 145.429 20.8146L146.675 14.4437C146.681 14.4159 146.694 14.3901 146.713 14.3693C146.733 14.3486 146.758 14.3337 146.785 14.3265C146.813 14.3192 146.842 14.3198 146.869 14.3283C146.897 14.3367 146.921 14.3526 146.939 14.3742L156.158 25.0765C156.178 25.1003 156.191 25.1299 156.193 25.1612C156.196 25.1924 156.189 25.2238 156.173 25.2509C156.158 25.278 156.134 25.2995 156.105 25.3125C156.076 25.3255 156.044 25.3293 156.013 25.3233L156.013 25.3239Z" fill="#CCCCCC"/>
<path d="M104.654 89.0044C104.387 89.4397 103.957 89.7518 103.459 89.8718C102.961 89.9919 102.436 89.9102 101.998 89.6447L79.4572 75.9617C79.0197 75.6962 78.7062 75.2686 78.5856 74.773C78.4649 74.2774 78.5471 73.7544 78.8139 73.3191C79.0807 72.8838 79.5104 72.5718 80.0083 72.4517C80.5063 72.3316 81.0318 72.4134 81.4693 72.6789L104.01 86.3619C104.448 86.6274 104.761 87.055 104.882 87.5506C105.002 88.0462 104.92 88.5691 104.654 89.0044Z" fill="#3F3D56"/>
<path d="M82.1125 75.3224C80.5207 77.9195 78.1909 79.9886 75.4176 81.268C72.6442 82.5474 69.5519 82.9796 66.5317 82.51C63.5116 82.0404 60.6991 80.6901 58.4501 78.6298C56.2011 76.5695 54.6164 73.8918 53.8966 70.9353C53.1767 67.9787 53.354 64.8761 54.406 62.0199C55.4579 59.1636 57.3374 56.6819 59.8066 54.8886C62.2758 53.0953 65.2239 52.071 68.2781 51.9451C71.3323 51.8193 74.3554 52.5975 76.9652 54.1815C78.698 55.2333 80.2057 56.6144 81.4022 58.2461C82.5987 59.8777 83.4606 61.7279 83.9385 63.691C84.4165 65.6542 84.5013 67.6917 84.1879 69.6875C83.8746 71.6832 83.1694 73.5979 82.1125 75.3224ZM59.0217 61.3048C57.828 63.2527 57.2414 65.5091 57.3362 67.7887C57.4311 70.0684 58.203 72.2689 59.5545 74.1119C60.906 75.9549 62.7763 77.3577 64.9289 78.1429C67.0815 78.9281 69.4197 79.0604 71.6479 78.5231C73.876 77.9858 75.894 76.803 77.4467 75.1243C78.9994 73.4456 80.0171 71.3464 80.3709 69.0922C80.7248 66.8379 80.3991 64.5299 79.4348 62.4599C78.4706 60.3899 76.9112 58.6509 74.9539 57.4629C72.3293 55.8698 69.1762 55.3796 66.1883 56.1001C63.2004 56.8206 60.6226 58.6927 59.0217 61.3048Z" fill="#3F3D56"/>
<path d="M64.8312 78.4679C71.1111 80.6199 77.9549 77.298 80.1172 71.0484C82.2796 64.7987 78.9416 57.9879 72.6618 55.836C66.3819 53.6841 59.5381 57.0059 57.3758 63.2556C55.2134 69.5052 58.5513 76.316 64.8312 78.4679Z" fill="#F8BB47"/>
</g>
<defs>
<clipPath id="clip0_1347_437">
<rect width="158" height="96" fill="white"/>
</clipPath>
</defs>
</svg>
