<svg width="36" height="35" viewBox="0 0 36 35" fill="none" xmlns="http://www.w3.org/2000/svg">
<g clip-path="url(#clip0_8323_64092)">
<path d="M33.0249 8.81577C37.5469 12.3671 36.8263 20.75 31.4364 27.5404C27.5741 32.3975 22.3604 35.1335 18.0561 34.9933C19.7118 34.9201 21.2299 34.4168 22.4821 33.4295C25.4028 31.1395 26.1426 26.8206 24.8424 22.2151C25.0025 22.1132 25.1594 22.0017 25.3131 21.887C28.5157 19.5524 29.7583 15.8132 28.0769 13.5328C26.4885 11.367 22.8311 11.2969 19.7151 13.3003C19.1642 12.6983 18.591 12.1441 18.0049 11.6281C23.0841 7.19142 29.2715 5.86009 33.0313 8.81259L33.0249 8.81577Z" fill="#6CB33F"/>
<path d="M30.3987 2.116C31.0648 3.76265 30.3666 5.58765 28.839 6.20873C27.3178 6.81706 25.5436 5.98259 24.8774 4.34869C24.2113 2.70841 24.9095 0.883403 26.4307 0.262327C27.9583 -0.352378 29.7325 0.469352 30.3987 2.116Z" fill="#6CB33F"/>
<path d="M24.8425 22.2138C26.146 26.8225 25.4062 31.1381 22.4822 33.4282C21.23 34.4123 19.712 34.9187 18.0563 34.992H18.0307C16.3301 34.9315 14.7737 34.4219 13.4958 33.4186C10.5495 31.1095 9.82891 26.7428 11.1676 22.1055C13.5151 23.6916 16.1988 24.0738 18.0947 23.2616C19.9394 24.0579 22.5399 23.7043 24.8425 22.2169V22.2138Z" fill="#005DAA"/>
<path d="M20.916 14.699C22.8183 17.1005 24.1314 19.7026 24.8392 22.2124C22.5333 23.703 19.936 24.0534 18.0914 23.2571C18.7383 22.9705 19.2955 22.5532 19.7119 21.9927C21.1722 20.0116 20.4196 16.9094 18.085 14.6066C18.434 14.2595 18.8119 13.9378 19.2283 13.6352C19.3884 13.5205 19.5517 13.4091 19.7119 13.3008C20.1282 13.7435 20.5317 14.2117 20.916 14.699Z" fill="#005DAA"/>
<path d="M19.7119 13.301C19.5517 13.4093 19.3884 13.5208 19.2283 13.6355C18.8119 13.938 18.434 14.2629 18.085 14.6069C17.7359 14.2597 17.358 13.938 16.9417 13.6355C16.7463 13.4889 16.5445 13.3552 16.3428 13.2278C16.8744 12.6577 17.4316 12.1162 17.9985 11.6289C18.5846 12.1449 19.161 12.6991 19.7087 13.301H19.7119Z" fill="#6CB33F"/>
<path d="M18.0302 34.9904C13.7035 35.1783 8.43212 32.4296 4.53781 27.5247C-0.839295 20.7247 -1.54386 12.3418 2.98777 8.79689C6.74757 5.86031 12.9285 7.19164 18.0014 11.6284C17.4345 12.1157 16.8773 12.6571 16.3457 13.2272C13.2648 11.3003 9.67792 11.3927 8.10546 13.5298C6.42412 15.8103 7.66671 19.5495 10.8693 21.8841C10.9686 21.9573 11.071 22.0306 11.1703 22.0975V22.1038C9.83164 26.7412 10.5522 31.1078 13.4986 33.417C14.7764 34.4202 16.336 34.9298 18.0334 34.9904H18.0302Z" fill="#005DAA"/>
<path d="M16.9415 13.6335C17.3578 13.9361 17.7357 14.261 18.0848 14.6049C15.7565 16.9077 15.0039 20.0035 16.4643 21.991C16.8806 22.5579 17.4347 22.9751 18.0912 23.2554C16.1953 24.0708 13.5115 23.6886 11.1641 22.0993V22.0929C11.8846 19.6118 13.2009 17.0542 15.0776 14.6814C15.4811 14.1718 15.9039 13.6845 16.3426 13.2227C16.5444 13.3501 16.7461 13.4838 16.9415 13.6303V13.6335Z" fill="#6CB33F"/>
<path d="M10.1935 0.20034C11.7211 0.821416 12.4129 2.64961 11.7468 4.29307C11.087 5.92698 9.3064 6.76145 7.77878 6.14674C6.25116 5.52567 5.553 3.70384 6.21913 2.06038C6.88206 0.413735 8.6723 -0.407995 10.1935 0.20034Z" fill="#005DAA"/>
</g>
<defs>
<clipPath id="clip0_8323_64092">
<rect width="36" height="35" fill="white"/>
</clipPath>
</defs>
</svg>
