<svg width="145" height="45" viewBox="0 0 145 45" fill="none" xmlns="http://www.w3.org/2000/svg">
<path d="M109.55 9H108.69V4.01C108.69 3.72333 108.693 3.49333 108.7 3.32C108.707 3.14667 108.717 2.96667 108.73 2.78C108.623 2.88667 108.523 2.97667 108.43 3.05C108.343 3.12333 108.237 3.21667 108.11 3.33L107.35 3.95L106.89 3.36L108.82 1.86H109.55V9ZM115.293 1.82H116.203V6.59H117.243V7.38H116.203V9H115.353V7.38H111.933V6.63L115.293 1.82ZM115.353 6.59V4.34C115.353 3.99333 115.356 3.7 115.363 3.46C115.376 3.21333 115.389 2.98 115.403 2.76H115.363C115.309 2.88667 115.243 3.02333 115.163 3.17C115.083 3.31667 115.006 3.44 114.933 3.54L112.793 6.59H115.353ZM126.733 5.36C126.733 6.56667 126.403 7.47667 125.743 8.09C125.09 8.69667 124.176 9 123.003 9H121.013V1.86H123.213C123.926 1.86 124.546 1.99333 125.073 2.26C125.606 2.52667 126.016 2.92 126.303 3.44C126.59 3.96 126.733 4.6 126.733 5.36ZM125.783 5.39C125.783 4.43667 125.546 3.74 125.073 3.3C124.606 2.85333 123.943 2.63 123.083 2.63H121.913V8.23H122.883C124.816 8.23 125.783 7.28333 125.783 5.39ZM130.228 3.55C130.881 3.55 131.364 3.69333 131.678 3.98C131.991 4.26667 132.148 4.72333 132.148 5.35V9H131.508L131.338 8.24H131.298C131.064 8.53333 130.818 8.75 130.558 8.89C130.298 9.03 129.944 9.1 129.498 9.1C129.011 9.1 128.608 8.97333 128.288 8.72C127.968 8.46 127.808 8.05667 127.808 7.51C127.808 6.97667 128.018 6.56667 128.438 6.28C128.858 5.98667 129.504 5.82667 130.378 5.8L131.288 5.77V5.45C131.288 5.00333 131.191 4.69333 130.998 4.52C130.804 4.34667 130.531 4.26 130.178 4.26C129.898 4.26 129.631 4.30333 129.378 4.39C129.124 4.47 128.888 4.56333 128.668 4.67L128.398 4.01C128.631 3.88333 128.908 3.77667 129.228 3.69C129.548 3.59667 129.881 3.55 130.228 3.55ZM131.278 6.38L130.488 6.41C129.821 6.43667 129.358 6.54333 129.098 6.73C128.844 6.91667 128.718 7.18 128.718 7.52C128.718 7.82 128.808 8.04 128.988 8.18C129.174 8.32 129.411 8.39 129.698 8.39C130.144 8.39 130.518 8.26667 130.818 8.02C131.124 7.76667 131.278 7.38 131.278 6.86V6.38ZM132.963 3.64H133.903L135.063 6.69C135.163 6.96333 135.253 7.22 135.333 7.46C135.413 7.7 135.473 7.93 135.513 8.15H135.553C135.593 7.98333 135.656 7.76667 135.743 7.5C135.83 7.22667 135.92 6.95333 136.013 6.68L137.103 3.64H138.053L135.743 9.74C135.55 10.2467 135.306 10.65 135.013 10.95C134.72 11.25 134.313 11.4 133.793 11.4C133.633 11.4 133.493 11.39 133.373 11.37C133.253 11.3567 133.15 11.34 133.063 11.32V10.62C133.136 10.6333 133.223 10.6467 133.323 10.66C133.43 10.6733 133.54 10.68 133.653 10.68C133.96 10.68 134.206 10.5933 134.393 10.42C134.58 10.2467 134.73 10.0167 134.843 9.73L135.123 9.02L132.963 3.64ZM142.391 7.52C142.391 8.04 142.197 8.43333 141.811 8.7C141.424 8.96667 140.904 9.1 140.251 9.1C139.877 9.1 139.554 9.07 139.281 9.01C139.014 8.95 138.777 8.86667 138.571 8.76V7.96C138.784 8.06667 139.041 8.16667 139.341 8.26C139.647 8.34667 139.957 8.39 140.271 8.39C140.717 8.39 141.041 8.32 141.241 8.18C141.441 8.03333 141.541 7.84 141.541 7.6C141.541 7.46667 141.504 7.34667 141.431 7.24C141.357 7.13333 141.224 7.02667 141.031 6.92C140.844 6.81333 140.574 6.69333 140.221 6.56C139.874 6.42667 139.577 6.29333 139.331 6.16C139.084 6.02667 138.894 5.86667 138.761 5.68C138.627 5.49333 138.561 5.25333 138.561 4.96C138.561 4.50667 138.744 4.15667 139.111 3.91C139.484 3.66333 139.971 3.54 140.571 3.54C140.897 3.54 141.201 3.57333 141.481 3.64C141.767 3.70667 142.034 3.79333 142.281 3.9L141.981 4.6C141.754 4.50667 141.517 4.42667 141.271 4.36C141.024 4.29333 140.771 4.26 140.511 4.26C140.151 4.26 139.874 4.32 139.681 4.44C139.494 4.55333 139.401 4.71 139.401 4.91C139.401 5.06333 139.444 5.19 139.531 5.29C139.617 5.39 139.761 5.49 139.961 5.59C140.167 5.69 140.441 5.80333 140.781 5.93C141.121 6.05667 141.411 6.18667 141.651 6.32C141.891 6.45333 142.074 6.61667 142.201 6.81C142.327 6.99667 142.391 7.23333 142.391 7.52Z" fill="white"/>
<path fill-rule="evenodd" clip-rule="evenodd" d="M29.3172 37C27.6698 41.6608 23.2249 45 18 45C11.3726 45 6 39.6274 6 33C6 26.3726 11.3726 21 18 21C23.2249 21 27.6698 24.3392 29.3172 29H110.683C112.33 24.3392 116.775 21 122 21C128.627 21 134 26.3726 134 33C134 39.6274 128.627 45 122 45C116.775 45 112.33 41.6608 110.683 37H29.3172Z" fill="#2E8540"/>
<circle cx="18" cy="33" r="12" fill="#2E8540"/>
<path d="M15.9942 35.8011L12.5173 32.0695L11.3333 33.3313L15.9942 38.3335L25.9999 27.5952L24.8243 26.3335L15.9942 35.8011Z" fill="white"/>
<circle cx="70" cy="33" r="12" fill="#2E8540"/>
<path d="M67.9942 35.8011L64.5173 32.0695L63.3333 33.3313L67.9942 38.3335L77.9999 27.5952L76.8243 26.3335L67.9942 35.8011Z" fill="white"/>
<circle cx="122" cy="33" r="12" fill="#D8D8D8"/>
<path d="M6.69 5.36C6.69 6.56667 6.36 7.47667 5.7 8.09C5.04667 8.69667 4.13333 9 2.96 9H0.97V1.86H3.17C3.88333 1.86 4.50333 1.99333 5.03 2.26C5.56333 2.52667 5.97333 2.92 6.26 3.44C6.54667 3.96 6.69 4.6 6.69 5.36ZM5.74 5.39C5.74 4.43667 5.50333 3.74 5.03 3.3C4.56333 2.85333 3.9 2.63 3.04 2.63H1.87V8.23H2.84C4.77333 8.23 5.74 7.28333 5.74 5.39ZM12.8147 6.31C12.8147 7.19667 12.588 7.88333 12.1347 8.37C11.688 8.85667 11.0814 9.1 10.3147 9.1C9.84135 9.1 9.41802 8.99333 9.04469 8.78C8.67802 8.56 8.38802 8.24333 8.17469 7.83C7.96135 7.41 7.85469 6.90333 7.85469 6.31C7.85469 5.42333 8.07469 4.74 8.51469 4.26C8.96135 3.78 9.57135 3.54 10.3447 3.54C10.8247 3.54 11.2514 3.65 11.6247 3.87C11.998 4.08333 12.288 4.39667 12.4947 4.81C12.708 5.21667 12.8147 5.71667 12.8147 6.31ZM8.76469 6.31C8.76469 6.94333 8.88802 7.44667 9.13469 7.82C9.38802 8.18667 9.78802 8.37 10.3347 8.37C10.8747 8.37 11.2714 8.18667 11.5247 7.82C11.778 7.44667 11.9047 6.94333 11.9047 6.31C11.9047 5.67667 11.778 5.18 11.5247 4.82C11.2714 4.46 10.8714 4.28 10.3247 4.28C9.77802 4.28 9.38135 4.46 9.13469 4.82C8.88802 5.18 8.76469 5.67667 8.76469 6.31ZM17.6994 7.52C17.6994 8.04 17.506 8.43333 17.1194 8.7C16.7327 8.96667 16.2127 9.1 15.5594 9.1C15.186 9.1 14.8627 9.07 14.5894 9.01C14.3227 8.95 14.086 8.86667 13.8794 8.76V7.96C14.0927 8.06667 14.3494 8.16667 14.6494 8.26C14.956 8.34667 15.266 8.39 15.5794 8.39C16.026 8.39 16.3494 8.32 16.5494 8.18C16.7494 8.03333 16.8494 7.84 16.8494 7.6C16.8494 7.46667 16.8127 7.34667 16.7394 7.24C16.666 7.13333 16.5327 7.02667 16.3394 6.92C16.1527 6.81333 15.8827 6.69333 15.5294 6.56C15.1827 6.42667 14.886 6.29333 14.6394 6.16C14.3927 6.02667 14.2027 5.86667 14.0694 5.68C13.936 5.49333 13.8694 5.25333 13.8694 4.96C13.8694 4.50667 14.0527 4.15667 14.4194 3.91C14.7927 3.66333 15.2794 3.54 15.8794 3.54C16.206 3.54 16.5094 3.57333 16.7894 3.64C17.076 3.70667 17.3427 3.79333 17.5894 3.9L17.2894 4.6C17.0627 4.50667 16.826 4.42667 16.5794 4.36C16.3327 4.29333 16.0794 4.26 15.8194 4.26C15.4594 4.26 15.1827 4.32 14.9894 4.44C14.8027 4.55333 14.7094 4.71 14.7094 4.91C14.7094 5.06333 14.7527 5.19 14.8394 5.29C14.926 5.39 15.0694 5.49 15.2694 5.59C15.476 5.69 15.7494 5.80333 16.0894 5.93C16.4294 6.05667 16.7194 6.18667 16.9594 6.32C17.1994 6.45333 17.3827 6.61667 17.5094 6.81C17.636 6.99667 17.6994 7.23333 17.6994 7.52ZM21.0645 3.54C21.5179 3.54 21.9112 3.64 22.2445 3.84C22.5779 4.04 22.8312 4.32333 23.0045 4.69C23.1845 5.05 23.2745 5.47333 23.2745 5.96V6.49H19.6045C19.6179 7.09667 19.7712 7.56 20.0645 7.88C20.3645 8.19333 20.7812 8.35 21.3145 8.35C21.6545 8.35 21.9545 8.32 22.2145 8.26C22.4812 8.19333 22.7545 8.1 23.0345 7.98V8.75C22.7612 8.87 22.4912 8.95667 22.2245 9.01C21.9579 9.07 21.6412 9.1 21.2745 9.1C20.7612 9.1 20.3112 8.99667 19.9245 8.79C19.5379 8.58333 19.2345 8.27667 19.0145 7.87C18.8012 7.46333 18.6945 6.96 18.6945 6.36C18.6945 5.77333 18.7912 5.27 18.9845 4.85C19.1845 4.43 19.4612 4.10667 19.8145 3.88C20.1745 3.65333 20.5912 3.54 21.0645 3.54ZM21.0545 4.26C20.6345 4.26 20.3012 4.39667 20.0545 4.67C19.8145 4.93667 19.6712 5.31 19.6245 5.79H22.3545C22.3479 5.33667 22.2412 4.97 22.0345 4.69C21.8279 4.40333 21.5012 4.26 21.0545 4.26ZM29.9367 9H29.0767V4.01C29.0767 3.72333 29.0801 3.49333 29.0867 3.32C29.0934 3.14667 29.1034 2.96667 29.1167 2.78C29.0101 2.88667 28.9101 2.97667 28.8167 3.05C28.7301 3.12333 28.6234 3.21667 28.4967 3.33L27.7367 3.95L27.2767 3.36L29.2067 1.86H29.9367V9Z" fill="white"/>
<path d="M59.69 5.36C59.69 6.56667 59.36 7.47667 58.7 8.09C58.0467 8.69667 57.1333 9 55.96 9H53.97V1.86H56.17C56.8833 1.86 57.5033 1.99333 58.03 2.26C58.5633 2.52667 58.9733 2.92 59.26 3.44C59.5467 3.96 59.69 4.6 59.69 5.36ZM58.74 5.39C58.74 4.43667 58.5033 3.74 58.03 3.3C57.5633 2.85333 56.9 2.63 56.04 2.63H54.87V8.23H55.84C57.7733 8.23 58.74 7.28333 58.74 5.39ZM65.8147 6.31C65.8147 7.19667 65.588 7.88333 65.1347 8.37C64.688 8.85667 64.0814 9.1 63.3147 9.1C62.8414 9.1 62.418 8.99333 62.0447 8.78C61.678 8.56 61.388 8.24333 61.1747 7.83C60.9614 7.41 60.8547 6.90333 60.8547 6.31C60.8547 5.42333 61.0747 4.74 61.5147 4.26C61.9614 3.78 62.5714 3.54 63.3447 3.54C63.8247 3.54 64.2514 3.65 64.6247 3.87C64.998 4.08333 65.288 4.39667 65.4947 4.81C65.708 5.21667 65.8147 5.71667 65.8147 6.31ZM61.7647 6.31C61.7647 6.94333 61.888 7.44667 62.1347 7.82C62.388 8.18667 62.788 8.37 63.3347 8.37C63.8747 8.37 64.2714 8.18667 64.5247 7.82C64.778 7.44667 64.9047 6.94333 64.9047 6.31C64.9047 5.67667 64.778 5.18 64.5247 4.82C64.2714 4.46 63.8714 4.28 63.3247 4.28C62.778 4.28 62.3814 4.46 62.1347 4.82C61.888 5.18 61.7647 5.67667 61.7647 6.31ZM70.6994 7.52C70.6994 8.04 70.506 8.43333 70.1194 8.7C69.7327 8.96667 69.2127 9.1 68.5594 9.1C68.186 9.1 67.8627 9.07 67.5894 9.01C67.3227 8.95 67.086 8.86667 66.8794 8.76V7.96C67.0927 8.06667 67.3494 8.16667 67.6494 8.26C67.956 8.34667 68.266 8.39 68.5794 8.39C69.026 8.39 69.3494 8.32 69.5494 8.18C69.7494 8.03333 69.8494 7.84 69.8494 7.6C69.8494 7.46667 69.8127 7.34667 69.7394 7.24C69.666 7.13333 69.5327 7.02667 69.3394 6.92C69.1527 6.81333 68.8827 6.69333 68.5294 6.56C68.1827 6.42667 67.886 6.29333 67.6394 6.16C67.3927 6.02667 67.2027 5.86667 67.0694 5.68C66.936 5.49333 66.8694 5.25333 66.8694 4.96C66.8694 4.50667 67.0527 4.15667 67.4194 3.91C67.7927 3.66333 68.2794 3.54 68.8794 3.54C69.206 3.54 69.5094 3.57333 69.7894 3.64C70.076 3.70667 70.3427 3.79333 70.5894 3.9L70.2894 4.6C70.0627 4.50667 69.826 4.42667 69.5794 4.36C69.3327 4.29333 69.0794 4.26 68.8194 4.26C68.4594 4.26 68.1827 4.32 67.9894 4.44C67.8027 4.55333 67.7094 4.71 67.7094 4.91C67.7094 5.06333 67.7527 5.19 67.8394 5.29C67.926 5.39 68.0694 5.49 68.2694 5.59C68.476 5.69 68.7494 5.80333 69.0894 5.93C69.4294 6.05667 69.7194 6.18667 69.9594 6.32C70.1994 6.45333 70.3827 6.61667 70.5094 6.81C70.636 6.99667 70.6994 7.23333 70.6994 7.52ZM74.0645 3.54C74.5179 3.54 74.9112 3.64 75.2445 3.84C75.5779 4.04 75.8312 4.32333 76.0045 4.69C76.1845 5.05 76.2745 5.47333 76.2745 5.96V6.49H72.6045C72.6179 7.09667 72.7712 7.56 73.0645 7.88C73.3645 8.19333 73.7812 8.35 74.3145 8.35C74.6545 8.35 74.9545 8.32 75.2145 8.26C75.4812 8.19333 75.7545 8.1 76.0345 7.98V8.75C75.7612 8.87 75.4912 8.95667 75.2245 9.01C74.9579 9.07 74.6412 9.1 74.2745 9.1C73.7612 9.1 73.3112 8.99667 72.9245 8.79C72.5379 8.58333 72.2345 8.27667 72.0145 7.87C71.8012 7.46333 71.6945 6.96 71.6945 6.36C71.6945 5.77333 71.7912 5.27 71.9845 4.85C72.1845 4.43 72.4612 4.10667 72.8145 3.88C73.1745 3.65333 73.5912 3.54 74.0645 3.54ZM74.0545 4.26C73.6345 4.26 73.3012 4.39667 73.0545 4.67C72.8145 4.93667 72.6712 5.31 72.6245 5.79H75.3545C75.3479 5.33667 75.2412 4.97 75.0345 4.69C74.8279 4.40333 74.5012 4.26 74.0545 4.26ZM84.5867 9H79.8667V8.27L81.7367 6.38C82.0901 6.02 82.3901 5.7 82.6367 5.42C82.8901 5.14 83.0801 4.86667 83.2067 4.6C83.3334 4.33333 83.3967 4.03667 83.3967 3.71C83.3967 3.31667 83.2801 3.02 83.0467 2.82C82.8134 2.61333 82.5101 2.51 82.1367 2.51C81.7834 2.51 81.4767 2.57 81.2167 2.69C80.9567 2.81 80.6901 2.97667 80.4167 3.19L79.9467 2.6C80.2267 2.36667 80.5467 2.17 80.9067 2.01C81.2734 1.84333 81.6834 1.76 82.1367 1.76C82.8034 1.76 83.3301 1.93 83.7167 2.27C84.1034 2.61 84.2967 3.07333 84.2967 3.66C84.2967 4.03333 84.2201 4.38333 84.0667 4.71C83.9134 5.03667 83.7001 5.36 83.4267 5.68C83.1534 6 82.8334 6.33667 82.4667 6.69L80.9767 8.16V8.2H84.5867V9Z" fill="white"/>
<rect x="95" y="29" width="18" height="8" fill="#D8D8D8"/>
</svg>
