<svg width="117" height="26" viewBox="0 0 117 26" fill="none" xmlns="http://www.w3.org/2000/svg">
<path d="M0 0L117 0V26H5.41667L0 0Z" fill="#E86472"/>
<path d="M19.1379 10.824C19.7619 10.824 20.4219 11.088 21.0579 11.388L21.6459 9.912C20.8659 9.54 19.9899 9.312 19.1379 9.312C16.5579 9.312 15.1179 11.136 15.1179 13.728C15.1179 16.368 16.3059 18.12 18.9699 18.12C19.8819 18.12 20.5659 17.976 21.3219 17.676V16.152C20.5059 16.44 19.8219 16.608 19.1379 16.608C17.6379 16.608 16.9899 15.564 16.9899 13.74C16.9899 11.928 17.7459 10.824 19.1379 10.824ZM30.6841 13.704C30.6841 11.04 29.4001 9.3 26.6161 9.3C23.8081 9.3 22.5241 11.04 22.5241 13.692C22.5241 16.356 23.8081 18.12 26.6041 18.12C29.4001 18.12 30.6841 16.356 30.6841 13.704ZM24.4321 13.704C24.4321 11.916 25.0801 10.812 26.6161 10.812C28.1521 10.812 28.7761 11.916 28.7761 13.704C28.7761 15.492 28.1521 16.596 26.6041 16.596C25.0801 16.596 24.4321 15.492 24.4321 13.704ZM31.2617 9.432L34.1657 18H36.1457L39.0617 9.432H37.2257L35.6057 14.532C35.5217 14.772 35.2337 15.924 35.1617 16.416C35.0897 15.924 34.7657 14.772 34.7057 14.532L33.0977 9.432H31.2617ZM39.4504 9.432V10.464L40.4944 10.944V16.488L39.4504 16.968V18H43.3504V16.968L42.3064 16.488V10.944L43.3504 10.464V9.432H39.4504ZM51.9145 13.632C51.9145 10.896 50.1745 9.432 47.4985 9.432H44.8105V18H47.2345C50.1745 18 51.9145 16.524 51.9145 13.632ZM50.0305 13.68C50.0305 15.564 49.1545 16.5 47.4025 16.5H46.6225V10.92H47.5945C49.1785 10.92 50.0305 11.796 50.0305 13.68ZM56.1173 15.516V14.052H52.9733V15.516H56.1173ZM61.4365 9.432H59.9485L57.1885 11.628L58.0645 12.72L59.0485 11.928C59.2765 11.736 59.5885 11.436 59.6725 11.34C59.6605 11.592 59.6485 11.892 59.6365 12.228C59.6245 12.576 59.6245 12.84 59.6245 13.044V18H61.4365V9.432ZM69.7797 13.092C69.7797 10.512 68.3877 9.336 66.6477 9.336C65.7477 9.336 65.0397 9.6 64.5237 10.128C63.9957 10.656 63.7317 11.388 63.7317 12.312C63.7317 14.04 64.6917 15.024 66.1437 15.024C66.6837 15.024 67.1037 14.928 67.3797 14.736C67.6557 14.544 67.8717 14.304 68.0397 14.028H68.1117C68.0397 15.624 67.4997 16.704 65.3637 16.704C65.0157 16.704 64.6557 16.644 64.3317 16.584V18.036C64.6317 18.096 65.1477 18.12 65.4837 18.12C69.0477 18.12 69.7797 15.54 69.7797 13.092ZM66.6837 10.788C67.5477 10.788 67.9797 11.652 67.9797 12.444C67.9797 13.008 67.4397 13.632 66.6477 13.632C65.8677 13.632 65.4837 13.116 65.4837 12.288C65.4837 11.268 65.9757 10.788 66.6837 10.788Z" fill="#FEE100"/>
<path d="M73.716 9.432V10.464L74.76 10.944V16.488L73.716 16.968V18H77.616V16.968L76.572 16.488V10.944L77.616 10.464V9.432H73.716ZM79.0761 18H80.6961V13.968L80.5881 11.52H80.6361L84.3681 18H86.6721V9.432H85.0401V13.488C85.0521 14.292 85.0881 15.072 85.1241 15.852H85.0881L81.3681 9.432H79.0761V18ZM91.955 18H95.159C97.091 18 98.303 17.064 98.303 15.516C98.303 14.16 97.619 13.704 96.767 13.512V13.452C97.619 13.308 98.087 12.576 98.087 11.604C98.087 9.984 96.887 9.432 94.619 9.432H91.955V18ZM93.767 14.268H94.895C96.047 14.268 96.419 14.7 96.419 15.336C96.419 16.044 96.047 16.5 94.955 16.5H93.767V14.268ZM94.727 10.92C95.771 10.92 96.227 11.184 96.227 11.844C96.227 12.504 95.879 12.828 94.823 12.828H93.767V10.92H94.727ZM103.654 10.824C104.278 10.824 104.938 11.088 105.574 11.388L106.162 9.912C105.382 9.54 104.506 9.312 103.654 9.312C101.074 9.312 99.6335 11.136 99.6335 13.728C99.6335 16.368 100.822 18.12 103.486 18.12C104.398 18.12 105.082 17.976 105.838 17.676V16.152C105.022 16.44 104.338 16.608 103.654 16.608C102.154 16.608 101.506 15.564 101.506 13.74C101.506 11.928 102.262 10.824 103.654 10.824Z" fill="white"/>
</svg>
