<svg width="390" height="246" viewBox="0 0 390 246" fill="none" xmlns="http://www.w3.org/2000/svg">
<path fill-rule="evenodd" clip-rule="evenodd" d="M25.1367 0L59.0728 192L203.732 152.088L176.851 0H25.1367Z" fill="white"/>
<path fill-rule="evenodd" clip-rule="evenodd" d="M0 0L38.6206 177.061C42.043 192.752 57.5498 202.705 73.2402 199.281L205.87 170.354C221.56 166.93 231.514 151.424 228.091 135.732L198.485 0H168.712L187.789 87.459C188.641 91.3672 186.141 95.2617 182.233 96.1133L63.8145 121.943C59.9062 122.797 56.0117 120.297 55.1592 116.389L29.7725 0H0ZM112.342 151.057C114.628 161.535 124.942 168.156 135.422 165.871C145.902 163.584 152.522 153.27 150.236 142.791C147.951 132.311 137.637 125.689 127.157 127.977C116.677 130.262 110.056 140.576 112.342 151.057Z" fill="#313132"/>
<path d="M189.616 163.248C166.579 121.849 181.764 69.8959 223.455 47.4514C265.145 25.0068 317.82 40.426 340.857 81.8246C363.894 123.223 348.708 175.177 307.018 197.621C265.328 220.066 212.652 204.647 189.616 163.248Z" fill="#66B032" stroke="#FFDD00" stroke-width="10"/>
<path fill-rule="evenodd" clip-rule="evenodd" d="M257.675 141.373L277.809 72.4798C278.761 69.2213 282.033 67.4596 285.171 68.5165L294.226 71.0316C297.366 72.0868 299.174 75.3358 298.293 78.3411L273.913 161.766C272.87 164.862 269.598 166.623 266.551 165.729L225.656 153.756C222.606 152.863 220.798 149.614 221.588 146.447L224.315 137.589C225.103 134.418 228.376 132.657 231.676 133.626L257.675 141.373Z" fill="white"/>
</svg>
