<svg width="222" height="53" viewBox="0 0 222 53" fill="none" xmlns="http://www.w3.org/2000/svg">
<g clip-path="url(#clip0)">
<path d="M44.44 17.82L43.35 0.719967C43.21 0.309967 42.54 0.299967 42.53 0.719967C42.46 4.40997 35.95 1.31997 33.64 0.789967C13.54 -3.79003 0 12.35 0 25.75C0 43.12 11.49 52.55 26.26 52.55C38.02 52.55 43.97 45.03 45.88 36.89C46.12 35.87 44.97 36.08 44.72 36.89C41.16 48.24 32.34 51.11 27.97 51.04C18.46 50.9 9.62 43.24 9.3 25.74C8.89 3.44997 34.07 -11.14 43.63 17.53C43.82 18.16 44.3 18.29 44.44 17.82Z" fill="black"/>
<path d="M52.64 20.5502C57.84 18.3602 71.92 19.0502 71.92 25.4702V45.2302C71.92 50.6302 77.25 52.4802 78.76 48.8502C79.24 48.3702 80.06 48.7102 79.65 49.5302C78.69 53.3602 69.26 53.9702 65.97 48.8502C47.85 62.0502 36.29 36.0602 57.97 35.6502C64.74 34.6202 65.49 30.7302 65.49 27.9902C65.49 21.2202 61.93 20.6102 59.82 20.6102C57.56 20.6102 55.72 21.2902 54.49 24.7802C52.58 31.7602 42.11 25.5402 52.64 20.5502ZM57.29 50.9802C61.6 51.5302 65.43 47.6302 65.43 43.8002V34.5002C47.04 41.2702 52.78 50.7002 57.29 50.9802Z" fill="black"/>
<path d="M89.2299 19.8701L80.4099 21.0301C79.8599 21.1701 79.8599 21.4401 80.8899 21.7101C82.8099 21.7801 84.0399 23.0801 84.0399 25.8801V46.4601C84.0399 48.9201 80.5899 51.0801 79.8699 51.3801C78.2299 52.0601 80.6899 51.9201 80.6899 51.9201H95.1199C95.5999 51.9201 97.0999 52.0601 95.1899 51.1701C92.9999 50.3501 90.6099 48.5701 90.6099 46.4501C90.6099 44.3301 90.6099 31.0001 90.6099 31.0001C90.6099 24.5001 94.8499 20.9501 99.0199 20.9501C103.4 20.9501 107.02 21.9101 107.02 30.9301V46.4501C107.02 48.7101 104.08 50.7601 102.51 51.3101C101.48 51.5801 101.07 51.9201 101.96 51.9201H117.34C118.16 51.9901 118.5 51.7201 117.75 51.5101C114.06 50.0801 113.58 47.3401 113.58 46.4501V28.4001C113.58 18.0701 103.66 19.4401 100.18 19.4401C95.7999 19.5101 91.1499 22.2401 90.6699 23.4701C90.5299 20.1401 90.1199 19.8001 89.2299 19.8701Z" fill="black"/>
<path d="M175.38 49.3997C173.88 51.9997 170.18 52.6097 165.6 52.6097C156.92 52.6097 149.8 45.9097 149.8 36.7497C149.8 28.6097 154.38 19.4497 166.07 19.4497C176.6 19.4497 176.53 26.4897 176.53 20.6097V10.2797C176.53 4.94975 174.41 3.36975 172.77 2.89975C170.38 2.07975 167.3 1.93975 172.22 1.93975L181.38 1.73975C180.83 1.87975 182 1.87975 182 2.69975V43.0397C182 45.8397 183.02 50.1497 187.54 51.3797C187.95 51.4497 188.43 51.7197 187.95 51.8597L177.97 52.9497C176.54 53.0897 175.92 52.3997 175.3 49.5997L175.38 49.3997ZM166.49 50.9797C171.94 50.9797 175.58 48.8597 175.58 36.1397C175.58 24.0397 171.94 21.0997 166.49 21.0997C161.04 21.0997 156.62 28.1597 156.62 36.2797C156.63 44.3897 161.04 50.9797 166.49 50.9797Z" fill="black"/>
<path d="M124.85 20.5199C130.05 18.3299 144.13 19.0199 144.13 25.4399V45.1999C144.13 50.5999 149.46 52.4499 150.97 48.8199C151.45 48.3399 152.27 48.6799 151.86 49.4999C150.9 53.3299 141.47 53.9399 138.18 48.8199C120.06 62.0199 108.51 36.0299 130.18 35.6199C136.95 34.5999 137.7 30.6999 137.7 27.9599C137.7 21.1899 134.14 20.5799 132.02 20.5799C129.76 20.5799 127.92 21.2699 126.69 24.7499C124.78 31.7299 114.32 25.5099 124.85 20.5199ZM129.5 50.9399C133.81 51.4899 137.64 47.5899 137.64 43.7599V34.4599C119.24 41.2299 124.99 50.6699 129.5 50.9399Z" fill="black"/>
<path d="M194.32 20.5799C199.52 18.3899 213.6 19.0799 213.6 25.4999V45.2599C213.6 50.6599 218.93 52.51 220.44 48.88C220.92 48.4 221.74 48.74 221.33 49.56C220.37 53.39 210.94 54 207.66 48.88C189.54 62.08 177.98 36.0899 199.66 35.6899C206.43 34.6599 207.18 30.76 207.18 28.03C207.18 21.26 203.62 20.6499 201.5 20.6499C199.24 20.6499 197.4 21.3399 196.17 24.8199C194.25 31.7999 183.79 25.5799 194.32 20.5799ZM198.97 51.0099C203.28 51.5599 207.11 47.66 207.11 43.83V34.5299C188.71 41.2999 194.46 50.7399 198.97 51.0099Z" fill="black"/>
<path d="M193.84 1.75H186.32V17.07H193.84V1.75Z" fill="#EF3E42"/>
<path d="M218.05 1.75H210.53V17.07H218.05V1.75Z" fill="#EF3E42"/>
<path d="M201.14 4.93023L202.22 2.74023L203.29 4.85023C203.42 5.07023 203.53 5.06023 203.74 4.95023L204.65 4.50023L204.05 7.44023C203.93 8.02023 204.26 8.19023 204.61 7.80023L205.92 6.40023L206.26 7.19023C206.38 7.43023 206.55 7.39023 206.79 7.35023L208.14 7.07023L207.69 8.78023L207.68 8.82023C207.63 9.04023 207.52 9.23023 207.77 9.34023L208.25 9.58023L205.47 11.9402C205.18 12.2402 205.28 12.3202 205.39 12.6502L205.65 13.4402L203.05 12.9702C202.73 12.8902 202.51 12.8902 202.5 13.1502L202.61 16.1302H201.83L201.94 13.1602C201.94 12.8702 201.72 12.8802 201.19 12.9802L198.79 13.4402L199.1 12.6502C199.21 12.3502 199.23 12.1402 198.99 11.9402L196.14 9.62023L196.66 9.30023C196.81 9.19023 196.82 9.06024 196.74 8.80023L196.21 7.07023L197.58 7.36023C197.96 7.45023 198.07 7.36023 198.17 7.15023L198.55 6.37023L199.9 7.90023C200.14 8.18023 200.48 8.00023 200.37 7.59023L199.72 4.40023L200.72 4.98023C200.88 5.08023 201.05 5.10023 201.15 4.92023" fill="#EF3E42"/>
</g>
<defs>
<clipPath id="clip0">
<rect width="221.44" height="52.97" fill="white"/>
</clipPath>
</defs>
</svg>
