<svg width="582" height="143" viewBox="0 0 582 143" fill="none" xmlns="http://www.w3.org/2000/svg">
<g clip-path="url(#clip0_48_1061)">
<g clip-path="url(#clip1_48_1061)">
<path d="M213.725 100.68C210.975 100.68 210.855 100.8 210.855 102.52V110.61C210.855 116.63 211.145 117.44 214.355 117.78L216.015 117.95C216.355 118.18 216.245 119.21 215.905 119.38C212.805 119.26 210.855 119.21 208.615 119.21C206.145 119.21 204.195 119.32 201.955 119.38C201.615 119.21 201.495 118.29 201.835 117.95L202.815 117.78C206.025 117.21 206.145 116.63 206.145 110.61V89.9599C206.145 83.9399 205.745 82.9599 202.755 82.7299L201.265 82.6199C200.925 82.3899 201.035 81.3599 201.375 81.1899C204.185 81.2499 206.135 81.3599 208.605 81.3599C210.845 81.3599 212.795 81.2999 215.265 81.1899C215.605 81.3599 215.725 82.3999 215.375 82.6199L214.285 82.7299C210.955 83.0699 210.845 83.9299 210.845 89.9599V96.5599C210.845 98.3399 210.955 98.3999 213.715 98.3999H230.125C232.875 98.3999 232.995 98.3399 232.995 96.5599V89.9599C232.995 83.9399 232.885 83.0799 229.495 82.7299L228.405 82.6199C228.065 82.3899 228.175 81.3599 228.515 81.1899C231.155 81.2999 233.105 81.3599 235.455 81.3599C237.805 81.3599 239.645 81.2999 242.225 81.1899C242.565 81.3599 242.685 82.3999 242.345 82.6199L241.135 82.7299C237.805 83.0699 237.695 83.9299 237.695 89.9599V110.61C237.695 116.63 237.805 117.38 241.135 117.78L242.515 117.95C242.855 118.18 242.745 119.21 242.405 119.38C239.655 119.26 237.705 119.21 235.465 119.21C233.115 119.21 231.045 119.27 228.525 119.38C228.185 119.21 228.065 118.29 228.415 117.95L229.505 117.78C233.005 117.21 233.005 116.63 233.005 110.61V102.52C233.005 100.8 232.895 100.68 230.135 100.68H213.725Z" fill="#234075"/>
<path d="M249.186 104.52C247.696 104.52 247.636 104.63 247.636 106.07C247.636 111.86 251.026 116.8 257.156 116.8C259.046 116.8 260.656 116.23 262.436 113.99C263.006 113.82 263.416 114.16 263.466 114.68C261.576 118.58 257.446 120.02 254.456 120.02C250.726 120.02 247.806 118.41 246.136 116.23C244.416 113.99 243.726 111.3 243.726 108.77C243.726 101.71 248.376 95.7999 255.256 95.7999C260.186 95.7999 263.406 99.1899 263.406 102.63C263.406 103.43 263.286 103.89 263.176 104.12C263.006 104.46 262.206 104.52 259.796 104.52H249.186ZM252.746 102.8C256.996 102.8 258.256 102.57 258.716 102.23C258.886 102.12 259.056 101.89 259.056 101.14C259.056 99.5299 257.966 97.5299 254.636 97.5299C251.306 97.5299 248.326 100.63 248.266 102.52C248.266 102.64 248.266 102.81 248.666 102.81H252.736L252.746 102.8Z" fill="#234075"/>
<path d="M278.035 107.33C278.895 107.04 279.005 106.53 279.005 105.67L279.065 103.03C279.125 100.91 278.435 98.0399 274.875 98.0399C273.265 98.0399 271.315 98.8399 271.205 100.62C271.145 101.54 271.095 102.23 270.635 102.57C269.775 103.26 268.225 103.66 267.365 103.66C266.845 103.66 266.565 103.37 266.565 102.86C266.565 99.8799 273.045 95.7999 277.235 95.7999C281.425 95.7999 283.375 98.2099 283.205 102.51L282.865 112.49C282.745 115.13 283.265 117.48 285.505 117.48C286.075 117.48 286.595 117.31 286.935 117.14C287.225 116.97 287.505 116.74 287.685 116.74C287.915 116.74 288.085 117.08 288.085 117.49C288.085 117.78 286.075 120.01 283.265 120.01C281.885 120.01 280.515 119.49 279.535 118.23C279.305 117.89 278.965 117.43 278.615 117.43C278.215 117.43 277.525 117.95 276.375 118.58C275.115 119.27 273.855 120.01 272.245 120.01C270.635 120.01 269.205 119.55 268.225 118.69C267.135 117.71 266.445 116.28 266.445 114.67C266.445 112.43 267.535 111.11 271.205 109.79L278.035 107.32V107.33ZM274.475 117.43C275.625 117.43 277.405 116.57 277.975 116C278.665 115.31 278.665 114.51 278.725 113.3L278.835 109.92C278.835 109.29 278.605 109.17 278.265 109.17C277.925 109.17 276.945 109.4 275.915 109.74C272.535 110.89 270.865 111.75 270.865 113.99C270.865 114.97 271.555 117.43 274.475 117.43Z" fill="#234075"/>
<path d="M296.916 112.79C296.916 116.92 297.026 117.49 299.096 117.78L300.476 117.95C300.876 118.24 300.766 119.21 300.356 119.38C298.466 119.26 296.796 119.21 294.796 119.21C292.796 119.21 291.006 119.27 289.286 119.38C288.886 119.21 288.766 118.23 289.166 117.95L290.486 117.78C292.606 117.49 292.666 116.92 292.666 112.79V86.86C292.666 83.47 292.606 83.13 290.886 82.1L290.316 81.76C290.026 81.59 290.026 80.78 290.316 80.61C291.746 80.15 294.446 79.29 296.516 78.2C296.746 78.2 296.976 78.32 297.086 78.54C297.026 80.26 296.916 83.13 296.916 85.65V112.79Z" fill="#234075"/>
<path d="M309.816 99.0199C308.836 99.0199 308.786 99.19 308.786 100.4V111.13C308.786 114.46 309.186 117.5 312.976 117.5C313.546 117.5 314.066 117.39 314.526 117.21C315.046 117.04 315.786 116.41 315.956 116.41C316.416 116.41 316.646 117.04 316.526 117.39C315.496 118.59 313.426 120.03 310.506 120.03C305.576 120.03 304.536 117.28 304.536 113.83V100.69C304.536 99.14 304.476 99.03 303.326 99.03H301.716C301.376 98.8 301.316 98.17 301.546 97.83C303.206 97.31 304.646 96.57 305.216 96.05C305.966 95.36 307.056 93.81 307.626 92.66C307.916 92.55 308.606 92.5499 308.836 92.9499V95.53C308.836 96.56 308.896 96.62 309.866 96.62H316.236C316.926 97.14 316.806 98.69 316.296 99.03H309.816V99.0199Z" fill="#234075"/>
<path d="M322.155 86.8499C322.155 83.4599 322.095 83.1199 320.375 82.0899L319.805 81.7499C319.515 81.5799 319.515 80.7699 319.805 80.5999C321.235 80.1399 323.935 79.2799 326.005 78.1899C326.235 78.1899 326.465 78.3099 326.575 78.5299C326.515 80.2499 326.405 83.1199 326.405 85.6399V97.6899C326.405 98.2099 326.465 98.6699 326.635 98.7799C328.705 97.1699 331.455 95.7999 334.385 95.7999C339.835 95.7999 341.785 99.1899 341.785 103.2V112.78C341.785 116.91 341.905 117.54 343.965 117.77L345.515 117.94C345.915 118.23 345.805 119.2 345.405 119.37C343.335 119.25 341.675 119.2 339.665 119.2C337.655 119.2 335.875 119.26 334.325 119.37C333.925 119.2 333.805 118.22 334.215 117.94L335.365 117.77C337.485 117.43 337.545 116.91 337.545 112.78V104.58C337.545 100.91 335.765 98.4399 332.095 98.4399C330.145 98.4399 328.655 99.1299 327.615 99.9899C326.585 100.85 326.415 101.14 326.415 103.15V112.79C326.415 116.92 326.525 117.49 328.595 117.78L329.805 117.95C330.205 118.18 330.095 119.21 329.685 119.38C327.965 119.26 326.305 119.21 324.295 119.21C322.285 119.21 320.505 119.27 318.675 119.38C318.275 119.21 318.155 118.23 318.565 117.95L319.995 117.78C322.115 117.55 322.175 116.92 322.175 112.79V86.8599L322.155 86.8499Z" fill="#234075"/>
<path d="M395.875 113.36C395.875 115.65 396.215 117.03 397.255 117.43C397.425 117.6 397.425 117.95 397.195 118.12C396.505 118.12 395.475 118.35 394.385 118.64C391.345 119.44 387.215 120.13 384.115 120.13C377.285 120.13 371.035 118.24 366.615 113.76C363.175 110.32 361.335 105.79 361.335 100.74C361.335 95.6899 362.945 90.9299 366.495 87.1399C370.335 83.1199 376.015 80.4299 384.685 80.4299C387.955 80.4299 390.995 81.0599 391.975 81.2899C393.065 81.5199 394.845 81.9199 395.535 81.8099C395.535 83.6999 395.875 86.6899 396.395 90.1299C396.225 90.5899 395.185 90.6499 394.845 90.2999C393.235 84.0999 388.935 82.1499 383.085 82.1499C371.955 82.1499 367.075 90.0699 367.075 98.6699C367.075 109.69 372.755 118.35 384.285 118.35C387.845 118.35 389.965 117.6 390.595 116.63C390.885 116.23 391.165 115.2 391.165 113.36V111.07C391.165 106.25 390.995 105.91 387.435 105.5L384.915 105.21C384.455 104.98 384.515 103.95 384.915 103.78C386.575 103.89 389.735 103.95 393.115 103.95C395.355 103.95 397.305 103.89 399.195 103.78C399.595 104.01 399.655 104.87 399.255 105.21L398.335 105.32C395.925 105.61 395.865 107.21 395.865 110.14V113.35L395.875 113.36Z" fill="#234075"/>
<path d="M413.655 107.33C414.515 107.04 414.635 106.53 414.635 105.67L414.695 103.03C414.755 100.91 414.065 98.0399 410.505 98.0399C408.895 98.0399 406.945 98.8399 406.835 100.62C406.775 101.54 406.715 102.23 406.265 102.57C405.405 103.26 403.855 103.66 402.995 103.66C402.475 103.66 402.195 103.37 402.195 102.86C402.195 99.8799 408.675 95.7999 412.865 95.7999C417.055 95.7999 419.005 98.2099 418.835 102.51L418.495 112.49C418.375 115.13 418.895 117.48 421.135 117.48C421.705 117.48 422.225 117.31 422.565 117.14C422.855 116.97 423.135 116.74 423.315 116.74C423.545 116.74 423.715 117.08 423.715 117.49C423.715 117.78 421.705 120.01 418.895 120.01C417.515 120.01 416.145 119.49 415.165 118.23C414.935 117.89 414.595 117.43 414.245 117.43C413.845 117.43 413.155 117.95 412.005 118.58C410.745 119.27 409.485 120.01 407.875 120.01C406.265 120.01 404.835 119.55 403.855 118.69C402.765 117.71 402.075 116.28 402.075 114.67C402.075 112.43 403.165 111.11 406.835 109.79L413.665 107.32L413.655 107.33ZM410.095 117.43C411.245 117.43 413.025 116.57 413.595 116C414.285 115.31 414.285 114.51 414.345 113.3L414.455 109.92C414.455 109.29 414.225 109.17 413.885 109.17C413.545 109.17 412.565 109.4 411.535 109.74C408.155 110.89 406.485 111.75 406.485 113.99C406.485 114.97 407.175 117.43 410.105 117.43H410.095Z" fill="#234075"/>
<path d="M432.405 99.0199C431.435 99.0199 431.375 99.19 431.375 100.4V111.13C431.375 114.46 431.775 117.5 435.565 117.5C436.135 117.5 436.655 117.39 437.115 117.21C437.635 117.04 438.375 116.41 438.545 116.41C439.005 116.41 439.235 117.04 439.115 117.39C438.085 118.59 436.015 120.03 433.095 120.03C428.165 120.03 427.125 117.28 427.125 113.83V100.69C427.125 99.14 427.065 99.03 425.915 99.03H424.305C423.965 98.8 423.905 98.17 424.135 97.83C425.795 97.31 427.235 96.57 427.805 96.05C428.555 95.36 429.645 93.81 430.215 92.66C430.505 92.55 431.185 92.5499 431.425 92.9499V95.53C431.425 96.56 431.485 96.62 432.455 96.62H438.825C439.515 97.14 439.395 98.69 438.885 99.03H432.405V99.0199Z" fill="#234075"/>
<path d="M446.005 104.52C444.515 104.52 444.455 104.63 444.455 106.07C444.455 111.86 447.835 116.8 453.975 116.8C455.865 116.8 457.475 116.23 459.255 113.99C459.825 113.82 460.225 114.16 460.285 114.68C458.395 118.58 454.265 120.02 451.275 120.02C447.545 120.02 444.615 118.41 442.955 116.23C441.235 113.99 440.545 111.3 440.545 108.77C440.545 101.71 445.195 95.7999 452.075 95.7999C457.005 95.7999 460.225 99.1899 460.225 102.63C460.225 103.43 460.105 103.89 459.995 104.12C459.825 104.46 459.015 104.52 456.605 104.52H445.995H446.005ZM449.565 102.8C453.815 102.8 455.075 102.57 455.535 102.23C455.705 102.12 455.885 101.89 455.885 101.14C455.885 99.5299 454.795 97.5299 451.465 97.5299C448.135 97.5299 445.155 100.63 445.095 102.52C445.095 102.64 445.095 102.81 445.495 102.81H449.565V102.8Z" fill="#234075"/>
<path d="M465.916 102.17C464.596 98.9599 463.906 98.3799 462.476 98.0399L461.556 97.8099C461.266 97.5199 461.216 96.6599 461.726 96.4299C463.506 96.5399 465.106 96.5999 466.836 96.5999C468.566 96.5999 470.276 96.5399 471.826 96.4299C472.286 96.6599 472.346 97.5199 471.936 97.8099L470.616 98.0399C469.816 98.1499 469.356 98.4999 469.356 98.8399C469.356 99.1799 469.646 100.27 470.276 101.82L473.836 110.6C474.356 111.92 474.866 112.95 474.866 113.07C475.036 112.96 475.496 111.98 476.186 110.32L478.996 103.38C479.746 101.54 479.796 100.8 479.516 100.05C478.996 98.7899 478.136 98.3299 476.876 98.0399L475.956 97.8099C475.556 97.4699 475.666 96.5999 476.126 96.4299C477.556 96.5399 479.396 96.5999 480.886 96.5999C482.666 96.5999 484.386 96.5399 486.336 96.4299C486.856 96.5999 486.856 97.5199 486.506 97.8099L485.296 98.0399C483.006 98.4999 483.116 98.6699 483.806 100.68C484.436 102.57 487.536 109.86 488.166 111.41C488.516 112.27 488.736 112.9 488.916 113.02C489.036 112.91 489.316 112.33 489.716 111.41C490.456 109.75 492.756 103.66 493.616 101.26C494.076 99.9399 494.186 99.1899 494.186 98.7899C494.186 98.4499 493.846 98.1599 493.156 98.0399L491.726 97.8099C491.266 97.5199 491.376 96.5999 491.786 96.4299C493.446 96.5399 494.886 96.5999 496.316 96.5999C497.406 96.5999 498.786 96.5399 500.046 96.4299C500.506 96.6599 500.566 97.5199 500.216 97.8099L499.066 98.0399C497.686 98.3299 497.176 99.1299 495.966 101.65C494.416 104.86 491.666 111.75 490.576 114.67C489.776 116.74 489.086 118.4 488.626 119.89C488.396 120.06 488.166 120.12 487.886 120.12C487.656 120.12 487.426 120.06 487.256 119.89C486.916 118.86 485.876 115.87 484.906 113.58L482.156 106.98C481.756 105.95 480.896 104.05 480.836 104.05C480.776 104.05 479.976 105.83 479.576 106.86L476.596 114.03C475.566 116.5 474.756 118.56 474.306 119.88C474.136 120.05 473.906 120.11 473.616 120.11C473.386 120.11 473.096 120.05 472.926 119.88C472.576 118.68 471.666 116.32 471.206 115.12L465.926 102.15L465.916 102.17Z" fill="#234075"/>
<path d="M511.915 107.33C512.775 107.04 512.895 106.53 512.895 105.67L512.955 103.03C513.015 100.91 512.325 98.0399 508.765 98.0399C507.155 98.0399 505.205 98.8399 505.095 100.62C505.035 101.54 504.975 102.23 504.525 102.57C503.665 103.26 502.115 103.66 501.255 103.66C500.735 103.66 500.455 103.37 500.455 102.86C500.455 99.8799 506.935 95.7999 511.125 95.7999C515.315 95.7999 517.265 98.2099 517.095 102.51L516.755 112.49C516.635 115.13 517.155 117.48 519.395 117.48C519.965 117.48 520.485 117.31 520.825 117.14C521.115 116.97 521.395 116.74 521.575 116.74C521.805 116.74 521.975 117.08 521.975 117.49C521.975 117.78 519.965 120.01 517.155 120.01C515.775 120.01 514.405 119.49 513.425 118.23C513.195 117.89 512.855 117.43 512.505 117.43C512.105 117.43 511.415 117.95 510.265 118.58C509.005 119.27 507.745 120.01 506.135 120.01C504.525 120.01 503.095 119.55 502.115 118.69C501.025 117.71 500.335 116.28 500.335 114.67C500.335 112.43 501.425 111.11 505.095 109.79L511.925 107.32L511.915 107.33ZM508.355 117.43C509.505 117.43 511.285 116.57 511.855 116C512.545 115.31 512.545 114.51 512.605 113.3L512.715 109.92C512.715 109.29 512.485 109.17 512.145 109.17C511.805 109.17 510.825 109.4 509.795 109.74C506.415 110.89 504.745 111.75 504.745 113.99C504.745 114.97 505.435 117.43 508.365 117.43H508.355Z" fill="#234075"/>
<path d="M521.725 131.03C521.725 129.48 522.755 128.74 524.015 128.74H525.105C526.025 128.74 526.595 128.34 526.995 127.71C528.655 125.13 529.805 122.72 530.325 121.34C530.495 120.88 530.895 119.68 530.895 118.87C530.895 117.72 530.665 117.03 529.915 114.91L525.445 102.63C524.475 99.9299 524.065 98.5599 522.065 98.1499L520.635 97.8599C520.285 97.5699 520.345 96.5999 520.805 96.4299C522.645 96.5399 524.365 96.5999 526.255 96.5999C527.805 96.5999 529.415 96.5399 531.245 96.4299C531.705 96.5999 531.765 97.5799 531.365 97.8599L529.925 98.1499C529.125 98.3199 528.665 98.4899 528.665 98.8999C528.665 99.5899 529.985 103.32 530.325 104.29L532.165 109.57C532.505 110.49 533.595 113.53 533.825 113.64C533.995 113.52 534.915 111.75 535.945 109.39L537.895 104.86C539.155 101.88 539.905 99.7499 539.905 99.1199C539.905 98.7199 539.555 98.3199 538.525 98.1399L536.745 97.8499C536.345 97.5599 536.405 96.5899 536.865 96.4199C538.705 96.5299 540.425 96.5899 541.915 96.5899C543.405 96.5899 544.665 96.5299 546.275 96.4199C546.735 96.6499 546.795 97.5099 546.395 97.8499L545.425 98.0199C543.535 98.3599 542.495 100.03 540.545 104.1L537.335 110.7C535.445 114.54 530.735 124.53 527.925 130.78C526.955 132.96 525.575 133.48 524.255 133.48C522.595 133.48 521.735 132.45 521.735 131.01L521.725 131.03Z" fill="#234075"/>
<path d="M183.075 12.42H181.945V119.27H183.075V12.42Z" fill="#E3A82B"/>
<path d="M162.655 118.76L162.575 118.69C162.445 118.68 162.335 118.66 162.235 118.64C161.265 118.42 160.885 117.25 160.525 116.42L155.525 104.57C155.475 104.43 155.375 104.12 155.175 104.12C154.905 104.12 154.825 104.45 154.755 104.64L149.975 116.46C149.805 116.91 149.355 117.99 149.035 118.32C148.785 118.57 148.465 118.62 148.125 118.66C148.125 118.66 147.855 118.69 147.725 118.7L147.135 118.76C146.985 118.9 147.035 119.25 147.185 119.32C147.515 119.31 148.105 119.29 148.105 119.29C148.755 119.29 149.415 119.2 150.065 119.2C150.615 119.2 151.165 119.26 151.715 119.28C151.715 119.28 152.305 119.3 152.635 119.31C152.785 119.24 152.835 118.88 152.685 118.75L152.065 118.68C151.945 118.67 151.725 118.65 151.725 118.65C151.155 118.59 150.435 118.48 150.435 117.85C150.435 117.42 150.635 116.93 150.785 116.55L151.525 114.78C151.895 113.93 151.745 113.84 152.735 113.84H156.105C157.295 113.84 157.125 113.84 157.645 115.04L158.435 116.83C158.555 117.14 158.785 117.66 158.785 117.99C158.785 118.58 158.135 118.62 157.535 118.67C157.535 118.67 157.335 118.69 157.165 118.7L156.565 118.74C156.415 118.87 156.465 119.23 156.615 119.3C156.945 119.29 157.545 119.26 157.545 119.26C158.245 119.23 158.955 119.18 159.645 119.18C160.515 119.18 161.385 119.24 162.245 119.26C162.525 119.26 162.285 119.28 162.615 119.29C162.765 119.22 162.815 118.86 162.665 118.73L162.655 118.76ZM156.095 113.19H153.175C153.075 113.19 152.265 113.29 152.265 113.05C152.265 112.98 152.315 112.84 152.345 112.76L154.095 108.42C154.145 108.3 154.325 107.71 154.525 107.71C154.675 107.71 154.885 108.33 154.935 108.42L156.665 112.47C156.665 112.47 156.845 112.9 156.845 112.99C156.845 113.25 156.265 113.18 156.105 113.18L156.095 113.19Z" fill="#234075"/>
<path d="M141.505 107.84C141.505 105.46 141.455 105.07 140.025 104.96L139.415 104.91C139.265 104.82 139.315 104.42 139.465 104.35C140.675 104.39 141.505 104.42 142.525 104.42C143.545 104.42 144.325 104.4 145.535 104.35C145.685 104.42 145.725 104.82 145.585 104.91L144.975 104.96C143.545 105.07 143.495 105.45 143.495 107.84V115.85C143.495 118.23 143.545 118.55 144.975 118.71L145.585 118.78C145.735 118.87 145.685 119.27 145.535 119.34C144.325 119.3 143.495 119.27 142.525 119.27C141.505 119.27 140.675 119.29 139.465 119.34C139.315 119.27 139.275 118.91 139.415 118.78L140.025 118.71C141.455 118.55 141.505 118.24 141.505 115.85V107.84Z" fill="#234075"/>
<path d="M126.775 107.2C126.775 105.52 126.665 105.09 125.485 105L124.645 104.92C124.545 104.83 124.495 104.38 124.675 104.37C126.095 104.26 127.895 104.19 130.345 104.19C132.005 104.19 133.585 104.3 134.775 104.83C135.905 105.31 136.775 106.22 136.775 107.67C136.775 109.31 135.665 110.15 134.085 110.78C134.085 111.01 134.295 111.07 134.585 111.12C136.005 111.35 138.115 112.48 138.115 114.91C138.115 117.54 135.845 119.32 131.105 119.32C130.345 119.32 129.055 119.25 127.945 119.25C126.835 119.25 125.895 119.3 124.915 119.32C124.755 119.25 124.705 118.89 124.865 118.75L125.345 118.68C126.745 118.47 126.795 118.23 126.795 115.84V107.21L126.775 107.2ZM128.935 110.22C128.935 110.86 128.965 110.9 130.305 110.86C132.995 110.77 134.445 110.09 134.445 107.95C134.445 105.81 132.525 104.88 130.515 104.88C129.935 104.88 129.545 104.93 129.305 105.02C129.045 105.09 128.935 105.2 128.935 105.61V110.22ZM128.935 115.49C128.935 116.31 128.985 117.47 129.485 117.97C129.985 118.49 130.775 118.61 131.565 118.61C133.905 118.61 135.705 117.7 135.705 115.43C135.705 113.64 134.655 111.55 130.465 111.55C129.045 111.55 128.935 111.69 128.935 112.14V115.5V115.49Z" fill="#234075"/>
<path d="M122.095 118.7C121.965 118.69 121.735 118.67 121.735 118.67C121.475 118.64 121.245 118.61 121.065 118.41C120.755 118.08 120.775 117.12 120.775 116.74V106.88C120.775 106.45 120.675 105.52 120.985 105.19C121.145 105.01 121.475 104.98 121.765 104.97C121.945 104.96 121.945 104.96 122.105 104.95L122.725 104.91C122.875 104.82 122.825 104.41 122.675 104.35C122.345 104.36 122.035 104.35 121.755 104.37H119.105C118.815 104.37 118.555 104.37 118.395 104.68L112.985 115.94L108.205 105.06C108.045 104.68 108.025 104.37 107.525 104.37H104.765C104.475 104.37 104.155 104.37 103.825 104.35C103.675 104.42 103.625 104.82 103.775 104.91L104.395 104.95C104.525 104.96 104.755 104.98 104.755 104.98C105.795 105.05 105.855 105.28 105.765 106.37L104.955 116.94C104.885 118 104.825 118.56 103.715 118.66C103.715 118.66 103.475 118.69 103.355 118.7L102.735 118.77C102.585 118.9 102.635 119.26 102.785 119.33C103.115 119.32 103.695 119.3 103.695 119.3C104.255 119.27 104.835 119.22 105.405 119.22C106.025 119.22 106.645 119.28 107.265 119.3C107.555 119.3 107.855 119.32 108.185 119.33C108.335 119.26 108.385 118.9 108.235 118.77L107.615 118.7C107.455 118.69 107.265 118.67 107.265 118.67C105.665 118.56 105.695 117.43 105.795 116.04L106.555 106.21H106.735L111.905 118.31C111.955 118.48 112.035 118.76 112.295 118.76C112.535 118.76 112.605 118.5 112.685 118.33L118.515 105.92H118.695V116.73C118.695 117.16 118.745 118.04 118.305 118.38C118.075 118.55 117.315 118.66 117.315 118.66C117.215 118.68 117.105 118.69 116.975 118.71L116.355 118.78C116.205 118.92 116.255 119.27 116.405 119.34C116.735 119.33 117.315 119.31 117.315 119.31C118.165 119.29 119.025 119.22 119.885 119.22C120.505 119.22 121.715 119.28 121.715 119.28C122.005 119.28 122.335 119.32 122.665 119.33C122.815 119.26 122.865 118.9 122.715 118.77L122.095 118.7Z" fill="#234075"/>
<path d="M99.0648 110.01C99.0648 108.62 99.0148 106.03 98.6148 105.35C98.4448 105.08 98.0148 104.92 97.4248 104.88L96.8248 104.84C96.6848 104.68 96.7248 104.39 96.8748 104.3C97.7848 104.34 98.6648 104.37 99.5948 104.37C100.595 104.37 101.245 104.35 102.095 104.3C102.285 104.41 102.265 104.7 102.145 104.84L101.575 104.88C100.975 104.93 100.525 105.13 100.385 105.42C100.055 106.16 100.055 108.75 100.055 110.01V112.55C100.055 114.51 99.7248 116.58 98.3848 117.93C97.3648 118.99 95.5948 119.57 93.8348 119.57C92.1848 119.57 90.5448 119.28 89.3748 118.33C88.1148 117.34 87.5148 115.7 87.5148 113.02V107.71C87.5148 105.37 87.4648 104.99 86.0848 104.88L85.4848 104.84C85.3448 104.75 85.3848 104.37 85.5348 104.3C86.7248 104.34 87.5348 104.37 88.4948 104.37C89.4548 104.37 90.2548 104.35 91.4248 104.3C91.5648 104.37 91.6148 104.75 91.4748 104.84L90.9048 104.88C89.5248 104.99 89.4748 105.38 89.4748 107.71V112.57C89.4748 116.19 90.6648 118.58 94.3148 118.58C97.7748 118.58 99.0848 116.02 99.0848 112.6V110.01H99.0648Z" fill="#234075"/>
<path d="M75.2249 107.8C75.2249 105.44 75.1749 105.08 73.6149 104.97L72.9949 104.92C72.8449 104.83 72.8949 104.43 73.0449 104.36C74.4349 104.4 75.2749 104.43 76.2649 104.43C77.2549 104.43 78.0749 104.41 79.3049 104.36C79.4549 104.43 79.5049 104.83 79.3549 104.92L78.7649 104.97C77.3049 105.08 77.2549 105.44 77.2549 107.8V115.63C77.2549 117.05 77.3249 117.63 77.7749 118.06C78.0449 118.31 78.5149 118.58 80.4749 118.58C82.5749 118.58 83.0949 118.49 83.4949 118.29C83.9849 118.02 84.6349 117.21 85.1249 116.06C85.2749 115.95 85.7449 116.04 85.7449 116.19C85.7449 116.44 85.0549 118.73 84.7049 119.34C83.4449 119.3 81.0949 119.27 78.5449 119.27H76.2649C75.2249 119.27 74.4349 119.29 73.0449 119.34C72.8949 119.27 72.8449 118.91 72.9949 118.78L73.7349 118.71C75.1649 118.57 75.2149 118.26 75.2149 115.9V107.8H75.2249Z" fill="#234075"/>
<path d="M55.8252 111.95C55.8252 107.45 59.3652 104.01 64.2352 104.01C69.6852 104.01 72.4252 107.77 72.4252 111.72C72.4252 116.26 68.7852 119.57 64.2352 119.57C58.9952 119.57 55.8252 115.99 55.8252 111.95ZM70.0652 112.42C70.0652 108.71 68.3452 104.71 63.8352 104.71C61.3752 104.71 58.1952 106.31 58.1952 111.23C58.1952 114.56 59.8952 118.88 64.5452 118.88C67.3752 118.88 70.0752 116.86 70.0752 112.42H70.0652Z" fill="#234075"/>
<path d="M40.9248 103.16C42.9148 101.61 45.4448 100.85 48.2848 100.85C49.7548 100.85 51.8248 101.15 53.1048 101.5C53.4348 101.58 53.6248 101.64 53.8648 101.61C53.8948 102.23 54.0248 103.94 54.2448 105.6C54.1048 105.79 53.7048 105.82 53.5048 105.65C53.0948 103.8 51.8748 101.69 47.9148 101.69C43.7448 101.69 40.2048 104.32 40.2048 109.94C40.2048 115.56 43.8248 118.79 48.2948 118.79C51.8148 118.79 53.3648 116.51 53.9848 114.91C54.1748 114.78 54.5848 114.83 54.6948 115.02C54.5048 116.43 53.7948 118.22 53.3848 118.74C53.0548 118.79 52.7348 118.9 52.4348 119.01C51.8348 119.23 49.8748 119.64 48.1248 119.64C45.6748 119.64 43.3248 119.15 41.3348 117.82C39.1548 116.33 37.4648 113.86 37.4648 110.35C37.4648 107.34 38.8248 104.76 40.8948 103.15L40.9248 103.16Z" fill="#234075"/>
<path d="M136.065 90.89C134.905 90.89 134.855 90.94 134.855 91.61V94.78C134.855 97.14 134.975 97.46 136.335 97.59L137.035 97.66C137.175 97.75 137.135 98.15 136.985 98.22C135.675 98.18 134.855 98.15 133.915 98.15C132.875 98.15 132.055 98.2 131.105 98.22C130.955 98.15 130.915 97.79 131.055 97.66L131.465 97.59C132.825 97.36 132.865 97.14 132.865 94.78V86.68C132.865 84.32 132.695 83.94 131.435 83.85L130.805 83.81C130.665 83.72 130.705 83.31 130.855 83.25C132.045 83.27 132.865 83.32 133.905 83.32C134.845 83.32 135.675 83.3 136.715 83.25C136.865 83.32 136.905 83.72 136.765 83.81L136.305 83.85C134.905 83.98 134.855 84.32 134.855 86.68V89.27C134.855 89.97 134.905 89.99 136.065 89.99H142.985C144.145 89.99 144.195 89.97 144.195 89.27V86.68C144.195 84.32 144.145 83.98 142.715 83.85L142.255 83.81C142.105 83.72 142.155 83.31 142.305 83.25C143.415 83.29 144.245 83.32 145.235 83.32C146.225 83.32 147.005 83.3 148.085 83.25C148.235 83.32 148.275 83.72 148.135 83.81L147.625 83.85C146.225 83.98 146.175 84.32 146.175 86.68V94.78C146.175 97.14 146.225 97.43 147.625 97.59L148.205 97.66C148.345 97.75 148.305 98.15 148.155 98.22C146.995 98.18 146.175 98.15 145.225 98.15C144.235 98.15 143.365 98.17 142.295 98.22C142.145 98.15 142.105 97.79 142.245 97.66L142.705 97.59C144.185 97.36 144.185 97.14 144.185 94.78V91.61C144.185 90.94 144.135 90.89 142.975 90.89H136.055H136.065Z" fill="#234075"/>
<path d="M122.714 98.45C120.484 98.45 119.074 97.87 118.574 97.62C118.254 97.12 117.914 95.53 117.854 94.47C117.984 94.31 118.384 94.27 118.494 94.4C118.894 95.55 119.974 97.75 123.054 97.75C125.284 97.75 126.374 96.51 126.374 95.16C126.374 94.17 126.134 93.07 124.194 92.01L121.674 90.62C120.344 89.88 118.804 88.6 118.804 86.75C118.804 84.61 120.774 82.88 124.214 82.88C125.034 82.88 125.994 83.02 126.684 83.17C127.034 83.26 127.404 83.3 127.614 83.3C127.854 83.84 128.094 85.1 128.094 86.04C127.984 86.18 127.564 86.24 127.434 86.11C127.084 85.03 126.374 83.57 123.824 83.57C121.274 83.57 120.664 85.03 120.664 86.07C120.664 87.37 121.934 88.32 122.924 88.84L125.044 89.96C126.714 90.84 128.364 92.14 128.364 94.28C128.364 96.75 126.164 98.44 122.714 98.44V98.45Z" fill="#234075"/>
<path d="M111.525 86.73C111.525 84.35 111.475 83.96 110.005 83.85L109.385 83.81C109.235 83.72 109.285 83.31 109.435 83.25C110.685 83.29 111.535 83.32 112.585 83.32C113.635 83.32 114.435 83.3 115.685 83.25C115.835 83.32 115.885 83.72 115.735 83.81L115.105 83.85C113.635 83.96 113.585 84.34 113.585 86.73V94.74C113.585 97.12 113.635 97.44 115.105 97.6L115.735 97.67C115.885 97.76 115.835 98.16 115.685 98.23C114.435 98.19 113.585 98.16 112.585 98.16C111.535 98.16 110.685 98.18 109.435 98.23C109.285 98.16 109.235 97.8 109.385 97.67L110.005 97.6C111.475 97.44 111.525 97.13 111.525 94.74V86.73Z" fill="#234075"/>
<path d="M101.505 94.78C101.505 97.14 101.555 97.48 102.905 97.59L103.655 97.66C103.795 97.75 103.745 98.15 103.605 98.22C102.275 98.18 101.475 98.15 100.545 98.15C99.6147 98.15 98.7947 98.17 97.2947 98.22C97.1547 98.15 97.1047 97.77 97.2947 97.66L98.1347 97.59C99.4647 97.48 99.5847 97.14 99.5847 94.78V84.73C99.5847 84.03 99.5847 84.01 98.8847 84.01H97.5947C96.5847 84.01 95.3047 84.05 94.7147 84.57C94.1547 85.06 93.9247 85.56 93.6647 86.12C93.4747 86.25 93.1547 86.14 93.0547 85.96C93.4247 84.95 93.7847 83.51 93.9447 82.61C94.0147 82.57 94.3147 82.54 94.3947 82.61C94.5347 83.33 95.3047 83.31 96.3847 83.31H105.855C107.115 83.31 107.325 83.26 107.675 82.68C107.795 82.64 108.045 82.66 108.095 82.75C107.835 83.67 107.675 85.49 107.745 86.17C107.655 86.35 107.255 86.35 107.135 86.21C107.065 85.65 106.905 84.82 106.545 84.57C106.005 84.19 105.115 84.01 103.835 84.01H102.175C101.475 84.01 101.495 84.03 101.495 84.77V94.78H101.505Z" fill="#234075"/>
<path d="M87.6544 86.73C87.6544 84.35 87.6044 83.96 86.1344 83.85L85.5144 83.81C85.3644 83.72 85.4144 83.31 85.5644 83.25C86.8144 83.29 87.6644 83.32 88.7144 83.32C89.7644 83.32 90.5644 83.3 91.8144 83.25C91.9644 83.32 92.0144 83.72 91.8644 83.81L91.2444 83.85C89.7744 83.96 89.7244 84.34 89.7244 86.73V94.74C89.7244 97.12 89.7744 97.44 91.2444 97.6L91.8644 97.67C92.0144 97.76 91.9644 98.16 91.8144 98.23C90.5644 98.19 89.7144 98.16 88.7144 98.16C87.6644 98.16 86.8144 98.18 85.5644 98.23C85.4144 98.16 85.3644 97.8 85.5144 97.67L86.1344 97.6C87.6044 97.44 87.6544 97.13 87.6544 94.74V86.73Z" fill="#234075"/>
<path d="M83.8351 97.66L83.2151 97.61C83.0851 97.6 82.9751 97.58 82.8751 97.56C81.9651 97.4 81.5951 96.58 81.1651 95.83L79.0051 92.07C78.6351 91.44 78.2351 90.6 77.3751 90.48C79.5851 90.21 81.5851 88.94 81.5851 86.75C81.5851 84.22 79.0751 83.09 76.5451 83.09C75.0251 83.09 73.6451 83.13 72.0951 83.13C71.2451 83.13 70.2251 83.09 69.3751 83.09C68.9051 83.09 68.8951 83.19 68.8951 83.45C68.8951 83.84 69.0551 83.73 69.5651 83.76C71.3651 83.86 71.2951 84.2 71.2951 85.74V95.6C71.2951 97.01 71.4151 97.43 69.9351 97.56C69.9351 97.56 69.7051 97.58 69.5751 97.6L68.9451 97.66C68.7951 97.79 68.8451 98.15 68.9951 98.22C69.3251 98.21 69.9151 98.18 69.9151 98.18C70.7351 98.16 71.5551 98.09 72.3751 98.09C73.1951 98.09 73.9851 98.15 74.7951 98.18C75.0851 98.19 75.3851 98.2 75.7151 98.21C75.8651 98.14 75.9151 97.78 75.7651 97.65L75.1351 97.59C75.0051 97.58 74.7851 97.56 74.7851 97.56C73.2851 97.46 73.3851 97.04 73.3851 95.59V91.88C73.3851 91.66 73.3551 91.08 73.5151 90.92C73.6451 90.77 73.8851 90.8 74.1051 90.8C76.1351 90.8 76.1051 90.99 77.0651 92.68L79.6751 97.38C79.8851 97.74 80.0451 98.2 80.5851 98.2H82.8551C83.1451 98.2 83.4451 98.22 83.7751 98.23C83.9251 98.16 83.9751 97.8 83.8251 97.67L83.8351 97.66ZM74.7351 90.27C74.2851 90.27 73.3751 90.44 73.3751 89.84V85.53C73.3751 83.84 73.4251 83.6 75.4551 83.6C77.8251 83.6 79.2951 84.8 79.2951 87.02C79.2951 87.98 78.9451 88.88 78.0651 89.48C77.0551 90.18 75.9551 90.27 74.7351 90.27Z" fill="#234075"/>
<path d="M54.7747 84.14C54.7747 82.19 54.6347 81.67 53.3247 81.57L52.4147 81.51C52.2647 81.39 52.3047 80.86 52.4447 80.85C54.0247 80.71 56.0046 80.64 58.7246 80.64C60.5646 80.64 62.3146 80.77 63.6346 81.38C64.8946 81.93 65.8546 82.99 65.8546 84.67C65.8546 86.57 64.6247 87.54 62.8747 88.28C62.8747 88.54 63.1047 88.62 63.4347 88.67C65.0147 88.93 67.3546 90.25 67.3546 93.07C67.3546 96.13 64.8446 98.18 59.5846 98.18C58.7346 98.18 57.3047 98.1 56.0747 98.1C54.8447 98.1 53.7947 98.15 52.7147 98.18C52.5447 98.1 52.4846 97.68 52.6546 97.52L53.1847 97.44C54.7347 97.2 54.7947 96.91 54.7947 94.15V84.15L54.7747 84.14ZM57.1746 87.64C57.1746 88.38 57.2047 88.43 58.6947 88.38C61.6747 88.28 63.2846 87.49 63.2846 85.01C63.2846 82.53 61.1547 81.46 58.9347 81.46C58.2947 81.46 57.8547 81.51 57.5947 81.62C57.3047 81.7 57.1847 81.83 57.1847 82.3V87.64H57.1746ZM57.1746 93.75C57.1746 94.7 57.2347 96.04 57.7847 96.62C58.3447 97.23 59.2147 97.36 60.0947 97.36C62.6947 97.36 64.6847 96.31 64.6847 93.67C64.6847 91.59 63.5147 89.17 58.8647 89.17C57.2847 89.17 57.1647 89.33 57.1647 89.85V93.75H57.1746Z" fill="#234075"/>
<path d="M65.1046 67.49C80.9146 67.49 102.785 76.39 118.655 76.39C129.975 76.39 141.025 73.37 147.315 68.92C147.755 66.31 147.985 63.62 147.985 60.89C147.985 34.32 126.445 12.78 99.8747 12.78C73.3047 12.78 51.7646 34.32 51.7646 60.89C51.7646 63.6 51.9946 66.25 52.4246 68.83C54.1546 68.51 60.0546 67.49 65.1046 67.49Z" fill="white"/>
<path d="M130.965 49.76L132.865 50.55L137.085 47.61L130.965 49.76Z" fill="#E3A82B"/>
<path d="M60.0746 46.48L55.0746 44.72L55.3246 44.11L60.9546 45.99H60.9746L61.7146 45.55L62.0146 45.36L55.8746 42.75L56.1346 42.11L69.8446 47.65L70.2946 47.46L56.7046 40.84L57.0046 40.22L71.4046 46.92L71.6046 46.82L57.6346 38.9L57.9246 38.31L78.0946 49.28C78.2546 48.97 78.6046 48.42 78.7846 48.12C71.1146 40.91 63.7146 35.5 63.7146 35.5C63.7146 35.5 71.3246 40.6 80.7146 45.33C81.0246 44.94 81.2746 44.63 81.6146 44.26L64.4046 29.11L64.8646 28.64L78.7546 40.48L65.8846 27.6L66.3646 27.1L80.8046 41.06L67.3546 26.14L67.8646 25.68L80.2946 38.99L68.9546 24.7L69.4446 24.26L83.9846 41.95C84.3646 41.63 84.6746 41.38 85.0646 41.08C80.6646 31.56 75.8646 23.82 75.8646 23.82C75.8646 23.82 80.9746 31.34 87.8746 39.23C88.2946 38.99 88.7246 38.77 89.1646 38.55L89.0946 38.5L78.9046 18.16L79.5146 17.89L87.9546 34.07L80.8546 17.3L81.4846 17.02L89.6446 35.37L82.7646 16.5L83.4146 16.26L89.9546 33.26L84.7946 15.76L85.4146 15.53L92.2146 37.24V37.3C92.6646 37.15 93.1246 37.01 93.5846 36.89C93.0646 26.46 91.5246 17.55 91.5246 17.55C91.5246 17.55 93.4346 26.39 96.8546 36.25C97.3346 36.19 97.8146 36.14 98.2946 36.11L98.2746 36.09H98.3346L98.3046 36.04L96.4746 13.37L97.1346 13.35L98.9046 31.51L98.6046 13.3L99.2946 13.28L99.9846 33.36L100.675 13.28L101.365 13.3L101.065 31.51L102.835 13.35L103.495 13.37L101.665 36.04L101.635 36.09H101.645H101.675C102.145 36.12 102.615 36.17 103.085 36.22C106.505 26.37 108.415 17.55 108.415 17.55C108.415 17.55 106.875 26.44 106.355 36.85C106.825 36.97 107.285 37.11 107.735 37.26L114.505 15.63L115.125 15.86L109.965 33.36L116.505 16.37L117.155 16.61L110.275 35.48L118.435 17.12L119.065 17.4L111.965 34.17L120.405 17.99L121.015 18.26L110.865 38.52H110.885C111.305 38.73 111.715 38.95 112.115 39.17C118.985 31.31 124.065 23.83 124.065 23.83C124.065 23.83 119.295 31.52 114.905 40.99C115.295 41.29 115.675 41.59 116.055 41.91L130.425 24.41L130.915 24.85L119.565 39.14L131.995 25.83L132.505 26.29L119.055 41.21L133.505 27.25L133.985 27.75L121.115 40.63L135.005 28.8L135.465 29.27L118.465 44.25C118.765 44.59 119.045 44.93 119.325 45.28C128.655 40.56 136.195 35.51 136.195 35.51C136.195 35.51 128.865 40.87 121.235 48.03C121.445 48.38 121.785 48.97 121.975 49.33L141.855 38.5L142.145 39.1L126.275 48.1L142.785 40.42L143.085 41.04L127.705 48.53L127.995 48.63L143.645 42.3L143.905 42.94L129.365 49.13L129.635 49.24L139.325 46.01L140.785 44.99L141.275 45.36L144.465 44.3L144.715 44.91L141.955 45.88L145.945 48.92L147.225 49.63C142.105 28.21 122.825 12.28 99.8346 12.28C76.8446 12.28 56.8946 28.77 52.1846 50.77C52.2446 50.74 52.3046 50.71 52.3646 50.68L52.9446 50.42L53.3046 50.25L60.0246 46.48H60.0746Z" fill="#E3A82B"/>
<path d="M51.9545 69.8701C51.9545 69.8701 59.1445 68.4301 65.1445 68.4301C80.9545 68.4301 102.825 77.3301 118.695 77.3301C130.335 77.3301 141.685 74.1401 147.875 69.4801C148.355 66.7301 148.615 63.8901 148.615 61.0001C148.615 57.0801 148.145 53.2701 147.275 49.6201L140.655 45.9301L132.895 51.3701L127.675 49.34C125.905 50.23 115.005 57.5301 115.005 57.5301L110.815 54.5001L106.325 53.6101L100.335 49.2501L93.4645 53.9701C93.4645 53.9701 85.8045 58.4201 85.5345 58.4201C85.2645 58.4201 76.2845 51.3001 76.2845 51.3001L72.1445 46.9401C71.4445 47.3801 68.6245 48.6801 68.6245 48.6801L68.4845 48.7201L65.7645 47.8801L62.4545 46.1301L52.4045 50.6901C52.3445 50.7201 52.2845 50.7501 52.2245 50.7801C51.5145 54.0801 51.1445 57.5101 51.1445 61.0201C51.1445 64.0501 51.4245 67.0101 51.9545 69.8801V69.8701Z" fill="#234075"/>
</g>
</g>
<defs>
<clipPath id="clip0_48_1061">
<rect width="581" height="143" fill="white" transform="translate(0.214844)"/>
</clipPath>
<clipPath id="clip1_48_1061">
<rect width="581.43" height="182.06" fill="white" transform="translate(0.214844)"/>
</clipPath>
</defs>
</svg>
