<?xml version="1.0" encoding="UTF-8" standalone="no"?>
<!-- Generator: Adobe Illustrator 27.0.1, SVG Export Plug-In . SVG Version: 6.00 Build 0)  -->

<svg
   version="1.1"
   id="Layer_1"
   x="0px"
   y="0px"
   viewBox="0 0 1062.6 323.9"
   xml:space="preserve"
   sodipodi:docname="hg-logo-rev.svg"
   inkscape:version="1.4.2 (ebf0e940, 2025-05-08)"
   width="1062.6"
   height="323.89999"
   xmlns:inkscape="http://www.inkscape.org/namespaces/inkscape"
   xmlns:sodipodi="http://sodipodi.sourceforge.net/DTD/sodipodi-0.dtd"
   xmlns="http://www.w3.org/2000/svg"
   xmlns:svg="http://www.w3.org/2000/svg"><defs
   id="defs35">
	
	
	
	
	
	
	
	
	
	
	
	
	
</defs><sodipodi:namedview
   id="namedview35"
   pagecolor="#ffffff"
   bordercolor="#000000"
   borderopacity="0.25"
   inkscape:showpageshadow="2"
   inkscape:pageopacity="0.0"
   inkscape:pagecheckerboard="0"
   inkscape:deskcolor="#d1d1d1"
   showgrid="false"
   inkscape:zoom="1.8543696"
   inkscape:cx="642.80605"
   inkscape:cy="158.00518"
   inkscape:window-width="2560"
   inkscape:window-height="1387"
   inkscape:window-x="0"
   inkscape:window-y="25"
   inkscape:window-maximized="0"
   inkscape:current-layer="Layer_1" />
<style
   type="text/css"
   id="style1">
	.st0{fill:#FFFFFF;}
	.st1{fill:#E3A82B;}
	.st2{fill:#65799E;}
	.st3{fill:#F1F2F2;}
</style>
<g
   id="g22"
   transform="translate(-7.6,-7.5)">
	<g
   id="g20"
   style="fill:#1a2e49;fill-opacity:1">
		<g
   id="g19"
   style="fill:#1a2e49;fill-opacity:1">
			<g
   id="g18"
   style="fill:#1a2e49;fill-opacity:1">
				<g
   id="g17"
   style="fill:#1a2e49;fill-opacity:1">
					<path
   class="st0"
   d="m 56.4,210.7 c 0,-5.5 -0.4,-7 -4.1,-7.3 l -2.6,-0.2 c -0.4,-0.3 -0.3,-1.8 0.1,-1.9 4.5,-0.4 10.1,-0.6 17.8,-0.6 5.2,0 10.2,0.4 13.9,2.1 3.6,1.6 6.3,4.5 6.3,9.3 0,5.4 -3.5,8.1 -8.4,10.2 0,0.7 0.7,1 1.6,1.1 4.5,0.7 11.1,4.5 11.1,12.4 0,8.6 -7.1,14.4 -22,14.4 -2.4,0 -6.4,-0.2 -9.9,-0.2 -3.6,0 -6.4,0.2 -9.5,0.2 -0.5,-0.2 -0.7,-1.4 -0.2,-1.9 l 1.5,-0.2 c 4.4,-0.7 4.5,-1.5 4.5,-9.3 v -28.1 z m 6.8,9.9 c 0,2.1 0.1,2.2 4.3,2.1 8.4,-0.3 13,-2.5 13,-9.5 0,-7.3 -6,-10 -12.3,-10 -1.8,0 -3.1,0.1 -3.8,0.4 -0.8,0.2 -1.2,0.6 -1.2,1.9 z m 0,17.2 c 0,2.7 0.2,6.5 1.7,8.1 1.6,1.7 4.1,2.1 6.5,2.1 7.4,0 13,-3 13,-10.4 0,-5.9 -3.3,-12.7 -16.4,-12.7 -4.5,0 -4.8,0.4 -4.8,1.9 z"
   id="path1"
   style="fill:#1a2e49;fill-opacity:1" />
					<path
   class="st0"
   d="m 149.4,218 c 0,-6.7 -0.1,-7.8 -4.3,-8.1 l -1.8,-0.1 c -0.4,-0.3 -0.3,-1.4 0.1,-1.6 3.5,0.1 5.9,0.2 8.9,0.2 2.8,0 5.2,-0.1 8.8,-0.2 0.4,0.2 0.6,1.3 0.1,1.6 l -1.8,0.1 c -4.2,0.3 -4.3,1.4 -4.3,8.1 v 22.6 c 0,6.7 0.1,7.6 4.3,8.1 l 1.8,0.2 c 0.4,0.3 0.3,1.4 -0.1,1.6 -3.5,-0.1 -5.9,-0.2 -8.8,-0.2 -3,0 -5.4,0.1 -8.9,0.2 -0.4,-0.2 -0.6,-1.2 -0.1,-1.6 l 1.8,-0.2 c 4.2,-0.4 4.3,-1.3 4.3,-8.1 z"
   id="path2"
   style="fill:#1a2e49;fill-opacity:1" />
					<path
   class="st0"
   d="m 188.6,240.8 c 0,6.7 0.1,7.6 4,7.9 l 2.1,0.2 c 0.4,0.3 0.3,1.4 -0.1,1.6 -3.8,-0.1 -6,-0.2 -8.7,-0.2 -2.6,0 -5,0.1 -9.2,0.2 -0.4,-0.2 -0.5,-1.3 0,-1.6 l 2.4,-0.2 c 3.8,-0.3 4.1,-1.3 4.1,-7.9 v -28.4 c 0,-2 0,-2 -2,-2 h -3.6 c -2.8,0 -6.5,0.1 -8.1,1.6 -1.6,1.4 -2.2,2.8 -3,4.4 -0.5,0.4 -1.5,0.1 -1.7,-0.4 1.1,-2.9 2.1,-6.9 2.5,-9.5 0.2,-0.1 1.1,-0.2 1.3,0 0.4,2 2.6,2 5.6,2 H 201 c 3.6,0 4.2,-0.1 5.2,-1.8 0.3,-0.1 1.1,-0.1 1.2,0.2 -0.7,2.6 -1.2,7.8 -1,9.7 -0.3,0.5 -1.4,0.5 -1.7,0.1 -0.2,-1.6 -0.7,-3.9 -1.7,-4.6 -1.5,-1.1 -4,-1.6 -7.7,-1.6 h -4.7 c -2,0 -1.9,0.1 -1.9,2.2 v 28.1 z"
   id="path3"
   style="fill:#1a2e49;fill-opacity:1" />
					<path
   class="st0"
   d="m 216.9,218 c 0,-6.7 -0.1,-7.8 -4.3,-8.1 l -1.8,-0.1 c -0.4,-0.3 -0.3,-1.4 0.1,-1.6 3.5,0.1 5.9,0.2 8.9,0.2 2.8,0 5.2,-0.1 8.8,-0.2 0.4,0.2 0.6,1.3 0.1,1.6 l -1.8,0.1 c -4.2,0.3 -4.3,1.4 -4.3,8.1 v 22.6 c 0,6.7 0.1,7.6 4.3,8.1 l 1.8,0.2 c 0.4,0.3 0.3,1.4 -0.1,1.6 -3.5,-0.1 -5.9,-0.2 -8.8,-0.2 -3,0 -5.4,0.1 -8.9,0.2 -0.4,-0.2 -0.6,-1.2 -0.1,-1.6 l 1.8,-0.2 c 4.2,-0.4 4.3,-1.3 4.3,-8.1 z"
   id="path4"
   style="fill:#1a2e49;fill-opacity:1" />
					<path
   class="st0"
   d="m 248.5,251.1 c -6.3,0 -10.3,-1.7 -11.7,-2.4 -0.9,-1.4 -1.9,-5.9 -2,-8.9 0.4,-0.4 1.5,-0.6 1.8,-0.2 1.1,3.2 4.2,9.5 12.9,9.5 6.3,0 9.4,-3.5 9.4,-7.3 0,-2.8 -0.7,-5.9 -6.2,-8.9 l -7.1,-3.9 c -3.8,-2.1 -8.1,-5.7 -8.1,-10.9 0,-6 5.6,-10.9 15.3,-10.9 2.3,0 5,0.4 7,0.8 1,0.3 2,0.4 2.6,0.4 0.7,1.5 1.4,5.1 1.4,7.8 -0.3,0.4 -1.5,0.6 -1.9,0.2 -1,-3.1 -3,-7.2 -10.2,-7.2 -7.4,0 -8.9,4.1 -8.9,7.1 0,3.7 3.6,6.4 6.4,7.8 l 6,3.2 c 4.7,2.5 9.4,6.2 9.4,12.2 -0.1,6.9 -6.3,11.6 -16.1,11.6 z"
   id="path5"
   style="fill:#1a2e49;fill-opacity:1" />
					<path
   class="st0"
   d="m 286.3,229.8 c -3.3,0 -3.4,0.1 -3.4,2 v 9 c 0,6.7 0.3,7.6 4.2,7.9 l 2,0.2 c 0.4,0.3 0.3,1.4 -0.1,1.6 -3.7,-0.1 -6,-0.2 -8.7,-0.2 -2.9,0 -5.3,0.1 -7.9,0.2 -0.4,-0.2 -0.5,-1.2 -0.1,-1.6 l 1.2,-0.2 c 3.8,-0.6 4,-1.3 4,-7.9 v -22.9 c 0,-6.7 -0.5,-7.8 -4,-8 l -1.8,-0.1 c -0.4,-0.3 -0.3,-1.4 0.1,-1.6 3.4,0.1 5.7,0.2 8.6,0.2 2.7,0 5,-0.1 7.9,-0.2 0.4,0.2 0.5,1.3 0.1,1.6 l -1.3,0.1 c -4,0.4 -4.1,1.3 -4.1,8 v 7.3 c 0,2 0.1,2 3.4,2 H 306 c 3.3,0 3.4,-0.1 3.4,-2 v -7.3 c 0,-6.7 -0.1,-7.6 -4.2,-8 l -1.3,-0.1 c -0.4,-0.3 -0.3,-1.4 0.1,-1.6 3.1,0.1 5.5,0.2 8.3,0.2 2.7,0 5,-0.1 8.1,-0.2 0.4,0.2 0.5,1.3 0.1,1.6 l -1.4,0.1 c -4,0.4 -4.1,1.3 -4.1,8 v 22.9 c 0,6.7 0.1,7.5 4.1,7.9 l 1.6,0.2 c 0.4,0.3 0.3,1.4 -0.1,1.6 -3.3,-0.1 -5.6,-0.2 -8.3,-0.2 -2.8,0 -5.3,0.1 -8.3,0.2 -0.4,-0.2 -0.5,-1.2 -0.1,-1.6 l 1.3,-0.2 c 4.2,-0.6 4.2,-1.3 4.2,-7.9 v -9 c 0,-1.9 -0.1,-2 -3.4,-2 z"
   id="path6"
   style="fill:#1a2e49;fill-opacity:1" />
					<path
   class="st0"
   d="m 17.3,264.5 c 5.6,-4.4 12.8,-6.5 20.8,-6.5 4.2,0 10,0.8 13.6,1.8 0.9,0.2 1.5,0.4 2.2,0.3 0.1,1.8 0.5,6.6 1.1,11.3 -0.4,0.5 -1.5,0.6 -2.1,0.2 -1.2,-5.2 -4.6,-11.2 -15.8,-11.2 -11.8,0 -21.8,7.4 -21.8,23.3 0,16.1 10.2,25 22.9,25 9.9,0 14.3,-6.5 16.1,-11 0.5,-0.4 1.7,-0.2 2,0.3 -0.5,4 -2.5,9.1 -3.7,10.5 -0.9,0.2 -1.8,0.5 -2.7,0.8 -1.7,0.6 -7.2,1.8 -12.2,1.8 -6.9,0 -13.6,-1.4 -19.2,-5.1 -6.2,-4.2 -10.9,-11.2 -10.9,-21.1 0,-8.6 3.8,-15.9 9.7,-20.4 z"
   id="path7"
   style="fill:#1a2e49;fill-opacity:1" />
					<path
   class="st0"
   d="m 59.4,289.3 c 0,-12.7 10,-22.4 23.8,-22.4 15.4,0 23.2,10.6 23.2,21.8 0,12.8 -10.3,22.2 -23.2,22.2 -14.8,0 -23.8,-10.2 -23.8,-21.6 z m 40.3,1.3 c 0,-10.5 -4.9,-21.8 -17.6,-21.8 -6.9,0 -16,4.5 -16,18.4 0,9.4 4.8,21.6 18,21.6 8,0.1 15.6,-5.6 15.6,-18.2 z"
   id="path8"
   style="fill:#1a2e49;fill-opacity:1" />
					<path
   class="st0"
   d="m 181.7,283.8 c 0,-3.9 -0.1,-11.3 -1.3,-13.2 -0.5,-0.8 -1.7,-1.2 -3.4,-1.3 l -1.7,-0.1 c -0.4,-0.4 -0.3,-1.3 0.1,-1.5 2.6,0.1 5.1,0.2 7.7,0.2 2.8,0 4.7,-0.1 7.1,-0.2 0.5,0.3 0.5,1.1 0.1,1.5 l -1.6,0.1 c -1.7,0.1 -3,0.7 -3.4,1.5 -0.9,2.1 -0.9,9.4 -0.9,13 v 7.2 c 0,5.5 -0.9,11.4 -4.7,15.2 -2.9,3 -7.9,4.6 -12.9,4.6 -4.7,0 -9.3,-0.8 -12.6,-3.5 -3.6,-2.8 -5.3,-7.4 -5.3,-15 v -15 c 0,-6.6 -0.1,-7.7 -4,-8 l -1.7,-0.1 c -0.4,-0.3 -0.3,-1.3 0.1,-1.5 3.4,0.1 5.7,0.2 8.4,0.2 2.8,0 5,-0.1 8.3,-0.2 0.4,0.2 0.5,1.3 0.1,1.5 l -1.6,0.1 c -3.9,0.3 -4,1.4 -4,8 V 291 c 0,10.2 3.4,17 13.7,17 9.8,0 13.5,-7.3 13.5,-16.9 z"
   id="path9"
   style="fill:#1a2e49;fill-opacity:1" />
					<path
   class="st0"
   d="m 260,275.9 c 0,-4.8 -0.3,-6 -3.7,-6.2 l -2.4,-0.2 c -0.3,-0.2 -0.4,-1.5 0.1,-1.6 4,-0.3 9.1,-0.5 16,-0.5 4.7,0 9.2,0.3 12.5,1.8 3.2,1.4 5.7,3.9 5.7,8 0,4.6 -3.1,7 -7.6,8.8 0,0.6 0.6,0.8 1.4,1 4,0.6 10,3.9 10,10.7 0,7.5 -6.4,12.5 -19.8,12.5 -2.2,0 -5.8,-0.2 -8.9,-0.2 -3.3,0 -5.8,0.1 -8.6,0.2 -0.4,-0.2 -0.6,-1.2 -0.1,-1.6 l 1.3,-0.2 c 3.9,-0.6 4.1,-1.3 4.1,-8 z m 6.1,8.5 c 0,1.8 0.1,1.9 3.9,1.8 7.6,-0.3 11.7,-2.2 11.7,-8.2 0,-6.3 -5.4,-8.7 -11.1,-8.7 -1.6,0 -2.8,0.1 -3.4,0.4 -0.7,0.2 -1,0.5 -1,1.7 v 13 z m 0,14.9 c 0,2.3 0.1,5.6 1.6,7 1.4,1.5 3.7,1.8 5.9,1.8 6.6,0 11.7,-2.6 11.7,-9 0,-5.1 -3,-11 -14.8,-11 -4,0 -4.3,0.4 -4.3,1.7 v 9.5 z"
   id="path10"
   style="fill:#1a2e49;fill-opacity:1" />
					
					<g
   id="g11"
   style="fill:#1a2e49;fill-opacity:1">
						<path
   class="st0"
   d="m 138.6,248.9 -1.8,-0.2 c -0.4,0 -0.7,-0.1 -1,-0.1 -2.6,-0.5 -3.6,-2.8 -4.8,-4.9 l -6.1,-10.6 c -1.1,-1.8 -2.2,-4.2 -4.6,-4.5 6.3,-0.8 11.9,-4.4 11.9,-10.6 0,-7.2 -7.1,-10.4 -14.2,-10.4 -4.3,0 -8.2,0.1 -12.6,0.1 -2.4,0 -5.3,-0.1 -7.7,-0.1 -1.3,0 -1.4,0.3 -1.4,1 0,1.1 0.5,0.8 1.9,0.9 5.1,0.3 4.9,1.2 4.9,5.6 V 243 c 0,4 0.3,5.2 -3.8,5.6 0,0 -0.6,0.1 -1,0.1 l -1.8,0.2 c -0.4,0.4 -0.3,1.4 0.1,1.6 0.9,0 2.6,-0.1 2.6,-0.1 2.3,-0.1 4.6,-0.2 7,-0.2 2.3,0 4.6,0.2 6.9,0.2 v 0 c 0.8,0 1.7,0.1 2.6,0.1 0.4,-0.2 0.6,-1.2 0.1,-1.6 l -1.8,-0.2 c -0.4,0 -1,-0.1 -1,-0.1 -4.2,-0.3 -4,-1.5 -4,-5.6 v -10.5 c 0,-0.6 -0.1,-2.2 0.4,-2.7 0.4,-0.4 1.1,-0.3 1.7,-0.3 5.7,0 5.7,0.5 8.4,5.3 l 7.4,13.3 c 0.6,1 1.1,2.3 2.6,2.3 h 6.4 c 0.8,0 1.7,0.1 2.6,0.1 0.4,-0.2 0.5,-1.2 0.1,-1.6 z M 112.9,228 c -1.3,0 -3.8,0.5 -3.8,-1.2 v -12.2 c 0,-4.8 0.2,-5.5 5.9,-5.5 6.7,0 10.9,3.4 10.9,9.7 0,2.7 -1,5.2 -3.5,7 -3,1.9 -6,2.2 -9.5,2.2 z"
   id="path11"
   style="fill:#1a2e49;fill-opacity:1" />
					</g>
					<g
   id="g16"
   style="fill:#1a2e49;fill-opacity:1">
						<path
   class="st0"
   d="m 114.3,277.6 c 0,-6.7 -0.1,-7.7 -4.5,-8 l -1.8,-0.1 c -0.4,-0.3 -0.3,-1.4 0.1,-1.6 3.9,0.1 6.3,0.2 9.1,0.2 2.7,0 5.1,-0.1 8.6,-0.2 0.4,0.2 0.6,1.3 0.1,1.6 l -1.7,0.1 c -4.1,0.3 -4.3,1.3 -4.3,8 v 22.1 c 0,4 0.2,5.7 1.5,6.9 0.8,0.7 2.1,1.5 7.6,1.5 5.9,0 7.4,-0.3 8.5,-0.8 1.4,-0.8 3.2,-3.1 4.6,-6.3 0.4,-0.3 1.7,-0.1 1.7,0.4 0,0.7 -2,7.2 -2.9,8.9 -3.6,-0.1 -10.2,-0.2 -17.4,-0.2 h -6.4 c -2.9,0 -5.2,0.1 -9.1,0.2 -0.4,-0.2 -0.6,-1.2 -0.1,-1.6 l 2.1,-0.2 c 4.1,-0.4 4.2,-1.3 4.2,-7.9 v -23 z"
   id="path12"
   style="fill:#1a2e49;fill-opacity:1" />
						<path
   class="st0"
   d="m 301.7,277.7 c 0,-6.7 -0.1,-7.8 -4.2,-8.1 l -1.7,-0.1 c -0.4,-0.3 -0.3,-1.4 0.1,-1.6 3.4,0.1 5.8,0.2 8.7,0.2 2.7,0 5.1,-0.1 8.5,-0.2 0.4,0.2 0.5,1.3 0.1,1.6 l -1.7,0.1 c -4.1,0.3 -4.2,1.4 -4.2,8.1 v 22.6 c 0,6.7 0.1,7.6 4.2,8.1 l 1.7,0.2 c 0.4,0.3 0.3,1.4 -0.1,1.6 -3.4,-0.1 -5.8,-0.2 -8.5,-0.2 -2.9,0 -5.2,0.1 -8.7,0.2 -0.4,-0.2 -0.6,-1.2 -0.1,-1.6 l 1.7,-0.2 c 4.1,-0.4 4.2,-1.3 4.2,-8.1 z"
   id="path13"
   style="fill:#1a2e49;fill-opacity:1" />
						<path
   class="st0"
   d="m 246.8,308.4 c -0.4,0 -1,-0.1 -1,-0.1 -0.7,-0.1 -1.4,-0.2 -1.9,-0.7 -0.9,-0.9 -0.8,-3.6 -0.8,-4.7 V 275 c 0,-1.2 -0.3,-3.8 0.6,-4.8 0.4,-0.5 1.4,-0.6 2.2,-0.6 v 0 c 0.5,0 0.5,0 1,-0.1 l 1.8,-0.1 c 0.4,-0.3 0.3,-1.4 -0.1,-1.6 -0.9,0 -1.8,0 -2.6,0 v 0 h -7.5 c -0.8,0 -1.6,0 -2,0.9 L 221,300.5 207.5,269.7 c -0.4,-1.1 -0.5,-2 -1.9,-2 h -7.8 c -0.8,0 -1.7,0 -2.7,-0.1 -0.4,0.2 -0.6,1.3 -0.1,1.6 l 1.8,0.1 c 0.4,0 1,0.1 1,0.1 2.9,0.2 3.1,0.8 2.8,3.9 l -2.3,29.9 c -0.2,3 -0.4,4.6 -3.5,4.9 0,0 -0.7,0.1 -1,0.1 l -1.8,0.2 c -0.4,0.4 -0.3,1.4 0.1,1.6 0.9,0 2.6,-0.1 2.6,-0.1 1.6,-0.1 3.2,-0.2 4.8,-0.2 1.8,0 3.5,0.2 5.3,0.2 v 0 c 0.8,0 1.7,0.1 2.6,0.1 0.4,-0.2 0.6,-1.2 0.1,-1.6 l -1.8,-0.2 c -0.5,0 -1,-0.1 -1,-0.1 -4.5,-0.3 -4.4,-3.5 -4.2,-7.4 l 2.2,-27.8 h 0.5 l 14.6,34.2 c 0.1,0.5 0.4,1.3 1.1,1.3 0.7,0 0.9,-0.7 1.1,-1.2 l 16.5,-35.1 h 0.5 v 30.6 c 0,1.2 0.1,3.7 -1.1,4.7 -0.7,0.5 -2.8,0.8 -2.8,0.8 -0.3,0 -0.6,0.1 -1,0.1 l -1.8,0.2 c -0.4,0.4 -0.3,1.4 0.1,1.6 0.9,0 2.6,-0.1 2.6,-0.1 2.4,-0.1 4.8,-0.2 7.3,-0.2 1.7,0 5.2,0.2 5.2,0.2 0.8,0 1.7,0.1 2.7,0.1 0.4,-0.2 0.6,-1.2 0.1,-1.6 z"
   id="path14"
   style="fill:#1a2e49;fill-opacity:1" />
						<g
   id="g15"
   style="fill:#1a2e49;fill-opacity:1">
							<path
   class="st0"
   d="m 361.5,308.6 -0.2,-0.2 c -0.4,0 -0.7,-0.1 -1,-0.1 -2.8,-0.6 -3.8,-3.9 -4.8,-6.3 l -14.2,-33.5 c -0.1,-0.4 -0.4,-1.3 -1,-1.3 -0.8,0 -1,0.9 -1.2,1.5 l -13.5,33.4 c -0.5,1.3 -1.8,4.3 -2.7,5.3 -0.7,0.7 -1.6,0.9 -2.6,1 0,0 -0.8,0.1 -1.1,0.1 l -1.7,0.2 c -0.4,0.4 -0.3,1.4 0.1,1.6 0.9,0 2.6,-0.1 2.6,-0.1 1.8,0 3.7,-0.3 5.6,-0.3 1.6,0 3.1,0.2 4.7,0.2 0,0 1.7,0.1 2.6,0.1 0.4,-0.2 0.6,-1.2 0.1,-1.6 l -1.8,-0.2 c -0.4,0 -1,-0.1 -1,-0.1 -1.6,-0.2 -3.7,-0.5 -3.7,-2.3 0,-1.2 0.6,-2.6 1,-3.7 l 2.1,-5 c 1.1,-2.4 0.6,-2.7 3.4,-2.7 h 9.5 c 3.4,0 2.9,0 4.3,3.4 l 2.2,5.1 c 0.4,0.9 1,2.3 1,3.3 0,1.7 -1.8,1.8 -3.5,1.9 0,0 -0.6,0 -1.1,0.1 l -1.7,0.1 c -0.4,0.4 -0.3,1.4 0.1,1.6 0.9,0 2.6,-0.1 2.6,-0.1 2,-0.1 4,-0.2 5.9,-0.2 2.5,0 4.9,0.2 7.4,0.2 v 0 c 0.8,0 0.1,0.1 1.1,0.1 0.8,-0.1 0.9,-1.2 0.5,-1.5 z m -18.6,-15.8 h -8.3 c -0.3,0 -2.6,0.3 -2.6,-0.4 0,-0.2 0.1,-0.6 0.2,-0.8 l 5,-12.3 c 0.1,-0.3 0.6,-2 1.2,-2 0.4,0 1,1.8 1.1,2 l 4.9,11.5 c 0,0.1 0.5,1.2 0.5,1.5 0.1,0.7 -1.5,0.5 -2,0.5 z"
   id="path15"
   style="fill:#1a2e49;fill-opacity:1" />
						</g>
					</g>
				</g>
			</g>
		</g>
	</g>
	<path
   class="st0"
   d="m 85.7,163.6 c 44.7,0 106.5,25.2 151.4,25.2 32,0 63.3,-8.5 81,-21.1 1.2,-7.4 1.9,-15 1.9,-22.7 C 320,69.9 259.1,9 184,9 108.9,9 48,69.9 48,145 c 0,7.7 0.6,15.2 1.9,22.5 4.8,-1 21.5,-3.9 35.8,-3.9 z"
   id="path20" />
	<g
   id="g21">
		<polygon
   class="st1"
   points="277.2,115.7 289.2,107.4 271.9,113.5 "
   id="polygon20" />
		<path
   class="st1"
   d="m 71.4,104.2 -14.1,-5 0.7,-1.7 15.9,5.3 H 74 l 2.1,-1.2 0.8,-0.5 -17.4,-7.4 0.7,-1.8 38.8,15.7 1.3,-0.5 -38.4,-18.9 0.9,-1.8 40.7,19 0.6,-0.3 -39.5,-22.4 0.8,-1.7 57,31 c 0.5,-0.9 1.4,-2.4 1.9,-3.3 C 102.6,88.3 81.7,73 81.7,73 c 0,0 21.5,14.4 48.1,27.8 0.9,-1.1 1.6,-2 2.5,-3 L 83.7,55.1 85,53.8 124.3,87.3 87.9,50.8 89.3,49.4 130.1,88.9 92.1,46.7 93.6,45.4 128.7,83 96.6,42.5 98,41.2 l 41.1,50 c 1.1,-0.9 1.9,-1.6 3.1,-2.5 -12.4,-26.9 -26,-48.8 -26,-48.8 0,0 14.5,21.3 34,43.6 1.2,-0.7 2.4,-1.3 3.6,-1.9 l -0.2,-0.1 -28.8,-57.5 1.7,-0.8 23.9,45.7 -20.1,-47.4 1.8,-0.8 23.1,51.9 -19.4,-53.4 1.8,-0.7 18.4,48.3 -14.6,-49.5 1.8,-0.6 19.1,61.3 v 0.2 0 c 1.3,-0.4 2.6,-0.8 3.9,-1.2 -1.5,-29.5 -5.8,-54.7 -5.8,-54.7 0,0 5.4,25 15.1,52.9 1.3,-0.2 2.7,-0.3 4.1,-0.4 v -0.1 h 0.2 l -0.1,-0.1 -5.2,-64.1 1.9,-0.1 5,51.4 -0.9,-51.5 2,-0.1 2,56.8 2,-56.8 2,0.1 -0.9,51.5 5,-51.4 1.9,0.1 -5.2,64.1 -0.1,0.1 v 0 0 h 0.1 c 1.3,0.1 2.7,0.2 4,0.4 9.7,-27.8 15.1,-52.8 15.1,-52.8 0,0 -4.3,25.1 -5.8,54.6 1.3,0.3 2.6,0.7 3.9,1.2 l 19.2,-61.2 1.8,0.6 -15,49.5 18.5,-48.1 1.8,0.7 -19.4,53.4 23.1,-51.9 1.8,0.8 -20.1,47.4 23.9,-45.7 1.7,0.8 -28.7,57.3 v 0 c 1.2,0.6 2.3,1.2 3.5,1.8 19.4,-22.2 33.8,-43.4 33.8,-43.4 0,0 -13.5,21.7 -25.9,48.5 1.1,0.8 2.2,1.7 3.2,2.6 l 40.6,-49.5 1.4,1.3 -32.1,40.4 35.1,-37.6 1.5,1.3 -38,42.2 40.8,-39.5 1.4,1.4 -36.4,36.4 39.3,-33.5 1.3,1.3 -48.1,42.3 v 0 c 0.8,0.9 1.6,1.9 2.4,2.9 26.4,-13.3 47.7,-27.6 47.7,-27.6 0,0 -20.7,15.2 -42.3,35.4 0.6,1 1.5,2.7 2.1,3.7 l 56.2,-30.6 0.8,1.7 -44.9,25.5 46.9,-21.7 0.9,1.8 -43.5,21.2 0.8,0.3 44.2,-17.9 0.7,1.8 -41.1,17.5 0.8,0.3 27.4,-9.1 4.1,-2.9 1.4,1 9,-3 0.7,1.7 -7.8,2.7 11.3,8.6 3.6,2 C 303.5,52.5 249,7.5 184,7.5 117.8,7.5 62.6,54.1 49.3,116.3 c 0.2,-0.1 0.3,-0.2 0.5,-0.2 l 1.7,-0.7 1,-0.5 z"
   id="path21" />
	</g>
	<path
   class="st2"
   d="m 48.5,170.3 c 0,0 20.3,-4.1 37.3,-4.1 44.7,0 106.5,25.2 151.4,25.2 32.9,0 65,-9 82.5,-22.2 1.4,-7.8 2.1,-15.8 2.1,-24 0,-11.1 -1.3,-21.8 -3.8,-32.2 l -18.7,-10.4 -21.9,15.4 -14.8,-5.7 c -5,2.5 -35.8,23.1 -35.8,23.1 l -11.8,-8.6 -12.7,-2.5 -17,-12.3 -19.4,13.3 c 0,0 -21.7,12.6 -22.4,12.6 -0.7,0 -26.1,-20.1 -26.1,-20.1 l -11.7,-12.3 c -2,1.3 -10,4.9 -10,4.9 l -0.4,0.1 -7.7,-2.4 -9.4,-5 -28.4,12.9 c -0.2,0.1 -0.3,0.2 -0.5,0.2 -2,9.3 -3.1,19 -3.1,29 0,8.6 0.8,17 2.3,25.1 z"
   id="path22" />
</g>

<rect
   x="388.19998"
   y="34.900002"
   class="st3"
   width="3.2"
   height="270.70001"
   id="rect35"
   style="fill:#1a2e49;fill-opacity:1" />
<g
   id="g1"><g
     id="g45"
     transform="translate(-7.500012,102.5)"
     style="fill:#1a2e49;fill-opacity:1"><path
       class="st0"
       d="M 436.2,200.8 V 138 h 7.9 v 26.6 h 32.2 V 138 h 7.9 v 62.8 h -7.9 v -29.3 h -32.2 v 29.3 z"
       id="path16"
       style="fill:#1a2e49;fill-opacity:1" /><path
       class="st0"
       d="m 518.6,152.7 c 4,0 7.4,0.9 10.4,2.6 2.9,1.8 5.2,4.2 6.7,7.4 1.6,3.2 2.3,6.9 2.3,11.2 v 4.7 h -32.3 c 0.1,5.3 1.5,9.4 4.1,12.2 2.6,2.8 6.3,4.2 11,4.2 3,0 5.6,-0.3 8,-0.8 2.3,-0.6 4.7,-1.4 7.2,-2.4 v 6.8 c -2.4,1.1 -4.8,1.8 -7.1,2.3 -2.3,0.5 -5.1,0.7 -8.4,0.7 -4.5,0 -8.5,-0.9 -11.9,-2.7 -3.4,-1.8 -6.1,-4.5 -8,-8.1 -1.9,-3.6 -2.9,-8 -2.9,-13.3 0,-5.2 0.9,-9.6 2.6,-13.3 1.7,-3.7 4.2,-6.5 7.3,-8.5 3.2,-2 6.8,-3 11,-3 z m -0.1,6.3 c -3.7,0 -6.6,1.2 -8.8,3.6 -2.2,2.4 -3.4,5.7 -3.8,9.9 h 24 c -0.1,-4 -1,-7.2 -2.8,-9.7 -1.8,-2.5 -4.7,-3.8 -8.6,-3.8 z"
       id="path17"
       style="fill:#1a2e49;fill-opacity:1" /><path
       class="st0"
       d="m 567.9,152.8 c 5.7,0 10,1.3 12.8,3.8 2.8,2.5 4.1,6.5 4.1,12.1 v 32.1 h -5.6 l -1.5,-6.7 h -0.4 c -2.1,2.6 -4.2,4.5 -6.5,5.7 -2.3,1.2 -5.4,1.8 -9.3,1.8 -4.3,0 -7.8,-1.1 -10.6,-3.4 -2.8,-2.3 -4.2,-5.8 -4.2,-10.6 0,-4.7 1.8,-8.3 5.5,-10.9 3.7,-2.6 9.4,-3.9 17.1,-4.2 l 8,-0.3 v -2.8 c 0,-3.9 -0.9,-6.7 -2.6,-8.2 -1.7,-1.5 -4.1,-2.3 -7.2,-2.3 -2.5,0 -4.8,0.4 -7,1.1 -2.2,0.7 -4.3,1.6 -6.2,2.5 l -2.4,-5.8 c 2.1,-1.1 4.5,-2.1 7.3,-2.9 2.8,-0.8 5.6,-1 8.7,-1 z m 9.2,24.9 -7,0.3 c -5.9,0.2 -9.9,1.2 -12.2,2.8 -2.3,1.6 -3.4,4 -3.4,7 0,2.6 0.8,4.6 2.4,5.8 1.6,1.2 3.7,1.8 6.2,1.8 3.9,0 7.2,-1.1 9.9,-3.3 2.7,-2.2 4,-5.6 4,-10.2 v -4.2 z"
       id="path18"
       style="fill:#1a2e49;fill-opacity:1" /><path
       class="st0"
       d="m 607.1,200.8 h -7.7 v -66.9 h 7.7 z"
       id="path19"
       style="fill:#1a2e49;fill-opacity:1" /><path
       class="st0"
       d="m 622.8,152.8 3.1,-10 h 4.6 v 10.8 h 13.6 v 6 h -13.6 v 27.3 c 0,2.9 0.7,5 2.1,6.4 1.4,1.4 3.2,2.1 5.3,2.1 1.2,0 2.4,-0.1 3.6,-0.3 1.2,-0.2 2.2,-0.4 3,-0.7 v 5.9 c -0.8,0.4 -2,0.7 -3.5,1 -1.5,0.3 -3,0.4 -4.4,0.4 -1.8,0 -3.6,-0.2 -5.2,-0.7 -1.7,-0.4 -3.1,-1.2 -4.4,-2.3 -1.3,-1.1 -2.3,-2.6 -3,-4.5 -0.8,-1.9 -1.1,-4.3 -1.1,-7.1 V 159.6 H 616 v -3.7 z"
       id="path36"
       style="fill:#1a2e49;fill-opacity:1" /><path
       class="st0"
       d="m 653.8,133.9 h 7.7 v 19.6 c 0,1.2 0,2.3 -0.1,3.4 -0.1,1.1 -0.2,2.2 -0.3,3.2 h 0.5 c 1.5,-2.5 3.6,-4.3 6.2,-5.5 2.6,-1.2 5.4,-1.8 8.5,-1.8 5.7,0 10,1.4 12.9,4.1 2.9,2.7 4.4,7.1 4.4,13.2 v 30.7 h -7.7 v -30.2 c 0,-7.6 -3.5,-11.4 -10.6,-11.4 -5.3,0 -8.9,1.5 -10.9,4.4 -2,3 -2.9,7.2 -2.9,12.7 v 24.4 h -7.7 z"
       id="path37"
       style="fill:#1a2e49;fill-opacity:1" /></g><g
     id="g46"
     transform="translate(276.49999,-3.5)"
     style="fill:#1a2e49;fill-opacity:1"><path
       class="st0"
       d="m 463.5,273.2 h 21.7 V 304 c -3.4,1.1 -6.8,1.9 -10.3,2.5 -3.5,0.5 -7.4,0.8 -11.8,0.8 -6.5,0 -12,-1.3 -16.5,-3.9 -4.5,-2.6 -7.8,-6.3 -10.2,-11.2 -2.3,-4.8 -3.5,-10.6 -3.5,-17.2 0,-6.5 1.3,-12.2 3.8,-17 2.6,-4.8 6.3,-8.6 11.1,-11.3 4.9,-2.7 10.7,-4 17.6,-4 3.5,0 6.8,0.3 10,1 3.1,0.6 6.1,1.6 8.8,2.7 l -3,6.9 c -2.2,-0.9 -4.7,-1.8 -7.5,-2.5 -2.8,-0.7 -5.7,-1.1 -8.7,-1.1 -7.5,0 -13.4,2.3 -17.6,6.8 -4.2,4.5 -6.3,10.7 -6.3,18.5 0,5 0.8,9.4 2.4,13.2 1.6,3.8 4.2,6.8 7.6,9 3.5,2.1 8,3.2 13.6,3.2 2.8,0 5.1,-0.1 7,-0.4 1.9,-0.3 3.7,-0.6 5.3,-1.1 v -18.7 h -13.8 v -7 z"
       id="path38"
       style="fill:#1a2e49;fill-opacity:1" /><path
       class="st0"
       d="m 517.1,258.4 c 5.7,0 10,1.3 12.8,3.8 2.8,2.5 4.1,6.5 4.1,12.1 v 32.1 h -5.6 l -1.5,-6.7 h -0.4 c -2.1,2.6 -4.2,4.5 -6.5,5.7 -2.3,1.2 -5.4,1.8 -9.3,1.8 -4.3,0 -7.8,-1.1 -10.6,-3.4 -2.8,-2.3 -4.2,-5.8 -4.2,-10.6 0,-4.7 1.8,-8.3 5.5,-10.9 3.7,-2.6 9.4,-3.9 17.1,-4.2 l 8,-0.3 V 275 c 0,-3.9 -0.9,-6.7 -2.6,-8.2 -1.7,-1.5 -4.1,-2.3 -7.2,-2.3 -2.5,0 -4.8,0.4 -7,1.1 -2.2,0.7 -4.3,1.6 -6.2,2.5 l -2.4,-5.8 c 2.1,-1.1 4.5,-2.1 7.3,-2.9 2.8,-0.8 5.6,-1 8.7,-1 z m 9.2,24.9 -7,0.3 c -5.9,0.2 -9.9,1.2 -12.2,2.8 -2.3,1.6 -3.4,4 -3.4,7 0,2.6 0.8,4.6 2.4,5.8 1.6,1.2 3.7,1.8 6.2,1.8 3.9,0 7.2,-1.1 9.9,-3.3 2.7,-2.2 4,-5.6 4,-10.2 v -4.2 z"
       id="path39"
       style="fill:#1a2e49;fill-opacity:1" /><path
       class="st0"
       d="m 549.3,258.4 3.1,-10 h 4.6 v 10.8 h 13.6 v 6 H 557 v 27.3 c 0,2.9 0.7,5 2.1,6.4 1.4,1.4 3.2,2.1 5.3,2.1 1.2,0 2.4,-0.1 3.6,-0.3 1.2,-0.2 2.2,-0.4 3,-0.7 v 5.9 c -0.8,0.4 -2,0.7 -3.5,1 -1.5,0.3 -3,0.4 -4.4,0.4 -1.8,0 -3.6,-0.2 -5.2,-0.7 -1.7,-0.4 -3.1,-1.2 -4.4,-2.3 -1.3,-1.1 -2.3,-2.6 -3,-4.5 -0.8,-1.9 -1.1,-4.3 -1.1,-7.1 v -27.5 h -6.7 v -3.7 z"
       id="path40"
       style="fill:#1a2e49;fill-opacity:1" /><path
       class="st0"
       d="m 598.6,258.3 c 4,0 7.4,0.9 10.4,2.6 2.9,1.8 5.2,4.2 6.7,7.4 1.6,3.2 2.3,6.9 2.3,11.2 v 4.7 h -32.3 c 0.1,5.3 1.5,9.4 4.1,12.2 2.6,2.8 6.3,4.2 11,4.2 3,0 5.6,-0.3 8,-0.8 2.3,-0.6 4.7,-1.4 7.2,-2.4 v 6.8 c -2.4,1.1 -4.8,1.8 -7.1,2.3 -2.3,0.5 -5.1,0.7 -8.4,0.7 -4.5,0 -8.5,-0.9 -11.9,-2.7 -3.4,-1.8 -6.1,-4.5 -8,-8.1 -1.9,-3.6 -2.9,-8 -2.9,-13.3 0,-5.2 0.9,-9.6 2.6,-13.3 1.7,-3.7 4.2,-6.5 7.3,-8.5 3.1,-2 6.8,-3 11,-3 z m -0.1,6.3 c -3.7,0 -6.6,1.2 -8.8,3.6 -2.2,2.4 -3.4,5.7 -3.8,9.9 h 24 c -0.1,-4 -1,-7.2 -2.8,-9.7 -1.8,-2.5 -4.7,-3.8 -8.6,-3.8 z"
       id="path41"
       style="fill:#1a2e49;fill-opacity:1" /><path
       class="st0"
       d="m 631.5,259.1 6.5,25.2 c 0.6,2.5 1.3,5.1 1.8,7.7 0.6,2.6 1,4.7 1.2,6.4 h 0.4 c 0.1,-0.7 0.3,-1.6 0.5,-2.6 0.2,-1.1 0.5,-2.2 0.8,-3.3 0.3,-1.2 0.6,-2.3 0.9,-3.5 0.3,-1.2 0.6,-2.2 0.9,-3.2 l 8.4,-26.6 h 8.4 l 8.1,26.6 c 0.6,2.1 1.2,4.3 1.8,6.6 0.6,2.3 1.1,4.3 1.3,6 h 0.4 c 0.2,-1.5 0.6,-3.5 1.2,-6.1 0.6,-2.6 1.3,-5.2 2,-7.9 l 6.6,-25.2 h 7.9 l -13.1,47.2 h -9.1 l -8.1,-26.6 c -0.8,-2.5 -1.4,-4.8 -2,-7.1 -0.6,-2.3 -1,-4.1 -1.2,-5.4 h -0.4 c -0.2,1.4 -0.6,3.2 -1.1,5.5 -0.5,2.3 -1.2,4.7 -2,7.1 l -8.4,26.5 h -8.8 l -12.9,-47.2 h 8 z"
       id="path42"
       style="fill:#1a2e49;fill-opacity:1" /><path
       class="st0"
       d="m 717,258.4 c 5.7,0 10,1.3 12.8,3.8 2.8,2.5 4.1,6.5 4.1,12.1 v 32.1 h -5.6 l -1.5,-6.7 h -0.4 c -2.1,2.6 -4.2,4.5 -6.5,5.7 -2.3,1.2 -5.4,1.8 -9.3,1.8 -4.3,0 -7.8,-1.1 -10.6,-3.4 -2.8,-2.3 -4.2,-5.8 -4.2,-10.6 0,-4.7 1.8,-8.3 5.5,-10.9 3.7,-2.6 9.4,-3.9 17.1,-4.2 l 8,-0.3 V 275 c 0,-3.9 -0.9,-6.7 -2.6,-8.2 -1.7,-1.5 -4.1,-2.3 -7.2,-2.3 -2.5,0 -4.8,0.4 -7,1.1 -2.2,0.7 -4.3,1.6 -6.2,2.5 l -2.4,-5.8 c 2.1,-1.1 4.5,-2.1 7.3,-2.9 2.8,-0.8 5.7,-1 8.7,-1 z m 9.2,24.9 -7,0.3 c -5.9,0.2 -9.9,1.2 -12.2,2.8 -2.3,1.6 -3.4,4 -3.4,7 0,2.6 0.8,4.6 2.4,5.8 1.6,1.2 3.7,1.8 6.2,1.8 3.9,0 7.2,-1.1 9.9,-3.3 2.7,-2.2 4,-5.6 4,-10.2 v -4.2 z"
       id="path43"
       style="fill:#1a2e49;fill-opacity:1" /><path
       class="st0"
       d="m 741.1,259.2 h 8.3 l 10.2,26.8 c 0.9,2.4 1.7,4.7 2.4,6.8 0.7,2.1 1.2,4.1 1.6,6.1 h 0.4 c 0.4,-1.5 0.9,-3.4 1.7,-5.8 0.8,-2.4 1.6,-4.8 2.4,-7.2 l 9.6,-26.8 h 8.4 l -20.3,53.7 c -1.7,4.5 -3.8,8 -6.4,10.6 -2.6,2.6 -6.2,4 -10.7,4 -1.4,0 -2.6,-0.1 -3.7,-0.2 -1.1,-0.1 -2,-0.3 -2.7,-0.5 v -6.2 c 0.6,0.1 1.4,0.2 2.3,0.4 0.9,0.1 1.9,0.2 2.9,0.2 2.7,0 4.9,-0.8 6.5,-2.3 1.6,-1.5 3,-3.6 4,-6.1 l 2.5,-6.2 z"
       id="path44"
       style="fill:#1a2e49;fill-opacity:1" /></g></g></svg>
