<?xml version="1.0" encoding="utf-8"?>
<!-- Generator: Adobe Illustrator 27.0.1, SVG Export Plug-In . SVG Version: 6.00 Build 0)  -->
<svg version="1.1" id="Layer_1" xmlns="http://www.w3.org/2000/svg" xmlns:xlink="http://www.w3.org/1999/xlink" x="0px" y="0px"
	 viewBox="0 0 792 356.4" style="enable-background:new 0 0 792 356.4;" xml:space="preserve">
<style type="text/css">
	.st0{fill:#FFFFFF;}
	.st1{fill:#E3A82B;}
	.st2{fill:#65799E;}
	.st3{fill:#F1F2F2;}
</style>
<g>
	<g>
		<g>
			<g>
				<g>
					<path class="st0" d="M56.4,210.7c0-5.5-0.4-7-4.1-7.3l-2.6-0.2c-0.4-0.3-0.3-1.8,0.1-1.9c4.5-0.4,10.1-0.6,17.8-0.6
						c5.2,0,10.2,0.4,13.9,2.1c3.6,1.6,6.3,4.5,6.3,9.3c0,5.4-3.5,8.1-8.4,10.2c0,0.7,0.7,1,1.6,1.1c4.5,0.7,11.1,4.5,11.1,12.4
						c0,8.6-7.1,14.4-22,14.4c-2.4,0-6.4-0.2-9.9-0.2c-3.6,0-6.4,0.2-9.5,0.2c-0.5-0.2-0.7-1.4-0.2-1.9l1.5-0.2
						c4.4-0.7,4.5-1.5,4.5-9.3V210.7z M63.2,220.6c0,2.1,0.1,2.2,4.3,2.1c8.4-0.3,13-2.5,13-9.5c0-7.3-6-10-12.3-10
						c-1.8,0-3.1,0.1-3.8,0.4c-0.8,0.2-1.2,0.6-1.2,1.9V220.6z M63.2,237.8c0,2.7,0.2,6.5,1.7,8.1c1.6,1.7,4.1,2.1,6.5,2.1
						c7.4,0,13-3,13-10.4c0-5.9-3.3-12.7-16.4-12.7c-4.5,0-4.8,0.4-4.8,1.9V237.8z"/>
					<path class="st0" d="M149.4,218c0-6.7-0.1-7.8-4.3-8.1l-1.8-0.1c-0.4-0.3-0.3-1.4,0.1-1.6c3.5,0.1,5.9,0.2,8.9,0.2
						c2.8,0,5.2-0.1,8.8-0.2c0.4,0.2,0.6,1.3,0.1,1.6l-1.8,0.1c-4.2,0.3-4.3,1.4-4.3,8.1v22.6c0,6.7,0.1,7.6,4.3,8.1l1.8,0.2
						c0.4,0.3,0.3,1.4-0.1,1.6c-3.5-0.1-5.9-0.2-8.8-0.2c-3,0-5.4,0.1-8.9,0.2c-0.4-0.2-0.6-1.2-0.1-1.6l1.8-0.2
						c4.2-0.4,4.3-1.3,4.3-8.1V218z"/>
					<path class="st0" d="M188.6,240.8c0,6.7,0.1,7.6,4,7.9l2.1,0.2c0.4,0.3,0.3,1.4-0.1,1.6c-3.8-0.1-6-0.2-8.7-0.2
						c-2.6,0-5,0.1-9.2,0.2c-0.4-0.2-0.5-1.3,0-1.6l2.4-0.2c3.8-0.3,4.1-1.3,4.1-7.9v-28.4c0-2,0-2-2-2h-3.6c-2.8,0-6.5,0.1-8.1,1.6
						c-1.6,1.4-2.2,2.8-3,4.4c-0.5,0.4-1.5,0.1-1.7-0.4c1.1-2.9,2.1-6.9,2.5-9.5c0.2-0.1,1.1-0.2,1.3,0c0.4,2,2.6,2,5.6,2h26.8
						c3.6,0,4.2-0.1,5.2-1.8c0.3-0.1,1.1-0.1,1.2,0.2c-0.7,2.6-1.2,7.8-1,9.7c-0.3,0.5-1.4,0.5-1.7,0.1c-0.2-1.6-0.7-3.9-1.7-4.6
						c-1.5-1.1-4-1.6-7.7-1.6h-4.7c-2,0-1.9,0.1-1.9,2.2V240.8z"/>
					<path class="st0" d="M216.9,218c0-6.7-0.1-7.8-4.3-8.1l-1.8-0.1c-0.4-0.3-0.3-1.4,0.1-1.6c3.5,0.1,5.9,0.2,8.9,0.2
						c2.8,0,5.2-0.1,8.8-0.2c0.4,0.2,0.6,1.3,0.1,1.6l-1.8,0.1c-4.2,0.3-4.3,1.4-4.3,8.1v22.6c0,6.7,0.1,7.6,4.3,8.1l1.8,0.2
						c0.4,0.3,0.3,1.4-0.1,1.6c-3.5-0.1-5.9-0.2-8.8-0.2c-3,0-5.4,0.1-8.9,0.2c-0.4-0.2-0.6-1.2-0.1-1.6l1.8-0.2
						c4.2-0.4,4.3-1.3,4.3-8.1V218z"/>
					<path class="st0" d="M248.5,251.1c-6.3,0-10.3-1.7-11.7-2.4c-0.9-1.4-1.9-5.9-2-8.9c0.4-0.4,1.5-0.6,1.8-0.2
						c1.1,3.2,4.2,9.5,12.9,9.5c6.3,0,9.4-3.5,9.4-7.3c0-2.8-0.7-5.9-6.2-8.9l-7.1-3.9c-3.8-2.1-8.1-5.7-8.1-10.9
						c0-6,5.6-10.9,15.3-10.9c2.3,0,5,0.4,7,0.8c1,0.3,2,0.4,2.6,0.4c0.7,1.5,1.4,5.1,1.4,7.8c-0.3,0.4-1.5,0.6-1.9,0.2
						c-1-3.1-3-7.2-10.2-7.2c-7.4,0-8.9,4.1-8.9,7.1c0,3.7,3.6,6.4,6.4,7.8l6,3.2c4.7,2.5,9.4,6.2,9.4,12.2
						C264.5,246.4,258.3,251.1,248.5,251.1z"/>
					<path class="st0" d="M286.3,229.8c-3.3,0-3.4,0.1-3.4,2v9c0,6.7,0.3,7.6,4.2,7.9l2,0.2c0.4,0.3,0.3,1.4-0.1,1.6
						c-3.7-0.1-6-0.2-8.7-0.2c-2.9,0-5.3,0.1-7.9,0.2c-0.4-0.2-0.5-1.2-0.1-1.6l1.2-0.2c3.8-0.6,4-1.3,4-7.9v-22.9
						c0-6.7-0.5-7.8-4-8l-1.8-0.1c-0.4-0.3-0.3-1.4,0.1-1.6c3.4,0.1,5.7,0.2,8.6,0.2c2.7,0,5-0.1,7.9-0.2c0.4,0.2,0.5,1.3,0.1,1.6
						l-1.3,0.1c-4,0.4-4.1,1.3-4.1,8v7.3c0,2,0.1,2,3.4,2h19.6c3.3,0,3.4-0.1,3.4-2v-7.3c0-6.7-0.1-7.6-4.2-8l-1.3-0.1
						c-0.4-0.3-0.3-1.4,0.1-1.6c3.1,0.1,5.5,0.2,8.3,0.2c2.7,0,5-0.1,8.1-0.2c0.4,0.2,0.5,1.3,0.1,1.6l-1.4,0.1
						c-4,0.4-4.1,1.3-4.1,8v22.9c0,6.7,0.1,7.5,4.1,7.9l1.6,0.2c0.4,0.3,0.3,1.4-0.1,1.6c-3.3-0.1-5.6-0.2-8.3-0.2
						c-2.8,0-5.3,0.1-8.3,0.2c-0.4-0.2-0.5-1.2-0.1-1.6l1.3-0.2c4.2-0.6,4.2-1.3,4.2-7.9v-9c0-1.9-0.1-2-3.4-2H286.3z"/>
					<path class="st0" d="M17.3,264.5c5.6-4.4,12.8-6.5,20.8-6.5c4.2,0,10,0.8,13.6,1.8c0.9,0.2,1.5,0.4,2.2,0.3
						c0.1,1.8,0.5,6.6,1.1,11.3c-0.4,0.5-1.5,0.6-2.1,0.2c-1.2-5.2-4.6-11.2-15.8-11.2c-11.8,0-21.8,7.4-21.8,23.3
						c0,16.1,10.2,25,22.9,25c9.9,0,14.3-6.5,16.1-11c0.5-0.4,1.7-0.2,2,0.3c-0.5,4-2.5,9.1-3.7,10.5c-0.9,0.2-1.8,0.5-2.7,0.8
						c-1.7,0.6-7.2,1.8-12.2,1.8c-6.9,0-13.6-1.4-19.2-5.1c-6.2-4.2-10.9-11.2-10.9-21.1C7.6,276.3,11.4,269,17.3,264.5z"/>
					<path class="st0" d="M59.4,289.3c0-12.7,10-22.4,23.8-22.4c15.4,0,23.2,10.6,23.2,21.8c0,12.8-10.3,22.2-23.2,22.2
						C68.4,310.9,59.4,300.7,59.4,289.3z M99.7,290.6c0-10.5-4.9-21.8-17.6-21.8c-6.9,0-16,4.5-16,18.4c0,9.4,4.8,21.6,18,21.6
						C92.1,308.9,99.7,303.2,99.7,290.6z"/>
					<path class="st0" d="M181.7,283.8c0-3.9-0.1-11.3-1.3-13.2c-0.5-0.8-1.7-1.2-3.4-1.3l-1.7-0.1c-0.4-0.4-0.3-1.3,0.1-1.5
						c2.6,0.1,5.1,0.2,7.7,0.2c2.8,0,4.7-0.1,7.1-0.2c0.5,0.3,0.5,1.1,0.1,1.5l-1.6,0.1c-1.7,0.1-3,0.7-3.4,1.5
						c-0.9,2.1-0.9,9.4-0.9,13v7.2c0,5.5-0.9,11.4-4.7,15.2c-2.9,3-7.9,4.6-12.9,4.6c-4.7,0-9.3-0.8-12.6-3.5
						c-3.6-2.8-5.3-7.4-5.3-15v-15c0-6.6-0.1-7.7-4-8l-1.7-0.1c-0.4-0.3-0.3-1.3,0.1-1.5c3.4,0.1,5.7,0.2,8.4,0.2
						c2.8,0,5-0.1,8.3-0.2c0.4,0.2,0.5,1.3,0.1,1.5l-1.6,0.1c-3.9,0.3-4,1.4-4,8v13.7c0,10.2,3.4,17,13.7,17
						c9.8,0,13.5-7.3,13.5-16.9V283.8z"/>
					<path class="st0" d="M260,275.9c0-4.8-0.3-6-3.7-6.2l-2.4-0.2c-0.3-0.2-0.4-1.5,0.1-1.6c4-0.3,9.1-0.5,16-0.5
						c4.7,0,9.2,0.3,12.5,1.8c3.2,1.4,5.7,3.9,5.7,8c0,4.6-3.1,7-7.6,8.8c0,0.6,0.6,0.8,1.4,1c4,0.6,10,3.9,10,10.7
						c0,7.5-6.4,12.5-19.8,12.5c-2.2,0-5.8-0.2-8.9-0.2c-3.3,0-5.8,0.1-8.6,0.2c-0.4-0.2-0.6-1.2-0.1-1.6l1.3-0.2
						c3.9-0.6,4.1-1.3,4.1-8V275.9z M266.1,284.4c0,1.8,0.1,1.9,3.9,1.8c7.6-0.3,11.7-2.2,11.7-8.2c0-6.3-5.4-8.7-11.1-8.7
						c-1.6,0-2.8,0.1-3.4,0.4c-0.7,0.2-1,0.5-1,1.7V284.4z M266.1,299.3c0,2.3,0.1,5.6,1.6,7c1.4,1.5,3.7,1.8,5.9,1.8
						c6.6,0,11.7-2.6,11.7-9c0-5.1-3-11-14.8-11c-4,0-4.3,0.4-4.3,1.7V299.3z"/>
					<rect x="50.1" y="327.2" class="st1" width="270.7" height="3.2"/>
					<g>
						<path class="st0" d="M138.6,248.9l-1.8-0.2c-0.4,0-0.7-0.1-1-0.1c-2.6-0.5-3.6-2.8-4.8-4.9l-6.1-10.6
							c-1.1-1.8-2.2-4.2-4.6-4.5c6.3-0.8,11.9-4.4,11.9-10.6c0-7.2-7.1-10.4-14.2-10.4c-4.3,0-8.2,0.1-12.6,0.1
							c-2.4,0-5.3-0.1-7.7-0.1c-1.3,0-1.4,0.3-1.4,1c0,1.1,0.5,0.8,1.9,0.9c5.1,0.3,4.9,1.2,4.9,5.6V243c0,4,0.3,5.2-3.8,5.6
							c0,0-0.6,0.1-1,0.1l-1.8,0.2c-0.4,0.4-0.3,1.4,0.1,1.6c0.9,0,2.6-0.1,2.6-0.1c2.3-0.1,4.6-0.2,7-0.2c2.3,0,4.6,0.2,6.9,0.2v0
							c0.8,0,1.7,0.1,2.6,0.1c0.4-0.2,0.6-1.2,0.1-1.6l-1.8-0.2c-0.4,0-1-0.1-1-0.1c-4.2-0.3-4-1.5-4-5.6v-10.5
							c0-0.6-0.1-2.2,0.4-2.7c0.4-0.4,1.1-0.3,1.7-0.3c5.7,0,5.7,0.5,8.4,5.3l7.4,13.3c0.6,1,1.1,2.3,2.6,2.3h6.4
							c0.8,0,1.7,0.1,2.6,0.1C138.9,250.3,139,249.3,138.6,248.9z M112.9,228c-1.3,0-3.8,0.5-3.8-1.2v-12.2c0-4.8,0.2-5.5,5.9-5.5
							c6.7,0,10.9,3.4,10.9,9.7c0,2.7-1,5.2-3.5,7C119.4,227.7,116.4,228,112.9,228z"/>
					</g>
					<g>
						<path class="st0" d="M114.3,277.6c0-6.7-0.1-7.7-4.5-8l-1.8-0.1c-0.4-0.3-0.3-1.4,0.1-1.6c3.9,0.1,6.3,0.2,9.1,0.2
							c2.7,0,5.1-0.1,8.6-0.2c0.4,0.2,0.6,1.3,0.1,1.6l-1.7,0.1c-4.1,0.3-4.3,1.3-4.3,8v22.1c0,4,0.2,5.7,1.5,6.9
							c0.8,0.7,2.1,1.5,7.6,1.5c5.9,0,7.4-0.3,8.5-0.8c1.4-0.8,3.2-3.1,4.6-6.3c0.4-0.3,1.7-0.1,1.7,0.4c0,0.7-2,7.2-2.9,8.9
							c-3.6-0.1-10.2-0.2-17.4-0.2h-6.4c-2.9,0-5.2,0.1-9.1,0.2c-0.4-0.2-0.6-1.2-0.1-1.6l2.1-0.2c4.1-0.4,4.2-1.3,4.2-7.9V277.6z"
							/>
						<path class="st0" d="M301.7,277.7c0-6.7-0.1-7.8-4.2-8.1l-1.7-0.1c-0.4-0.3-0.3-1.4,0.1-1.6c3.4,0.1,5.8,0.2,8.7,0.2
							c2.7,0,5.1-0.1,8.5-0.2c0.4,0.2,0.5,1.3,0.1,1.6l-1.7,0.1c-4.1,0.3-4.2,1.4-4.2,8.1v22.6c0,6.7,0.1,7.6,4.2,8.1l1.7,0.2
							c0.4,0.3,0.3,1.4-0.1,1.6c-3.4-0.1-5.8-0.2-8.5-0.2c-2.9,0-5.2,0.1-8.7,0.2c-0.4-0.2-0.6-1.2-0.1-1.6l1.7-0.2
							c4.1-0.4,4.2-1.3,4.2-8.1V277.7z"/>
						<path class="st0" d="M246.8,308.4c-0.4,0-1-0.1-1-0.1c-0.7-0.1-1.4-0.2-1.9-0.7c-0.9-0.9-0.8-3.6-0.8-4.7V275
							c0-1.2-0.3-3.8,0.6-4.8c0.4-0.5,1.4-0.6,2.2-0.6v0c0.5,0,0.5,0,1-0.1l1.8-0.1c0.4-0.3,0.3-1.4-0.1-1.6c-0.9,0-1.8,0-2.6,0v0
							h-7.5c-0.8,0-1.6,0-2,0.9L221,300.5l-13.5-30.8c-0.4-1.1-0.5-2-1.9-2h-7.8c-0.8,0-1.7,0-2.7-0.1c-0.4,0.2-0.6,1.3-0.1,1.6
							l1.8,0.1c0.4,0,1,0.1,1,0.1c2.9,0.2,3.1,0.8,2.8,3.9l-2.3,29.9c-0.2,3-0.4,4.6-3.5,4.9c0,0-0.7,0.1-1,0.1l-1.8,0.2
							c-0.4,0.4-0.3,1.4,0.1,1.6c0.9,0,2.6-0.1,2.6-0.1c1.6-0.1,3.2-0.2,4.8-0.2c1.8,0,3.5,0.2,5.3,0.2v0c0.8,0,1.7,0.1,2.6,0.1
							c0.4-0.2,0.6-1.2,0.1-1.6l-1.8-0.2c-0.5,0-1-0.1-1-0.1c-4.5-0.3-4.4-3.5-4.2-7.4l2.2-27.8h0.5l14.6,34.2
							c0.1,0.5,0.4,1.3,1.1,1.3c0.7,0,0.9-0.7,1.1-1.2l16.5-35.1h0.5v30.6c0,1.2,0.1,3.7-1.1,4.7c-0.7,0.5-2.8,0.8-2.8,0.8
							c-0.3,0-0.6,0.1-1,0.1l-1.8,0.2c-0.4,0.4-0.3,1.4,0.1,1.6c0.9,0,2.6-0.1,2.6-0.1c2.4-0.1,4.8-0.2,7.3-0.2
							c1.7,0,5.2,0.2,5.2,0.2c0.8,0,1.7,0.1,2.7,0.1c0.4-0.2,0.6-1.2,0.1-1.6L246.8,308.4z"/>
						<g>
							<path class="st0" d="M361.5,308.6l-0.2-0.2c-0.4,0-0.7-0.1-1-0.1c-2.8-0.6-3.8-3.9-4.8-6.3l-14.2-33.5
								c-0.1-0.4-0.4-1.3-1-1.3c-0.8,0-1,0.9-1.2,1.5l-13.5,33.4c-0.5,1.3-1.8,4.3-2.7,5.3c-0.7,0.7-1.6,0.9-2.6,1
								c0,0-0.8,0.1-1.1,0.1l-1.7,0.2c-0.4,0.4-0.3,1.4,0.1,1.6c0.9,0,2.6-0.1,2.6-0.1c1.8,0,3.7-0.3,5.6-0.3c1.6,0,3.1,0.2,4.7,0.2
								c0,0,1.7,0.1,2.6,0.1c0.4-0.2,0.6-1.2,0.1-1.6l-1.8-0.2c-0.4,0-1-0.1-1-0.1c-1.6-0.2-3.7-0.5-3.7-2.3c0-1.2,0.6-2.6,1-3.7
								l2.1-5c1.1-2.4,0.6-2.7,3.4-2.7h9.5c3.4,0,2.9,0,4.3,3.4l2.2,5.1c0.4,0.9,1,2.3,1,3.3c0,1.7-1.8,1.8-3.5,1.9
								c0,0-0.6,0-1.1,0.1l-1.7,0.1c-0.4,0.4-0.3,1.4,0.1,1.6c0.9,0,2.6-0.1,2.6-0.1c2-0.1,4-0.2,5.9-0.2c2.5,0,4.9,0.2,7.4,0.2v0
								c0.8,0,0.1,0.1,1.1,0.1C361.8,310,361.9,308.9,361.5,308.6z M342.9,292.8h-8.3c-0.3,0-2.6,0.3-2.6-0.4c0-0.2,0.1-0.6,0.2-0.8
								l5-12.3c0.1-0.3,0.6-2,1.2-2c0.4,0,1,1.8,1.1,2l4.9,11.5c0,0.1,0.5,1.2,0.5,1.5C345,293,343.4,292.8,342.9,292.8z"/>
						</g>
					</g>
				</g>
			</g>
		</g>
	</g>
	<path class="st0" d="M85.7,163.6c44.7,0,106.5,25.2,151.4,25.2c32,0,63.3-8.5,81-21.1c1.2-7.4,1.9-15,1.9-22.7
		c0-75.1-60.9-136-136-136c-75.1,0-136,60.9-136,136c0,7.7,0.6,15.2,1.9,22.5C54.7,166.5,71.4,163.6,85.7,163.6z"/>
	<g>
		<polygon class="st1" points="271.9,113.5 277.2,115.7 289.2,107.4 		"/>
		<path class="st1" d="M71.4,104.2l-14.1-5l0.7-1.7l15.9,5.3l0.1,0l2.1-1.2l0.8-0.5l-17.4-7.4l0.7-1.8l38.8,15.7l1.3-0.5L61.9,88.2
			l0.9-1.8l40.7,19l0.6-0.3L64.6,82.7l0.8-1.7l57,31c0.5-0.9,1.4-2.4,1.9-3.3c-21.7-20.4-42.6-35.7-42.6-35.7s21.5,14.4,48.1,27.8
			c0.9-1.1,1.6-2,2.5-3L83.7,55.1l1.3-1.3l39.3,33.5L87.9,50.8l1.4-1.4l40.8,39.5l-38-42.2l1.5-1.3L128.7,83L96.6,42.5l1.4-1.3
			l41.1,50c1.1-0.9,1.9-1.6,3.1-2.5c-12.4-26.9-26-48.8-26-48.8s14.5,21.3,34,43.6c1.2-0.7,2.4-1.3,3.6-1.9l-0.2-0.1l-28.8-57.5
			l1.7-0.8l23.9,45.7l-20.1-47.4l1.8-0.8l23.1,51.9l-19.4-53.4l1.8-0.7L156,66.8l-14.6-49.5l1.8-0.6L162.3,78l0,0.2l0,0
			c1.3-0.4,2.6-0.8,3.9-1.2c-1.5-29.5-5.8-54.7-5.8-54.7s5.4,25,15.1,52.9c1.3-0.2,2.7-0.3,4.1-0.4l0-0.1h0.2l-0.1-0.1l-5.2-64.1
			l1.9-0.1l5,51.4l-0.9-51.5l2-0.1l2,56.8l2-56.8l2,0.1l-0.9,51.5l5-51.4l1.9,0.1l-5.2,64.1l-0.1,0.1h0l0,0h0.1
			c1.3,0.1,2.7,0.2,4,0.4c9.7-27.8,15.1-52.8,15.1-52.8s-4.3,25.1-5.8,54.6c1.3,0.3,2.6,0.7,3.9,1.2l19.2-61.2l1.8,0.6L212.5,67
			L231,18.9l1.8,0.7L213.4,73l23.1-51.9l1.8,0.8l-20.1,47.4l23.9-45.7l1.7,0.8l-28.7,57.3l0,0c1.2,0.6,2.3,1.2,3.5,1.8
			c19.4-22.2,33.8-43.4,33.8-43.4s-13.5,21.7-25.9,48.5c1.1,0.8,2.2,1.7,3.2,2.6l40.6-49.5l1.4,1.3l-32.1,40.4l35.1-37.6l1.5,1.3
			l-38,42.2l40.8-39.5l1.4,1.4l-36.4,36.4l39.3-33.5l1.3,1.3l-48.1,42.3l0,0c0.8,0.9,1.6,1.9,2.4,2.9c26.4-13.3,47.7-27.6,47.7-27.6
			s-20.7,15.2-42.3,35.4c0.6,1,1.5,2.7,2.1,3.7l56.2-30.6l0.8,1.7l-44.9,25.5L305.4,87l0.9,1.8L262.8,110l0.8,0.3l44.2-17.9l0.7,1.8
			l-41.1,17.5l0.8,0.3l27.4-9.1l4.1-2.9l1.4,1l9-3l0.7,1.7l-7.8,2.7l11.3,8.6l3.6,2C303.5,52.5,249,7.5,184,7.5
			c-66.2,0-121.4,46.6-134.7,108.8c0.2-0.1,0.3-0.2,0.5-0.2l1.7-0.7l1-0.5L71.4,104.2z"/>
	</g>
	<path class="st2" d="M48.5,170.3c0,0,20.3-4.1,37.3-4.1c44.7,0,106.5,25.2,151.4,25.2c32.9,0,65-9,82.5-22.2
		c1.4-7.8,2.1-15.8,2.1-24c0-11.1-1.3-21.8-3.8-32.2l-18.7-10.4l-21.9,15.4l-14.8-5.7c-5,2.5-35.8,23.1-35.8,23.1l-11.8-8.6
		l-12.7-2.5L185.3,112l-19.4,13.3c0,0-21.7,12.6-22.4,12.6c-0.7,0-26.1-20.1-26.1-20.1l-11.7-12.3c-2,1.3-10,4.9-10,4.9l-0.4,0.1
		l-7.7-2.4l-9.4-5l-28.4,12.9c-0.2,0.1-0.3,0.2-0.5,0.2c-2,9.3-3.1,19-3.1,29C46.2,153.8,47,162.2,48.5,170.3z"/>
</g>
<g>
	<path class="st0" d="M436.2,200.8v-62.8h7.9v26.6h32.2v-26.6h7.9v62.8h-7.9v-29.3h-32.2v29.3H436.2z"/>
	<path class="st0" d="M518.6,152.7c4,0,7.4,0.9,10.4,2.6c2.9,1.8,5.2,4.2,6.7,7.4c1.6,3.2,2.3,6.9,2.3,11.2v4.7h-32.3
		c0.1,5.3,1.5,9.4,4.1,12.2c2.6,2.8,6.3,4.2,11,4.2c3,0,5.6-0.3,8-0.8c2.3-0.6,4.7-1.4,7.2-2.4v6.8c-2.4,1.1-4.8,1.8-7.1,2.3
		c-2.3,0.5-5.1,0.7-8.4,0.7c-4.5,0-8.5-0.9-11.9-2.7c-3.4-1.8-6.1-4.5-8-8.1c-1.9-3.6-2.9-8-2.9-13.3c0-5.2,0.9-9.6,2.6-13.3
		s4.2-6.5,7.3-8.5C510.8,153.7,514.4,152.7,518.6,152.7z M518.5,159c-3.7,0-6.6,1.2-8.8,3.6s-3.4,5.7-3.8,9.9h24
		c-0.1-4-1-7.2-2.8-9.7C525.3,160.3,522.4,159,518.5,159z"/>
	<path class="st0" d="M567.9,152.8c5.7,0,10,1.3,12.8,3.8c2.8,2.5,4.1,6.5,4.1,12.1v32.1h-5.6l-1.5-6.7h-0.4
		c-2.1,2.6-4.2,4.5-6.5,5.7s-5.4,1.8-9.3,1.8c-4.3,0-7.8-1.1-10.6-3.4c-2.8-2.3-4.2-5.8-4.2-10.6c0-4.7,1.8-8.3,5.5-10.9
		c3.7-2.6,9.4-3.9,17.1-4.2l8-0.3v-2.8c0-3.9-0.9-6.7-2.6-8.2c-1.7-1.5-4.1-2.3-7.2-2.3c-2.5,0-4.8,0.4-7,1.1
		c-2.2,0.7-4.3,1.6-6.2,2.5l-2.4-5.8c2.1-1.1,4.5-2.1,7.3-2.9S564.8,152.8,567.9,152.8z M577.1,177.7l-7,0.3
		c-5.9,0.2-9.9,1.2-12.2,2.8c-2.3,1.6-3.4,4-3.4,7c0,2.6,0.8,4.6,2.4,5.8c1.6,1.2,3.7,1.8,6.2,1.8c3.9,0,7.2-1.1,9.9-3.3
		c2.7-2.2,4-5.6,4-10.2V177.7z"/>
	<path class="st0" d="M607.1,200.8h-7.7v-66.9h7.7V200.8z"/>
	<path class="st0" d="M622.8,152.8l3.1-10h4.6v10.8h13.6v6h-13.6v27.3c0,2.9,0.7,5,2.1,6.4c1.4,1.4,3.2,2.1,5.3,2.1
		c1.2,0,2.4-0.1,3.6-0.3c1.2-0.2,2.2-0.4,3-0.7v5.9c-0.8,0.4-2,0.7-3.5,1s-3,0.4-4.4,0.4c-1.8,0-3.6-0.2-5.2-0.7
		c-1.7-0.4-3.1-1.2-4.4-2.3c-1.3-1.1-2.3-2.6-3-4.5c-0.8-1.9-1.1-4.3-1.1-7.1v-27.5H616v-3.7L622.8,152.8z"/>
	<path class="st0" d="M653.8,133.9h7.7v19.6c0,1.2,0,2.3-0.1,3.4c-0.1,1.1-0.2,2.2-0.3,3.2h0.5c1.5-2.5,3.6-4.3,6.2-5.5
		c2.6-1.2,5.4-1.8,8.5-1.8c5.7,0,10,1.4,12.9,4.1c2.9,2.7,4.4,7.1,4.4,13.2v30.7h-7.7v-30.2c0-7.6-3.5-11.4-10.6-11.4
		c-5.3,0-8.9,1.5-10.9,4.4c-2,3-2.9,7.2-2.9,12.7v24.4h-7.7V133.9z"/>
	<path class="st0" d="M463.5,273.2h21.7V304c-3.4,1.1-6.8,1.9-10.3,2.5c-3.5,0.5-7.4,0.8-11.8,0.8c-6.5,0-12-1.3-16.5-3.9
		c-4.5-2.6-7.8-6.3-10.2-11.2c-2.3-4.8-3.5-10.6-3.5-17.2c0-6.5,1.3-12.2,3.8-17c2.6-4.8,6.3-8.6,11.1-11.3c4.9-2.7,10.7-4,17.6-4
		c3.5,0,6.8,0.3,10,1c3.1,0.6,6.1,1.6,8.8,2.7l-3,6.9c-2.2-0.9-4.7-1.8-7.5-2.5c-2.8-0.7-5.7-1.1-8.7-1.1c-7.5,0-13.4,2.3-17.6,6.8
		c-4.2,4.5-6.3,10.7-6.3,18.5c0,5,0.8,9.4,2.4,13.2c1.6,3.8,4.2,6.8,7.6,9c3.5,2.1,8,3.2,13.6,3.2c2.8,0,5.1-0.1,7-0.4
		c1.9-0.3,3.7-0.6,5.3-1.1v-18.7h-13.8V273.2z"/>
	<path class="st0" d="M517.1,258.4c5.7,0,10,1.3,12.8,3.8s4.1,6.5,4.1,12.1v32.1h-5.6l-1.5-6.7h-0.4c-2.1,2.6-4.2,4.5-6.5,5.7
		c-2.3,1.2-5.4,1.8-9.3,1.8c-4.3,0-7.8-1.1-10.6-3.4c-2.8-2.3-4.2-5.8-4.2-10.6c0-4.7,1.8-8.3,5.5-10.9c3.7-2.6,9.4-3.9,17.1-4.2
		l8-0.3v-2.8c0-3.9-0.9-6.7-2.6-8.2c-1.7-1.5-4.1-2.3-7.2-2.3c-2.5,0-4.8,0.4-7,1.1c-2.2,0.7-4.3,1.6-6.2,2.5l-2.4-5.8
		c2.1-1.1,4.5-2.1,7.3-2.9S514,258.4,517.1,258.4z M526.3,283.3l-7,0.3c-5.9,0.2-9.9,1.2-12.2,2.8c-2.3,1.6-3.4,4-3.4,7
		c0,2.6,0.8,4.6,2.4,5.8c1.6,1.2,3.7,1.8,6.2,1.8c3.9,0,7.2-1.1,9.9-3.3c2.7-2.2,4-5.6,4-10.2V283.3z"/>
	<path class="st0" d="M549.3,258.4l3.1-10h4.6v10.8h13.6v6h-13.6v27.3c0,2.9,0.7,5,2.1,6.4c1.4,1.4,3.2,2.1,5.3,2.1
		c1.2,0,2.4-0.1,3.6-0.3c1.2-0.2,2.2-0.4,3-0.7v5.9c-0.8,0.4-2,0.7-3.5,1c-1.5,0.3-3,0.4-4.4,0.4c-1.8,0-3.6-0.2-5.2-0.7
		c-1.7-0.4-3.1-1.2-4.4-2.3c-1.3-1.1-2.3-2.6-3-4.5c-0.8-1.9-1.1-4.3-1.1-7.1v-27.5h-6.7v-3.7L549.3,258.4z"/>
	<path class="st0" d="M598.6,258.3c4,0,7.4,0.9,10.4,2.6c2.9,1.8,5.2,4.2,6.7,7.4c1.6,3.2,2.3,6.9,2.3,11.2v4.7h-32.3
		c0.1,5.3,1.5,9.4,4.1,12.2c2.6,2.8,6.3,4.2,11,4.2c3,0,5.6-0.3,8-0.8c2.3-0.6,4.7-1.4,7.2-2.4v6.8c-2.4,1.1-4.8,1.8-7.1,2.3
		c-2.3,0.5-5.1,0.7-8.4,0.7c-4.5,0-8.5-0.9-11.9-2.7c-3.4-1.8-6.1-4.5-8-8.1c-1.9-3.6-2.9-8-2.9-13.3c0-5.2,0.9-9.6,2.6-13.3
		c1.7-3.7,4.2-6.5,7.3-8.5C590.7,259.3,594.4,258.3,598.6,258.3z M598.5,264.6c-3.7,0-6.6,1.2-8.8,3.6s-3.4,5.7-3.8,9.9h24
		c-0.1-4-1-7.2-2.8-9.7C605.3,265.9,602.4,264.6,598.5,264.6z"/>
	<path class="st0" d="M631.5,259.1l6.5,25.2c0.6,2.5,1.3,5.1,1.8,7.7c0.6,2.6,1,4.7,1.2,6.4h0.4c0.1-0.7,0.3-1.6,0.5-2.6
		c0.2-1.1,0.5-2.2,0.8-3.3c0.3-1.2,0.6-2.3,0.9-3.5c0.3-1.2,0.6-2.2,0.9-3.2l8.4-26.6h8.4l8.1,26.6c0.6,2.1,1.2,4.3,1.8,6.6
		c0.6,2.3,1.1,4.3,1.3,6h0.4c0.2-1.5,0.6-3.5,1.2-6.1c0.6-2.6,1.3-5.2,2-7.9l6.6-25.2h7.9l-13.1,47.2h-9.1l-8.1-26.6
		c-0.8-2.5-1.4-4.8-2-7.1c-0.6-2.3-1-4.1-1.2-5.4h-0.4c-0.2,1.4-0.6,3.2-1.1,5.5c-0.5,2.3-1.2,4.7-2,7.1l-8.4,26.5h-8.8l-12.9-47.2
		H631.5z"/>
	<path class="st0" d="M717,258.4c5.7,0,10,1.3,12.8,3.8s4.1,6.5,4.1,12.1v32.1h-5.6l-1.5-6.7h-0.4c-2.1,2.6-4.2,4.5-6.5,5.7
		c-2.3,1.2-5.4,1.8-9.3,1.8c-4.3,0-7.8-1.1-10.6-3.4c-2.8-2.3-4.2-5.8-4.2-10.6c0-4.7,1.8-8.3,5.5-10.9c3.7-2.6,9.4-3.9,17.1-4.2
		l8-0.3v-2.8c0-3.9-0.9-6.7-2.6-8.2c-1.7-1.5-4.1-2.3-7.2-2.3c-2.5,0-4.8,0.4-7,1.1c-2.2,0.7-4.3,1.6-6.2,2.5l-2.4-5.8
		c2.1-1.1,4.5-2.1,7.3-2.9S714,258.4,717,258.4z M726.2,283.3l-7,0.3c-5.9,0.2-9.9,1.2-12.2,2.8c-2.3,1.6-3.4,4-3.4,7
		c0,2.6,0.8,4.6,2.4,5.8c1.6,1.2,3.7,1.8,6.2,1.8c3.9,0,7.2-1.1,9.9-3.3c2.7-2.2,4-5.6,4-10.2V283.3z"/>
	<path class="st0" d="M741.1,259.2h8.3l10.2,26.8c0.9,2.4,1.7,4.7,2.4,6.8c0.7,2.1,1.2,4.1,1.6,6.1h0.4c0.4-1.5,0.9-3.4,1.7-5.8
		c0.8-2.4,1.6-4.8,2.4-7.2l9.6-26.8h8.4l-20.3,53.7c-1.7,4.5-3.8,8-6.4,10.6c-2.6,2.6-6.2,4-10.7,4c-1.4,0-2.6-0.1-3.7-0.2
		c-1.1-0.1-2-0.3-2.7-0.5v-6.2c0.6,0.1,1.4,0.2,2.3,0.4c0.9,0.1,1.9,0.2,2.9,0.2c2.7,0,4.9-0.8,6.5-2.3c1.6-1.5,3-3.6,4-6.1l2.5-6.2
		L741.1,259.2z"/>
</g>
<rect x="395.8" y="42.4" class="st3" width="3.2" height="270.7"/>
</svg>
