<svg width="41" height="41" viewBox="0 0 41 41" fill="none" xmlns="http://www.w3.org/2000/svg">
<path d="M20.0187 0C8.98071 0 0 9.06544 0 20.2075C0 31.3497 8.98071 40.4151 20.0187 40.4151C31.0567 40.4151 40.0374 31.3497 40.0374 20.2075C40.0374 9.06544 31.0567 0 20.0187 0Z" fill="#66B032"/>
<path fill-rule="evenodd" clip-rule="evenodd" d="M16.8586 22.7643L28.1137 11.403C28.6461 10.8657 29.4647 10.8657 29.9554 11.403L31.429 12.8493C31.9204 13.3866 31.9204 14.2129 31.429 14.7083L17.7999 28.4659C17.2676 28.962 16.449 28.962 15.9583 28.4659L9.36865 21.8141C8.8772 21.318 8.8772 20.4917 9.36865 19.9551L10.8423 18.5089C11.3337 17.9715 12.1523 17.9715 12.6839 18.5089L16.8586 22.7643Z" fill="white"/>
</svg>
