<svg width="178" height="41" viewBox="0 0 178 41" fill="none" xmlns="http://www.w3.org/2000/svg">
<mask id="mask0_9030_76312" style="mask-type:luminance" maskUnits="userSpaceOnUse" x="5" y="0" width="36" height="17">
<path d="M5.36682 14.1231L9.10945 12.0047L11.1573 13.4876C11.1573 13.4876 12.3578 12.9227 12.6402 12.7814L14.1232 14.335C14.1232 14.335 17.3715 16.8771 17.4421 16.8771C17.5127 16.8771 20.3373 15.253 20.3373 15.253L22.8089 13.5582L24.998 15.1118L26.6221 15.4648L28.2463 16.5947C28.2463 16.5947 32.2714 13.9113 32.9069 13.6288C32.9069 13.6288 34.6723 14.2644 34.8136 14.2644C34.9548 14.2644 37.7088 12.0753 37.7088 12.0753L40.0391 13.7701C38.2737 5.8611 31.2122 0 22.8089 0C14.2644 0 7.0616 6.07295 5.36682 14.1231Z" fill="white"/>
</mask>
<g mask="url(#mask0_9030_76312)">
<path d="M40.0391 0H5.36682V16.8771H40.0391V0Z" fill="url(#paint0_radial_9030_76312)"/>
</g>
<mask id="mask1_9030_76312" style="mask-type:luminance" maskUnits="userSpaceOnUse" x="6" y="10" width="1" height="1">
<path d="M6.56726 10.4511C6.63788 10.3099 6.70849 10.2393 6.70849 10.098C6.70849 10.1686 6.63788 10.3099 6.56726 10.4511Z" fill="white"/>
</mask>
<g mask="url(#mask1_9030_76312)">
<path d="M6.49658 10.3805L6.63781 10.0275L6.92028 10.0981L6.70843 10.5218L6.49658 10.3805Z" fill="url(#paint1_radial_9030_76312)"/>
</g>
<mask id="mask2_9030_76312" style="mask-type:luminance" maskUnits="userSpaceOnUse" x="21" y="0" width="4" height="9">
<path d="M21.9614 0L22.3851 8.68573C22.597 8.68573 22.8088 8.68573 23.0207 8.68573C23.1619 8.68573 23.3737 8.68573 23.515 8.68573L24.1505 0.0706157C23.6562 1.57838e-08 23.2325 0 22.8088 0C22.5264 0 22.2439 0 21.9614 0Z" fill="white"/>
</mask>
<g mask="url(#mask2_9030_76312)">
<path d="M24.1505 0H21.9614V8.68573H24.1505V0Z" fill="url(#paint2_radial_9030_76312)"/>
</g>
<mask id="mask3_9030_76312" style="mask-type:luminance" maskUnits="userSpaceOnUse" x="15" y="0" width="6" height="10">
<path d="M15.3236 1.62418L18.9956 9.53314C19.3487 9.39191 19.7018 9.25068 20.0549 9.10945L17.3715 0.847412C16.6653 1.05926 15.9591 1.34172 15.3236 1.62418Z" fill="white"/>
</mask>
<g mask="url(#mask3_9030_76312)">
<path d="M12.2871 2.04792L19.3487 -0.776703L23.0207 8.33272L15.9591 11.228L12.2871 2.04792Z" fill="url(#paint3_radial_9030_76312)"/>
</g>
<mask id="mask4_9030_76312" style="mask-type:luminance" maskUnits="userSpaceOnUse" x="9" y="4" width="9" height="8">
<path d="M9.81555 5.57863L16.2416 11.581C16.4534 11.2985 16.7359 11.016 17.0184 10.8042L11.3691 4.02509C10.8748 4.59001 10.3805 5.08432 9.81555 5.57863Z" fill="white"/>
</mask>
<g mask="url(#mask4_9030_76312)">
<path d="M6.073 7.76771L13.5583 0.494293L20.8317 7.97956L13.3464 15.253L6.073 7.76771Z" fill="url(#paint4_radial_9030_76312)"/>
</g>
<mask id="mask5_9030_76312" style="mask-type:luminance" maskUnits="userSpaceOnUse" x="6" y="9" width="9" height="6">
<path d="M6.28479 11.2279L14.5468 14.4056C14.6881 14.0525 14.8293 13.6995 14.9705 13.417L7.20279 9.25067C6.92033 9.8156 6.42602 10.7336 6.28479 11.2279Z" fill="white"/>
</mask>
<g mask="url(#mask5_9030_76312)">
<path d="M14.9705 9.25067H6.28479V14.4056H14.9705V9.25067Z" fill="url(#paint5_radial_9030_76312)"/>
</g>
<mask id="mask6_9030_76312" style="mask-type:luminance" maskUnits="userSpaceOnUse" x="25" y="0" width="6" height="10">
<path d="M25.7747 9.10942C26.1277 9.25065 26.4808 9.39188 26.8339 9.53312L30.6471 1.83601C30.0116 1.48293 29.3054 1.20046 28.5993 0.988617L25.7747 9.10942Z" fill="white"/>
</mask>
<g mask="url(#mask6_9030_76312)">
<path d="M26.4807 -0.706146L33.6129 2.1891L29.9409 11.2279L22.8087 8.33266L26.4807 -0.706146Z" fill="url(#paint6_radial_9030_76312)"/>
</g>
<mask id="mask7_9030_76312" style="mask-type:luminance" maskUnits="userSpaceOnUse" x="28" y="4" width="8" height="8">
<path d="M28.8112 10.8042C29.0936 11.0161 29.3761 11.2985 29.5879 11.581L35.9433 5.86113C35.449 5.29621 34.9547 4.8019 34.3898 4.3782L28.8112 10.8042Z" fill="white"/>
</mask>
<g mask="url(#mask7_9030_76312)">
<path d="M32.2713 0.776794L39.6154 7.83836L32.4832 15.1824L25.1392 8.05021L32.2713 0.776794Z" fill="url(#paint7_radial_9030_76312)"/>
</g>
<mask id="mask8_9030_76312" style="mask-type:luminance" maskUnits="userSpaceOnUse" x="30" y="9" width="10" height="6">
<path d="M30.9297 13.4876C31.0709 13.8406 31.2828 14.1231 31.3534 14.4762L39.4036 11.5809C39.1211 10.8748 38.8386 10.2392 38.5562 9.6037L30.9297 13.4876Z" fill="white"/>
</mask>
<g mask="url(#mask8_9030_76312)">
<path d="M38.0619 6.49658L41.2396 13.6994L32.342 17.6539L29.1643 10.4511L38.0619 6.49658Z" fill="url(#paint8_radial_9030_76312)"/>
</g>
<mask id="mask9_9030_76312" style="mask-type:luminance" maskUnits="userSpaceOnUse" x="9" y="1" width="28" height="16">
<path d="M24.3625 8.68574C23.8682 8.61512 23.4445 8.54451 22.9502 8.54451C22.4559 8.54451 21.8909 8.61512 21.3966 8.68574L19.7019 1.41232L20.7611 8.82697C19.8431 9.03882 18.9957 9.3919 18.1483 9.88621L13.8408 3.74264L17.654 10.2393C16.8772 10.8042 16.2417 11.4398 15.6768 12.1459L9.25073 7.97958L15.3237 12.6402C14.9706 13.2051 14.6881 13.7701 14.4763 14.335C15.2531 14.8999 17.5128 16.7359 17.5834 16.7359C17.654 16.7359 20.4786 15.1118 20.4786 15.1118L22.9502 13.417L25.1393 14.9705L26.7634 15.3236L28.3876 16.4535C28.3876 16.4535 30.2236 15.253 31.5653 14.335C31.3534 13.6995 31.0004 13.1345 30.6473 12.5696L36.6496 7.90897L30.2942 12.0047C29.7293 11.2279 29.0231 10.5924 28.2464 10.0274L31.989 3.60141L27.6108 9.88621C26.834 9.3919 25.916 9.03882 24.998 8.82697L26.1279 1.41232L24.3625 8.68574Z" fill="white"/>
</mask>
<g mask="url(#mask9_9030_76312)">
<path d="M36.579 1.41232H9.25073V16.8772H36.579V1.41232Z" fill="url(#paint9_radial_9030_76312)"/>
</g>
<path d="M6.28475 26.2691C6.28475 25.5629 6.21413 25.3511 5.79044 25.3511H5.43736C5.36675 25.2805 5.36675 25.1392 5.43736 25.1392C6.00229 25.0686 6.70844 25.0686 7.69706 25.0686C8.3326 25.0686 9.03876 25.1392 9.46245 25.3511C9.88615 25.5629 10.2392 25.916 10.2392 26.5515C10.2392 27.2577 9.81553 27.6108 9.17999 27.8932C9.17999 27.9638 9.25061 28.0345 9.39184 28.0345C9.95677 28.1051 10.8042 28.5994 10.8042 29.6586C10.8042 30.7885 9.88615 31.4946 7.97953 31.4946C7.69706 31.4946 7.13214 31.4946 6.70844 31.4946C6.21413 31.4946 5.86106 31.4946 5.50798 31.4946C5.43736 31.4946 5.43736 31.2828 5.50798 31.2828H5.71982C6.28475 31.2122 6.28475 31.0709 6.28475 30.0823V26.2691ZM7.20275 27.5402C7.20275 27.8226 7.20275 27.8226 7.76768 27.8226C8.82691 27.752 9.46245 27.4695 9.46245 26.6221C9.46245 25.7041 8.68568 25.3511 7.90891 25.3511C7.69706 25.3511 7.48522 25.3511 7.4146 25.4217C7.27337 25.4217 7.27337 25.4923 7.27337 25.7041V27.5402H7.20275ZM7.20275 29.7999C7.20275 30.1529 7.20275 30.6472 7.4146 30.8591C7.62645 31.0709 7.90891 31.1416 8.26199 31.1416C9.17999 31.1416 9.95677 30.7885 9.95677 29.7999C9.95677 29.0231 9.53307 28.1757 7.83829 28.1757C7.27337 28.1757 7.20275 28.2463 7.20275 28.4582V29.7999Z" fill="#183B56"/>
<path d="M18.2895 27.2577C18.2895 26.4103 18.2895 26.2691 17.7245 26.1984H17.5127C17.4421 26.1984 17.4421 25.9866 17.5127 25.9866C17.9364 25.9866 18.2895 25.9866 18.6425 25.9866C18.9956 25.9866 19.3487 25.9866 19.7724 25.9866C19.843 25.9866 19.843 26.1278 19.7724 26.1984H19.5605C18.9956 26.2691 18.9956 26.4103 18.9956 27.2577V30.1529C18.9956 31.0003 18.9956 31.1415 19.5605 31.2122H19.7724C19.843 31.2122 19.843 31.424 19.7724 31.424C19.3487 31.424 18.9956 31.424 18.6425 31.424C18.2895 31.424 17.9364 31.424 17.5127 31.424C17.4421 31.424 17.4421 31.2828 17.5127 31.2122H17.7245C18.2895 31.1415 18.2895 31.0709 18.2895 30.1529V27.2577Z" fill="#183B56"/>
<path d="M23.3032 30.1529C23.3032 31.0003 23.3032 31.1415 23.7975 31.2121H24.08C24.1506 31.2121 24.08 31.424 24.08 31.424C23.5857 31.424 23.3032 31.424 22.9501 31.424C22.597 31.424 22.3146 31.424 21.7497 31.424C21.679 31.424 21.679 31.2827 21.7497 31.2121H22.0321C22.5264 31.1415 22.5264 31.0709 22.5264 30.1529V26.4809C22.5264 26.1984 22.5264 26.1984 22.244 26.1984H21.8909C21.5378 26.1984 21.0435 26.1984 20.8316 26.4103C20.6198 26.6221 20.5492 26.7633 20.4786 26.9752C20.408 27.0458 20.2667 26.9752 20.2667 26.9046C20.408 26.5515 20.5492 25.9866 20.6198 25.7041H20.761C20.8316 25.9866 21.1141 25.9866 21.4672 25.9866H24.9274C25.4217 25.9866 25.4923 25.9866 25.5629 25.7747C25.6335 25.7747 25.7041 25.7747 25.7041 25.7747C25.6335 26.1278 25.5629 26.7633 25.5629 27.0458C25.5629 27.1164 25.3511 27.1164 25.3511 27.0458C25.3511 26.834 25.2804 26.5515 25.1392 26.4809C24.9274 26.3396 24.6449 26.269 24.1506 26.269H23.515C23.2326 26.269 23.3032 26.269 23.3032 26.5515V30.1529Z" fill="#183B56"/>
<path d="M26.9752 27.2577C26.9752 26.4103 26.9752 26.2691 26.4103 26.1984H26.1985C26.1279 26.1984 26.1279 25.9866 26.1985 25.9866C26.6222 25.9866 26.9752 25.9866 27.3283 25.9866C27.6814 25.9866 28.0345 25.9866 28.4582 25.9866C28.5288 25.9866 28.5288 26.1278 28.4582 26.1984H28.2463C27.6814 26.2691 27.6814 26.4103 27.6814 27.2577V30.1529C27.6814 31.0003 27.6814 31.1415 28.2463 31.2122H28.4582C28.5288 31.2122 28.5288 31.424 28.4582 31.424C28.0345 31.424 27.6814 31.424 27.3283 31.424C26.9752 31.424 26.6222 31.424 26.1985 31.424C26.1279 31.424 26.1279 31.2828 26.1985 31.2122H26.4103C26.9752 31.1415 26.9752 31.0709 26.9752 30.1529V27.2577Z" fill="#183B56"/>
<path d="M31.0709 31.4946C30.2235 31.4946 29.7292 31.2827 29.588 31.2121C29.4468 31.0003 29.3762 30.4354 29.3055 30.0823C29.3762 30.0117 29.5174 30.0117 29.5174 30.0823C29.6586 30.506 30.0823 31.2827 31.2122 31.2827C32.0596 31.2827 32.4126 30.8591 32.4126 30.3647C32.4126 30.0117 32.342 29.588 31.6359 29.2349L30.7179 28.7406C30.2235 28.4581 29.6586 28.0344 29.6586 27.3283C29.6586 26.5515 30.3648 25.916 31.6359 25.916C31.9183 25.916 32.2714 25.9866 32.5539 26.0572C32.6951 26.0572 32.8363 26.1278 32.9069 26.1278C32.9776 26.3396 33.0482 26.7633 33.0482 27.1164C32.9776 27.187 32.8363 27.187 32.8363 27.1164C32.6951 26.6927 32.4832 26.1984 31.4946 26.1984C30.5766 26.1984 30.3648 26.7633 30.3648 27.1164C30.3648 27.6107 30.8591 27.9638 31.2122 28.105L31.9889 28.5287C32.6245 28.8818 33.1894 29.3055 33.1894 30.0823C33.1188 30.9297 32.342 31.4946 31.0709 31.4946Z" fill="#183B56"/>
<path d="M35.9434 28.7406C35.5197 28.7406 35.5197 28.7406 35.5197 29.023V30.1529C35.5197 31.0003 35.5903 31.1415 36.0846 31.2121H36.367C36.4377 31.2121 36.367 31.424 36.367 31.424C35.8727 31.424 35.5903 31.424 35.2372 31.424C34.8841 31.424 34.531 31.424 34.2486 31.424C34.178 31.424 34.178 31.2827 34.2486 31.2121H34.3898C34.8841 31.1415 34.8841 31.0709 34.8841 30.1529V27.187C34.8841 26.3396 34.8135 26.1984 34.3898 26.1278H34.178C34.1073 26.1278 34.1073 25.916 34.178 25.916C34.6017 25.916 34.8841 25.916 35.3078 25.916C35.6609 25.916 35.9434 25.916 36.2964 25.916C36.367 25.916 36.367 26.0572 36.2964 26.1278H36.1552C35.6609 26.1984 35.6609 26.269 35.6609 27.187V28.105C35.6609 28.3875 35.6609 28.3875 36.0846 28.3875H38.6267C39.0504 28.3875 39.0504 28.3875 39.0504 28.105V27.187C39.0504 26.3396 39.0504 26.1984 38.4855 26.1278H38.3443C38.2737 26.1278 38.2737 25.916 38.3443 25.916C38.768 25.916 39.0504 25.916 39.4035 25.916C39.7566 25.916 40.0391 25.916 40.4628 25.916C40.5334 25.916 40.5334 26.0572 40.4628 26.1278H40.2509C39.7566 26.1984 39.7566 26.269 39.7566 27.187V30.1529C39.7566 31.0003 39.7566 31.1415 40.2509 31.2121H40.4628C40.5334 31.2121 40.5334 31.424 40.4628 31.424C40.0391 31.424 39.7566 31.424 39.4035 31.424C39.0504 31.424 38.6974 31.424 38.3443 31.424C38.2737 31.424 38.2737 31.2827 38.3443 31.2121H38.4855C39.0504 31.1415 39.0504 31.0709 39.0504 30.1529V29.023C39.0504 28.8112 39.0504 28.7406 38.6267 28.7406H35.9434Z" fill="#183B56"/>
<path d="M1.27108 33.26C1.97724 32.6951 2.89524 32.4126 3.95448 32.4126C4.5194 32.4126 5.22556 32.5539 5.71987 32.6245C5.8611 32.6245 5.93172 32.6951 6.00233 32.6951C6.00233 32.9069 6.07295 33.5425 6.14357 34.178C6.07295 34.2486 5.93172 34.2486 5.8611 34.178C5.71987 33.4719 5.29618 32.7657 3.81325 32.7657C2.2597 32.7657 0.98862 33.7543 0.98862 35.8022C0.98862 37.85 2.33032 39.0505 3.95448 39.0505C5.22556 39.0505 5.79049 38.2031 6.00233 37.6382C6.07295 37.5676 6.21418 37.6382 6.2848 37.7088C6.21418 38.2031 5.93172 38.9093 5.79049 39.0505C5.64926 39.0505 5.57864 39.1211 5.43741 39.1211C5.22556 39.1917 4.5194 39.333 3.88386 39.333C2.96586 39.333 2.11847 39.1211 1.41231 38.6974C0.635541 38.1325 0 37.2851 0 35.9434C0 34.7429 0.49431 33.8249 1.27108 33.26Z" fill="#183B56"/>
<path d="M6.7085 36.4377C6.7085 34.8136 7.97958 33.5425 9.74497 33.5425C11.7222 33.5425 12.7108 34.8842 12.7108 36.3671C12.7108 37.9913 11.3691 39.2623 9.74497 39.2623C7.83835 39.1917 6.7085 37.9207 6.7085 36.4377ZM11.8634 36.579C11.8634 35.2373 11.2279 33.7543 9.60374 33.7543C8.68574 33.7543 7.55588 34.3193 7.55588 36.1553C7.55588 37.3557 8.19143 38.9093 9.8862 38.9093C10.8748 38.9799 11.8634 38.2031 11.8634 36.579Z" fill="#183B56"/>
<path d="M22.4558 35.7316C22.4558 35.2373 22.4558 34.2487 22.3146 34.0368C22.244 33.9662 22.1027 33.8956 21.8909 33.8956H21.679C21.6084 33.825 21.6084 33.7544 21.679 33.6837C22.0321 33.6837 22.3146 33.6837 22.6677 33.6837C23.0207 33.6837 23.3032 33.6837 23.5857 33.6837C23.6563 33.7544 23.6563 33.825 23.5857 33.8956H23.3738C23.162 33.8956 23.0207 33.9662 22.9501 34.1074C22.8089 34.3899 22.8089 35.3079 22.8089 35.8022V36.7202C22.8089 37.4264 22.6677 38.2031 22.1733 38.6975C21.8203 39.0505 21.1847 39.2624 20.5492 39.2624C19.9843 39.2624 19.3487 39.1212 18.925 38.8387C18.4307 38.4856 18.2189 37.8501 18.2189 36.9321V35.0254C18.2189 34.1781 18.2189 34.0368 17.7246 33.9662H17.5127C17.4421 33.9662 17.5127 33.825 17.5127 33.7544C17.9364 33.7544 18.2189 33.7544 18.5719 33.7544C18.925 33.7544 19.2075 33.7544 19.6312 33.7544C19.7018 33.7544 19.7018 33.8956 19.6312 33.9662H19.4193C18.925 34.0368 18.925 34.1781 18.925 35.0254V36.7908C18.925 38.1325 19.3487 38.9799 20.6904 38.9799C21.9615 38.9799 22.4558 38.0619 22.4558 36.7908V35.7316Z" fill="#183B56"/>
<path d="M32.5537 34.6724C32.5537 34.0368 32.4831 33.8956 32.0594 33.8956H31.777C31.7063 33.8956 31.7063 33.6837 31.777 33.6837C32.2713 33.6131 32.9774 33.6131 33.8248 33.6131C34.4604 33.6131 35.0253 33.6837 35.449 33.825C35.8727 33.9662 36.1551 34.3193 36.1551 34.8842C36.1551 35.4491 35.7314 35.8022 35.1665 36.0141C35.1665 36.0847 35.2371 36.1553 35.3784 36.1553C35.8727 36.2259 36.6494 36.6496 36.6494 37.5676C36.6494 38.5562 35.8021 39.1918 34.1073 39.1918C33.8248 39.1918 33.3305 39.1918 32.9774 39.1918C32.5537 39.1918 32.2007 39.1918 31.8476 39.1918C31.777 39.1918 31.777 39.0505 31.8476 38.9799H31.9888C32.4831 38.9093 32.4831 38.8387 32.4831 37.9207V34.6724H32.5537ZM33.3305 35.8022C33.3305 36.0141 33.3305 36.0847 33.8248 36.0141C34.8134 36.0141 35.3077 35.7316 35.3077 34.9548C35.3077 34.1781 34.6016 33.825 33.8954 33.825C33.6836 33.825 33.5424 33.825 33.4717 33.8956C33.4011 33.8956 33.3305 33.9662 33.3305 34.1074V35.8022ZM33.3305 37.7088C33.3305 37.9913 33.3305 38.415 33.5424 38.6268C33.7542 38.8387 34.0367 38.8387 34.3191 38.8387C35.1665 38.8387 35.8021 38.4856 35.8021 37.7088C35.8021 37.0733 35.449 36.2965 33.8954 36.2965C33.4011 36.2965 33.3305 36.3671 33.3305 36.5084V37.7088Z" fill="#183B56"/>
<path d="M16.8772 31.2122H16.6653C16.5947 31.2122 16.5947 31.2122 16.5241 31.2122C16.171 31.1415 16.0298 30.8591 15.8885 30.5766L15.1118 29.2349C14.9705 29.0231 14.8293 28.67 14.5468 28.67C15.3236 28.5994 16.1004 28.1051 16.1004 27.3283C16.1004 26.4103 15.1824 25.9866 14.2644 25.9866C13.6994 25.9866 13.2051 25.9866 12.6402 25.9866C12.3577 25.9866 11.9341 25.9866 11.6516 25.9866C11.5104 25.9866 11.5104 25.9866 11.5104 26.1278C11.5104 26.2691 11.581 26.1985 11.7222 26.2691C12.3577 26.3397 12.3577 26.4103 12.3577 26.9752V30.5766C12.3577 31.0709 12.4284 31.2122 11.8634 31.2828C11.8634 31.2828 11.7928 31.2828 11.7222 31.2828H11.5104C11.4397 31.3534 11.4397 31.4946 11.5104 31.4946C11.6516 31.4946 11.8634 31.4946 11.8634 31.4946C12.1459 31.4946 12.4284 31.4946 12.7814 31.4946C13.0639 31.4946 13.3464 31.4946 13.6994 31.4946C13.7701 31.4946 13.9113 31.4946 14.0525 31.4946C14.1231 31.4946 14.1231 31.3534 14.0525 31.2828H13.8407C13.7701 31.2828 13.6994 31.2828 13.6994 31.2828C13.1345 31.2122 13.2051 31.0709 13.2051 30.5766V29.2349C13.2051 29.1643 13.2051 28.9525 13.2758 28.8818C13.3464 28.8112 13.417 28.8112 13.4876 28.8112C14.1938 28.8112 14.1938 28.8818 14.5468 29.5174L15.4648 31.2122C15.5355 31.3534 15.6061 31.4946 15.8179 31.4946H16.6653C16.7359 31.4946 16.8772 31.4946 17.0184 31.4946C16.9478 31.424 16.9478 31.2828 16.8772 31.2122ZM13.5582 28.5288C13.417 28.5288 13.0639 28.5994 13.0639 28.3875V26.834C13.0639 26.1985 13.0639 26.1278 13.8407 26.1278C14.6881 26.1278 15.253 26.5515 15.253 27.3989C15.253 27.752 15.1118 28.1051 14.8293 28.3169C14.4056 28.5288 14.0525 28.5288 13.5582 28.5288Z" fill="#183B56"/>
<path d="M13.7701 34.8842C13.7701 34.0368 13.7701 33.8956 13.2052 33.825H12.9933C12.9227 33.825 12.9227 33.6131 12.9933 33.6131C13.4876 33.6131 13.7701 33.6131 14.1938 33.6131C14.5469 33.6131 14.8293 33.6131 15.3236 33.6131C15.3943 33.6131 15.3943 33.7544 15.3236 33.825H15.1118C14.5469 33.8956 14.5469 33.9662 14.5469 34.8842V37.7088C14.5469 38.2031 14.5469 38.415 14.7587 38.6268C14.8293 38.6975 15.0412 38.8387 15.7473 38.8387C16.5241 38.8387 16.736 38.8387 16.8772 38.6975C17.089 38.6268 17.3009 38.2738 17.4421 37.9207C17.5127 37.8501 17.654 37.9207 17.654 37.9913C17.654 38.0619 17.3715 38.9093 17.3009 39.1212C16.8066 39.1212 15.9592 39.1212 15.0412 39.1212H14.1232C13.7701 39.1212 13.4876 39.1212 12.9227 39.1212C12.8521 39.1212 12.8521 38.9799 12.9227 38.9093H13.2052C13.6995 38.8387 13.7701 38.7681 13.7701 37.8501V34.8842Z" fill="#183B56"/>
<path d="M37.9207 34.9548C37.9207 34.1074 37.9207 33.9662 37.3558 33.8956H37.1439C37.0733 33.8956 37.1439 33.6837 37.1439 33.6837C37.5676 33.6837 37.9207 33.6837 38.2738 33.6837C38.6268 33.6837 38.9093 33.6837 39.4036 33.6837C39.4742 33.6837 39.4742 33.825 39.4036 33.8956H39.1918C38.6975 33.9662 38.6268 34.1074 38.6268 34.9548V37.8501C38.6268 38.6975 38.6268 38.8387 39.1918 38.9093H39.4036C39.4742 38.9093 39.4742 39.1212 39.4036 39.1212C38.9799 39.1212 38.6268 39.1212 38.2738 39.1212C37.9207 39.1212 37.5676 39.1212 37.1439 39.1212C37.0733 39.1212 37.0733 38.9799 37.1439 38.9093H37.3558C37.8501 38.8387 37.9207 38.7681 37.9207 37.8501V34.9548Z" fill="#183B56"/>
<path d="M30.859 38.9093C30.7884 38.9093 30.7178 38.9093 30.7178 38.9093C30.6472 38.9093 30.5766 38.9093 30.506 38.8387C30.3647 38.6975 30.3647 38.3444 30.3647 38.2031V34.6017C30.3647 34.4605 30.2941 34.1074 30.4353 33.9662C30.506 33.8956 30.6472 33.8956 30.7178 33.8956C30.7884 33.8956 30.7884 33.8956 30.859 33.8956H31.0709C31.1415 33.8956 31.1415 33.6837 31.0709 33.6837C30.9297 33.6837 30.859 33.6837 30.7178 33.6837H29.7292C29.6586 33.6837 29.5173 33.6837 29.4467 33.825L27.5401 37.8501L25.7747 33.8956C25.7041 33.7544 25.7041 33.6131 25.4922 33.6131H24.5036C24.433 33.6131 24.2918 33.6131 24.1505 33.6131C24.0799 33.6131 24.0799 33.7544 24.1505 33.825H24.3624C24.433 33.825 24.5036 33.825 24.5036 33.825C24.8567 33.825 24.9273 33.9662 24.8567 34.3193L24.5742 38.2031C24.5742 38.5562 24.5036 38.7681 24.1505 38.8387C24.1505 38.8387 24.0799 38.8387 24.0093 38.8387H23.7975C23.7269 38.9093 23.7269 39.0505 23.7975 39.0505C23.9387 39.0505 24.1505 39.0505 24.1505 39.0505C24.3624 39.0505 24.5742 39.0505 24.7861 39.0505C24.9979 39.0505 25.2098 39.0505 25.4922 39.0505C25.5629 39.0505 25.7041 39.0505 25.8453 39.0505C25.9159 39.0505 25.9159 38.9093 25.8453 38.8387H25.6335C25.5629 38.8387 25.4922 38.8387 25.4922 38.8387C24.9273 38.7681 24.9273 38.415 24.9273 37.8501L25.2098 34.2487H25.2804L27.187 38.6268C27.187 38.6975 27.2576 38.7681 27.3283 38.7681C27.3989 38.7681 27.4695 38.6975 27.4695 38.6268L29.588 34.1074H29.6586V38.0619C29.6586 38.2031 29.6586 38.5562 29.5173 38.6975C29.4467 38.7681 29.1643 38.7681 29.1643 38.7681C29.0936 38.7681 29.0936 38.7681 29.023 38.7681H28.8112C28.7406 38.8387 28.7406 38.9799 28.8112 38.9799C28.9524 38.9799 29.1643 38.9799 29.1643 38.9799C29.4467 38.9799 29.7998 38.9799 30.0823 38.9799C30.2941 38.9799 30.7178 38.9799 30.7178 38.9799C30.7884 38.9799 30.9297 38.9799 31.0709 38.9799C31.1415 38.9799 31.1415 38.8387 31.0709 38.7681L30.859 38.9093Z" fill="#183B56"/>
<path d="M45.6178 38.9093C45.5472 38.9093 45.4766 38.9093 45.4766 38.8387C45.1235 38.7681 44.9823 38.3444 44.841 38.0619L43.005 33.7544C43.005 33.6837 42.9344 33.6131 42.8638 33.6131C42.7932 33.6131 42.7226 33.7544 42.7226 33.825L40.9572 38.1325C40.8866 38.2738 40.7453 38.6975 40.6041 38.8387C40.5335 38.9093 40.3922 38.9799 40.251 38.9799C40.251 38.9799 40.1804 38.9799 40.1098 38.9799H39.8979C39.8273 39.0505 39.8273 39.1918 39.8979 39.1918C40.0392 39.1918 40.251 39.1918 40.251 39.1918C40.4629 39.1918 40.7453 39.1918 40.9572 39.1918C41.169 39.1918 41.3809 39.1918 41.5927 39.1918C41.5927 39.1918 41.8046 39.1918 41.9458 39.1918C42.0164 39.1918 42.0164 39.0505 41.9458 38.9799H41.7339C41.6633 38.9799 41.5927 38.9799 41.5927 38.9799C41.3809 38.9799 41.0984 38.9093 41.0984 38.6975C41.0984 38.5562 41.169 38.3444 41.2396 38.2031L41.5221 37.5676C41.6633 37.2851 41.5927 37.2145 41.9458 37.2145H43.1463C43.5699 37.2145 43.4993 37.2145 43.7112 37.6382L43.9936 38.2738C44.0643 38.415 44.1349 38.5562 44.1349 38.6975C44.1349 38.9093 43.923 38.9093 43.7112 38.9799C43.7112 38.9799 43.6406 38.9799 43.5699 38.9799H43.3581C43.2875 39.0505 43.2875 39.1918 43.3581 39.1918C43.4993 39.1918 43.7112 39.1918 43.7112 39.1918C43.9936 39.1918 44.2055 39.1918 44.488 39.1918C44.7704 39.1918 45.1235 39.1918 45.406 39.1918C45.4766 39.1918 45.406 39.1918 45.5472 39.1918C45.6884 39.1212 45.6884 38.9799 45.6178 38.9093ZM43.2169 36.8615H42.1576C42.087 36.8615 41.8046 36.8615 41.8046 36.7908V36.7202L42.4401 35.1667C42.4401 35.0961 42.5107 34.8842 42.5813 34.8842C42.6519 34.8842 42.7226 35.0961 42.7226 35.1667L43.3581 36.6496C43.3581 36.6496 43.4287 36.7908 43.4287 36.8615C43.4993 36.9321 43.2875 36.8615 43.2169 36.8615Z" fill="#183B56"/>
<path d="M40.0391 13.5582L37.7794 11.934C37.7794 11.934 35.0253 14.0525 34.8841 14.1231C34.7429 14.1231 32.9775 13.4876 32.9775 13.4876C32.3419 13.8407 28.3168 16.4535 28.3168 16.4535L26.6927 15.3236L25.0685 14.9705L22.8794 13.417L20.4079 15.1118C20.4079 15.1118 17.6539 16.7359 17.5126 16.7359C17.442 16.7359 14.1937 14.1938 14.1937 14.1938L12.7108 12.5696C12.4283 12.7108 11.2279 13.2757 11.2279 13.2757L9.18 11.8634L5.43737 13.9819C5.1549 15.1824 5.01367 16.4535 5.01367 17.7245C5.01367 18.8544 5.1549 19.9842 5.29613 21.0435C6.84968 20.761 9.67431 20.3373 12.0752 20.6198C15.5354 21.0435 17.6539 21.6084 21.3259 22.4558C24.9273 23.3032 27.6107 24.08 31.5652 23.5856C35.2372 23.1619 37.9206 22.4558 40.3215 20.6904C40.4627 19.7018 40.604 18.7132 40.604 17.6539C40.5334 16.3122 40.3921 14.8999 40.0391 13.5582Z" fill="#496DA6"/>
<path d="M57.6224 0.353088H57.1987V39.8979H57.6224V0.353088Z" fill="#FDB913"/>
<path d="M68.2147 33.4719C67.2261 33.4719 67.2261 33.5425 67.2261 34.1074V36.932C67.2261 39.0505 67.2967 39.333 68.4266 39.4036L68.9915 39.4742C69.1327 39.5448 69.0621 39.8979 68.9209 39.9685C67.8617 39.8979 67.1555 39.8979 66.3787 39.8979C65.5313 39.8979 64.8252 39.9685 64.0484 39.9685C63.9072 39.8979 63.9072 39.6154 63.9778 39.4742L64.3309 39.4036C65.4607 39.1918 65.4607 38.9799 65.4607 36.932V29.7293C65.4607 27.6108 65.3195 27.2577 64.2603 27.1871L63.7659 27.1165C63.6247 27.0459 63.6953 26.6928 63.8366 26.6222C64.8252 26.6222 65.4607 26.6928 66.3787 26.6928C67.1555 26.6928 67.8617 26.6928 68.709 26.6222C68.8503 26.6928 68.8503 27.0459 68.7797 27.1165L68.4266 27.1871C67.2967 27.3283 67.2261 27.6108 67.2261 29.7293V32.0596C67.2261 32.6951 67.2967 32.6951 68.2147 32.6951H73.9346C74.9232 32.6951 74.9232 32.6951 74.9232 32.0596V29.7293C74.9232 27.6108 74.8526 27.3283 73.7228 27.1871L73.3697 27.1165C73.2284 27.0459 73.2991 26.6928 73.4403 26.6222C74.3583 26.6928 75.0645 26.6928 75.8412 26.6928C76.618 26.6928 77.3242 26.6928 78.1715 26.6222C78.3128 26.6928 78.3128 27.0459 78.2422 27.1165L77.8185 27.1871C76.6886 27.3283 76.618 27.6108 76.618 29.7293V36.932C76.618 39.0505 76.6886 39.2624 77.8185 39.4036L78.3128 39.4742C78.454 39.5448 78.3834 39.8979 78.2422 39.9685C77.2535 39.8979 76.618 39.8979 75.8412 39.8979C74.9938 39.8979 74.2877 39.8979 73.4403 39.9685C73.2991 39.8979 73.2991 39.6154 73.3697 39.4742L73.7228 39.4036C74.9232 39.1918 74.9232 38.9799 74.9232 36.932V34.1074C74.9232 33.5425 74.8526 33.4719 73.9346 33.4719H68.2147Z" fill="#183B56"/>
<path d="M81.3492 34.8136C80.8549 34.8136 80.7843 34.8842 80.7843 35.3785C80.7843 37.4263 81.9848 39.1211 84.1033 39.1211C84.7388 39.1211 85.3037 38.9093 85.9393 38.1325C86.1511 38.0619 86.2923 38.2031 86.2923 38.3444C85.6568 39.6861 84.1739 40.1804 83.1853 40.1804C81.9142 40.1804 80.8549 39.6154 80.29 38.8387C79.7251 38.0619 79.4426 37.1439 79.4426 36.2259C79.4426 33.7543 81.0668 31.7065 83.4677 31.7065C85.1625 31.7065 86.2923 32.9069 86.2923 34.1074C86.2923 34.3899 86.2217 34.5311 86.2217 34.6017C86.1511 34.743 85.8687 34.743 85.0213 34.743H81.3492V34.8136ZM82.5497 34.178C84.0326 34.178 84.4563 34.1074 84.5976 33.9662C84.6682 33.8956 84.7388 33.825 84.7388 33.6131C84.7388 33.0482 84.3857 32.342 83.1853 32.342C81.9848 32.342 80.9962 33.4013 80.9962 34.1074C80.9962 34.178 80.9962 34.178 81.1374 34.178H82.5497Z" fill="#183B56"/>
<path d="M91.3767 35.7316C91.6592 35.661 91.7298 35.4491 91.7298 35.1666V34.2486C91.7298 33.5425 91.518 32.4833 90.2469 32.4833C89.6819 32.4833 88.9758 32.7657 88.9758 33.4013C88.9758 33.7543 88.9052 33.9662 88.7639 34.1074C88.4815 34.3193 87.9165 34.4605 87.6341 34.4605C87.4222 34.4605 87.3516 34.3899 87.3516 34.178C87.3516 33.1188 89.6113 31.7065 91.0943 31.7065C92.5066 31.7065 93.2127 32.5539 93.1421 34.0368L93.0009 37.497C92.9303 38.415 93.1421 39.2624 93.9189 39.2624C94.1307 39.2624 94.272 39.1917 94.4132 39.1211C94.4838 39.0505 94.625 38.9799 94.6957 38.9799C94.7663 38.9799 94.8369 39.1211 94.8369 39.2624C94.8369 39.333 94.1307 40.1097 93.1421 40.1097C92.6478 40.1097 92.1535 39.8979 91.871 39.4742C91.8004 39.333 91.6592 39.1917 91.518 39.1917C91.3767 39.1917 91.1649 39.4036 90.7412 39.6154C90.3175 39.8273 89.8938 40.1097 89.3289 40.1097C88.7639 40.1097 88.2696 39.9685 87.9165 39.6154C87.5635 39.2624 87.281 38.768 87.281 38.2031C87.281 37.4264 87.6341 36.932 88.9052 36.5083L91.3767 35.7316ZM90.1762 39.2624C90.5999 39.2624 91.1649 38.9799 91.3767 38.7681C91.5886 38.5562 91.5886 38.2737 91.6592 37.85L91.7298 36.6496C91.7298 36.4377 91.6592 36.3671 91.518 36.3671C91.3767 36.3671 91.0942 36.4377 90.6706 36.579C89.4701 37.0027 88.9052 37.2851 88.9052 38.0619C88.9052 38.415 89.117 39.2624 90.1762 39.2624Z" fill="#183B56"/>
<path d="M97.944 37.6382C97.944 39.0506 98.0146 39.2624 98.7208 39.4036L99.2151 39.4742C99.3563 39.5449 99.2857 39.8979 99.1444 39.9686C98.5089 39.8979 97.8734 39.8979 97.2378 39.8979C96.5317 39.8979 95.8961 39.8979 95.3312 39.9686C95.19 39.8979 95.1193 39.5449 95.2606 39.4742L95.6843 39.4036C96.3904 39.333 96.4611 39.1212 96.4611 37.6382V28.5994C96.4611 27.399 96.461 27.3283 95.8255 26.9753L95.6137 26.834C95.543 26.7634 95.543 26.481 95.6137 26.4103C96.108 26.2691 97.026 25.916 97.8027 25.563C97.8734 25.563 97.944 25.6336 98.0146 25.7042C98.0146 26.2691 97.944 27.3284 97.944 28.1757V37.6382Z" fill="#183B56"/>
<path d="M103.24 32.8364C102.887 32.8364 102.887 32.907 102.887 33.3307V37.0733C102.887 38.2032 103.028 39.2624 104.37 39.2624C104.582 39.2624 104.723 39.1918 104.935 39.1918C105.147 39.1212 105.359 38.9093 105.429 38.9093C105.57 38.9093 105.641 39.1212 105.641 39.2624C105.288 39.6861 104.582 40.1804 103.523 40.1804C101.828 40.1804 101.475 39.1918 101.475 37.9913V33.4013C101.475 32.8364 101.475 32.8364 101.051 32.8364H100.486C100.345 32.7657 100.345 32.5539 100.416 32.4127C100.98 32.2008 101.475 31.989 101.687 31.7771C101.969 31.5653 102.322 31.0004 102.534 30.5767C102.605 30.506 102.887 30.506 102.958 30.6473V31.5653C102.958 31.9184 102.958 31.9184 103.311 31.9184H105.5C105.712 32.1302 105.712 32.6245 105.5 32.7657H103.24V32.8364Z" fill="#183B56"/>
<path d="M107.548 28.5994C107.548 27.399 107.548 27.3283 106.912 26.9753L106.7 26.834C106.63 26.7634 106.63 26.481 106.7 26.4103C107.195 26.2691 108.113 25.916 108.889 25.563C108.96 25.563 109.031 25.6336 109.101 25.7042C109.101 26.2691 109.031 27.3284 109.031 28.1757V32.3421C109.031 32.5539 109.031 32.6951 109.101 32.6951C109.807 32.1302 110.796 31.6359 111.785 31.6359C113.691 31.6359 114.327 32.8364 114.327 34.1781V37.497C114.327 38.9093 114.397 39.1212 115.104 39.2624L115.669 39.333C115.81 39.4036 115.739 39.7567 115.598 39.8273C114.892 39.7567 114.327 39.7567 113.621 39.7567C112.915 39.7567 112.279 39.7567 111.785 39.8273C111.643 39.7567 111.573 39.4036 111.714 39.333L112.138 39.2624C112.844 39.1212 112.915 38.9799 112.915 37.497V34.6724C112.915 33.4013 112.279 32.5539 111.008 32.5539C110.302 32.5539 109.807 32.7658 109.454 33.1188C109.101 33.4013 109.031 33.5425 109.031 34.2487V37.6382C109.031 39.0506 109.101 39.2624 109.807 39.4036L110.231 39.4742C110.372 39.5449 110.302 39.8979 110.16 39.9686C109.596 39.8979 108.96 39.8979 108.254 39.8979C107.548 39.8979 106.912 39.8979 106.277 39.9686C106.135 39.8979 106.065 39.5449 106.206 39.4742L106.7 39.4036C107.406 39.333 107.477 39.1212 107.477 37.6382V28.5994H107.548Z" fill="#183B56"/>
<path d="M118.634 29.7293C118.634 27.6108 118.564 27.3283 117.363 27.1871L116.869 27.1165C116.728 27.0459 116.798 26.6928 116.94 26.6222C118.069 26.6928 118.705 26.6928 119.552 26.6928C120.329 26.6928 121.035 26.6928 122.024 26.6222C122.165 26.6928 122.165 27.0459 122.095 27.1165L121.6 27.1871C120.4 27.2577 120.4 27.6108 120.4 29.7293V36.6496C120.4 37.9207 120.47 38.415 120.823 38.8387C121.035 39.0505 121.388 39.2624 123.013 39.2624C124.707 39.2624 125.131 39.1918 125.484 38.9799C125.908 38.7681 126.402 37.9913 126.826 37.0027C126.967 36.9321 127.32 37.0027 127.32 37.1439C127.32 37.3557 126.755 39.4036 126.473 39.9685C125.484 39.8979 123.577 39.8979 121.53 39.8979H119.694C118.846 39.8979 118.211 39.8979 117.081 39.9685C116.94 39.8979 116.94 39.6154 117.01 39.4742L117.575 39.4036C118.705 39.2624 118.776 38.9799 118.776 36.932V29.7293H118.634Z" fill="#183B56"/>
<path d="M129.086 34.178C129.086 33.4012 129.086 33.3306 128.521 32.9069L128.309 32.7657C128.238 32.6951 128.238 32.4832 128.309 32.4126C128.732 32.2714 129.933 31.7065 130.357 31.424C130.427 31.424 130.568 31.4946 130.568 31.5652C130.498 32.2714 130.498 33.1894 130.498 34.0368V37.6382C130.498 39.0505 130.568 39.2623 131.275 39.4036L131.698 39.4742C131.84 39.5448 131.769 39.8979 131.628 39.9685C131.063 39.8979 130.427 39.8979 129.721 39.8979C129.015 39.8979 128.379 39.8979 127.814 39.9685C127.673 39.8979 127.603 39.5448 127.744 39.4742L128.168 39.4036C128.874 39.3329 128.944 39.1211 128.944 37.6382V34.178H129.086ZM130.71 28.4581C130.71 29.1643 130.215 29.5174 129.65 29.5174C129.015 29.5174 128.662 29.0937 128.662 28.5287C128.662 27.8932 129.156 27.4695 129.721 27.4695C130.357 27.3989 130.71 27.8932 130.71 28.4581Z" fill="#183B56"/>
<path d="M134.24 34.178C134.24 33.4013 134.24 33.3306 133.676 32.9069L133.464 32.7657C133.393 32.6951 133.393 32.4832 133.464 32.4126C133.887 32.2714 135.088 31.7065 135.441 31.424C135.512 31.424 135.653 31.4946 135.653 31.5652C135.582 31.9889 135.582 32.342 135.582 32.4832C135.582 32.6245 135.653 32.6951 135.794 32.6951C136.641 32.2008 137.559 31.7065 138.619 31.7065C140.243 31.7065 140.949 32.8363 140.949 34.178V37.6382C140.949 39.0505 141.02 39.2624 141.726 39.4036L142.149 39.4742C142.291 39.5448 142.22 39.8979 142.079 39.9685C141.514 39.8979 140.878 39.8979 140.172 39.8979C139.466 39.8979 138.83 39.8979 138.336 39.9685C138.195 39.8979 138.124 39.5448 138.266 39.4742L138.619 39.4036C139.325 39.2624 139.395 39.1211 139.395 37.6382V34.6723C139.395 33.5425 138.901 32.6951 137.489 32.6951C136.712 32.6951 136.076 33.0482 135.794 33.4012C135.512 33.7543 135.512 34.0368 135.512 34.6017V37.6382C135.512 39.0505 135.582 39.2624 136.288 39.4036L136.641 39.4742C136.783 39.5448 136.712 39.8979 136.571 39.9685C136.006 39.8979 135.441 39.8979 134.735 39.8979C134.029 39.8979 133.393 39.8979 132.828 39.9685C132.687 39.8979 132.616 39.5448 132.758 39.4742L133.181 39.4036C133.887 39.333 133.958 39.1211 133.958 37.6382V34.178H134.24Z" fill="#183B56"/>
<path d="M144.48 28.5994C144.48 27.399 144.48 27.3283 143.844 26.9753L143.632 26.834C143.562 26.7634 143.562 26.481 143.632 26.4103C144.127 26.2691 145.045 25.916 145.821 25.563C145.892 25.563 145.963 25.6336 146.033 25.7042C146.033 26.2691 145.963 27.3284 145.963 28.1757V35.0255C145.963 35.3079 145.963 35.3079 146.316 35.3079C146.739 35.3079 147.163 35.0961 147.657 34.5311L148.505 33.6838C149.07 33.1188 149.211 32.8364 149.211 32.7658C149.211 32.6951 149.14 32.6245 148.787 32.5539L148.293 32.4833C148.081 32.4127 148.081 32.0596 148.293 31.989H148.787C149.635 31.989 150.835 31.9184 151.965 31.8478C152.106 31.9184 152.106 32.2714 152.036 32.3421L151.4 32.4833C150.976 32.5539 150.694 32.7658 150.129 33.1895C149.352 33.825 148.646 34.5311 148.293 34.8842C148.081 35.0961 148.01 35.2373 148.152 35.3785C148.505 35.8728 148.787 36.2259 149.493 37.0027C150.27 37.8501 150.976 38.6269 151.4 39.0506C151.682 39.333 152.106 39.4036 152.459 39.4742L152.742 39.5449C152.883 39.6155 152.883 39.9686 152.671 40.0392C152.106 39.9686 151.4 39.9686 150.764 39.9686C149.988 39.9686 149.282 39.9686 148.717 40.0392C148.575 39.9686 148.505 39.6155 148.646 39.5449L148.999 39.4742C149.282 39.4036 149.493 39.4036 149.493 39.2624C149.493 39.1212 149.423 38.9799 149.14 38.6975L147.022 36.2259C146.81 36.0141 146.598 35.9435 146.386 35.9435C146.033 35.9435 146.033 36.0141 146.033 36.6496V37.7795C146.033 39.1918 146.104 39.4036 146.81 39.5449L147.304 39.6155C147.446 39.6861 147.375 40.0392 147.234 40.1098C146.598 40.0392 145.963 40.0392 145.327 40.0392C144.621 40.0392 143.985 40.0392 143.42 40.1098C143.279 40.0392 143.209 39.6861 143.42 39.6155L143.844 39.5449C144.55 39.4742 144.621 39.2624 144.621 37.7795V28.5994H144.48Z" fill="#183B56"/>
<path d="M154.931 29.3055C154.931 27.8226 154.86 27.4695 153.942 27.3989L153.307 27.3283C153.165 27.1871 153.165 26.9046 153.307 26.834C154.366 26.7634 155.778 26.6927 157.614 26.6927C158.885 26.6927 160.086 26.7634 161.004 27.2577C161.851 27.6814 162.557 28.4581 162.557 29.7292C162.557 31.1415 161.71 31.9183 160.51 32.4832C160.51 32.6951 160.651 32.7657 160.863 32.7657C161.922 32.9775 163.546 33.9662 163.546 36.0846C163.546 38.415 161.851 39.9685 158.25 39.9685C157.685 39.9685 156.696 39.8979 155.849 39.8979C155.001 39.8979 154.295 39.9685 153.519 39.9685C153.377 39.8979 153.377 39.6154 153.448 39.4742L153.801 39.4036C154.86 39.1917 154.931 38.9799 154.931 36.932V29.3055ZM156.555 31.9889C156.555 32.5539 156.555 32.5539 157.614 32.5539C159.662 32.4832 160.721 31.8477 160.721 30.0117C160.721 28.0344 159.238 27.3283 157.756 27.3283C157.332 27.3283 157.049 27.3989 156.838 27.4695C156.626 27.5401 156.555 27.6108 156.555 27.9638V31.9889ZM156.555 36.5789C156.555 37.2851 156.626 38.3443 156.979 38.768C157.332 39.2623 157.967 39.333 158.532 39.333C160.298 39.333 161.639 38.5562 161.639 36.5083C161.639 34.9548 160.863 33.1188 157.685 33.1188C156.626 33.1188 156.555 33.26 156.555 33.6131V36.5789Z" fill="#FDB913"/>
<path d="M167.854 28.1051C169.336 26.9753 171.172 26.4103 173.22 26.4103C174.28 26.4103 175.833 26.6222 176.751 26.9046C176.963 26.9753 177.104 26.9753 177.316 26.9753C177.316 27.4696 177.457 28.67 177.598 29.9411C177.528 30.0824 177.175 30.0824 177.034 30.0117C176.751 28.67 175.833 27.1165 172.938 27.1165C169.901 27.1165 167.289 29.0231 167.289 33.1894C167.289 37.3558 169.972 39.6861 173.22 39.6861C175.762 39.6861 176.963 37.9913 177.387 36.8615C177.528 36.7908 177.81 36.7908 177.881 36.9321C177.74 37.9913 177.245 39.2624 176.892 39.6861C176.68 39.7567 176.398 39.8273 176.186 39.8979C175.762 40.0392 174.28 40.3216 173.008 40.3216C171.243 40.3216 169.478 39.9686 168.065 38.9799C166.441 37.8501 165.241 36.0847 165.241 33.4719C165.311 31.1416 166.3 29.235 167.854 28.1051Z" fill="#FDB913"/>
<defs>
<radialGradient id="paint0_radial_9030_76312" cx="0" cy="0" r="1" gradientUnits="userSpaceOnUse" gradientTransform="translate(22.7416 16.7936) scale(17.3409 17.3409)">
<stop stop-color="white"/>
<stop offset="0.1091" stop-color="#FFFEFB"/>
<stop offset="0.2246" stop-color="#FFF9EE"/>
<stop offset="0.343" stop-color="#FFF2D9"/>
<stop offset="0.4633" stop-color="#FFE8BB"/>
<stop offset="0.5841" stop-color="#FFDB96"/>
<stop offset="0.6" stop-color="#FFD990"/>
<stop offset="0.6048" stop-color="#FFD88C"/>
<stop offset="0.66" stop-color="#FECE67"/>
<stop offset="0.7178" stop-color="#FEC649"/>
<stop offset="0.7782" stop-color="#FDC031"/>
<stop offset="0.8422" stop-color="#FDBB20"/>
<stop offset="0.9123" stop-color="#FDB916"/>
<stop offset="1" stop-color="#FDB813"/>
</radialGradient>
<radialGradient id="paint1_radial_9030_76312" cx="0" cy="0" r="1" gradientUnits="userSpaceOnUse" gradientTransform="translate(22.2584 17.5237) rotate(-66.003) scale(24.6389 26.9445)">
<stop stop-color="white"/>
<stop offset="0.53" stop-color="white"/>
<stop offset="0.77" stop-color="#FFDFA4"/>
<stop offset="0.7992" stop-color="#FFDA95"/>
<stop offset="0.8551" stop-color="#FFCE6E"/>
<stop offset="0.88" stop-color="#FFC85B"/>
<stop offset="0.9052" stop-color="#FFC54E"/>
<stop offset="0.9646" stop-color="#FEBF34"/>
<stop offset="1" stop-color="#FEBD2A"/>
</radialGradient>
<radialGradient id="paint2_radial_9030_76312" cx="0" cy="0" r="1" gradientUnits="userSpaceOnUse" gradientTransform="translate(22.7926 17.7536) scale(16.2493 17.7692)">
<stop stop-color="white"/>
<stop offset="0.53" stop-color="white"/>
<stop offset="0.77" stop-color="#FFDFA4"/>
<stop offset="0.7992" stop-color="#FFDA95"/>
<stop offset="0.8551" stop-color="#FFCE6E"/>
<stop offset="0.88" stop-color="#FFC85B"/>
<stop offset="0.9052" stop-color="#FFC54E"/>
<stop offset="0.9646" stop-color="#FEBF34"/>
<stop offset="1" stop-color="#FEBD2A"/>
</radialGradient>
<radialGradient id="paint3_radial_9030_76312" cx="0" cy="0" r="1" gradientUnits="userSpaceOnUse" gradientTransform="translate(22.7965 17.7603) rotate(-22.0019) scale(16.2731 17.7947)">
<stop stop-color="white"/>
<stop offset="0.53" stop-color="white"/>
<stop offset="0.77" stop-color="#FFDFA4"/>
<stop offset="0.7992" stop-color="#FFDA95"/>
<stop offset="0.8551" stop-color="#FFCE6E"/>
<stop offset="0.88" stop-color="#FFC85B"/>
<stop offset="0.9052" stop-color="#FFC54E"/>
<stop offset="0.9646" stop-color="#FEBF34"/>
<stop offset="1" stop-color="#FEBD2A"/>
</radialGradient>
<radialGradient id="paint4_radial_9030_76312" cx="0" cy="0" r="1" gradientUnits="userSpaceOnUse" gradientTransform="translate(22.7886 17.7599) rotate(-44.0004) scale(16.2743 17.7971)">
<stop stop-color="white"/>
<stop offset="0.53" stop-color="white"/>
<stop offset="0.77" stop-color="#FFDFA4"/>
<stop offset="0.7992" stop-color="#FFDA95"/>
<stop offset="0.8551" stop-color="#FFCE6E"/>
<stop offset="0.88" stop-color="#FFC85B"/>
<stop offset="0.9052" stop-color="#FFC54E"/>
<stop offset="0.9646" stop-color="#FEBF34"/>
<stop offset="1" stop-color="#FEBD2A"/>
</radialGradient>
<radialGradient id="paint5_radial_9030_76312" cx="0" cy="0" r="1" gradientUnits="userSpaceOnUse" gradientTransform="translate(22.7923 17.7542) scale(17.7837 17.7837)">
<stop stop-color="white"/>
<stop offset="0.53" stop-color="white"/>
<stop offset="0.77" stop-color="#FFDFA4"/>
<stop offset="0.7992" stop-color="#FFDA95"/>
<stop offset="0.8551" stop-color="#FFCE6E"/>
<stop offset="0.88" stop-color="#FFC85B"/>
<stop offset="0.9052" stop-color="#FFC54E"/>
<stop offset="0.9646" stop-color="#FEBF34"/>
<stop offset="1" stop-color="#FEBD2A"/>
</radialGradient>
<radialGradient id="paint6_radial_9030_76312" cx="0" cy="0" r="1" gradientUnits="userSpaceOnUse" gradientTransform="translate(22.8025 17.7506) rotate(22.0016) scale(16.2587 17.7789)">
<stop stop-color="white"/>
<stop offset="0.53" stop-color="white"/>
<stop offset="0.77" stop-color="#FFDFA4"/>
<stop offset="0.7992" stop-color="#FFDA95"/>
<stop offset="0.8551" stop-color="#FFCE6E"/>
<stop offset="0.88" stop-color="#FFC85B"/>
<stop offset="0.9052" stop-color="#FFC54E"/>
<stop offset="0.9646" stop-color="#FEBF34"/>
<stop offset="1" stop-color="#FEBD2A"/>
</radialGradient>
<radialGradient id="paint7_radial_9030_76312" cx="0" cy="0" r="1" gradientUnits="userSpaceOnUse" gradientTransform="translate(22.7909 17.7561) rotate(44.0006) scale(16.2235 17.7415)">
<stop stop-color="white"/>
<stop offset="0.53" stop-color="white"/>
<stop offset="0.77" stop-color="#FFDFA4"/>
<stop offset="0.7992" stop-color="#FFDA95"/>
<stop offset="0.8551" stop-color="#FFCE6E"/>
<stop offset="0.88" stop-color="#FFC85B"/>
<stop offset="0.9052" stop-color="#FFC54E"/>
<stop offset="0.9646" stop-color="#FEBF34"/>
<stop offset="1" stop-color="#FEBD2A"/>
</radialGradient>
<radialGradient id="paint8_radial_9030_76312" cx="0" cy="0" r="1" gradientUnits="userSpaceOnUse" gradientTransform="translate(22.7817 17.7506) rotate(66.0029) scale(16.2008 17.7168)">
<stop stop-color="white"/>
<stop offset="0.53" stop-color="white"/>
<stop offset="0.77" stop-color="#FFDFA4"/>
<stop offset="0.7992" stop-color="#FFDA95"/>
<stop offset="0.8551" stop-color="#FFCE6E"/>
<stop offset="0.88" stop-color="#FFC85B"/>
<stop offset="0.9052" stop-color="#FFC54E"/>
<stop offset="0.9646" stop-color="#FEBF34"/>
<stop offset="1" stop-color="#FEBD2A"/>
</radialGradient>
<radialGradient id="paint9_radial_9030_76312" cx="0" cy="0" r="1" gradientUnits="userSpaceOnUse" gradientTransform="translate(22.7553 17.7542) scale(17.7724 17.7724)">
<stop stop-color="white"/>
<stop offset="0.72" stop-color="white"/>
<stop offset="1" stop-color="#FFE6BA"/>
</radialGradient>
</defs>
</svg>
