<?xml version="1.0" encoding="utf-8"?>
<!-- Generator: Adobe Illustrator 27.0.1, SVG Export Plug-In . SVG Version: 6.00 Build 0)  -->
<svg version="1.1" id="Layer_1" xmlns="http://www.w3.org/2000/svg" xmlns:xlink="http://www.w3.org/1999/xlink" x="0px" y="0px"
	 viewBox="0 0 206 47.3" style="enable-background:new 0 0 206 47.3;" xml:space="preserve">
<style type="text/css">
	.st0{fill:#234075;}
	.st1{fill:#E3A82B;}
	.st2{fill:none;}
	.st3{fill:url(#SVGID_1_);}
	.st4{fill:url(#SVGID_00000094593315356825197920000016190066184313938327_);}
	.st5{fill:url(#SVGID_00000042726888641715820660000002373537500528725633_);}
	.st6{fill:url(#SVGID_00000103970357203521134150000011888235422490586045_);}
	.st7{fill:url(#SVGID_00000015312641568422823700000009274556509440987814_);}
	.st8{fill:url(#SVGID_00000168078100880542008150000012452982018203922052_);}
	.st9{fill:url(#SVGID_00000085952355823381961780000018181545881885716152_);}
	.st10{fill:url(#SVGID_00000072967477353626482400000012790568986591526573_);}
	.st11{fill:url(#SVGID_00000122703704706553751200000016282530724926459796_);}
</style>
<g>
	<path class="st0" d="M75.6,39.4c-1.1,0-1.2,0-1.2,0.8v3.3c0,2.5,0.1,2.8,1.4,3l0.7,0.1c0.1,0.1,0.1,0.5,0,0.6c-1.3,0-2.1-0.1-3-0.1
		c-1,0-1.8,0-2.8,0.1c-0.1-0.1-0.2-0.4,0-0.6l0.4-0.1c1.3-0.2,1.4-0.5,1.4-3v-8.5c0-2.5-0.2-2.9-1.4-3l-0.6,0
		c-0.1-0.1-0.1-0.5,0-0.6c1.1,0,2,0.1,3,0.1c0.9,0,1.7,0,2.8-0.1c0.1,0.1,0.2,0.5,0,0.6l-0.4,0c-1.4,0.1-1.4,0.5-1.4,3v2.7
		c0,0.8,0,0.8,1.2,0.8h6.8c1.1,0,1.2,0,1.2-0.8v-2.7c0-2.5,0-2.9-1.4-3l-0.4,0c-0.1-0.1-0.1-0.5,0-0.6c1.1,0,1.9,0.1,2.9,0.1
		s1.7,0,2.8-0.1c0.1,0.1,0.2,0.5,0,0.6l-0.5,0c-1.4,0.1-1.4,0.5-1.4,3v8.5c0,2.5,0,2.8,1.4,3l0.6,0.1c0.1,0.1,0.1,0.5,0,0.6
		c-1.1,0-1.9-0.1-2.9-0.1s-1.8,0-2.9,0.1c-0.1-0.1-0.2-0.4,0-0.6l0.4-0.1c1.4-0.2,1.4-0.5,1.4-3v-3.3c0-0.7,0-0.8-1.2-0.8H75.6
		L75.6,39.4z"/>
	<path class="st0" d="M91.2,40.9c-0.6,0-0.7,0-0.7,0.7c0,2.4,1.4,4.4,3.9,4.4c0.8,0,1.4-0.2,2.2-1.1c0.2-0.1,0.4,0.1,0.4,0.3
		c-0.8,1.6-2.5,2.2-3.7,2.2c-1.5,0-2.8-0.7-3.4-1.6c-0.7-0.9-1-2-1-3.1c0-2.9,1.9-5.4,4.8-5.4c2,0,3.4,1.4,3.4,2.8
		c0,0.3,0,0.5-0.1,0.6c-0.1,0.1-0.4,0.2-1.4,0.2L91.2,40.9L91.2,40.9z M92.7,40.2c1.8,0,2.3-0.1,2.5-0.2c0.1,0,0.1-0.1,0.1-0.4
		c0-0.7-0.4-1.5-1.8-1.5s-2.6,1.3-2.6,2.1c0,0,0,0.1,0.2,0.1L92.7,40.2L92.7,40.2z"/>
	<path class="st0" d="M103.2,42.1c0.3-0.1,0.4-0.3,0.4-0.7l0-1.1c0-0.9-0.3-2.1-1.7-2.1c-0.7,0-1.4,0.3-1.5,1c0,0.4,0,0.7-0.2,0.8
		c-0.3,0.3-1,0.4-1.4,0.4c-0.2,0-0.3-0.1-0.3-0.3c0-1.2,2.7-2.9,4.4-2.9s2.6,1,2.5,2.8l-0.1,4.1c0,1.1,0.2,2.1,1.1,2.1
		c0.2,0,0.4-0.1,0.6-0.1c0.1-0.1,0.2-0.2,0.3-0.2s0.2,0.1,0.2,0.3c0,0.1-0.8,1-2,1c-0.6,0-1.1-0.2-1.5-0.8c-0.1-0.1-0.2-0.3-0.4-0.3
		s-0.4,0.2-0.9,0.5c-0.5,0.3-1.1,0.6-1.7,0.6c-0.7,0-1.3-0.2-1.7-0.5c-0.4-0.4-0.8-1-0.8-1.7c0-0.9,0.4-1.5,2-2L103.2,42.1
		L103.2,42.1z M101.7,46.3c0.5,0,1.2-0.3,1.4-0.6c0.3-0.3,0.3-0.6,0.3-1.1l0-1.4c0-0.3-0.1-0.3-0.2-0.3s-0.5,0.1-1,0.2
		c-1.4,0.5-2.1,0.8-2.1,1.8C100.2,45.2,100.5,46.3,101.7,46.3L101.7,46.3z"/>
	<path class="st0" d="M111,44.4c0,1.7,0,1.9,0.9,2.1l0.6,0.1c0.2,0.1,0.1,0.5,0,0.6c-0.8,0-1.4-0.1-2.3-0.1s-1.6,0-2.3,0.1
		c-0.2-0.1-0.2-0.5,0-0.6l0.5-0.1c0.9-0.1,0.9-0.3,0.9-2.1V33.6c0-1.4,0-1.5-0.8-2l-0.2-0.1c-0.1-0.1-0.1-0.4,0-0.5
		c0.6-0.2,1.7-0.5,2.6-1c0.1,0,0.2,0,0.2,0.1c0,0.7-0.1,1.9-0.1,2.9L111,44.4L111,44.4L111,44.4z"/>
	<path class="st0" d="M117.3,38.6c-0.4,0-0.4,0.1-0.4,0.6v4.4c0,1.4,0.2,2.6,1.7,2.6c0.2,0,0.4,0,0.7-0.1s0.5-0.3,0.6-0.3
		c0.2,0,0.3,0.3,0.2,0.4c-0.4,0.5-1.3,1.1-2.5,1.1c-2,0-2.5-1.1-2.5-2.5v-5.5c0-0.7,0-0.7-0.5-0.7H114c-0.1-0.1-0.2-0.3-0.1-0.5
		c0.7-0.2,1.3-0.5,1.5-0.8c0.3-0.3,0.8-0.9,1-1.4c0.1,0,0.4,0,0.5,0.1v1c0,0.4,0,0.4,0.4,0.4h2.6c0.3,0.2,0.2,0.8,0,1L117.3,38.6
		L117.3,38.6L117.3,38.6z"/>
	<path class="st0" d="M122.4,33.6c0-1.4,0-1.5-0.8-2l-0.2-0.1c-0.1-0.1-0.1-0.4,0-0.5c0.6-0.2,1.7-0.5,2.6-1c0.1,0,0.2,0,0.2,0.1
		c0,0.7-0.1,1.9-0.1,2.9v5c0,0.2,0,0.4,0.1,0.4c0.8-0.7,2-1.2,3.2-1.2c2.2,0,3.1,1.4,3.1,3.1v4c0,1.7,0,2,0.9,2.1l0.7,0.1
		c0.2,0.1,0.1,0.5,0,0.6c-0.8,0-1.5-0.1-2.4-0.1s-1.6,0-2.2,0.1c-0.2-0.1-0.2-0.5,0-0.6l0.5-0.1c0.9-0.1,0.9-0.3,0.9-2.1v-3.4
		c0-1.5-0.8-2.5-2.2-2.5c-0.8,0-1.4,0.3-1.8,0.7c-0.4,0.3-0.5,0.5-0.5,1.3v4c0,1.7,0,1.9,0.9,2.1l0.5,0.1c0.2,0.1,0.1,0.5,0,0.6
		c-0.7,0-1.4-0.1-2.2-0.1s-1.6,0-2.3,0.1c-0.2-0.1-0.2-0.5,0-0.6l0.6-0.1c0.9-0.1,0.9-0.3,0.9-2.1V33.6L122.4,33.6L122.4,33.6z"/>
	<path class="st0" d="M135.6,34.9c0-2.5,0-2.9-1.5-3l-0.6,0c-0.1-0.1-0.1-0.5,0-0.6c1.3,0,2.1,0.1,3.1,0.1s1.7,0,2.9-0.1
		c0.1,0.1,0.2,0.5,0,0.6l-0.6,0c-1.4,0.1-1.4,0.5-1.4,3v8.3c0,1.5,0.1,2.1,0.5,2.5c0.3,0.3,0.7,0.5,2.6,0.5c2,0,2.5-0.1,2.9-0.3
		c0.5-0.3,1.1-1.1,1.6-2.3c0.1-0.1,0.6,0,0.6,0.1c0,0.3-0.7,2.7-1,3.3c-1.2,0-3.5-0.1-5.9-0.1h-2.2c-1,0-1.8,0-3.1,0.1
		c-0.1-0.1-0.2-0.4,0-0.6l0.7-0.1c1.4-0.1,1.4-0.5,1.4-3v-8.5L135.6,34.9L135.6,34.9z"/>
	<path class="st0" d="M147.9,40.2c0-0.9,0-1-0.7-1.5l-0.2-0.1c-0.1-0.1-0.1-0.3,0-0.4c0.5-0.2,1.9-0.8,2.5-1.1c0.1,0,0.2,0,0.2,0.1
		c0,0.8-0.1,2-0.1,2.9v4.3c0,1.7,0,1.9,0.9,2.1l0.5,0.1c0.2,0.1,0.1,0.5,0,0.6c-0.7,0-1.4-0.1-2.2-0.1s-1.6,0-2.2,0.1
		c-0.2-0.1-0.2-0.5,0-0.6l0.5-0.1c0.9-0.1,0.9-0.3,0.9-2.1L147.9,40.2L147.9,40.2z M149.9,33.4c0,0.8-0.6,1.2-1.3,1.2
		c-0.8,0-1.2-0.5-1.2-1.2c0-0.8,0.6-1.3,1.3-1.3S149.9,32.8,149.9,33.4z"/>
	<path class="st0" d="M154,40.2c0-0.9,0-1-0.7-1.5l-0.2-0.1c-0.1-0.1-0.1-0.3,0-0.4c0.5-0.2,1.9-0.8,2.4-1.1c0.1,0,0.2,0,0.3,0.2
		c0,0.5,0,0.9,0,1.1c0,0.1,0.1,0.3,0.3,0.3c1-0.6,2.1-1.2,3.3-1.2c2,0,2.8,1.4,2.8,2.9v4.1c0,1.7,0,1.9,0.9,2.1l0.5,0.1
		c0.2,0.1,0.1,0.5,0,0.6c-0.7,0-1.4-0.1-2.2-0.1s-1.6,0-2.2,0.1c-0.2-0.1-0.2-0.5,0-0.6l0.4-0.1c0.9-0.1,0.9-0.3,0.9-2.1v-3.5
		c0-1.4-0.6-2.3-2.2-2.3c-0.9,0-1.7,0.4-2,0.8c-0.3,0.4-0.4,0.8-0.4,1.4v3.7c0,1.7,0,1.9,0.9,2.1l0.4,0.1c0.2,0.1,0.1,0.5,0,0.6
		c-0.7,0-1.3-0.1-2.1-0.1s-1.6,0-2.2,0.1c-0.2-0.1-0.2-0.5,0-0.6l0.5-0.1c0.9-0.1,0.9-0.3,0.9-2.1L154,40.2L154,40.2L154,40.2z"/>
	<path class="st0" d="M166.3,33.6c0-1.4,0-1.5-0.8-2l-0.2-0.1c-0.1-0.1-0.1-0.4,0-0.5c0.6-0.2,1.7-0.5,2.6-1c0.1,0,0.2,0,0.2,0.1
		c0,0.7-0.1,1.9-0.1,2.9v8.1c0,0.3,0,0.3,0.4,0.3c0.5,0,1-0.3,1.6-0.9l1-1c0.7-0.7,0.8-1,0.8-1.1s-0.1-0.2-0.5-0.2l-0.6-0.1
		c-0.2-0.1-0.2-0.5,0-0.6h0.5c1.1,0,2.5,0,3.8-0.2c0.2,0.1,0.2,0.5,0,0.6l-0.8,0.1c-0.5,0.1-0.9,0.3-1.5,0.8c-0.9,0.8-1.7,1.6-2.1,2
		c-0.3,0.3-0.3,0.4-0.2,0.6c0.4,0.5,0.8,1,1.6,1.9c0.9,1,1.8,2,2.2,2.4c0.4,0.3,0.8,0.4,1.2,0.5l0.4,0c0.2,0.1,0.1,0.5,0,0.6
		c-0.7,0-1.5-0.1-2.2-0.1c-1,0-1.8,0-2.5,0.1c-0.2-0.1-0.2-0.5,0-0.6l0.4-0.1c0.4,0,0.6-0.1,0.6-0.2s-0.1-0.3-0.4-0.7l-2.6-2.9
		c-0.2-0.2-0.5-0.3-0.8-0.3c-0.4,0-0.4,0.1-0.4,0.8v1.3c0,1.7,0,1.9,0.9,2.1l0.6,0.1c0.2,0.1,0.1,0.5,0,0.6c-0.8,0-1.4-0.1-2.3-0.1
		s-1.6,0-2.3,0.1c-0.2-0.1-0.2-0.5,0-0.6l0.5-0.1c0.9-0.1,0.9-0.3,0.9-2.1L166.3,33.6L166.3,33.6L166.3,33.6z"/>
	<path class="st1" d="M178.6,34.4c0-1.8-0.1-2.2-1.1-2.3l-0.8-0.1c-0.2-0.1-0.2-0.5,0-0.6c1.3-0.1,2.9-0.2,5.1-0.2
		c1.5,0,2.9,0.1,4,0.7c1,0.5,1.8,1.5,1.8,3c0,1.7-1,2.6-2.4,3.2c0,0.2,0.2,0.3,0.4,0.3c1.3,0.2,3.2,1.4,3.2,4c0,2.8-2,4.6-6.3,4.6
		c-0.7,0-1.8-0.1-2.9-0.1s-1.8,0-2.7,0.1c-0.1-0.1-0.2-0.4,0-0.6l0.4-0.1c1.3-0.2,1.3-0.5,1.3-3L178.6,34.4L178.6,34.4L178.6,34.4z
		 M180.6,37.6c0,0.7,0,0.7,1.2,0.7c2.4-0.1,3.7-0.8,3.7-3S183.8,32,182,32c-0.5,0-0.9,0-1.1,0.1s-0.4,0.2-0.4,0.6L180.6,37.6
		L180.6,37.6z M180.6,43.1c0,0.8,0,2.1,0.5,2.6s1.1,0.7,1.9,0.7c2.1,0,3.7-1,3.7-3.3c0-1.9-1-4-4.7-4c-1.3,0-1.4,0.1-1.4,0.6
		L180.6,43.1L180.6,43.1L180.6,43.1z"/>
	<path class="st1" d="M194,33c1.7-1.4,3.9-2,6.4-2c1.3,0,3.1,0.3,4.2,0.6c0.3,0.1,0.4,0.1,0.7,0.1c0,0.5,0.1,2,0.4,3.5
		c-0.1,0.2-0.5,0.2-0.7,0c-0.4-1.6-1.4-3.5-4.9-3.5c-3.6,0-6.7,2.3-6.7,7.2s3.2,7.7,7,7.7c3.1,0,4.4-2,5-3.4
		c0.2-0.1,0.5-0.1,0.6,0.1c-0.2,1.2-0.8,2.8-1.1,3.2c-0.3,0-0.6,0.1-0.8,0.2c-0.5,0.2-2.2,0.5-3.7,0.5c-2.1,0-4.2-0.4-5.9-1.6
		c-1.9-1.3-3.4-3.5-3.4-6.5C191,36.6,192.2,34.4,194,33L194,33z"/>
</g>
<rect x="62.6" class="st1" width="0.5" height="47"/>
<g>
	<circle class="st2" cx="27.1" cy="21.2" r="0"/>
	<path class="st0" d="M7.3,31.2c0-0.8,0-1-0.6-1.1l-0.4,0c0,0,0-0.3,0-0.3c0.7,0,1.5-0.1,2.7-0.1c0.8,0,1.5,0,2.1,0.3
		c0.5,0.2,1,0.7,1,1.4c0,0.8-0.5,1.2-1.3,1.6c0,0.1,0.1,0.1,0.2,0.2c0.7,0.1,1.7,0.7,1.7,1.9c0,1.3-1.1,2.2-3.4,2.2
		c-0.4,0-1,0-1.5,0s-1,0-1.5,0c-0.1,0-0.1-0.2,0-0.3l0.2,0c0.7-0.1,0.7-0.2,0.7-1.4L7.3,31.2L7.3,31.2L7.3,31.2z M8.4,32.8
		c0,0.3,0,0.3,0.7,0.3c1.3,0,2-0.4,2-1.5s-0.9-1.5-1.9-1.5c-0.3,0-0.5,0-0.6,0.1c-0.1,0-0.2,0.1-0.2,0.3V32.8z M8.4,35.4
		c0,0.4,0,1,0.3,1.2c0.2,0.3,0.6,0.3,1,0.3c1.1,0,2-0.4,2-1.6c0-0.9-0.5-1.9-2.5-1.9c-0.7,0-0.8,0.1-0.8,0.3V35.4L8.4,35.4L8.4,35.4
		z"/>
	<path class="st0" d="M21.6,32.4c0-1,0-1.2-0.7-1.2h-0.3c0,0,0-0.2,0-0.3c0.5,0,0.9,0,1.4,0s0.8,0,1.4,0c0,0,0.1,0.2,0,0.3h-0.3
		c-0.7,0-0.7,0.2-0.7,1.2v3.5c0,1,0,1.2,0.7,1.2l0.3,0c0,0,0,0.2,0,0.3c-0.5,0-0.9,0-1.4,0s-0.8,0-1.4,0c0,0-0.1-0.2,0-0.3l0.3,0
		c0.7-0.1,0.7-0.2,0.7-1.2V32.4z"/>
	<path class="st0" d="M27.6,35.8c0,1,0,1.2,0.6,1.2l0.3,0c0,0,0,0.2,0,0.3c-0.6,0-0.9,0-1.3,0s-0.8,0-1.4,0c0,0-0.1-0.2,0-0.3l0.3,0
		c0.6,0,0.6-0.2,0.6-1.2v-4.3c0-0.2-0.1-0.3-0.3-0.3h-0.6c-0.4,0-1,0-1.2,0.3c-0.3,0.2-0.3,0.4-0.4,0.7c-0.1,0-0.2,0-0.3-0.1
		c0.2-0.4,0.3-1,0.4-1.5c0,0,0.2,0,0.2,0c0,0.3,0.4,0.3,0.9,0.3h4.1c0.5,0,0.7,0,0.8-0.3c0,0,0.2,0,0.2,0c-0.1,0.4-0.2,1.2-0.1,1.5
		c0,0.1-0.2,0.1-0.3,0c0-0.3-0.1-0.6-0.3-0.7c-0.2-0.2-0.6-0.3-1.2-0.3h-0.8c-0.2,0-0.3,0.1-0.3,0.3L27.6,35.8L27.6,35.8L27.6,35.8z
		"/>
	<path class="st0" d="M31.9,32.4c0-1,0-1.2-0.7-1.2H31c0,0,0-0.2,0-0.3c0.5,0,0.9,0,1.4,0s0.8,0,1.4,0c0,0,0.1,0.2,0,0.3h-0.3
		c-0.7,0-0.7,0.2-0.7,1.2v3.5c0,1,0,1.2,0.7,1.2l0.3,0c0,0,0,0.2,0,0.3c-0.5,0-0.9,0-1.4,0s-0.8,0-1.4,0c0,0-0.1-0.2,0-0.3l0.3,0
		c0.7-0.1,0.7-0.2,0.7-1.2V32.4z"/>
	<path class="st0" d="M36.8,37.5c-1,0-1.6-0.3-1.8-0.3c-0.1-0.2-0.3-0.9-0.3-1.4c0-0.1,0.2-0.1,0.3,0c0.2,0.5,0.7,1.5,2,1.5
		c1,0,1.5-0.5,1.5-1.1c0-0.4-0.1-0.9-0.9-1.4l-1.1-0.6c-0.6-0.3-1.2-0.9-1.2-1.7c0-0.9,0.8-1.7,2.3-1.7c0.3,0,0.8,0,1,0.1
		c0.1,0,0.3,0,0.4,0c0.1,0.2,0.2,0.8,0.2,1.2c0,0-0.2,0.1-0.3,0c-0.1-0.5-0.4-1.1-1.6-1.1s-1.4,0.6-1.4,1.1c0,0.6,0.6,1,1,1.2
		l0.9,0.5c0.7,0.4,1.5,1,1.5,1.9C39.2,36.7,38.3,37.5,36.8,37.5L36.8,37.5z"/>
	<path class="st0" d="M42.6,34.2c-0.5,0-0.5,0-0.5,0.3v1.4c0,1,0,1.1,0.7,1.2l0.3,0c0,0,0,0.2,0,0.3c-0.6,0-0.9,0-1.3,0
		c-0.4,0-0.8,0-1.2,0c0,0-0.1-0.2,0-0.3l0.2,0c0.6-0.1,0.6-0.2,0.6-1.2v-3.5c0-1-0.1-1.2-0.6-1.2h-0.3c0,0,0-0.2,0-0.3
		c0.5,0,0.9,0,1.3,0c0.4,0,0.8,0,1.2,0c0,0,0.1,0.2,0,0.3h-0.2c-0.6,0-0.6,0.2-0.6,1.2v1.1c0,0.2,0.2,0.3,0.5,0.3h3
		c0.5,0,0.5,0,0.5-0.3v-1.1c0-1,0-1.2-0.7-1.2h-0.2c0,0,0-0.2,0-0.3c0.5,0,0.8,0,1.3,0c0.4,0,0.8,0,1.2,0c0,0,0.1,0.2,0,0.3h-0.2
		c-0.6,0-0.6,0.2-0.6,1.2v3.5c0,1,0,1.1,0.6,1.2l0.3,0c0,0,0,0.2,0,0.3c-0.5,0-0.9,0-1.3,0c-0.4,0-0.8,0-1.3,0c0,0-0.1-0.2,0-0.3
		l0.2,0c0.7-0.1,0.7-0.2,0.7-1.2v-1.4c0-0.2-0.2-0.3-0.5-0.3H42.6L42.6,34.2z"/>
	<path class="st0" d="M1.4,39.5c0.9-0.7,2-1,3.2-1c0.7,0,1.5,0.1,2.1,0.3c0.1,0,0.2,0,0.4,0c0,0.3,0.1,1,0.2,1.7
		c0,0.1-0.2,0.1-0.3,0c-0.2-0.8-0.7-1.7-2.4-1.7c-1.8,0-3.3,1.1-3.3,3.6s1.6,3.8,3.5,3.8c1.5,0,2.2-1,2.5-1.7c0.1,0,0.3,0,0.3,0
		C7.3,45.2,7,46,6.9,46.2c-0.1,0-0.3,0.1-0.4,0.1c-0.3,0.1-1.1,0.3-1.8,0.3c-1,0-2.1-0.2-2.9-0.8C0.8,45.1,0,44.1,0,42.6
		C-0.1,41.3,0.5,40.2,1.4,39.5L1.4,39.5z"/>
	<path class="st0" d="M7.8,43.3c0-1.9,1.5-3.4,3.6-3.4c2.4,0,3.6,1.6,3.6,3.3c0,2-1.6,3.4-3.6,3.4C9.2,46.6,7.8,45,7.8,43.3z
		 M14,43.5c0-1.6-0.8-3.3-2.7-3.3c-1,0-2.5,0.7-2.5,2.8c0,1.5,0.8,3.3,2.8,3.3C12.8,46.3,14,45.4,14,43.5L14,43.5z"/>
	<path class="st0" d="M26.5,42.4c0-0.6,0-1.7-0.2-2c-0.1-0.1-0.3-0.2-0.5-0.2h-0.3c0-0.1,0-0.2,0-0.2c0.4,0,0.8,0,1.2,0
		c0.4,0,0.7,0,1.1,0c0.1,0,0.1,0.2,0,0.2h-0.3c-0.3,0-0.4,0.1-0.5,0.2c-0.1,0.3-0.1,1.5-0.1,2v1.1c0,0.8-0.1,1.8-0.7,2.3
		c-0.4,0.4-1.2,0.7-2,0.7c-0.7,0-1.4-0.1-1.9-0.5c-0.5-0.4-0.8-1.1-0.8-2.3v-2.3c0-1,0-1.2-0.6-1.2h-0.3c0,0,0-0.2,0-0.2
		c0.5,0,0.9,0,1.3,0c0.4,0,0.8,0,1.3,0c0,0,0.1,0.2,0,0.2H23c-0.6,0-0.6,0.2-0.6,1.2v2.1c0,1.6,0.5,2.6,2.1,2.6
		c1.5,0,2.1-1.1,2.1-2.6L26.5,42.4L26.5,42.4L26.5,42.4z"/>
	<path class="st0" d="M38.5,41.2c0-0.8,0-0.9-0.6-1l-0.3,0c0,0,0-0.2,0-0.3c0.6,0,1.4-0.1,2.5-0.1c0.7,0,1.4,0,1.9,0.3
		c0.5,0.2,0.9,0.6,0.9,1.2c0,0.7-0.5,1-1.1,1.4c0,0.1,0.1,0.1,0.2,0.1c0.6,0.1,1.5,0.6,1.5,1.6c0,1.1-1,1.9-3,1.9
		c-0.3,0-0.9,0-1.4,0s-0.9,0-1.3,0c-0.1,0-0.1-0.2,0-0.3l0.2,0c0.6-0.1,0.6-0.2,0.6-1.2L38.5,41.2L38.5,41.2L38.5,41.2z M39.5,42.6
		c0,0.3,0,0.3,0.6,0.3c1.2,0,1.8-0.3,1.8-1.3s-0.8-1.3-1.7-1.3c-0.3,0-0.4,0-0.5,0c-0.1,0-0.2,0.1-0.2,0.3L39.5,42.6L39.5,42.6
		L39.5,42.6z M39.5,44.8c0,0.3,0,0.8,0.2,1c0.2,0.2,0.6,0.3,0.9,0.3c1,0,1.8-0.4,1.8-1.4c0-0.8-0.4-1.7-2.3-1.7
		c-0.6,0-0.7,0-0.7,0.3V44.8L39.5,44.8L39.5,44.8z"/>
	
		<radialGradient id="SVGID_1_" cx="26.8984" cy="726.76" r="20.59" gradientTransform="matrix(1 0 0 1 0 -706.66)" gradientUnits="userSpaceOnUse">
		<stop  offset="0" style="stop-color:#FFFFFF"/>
		<stop  offset="0.13" style="stop-color:#FEFDFC"/>
		<stop  offset="0.25" style="stop-color:#FDF8F1"/>
		<stop  offset="0.36" style="stop-color:#FAF0DF"/>
		<stop  offset="0.46" style="stop-color:#F5E3C6"/>
		<stop  offset="0.57" style="stop-color:#F0D4A5"/>
		<stop  offset="0.6" style="stop-color:#EECE99"/>
		<stop  offset="0.6" style="stop-color:#EECE98"/>
		<stop  offset="0.65" style="stop-color:#EBC277"/>
		<stop  offset="0.7" style="stop-color:#E8B95B"/>
		<stop  offset="0.76" style="stop-color:#E6B146"/>
		<stop  offset="0.82" style="stop-color:#E4AC37"/>
		<stop  offset="0.89" style="stop-color:#E3A92E"/>
		<stop  offset="1" style="stop-color:#E3A82B"/>
	</radialGradient>
	<path class="st3" d="M47.5,16.4C45.3,7.1,37,0.2,26.9,0.2S8.3,7.4,6.3,16.9l4.4-2.6l2.5,1.7c0,0,1.5-0.7,1.8-0.8l1.8,1.9
		c0,0,3.9,3.1,4,3.1c0.1,0,3.4-1.9,3.4-1.9l2.9-2l2.6,1.9l1.9,0.4l2,1.3c0,0,4.7-3.2,5.5-3.6c0,0,2.1,0.8,2.3,0.8
		c0.2,0,3.4-2.6,3.4-2.6S47.5,16.4,47.5,16.4z"/>
	
		<radialGradient id="SVGID_00000150098620084141800460000000771537064134136975_" cx="23.2143" cy="727.9" r="21.1" gradientTransform="matrix(0.91 0 0 1 5.8263 -706.66)" gradientUnits="userSpaceOnUse">
		<stop  offset="0.53" style="stop-color:#FFFFFF"/>
		<stop  offset="0.6" style="stop-color:#FBF4E9"/>
		<stop  offset="0.75" style="stop-color:#F0D9B0"/>
		<stop  offset="0.77" style="stop-color:#EFD5A8"/>
		<stop  offset="0.82" style="stop-color:#ECCC96"/>
		<stop  offset="0.88" style="stop-color:#E7BD77"/>
		<stop  offset="0.92" style="stop-color:#E6B65B"/>
		<stop  offset="0.97" style="stop-color:#E5B043"/>
		<stop  offset="1" style="stop-color:#E5AE3A"/>
	</radialGradient>
	<path style="fill:url(#SVGID_00000150098620084141800460000000771537064134136975_);" d="M27.2,10.5h0.6l0.8-10.3c-0.5,0-1,0-1.6,0
		c-0.3,0-0.7,0-1,0l0.5,10.3H27.2z"/>
	
		<radialGradient id="SVGID_00000132794357169988268330000011702656988468652456_" cx="-201.8872" cy="600.2324" r="21.13" gradientTransform="matrix(0.8437 -0.3409 0.3746 0.9272 -27.3522 -604.198)" gradientUnits="userSpaceOnUse">
		<stop  offset="0.53" style="stop-color:#FFFFFF"/>
		<stop  offset="0.6" style="stop-color:#FBF4E9"/>
		<stop  offset="0.75" style="stop-color:#F0D9B0"/>
		<stop  offset="0.77" style="stop-color:#EFD5A8"/>
		<stop  offset="0.82" style="stop-color:#ECCC96"/>
		<stop  offset="0.88" style="stop-color:#E7BD77"/>
		<stop  offset="0.92" style="stop-color:#E6B65B"/>
		<stop  offset="0.97" style="stop-color:#E5B043"/>
		<stop  offset="1" style="stop-color:#E5AE3A"/>
	</radialGradient>
	<path style="fill:url(#SVGID_00000132794357169988268330000011702656988468652456_);" d="M23.6,11l-3.2-9.9
		c-0.8,0.3-1.6,0.6-2.4,0.9l4.3,9.4C22.8,11.3,23.2,11.2,23.6,11z"/>
	
		<radialGradient id="SVGID_00000098942458824592300550000013749279625407664015_" cx="-362.9469" cy="413.7309" r="21.14" gradientTransform="matrix(0.6546 -0.6321 0.6947 0.7193 -22.8496 -505.8383)" gradientUnits="userSpaceOnUse">
		<stop  offset="0.53" style="stop-color:#FFFFFF"/>
		<stop  offset="0.6" style="stop-color:#FBF4E9"/>
		<stop  offset="0.75" style="stop-color:#F0D9B0"/>
		<stop  offset="0.77" style="stop-color:#EFD5A8"/>
		<stop  offset="0.82" style="stop-color:#ECCC96"/>
		<stop  offset="0.88" style="stop-color:#E7BD77"/>
		<stop  offset="0.92" style="stop-color:#E6B65B"/>
		<stop  offset="0.97" style="stop-color:#E5B043"/>
		<stop  offset="1" style="stop-color:#E5AE3A"/>
	</radialGradient>
	<path style="fill:url(#SVGID_00000098942458824592300550000013749279625407664015_);" d="M20.1,13.1l-6.7-8
		c-0.7,0.6-1.3,1.1-1.9,1.8l7.6,7.2C19.5,13.6,19.8,13.3,20.1,13.1L20.1,13.1z"/>
	
		<radialGradient id="SVGID_00000029737284674778031530000001432380070059938985_" cx="26.9484" cy="727.9" r="21.12" gradientTransform="matrix(1 0 0 1 0 -706.66)" gradientUnits="userSpaceOnUse">
		<stop  offset="0.53" style="stop-color:#FFFFFF"/>
		<stop  offset="0.6" style="stop-color:#FBF4E9"/>
		<stop  offset="0.75" style="stop-color:#F0D9B0"/>
		<stop  offset="0.77" style="stop-color:#EFD5A8"/>
		<stop  offset="0.82" style="stop-color:#ECCC96"/>
		<stop  offset="0.88" style="stop-color:#E7BD77"/>
		<stop  offset="0.92" style="stop-color:#E6B65B"/>
		<stop  offset="0.97" style="stop-color:#E5B043"/>
		<stop  offset="1" style="stop-color:#E5AE3A"/>
	</radialGradient>
	<path style="fill:url(#SVGID_00000029737284674778031530000001432380070059938985_);" d="M17.7,16.1l-9.3-5
		c-0.4,0.6-0.9,1.7-1.1,2.3l9.8,3.8C17.3,16.9,17.4,16.5,17.7,16.1z"/>
	
		<radialGradient id="SVGID_00000043449058241660948360000000133036262465171081_" cx="284.9918" cy="772.5632" r="21.12" gradientTransform="matrix(0.8437 0.3409 -0.3746 0.9272 75.2764 -792.48)" gradientUnits="userSpaceOnUse">
		<stop  offset="0.53" style="stop-color:#FFFFFF"/>
		<stop  offset="0.6" style="stop-color:#FBF4E9"/>
		<stop  offset="0.75" style="stop-color:#F0D9B0"/>
		<stop  offset="0.77" style="stop-color:#EFD5A8"/>
		<stop  offset="0.82" style="stop-color:#ECCC96"/>
		<stop  offset="0.88" style="stop-color:#E7BD77"/>
		<stop  offset="0.92" style="stop-color:#E6B65B"/>
		<stop  offset="0.97" style="stop-color:#E5B043"/>
		<stop  offset="1" style="stop-color:#E5AE3A"/>
	</radialGradient>
	<path style="fill:url(#SVGID_00000043449058241660948360000000133036262465171081_);" d="M31.8,11.5l4.5-9.2
		c-0.8-0.4-1.6-0.7-2.4-1L30.5,11C30.9,11.1,31.4,11.3,31.8,11.5z"/>
	
		<radialGradient id="SVGID_00000134240296136558545580000010012153838042282667_" cx="549.6355" cy="732.1409" r="21.07" gradientTransform="matrix(0.6546 0.6321 -0.6947 0.7193 174.533 -854.0259)" gradientUnits="userSpaceOnUse">
		<stop  offset="0.53" style="stop-color:#FFFFFF"/>
		<stop  offset="0.6" style="stop-color:#FBF4E9"/>
		<stop  offset="0.75" style="stop-color:#F0D9B0"/>
		<stop  offset="0.77" style="stop-color:#EFD5A8"/>
		<stop  offset="0.82" style="stop-color:#ECCC96"/>
		<stop  offset="0.88" style="stop-color:#E7BD77"/>
		<stop  offset="0.92" style="stop-color:#E6B65B"/>
		<stop  offset="0.97" style="stop-color:#E5B043"/>
		<stop  offset="1" style="stop-color:#E5AE3A"/>
	</radialGradient>
	<path style="fill:url(#SVGID_00000134240296136558545580000010012153838042282667_);" d="M35,13.9l7.6-6.8
		c-0.6-0.6-1.2-1.2-1.8-1.8L34.1,13C34.4,13.3,34.7,13.6,35,13.9L35,13.9z"/>
	
		<radialGradient id="SVGID_00000120546004305440208760000002686049060146703259_" cx="776.5408" cy="606.8171" r="21.04" gradientTransform="matrix(0.3701 0.8313 -0.9135 0.4067 292.6856 -873.8204)" gradientUnits="userSpaceOnUse">
		<stop  offset="0.53" style="stop-color:#FFFFFF"/>
		<stop  offset="0.6" style="stop-color:#FBF4E9"/>
		<stop  offset="0.75" style="stop-color:#F0D9B0"/>
		<stop  offset="0.77" style="stop-color:#EFD5A8"/>
		<stop  offset="0.82" style="stop-color:#ECCC96"/>
		<stop  offset="0.88" style="stop-color:#E7BD77"/>
		<stop  offset="0.92" style="stop-color:#E6B65B"/>
		<stop  offset="0.97" style="stop-color:#E5B043"/>
		<stop  offset="1" style="stop-color:#E5AE3A"/>
	</radialGradient>
	<path style="fill:url(#SVGID_00000120546004305440208760000002686049060146703259_);" d="M37.2,17.3l9.5-3.4
		c-0.3-0.8-0.7-1.6-1-2.3l-9,4.6C36.8,16.6,37,17,37.2,17.3L37.2,17.3z"/>
	
		<radialGradient id="SVGID_00000047020530784695262650000008196693785550493069_" cx="26.8984" cy="727.9" r="21.11" gradientTransform="matrix(1 0 0 1 0 -706.66)" gradientUnits="userSpaceOnUse">
		<stop  offset="0.72" style="stop-color:#FFFFFF"/>
		<stop  offset="0.81" style="stop-color:#FCF6ED"/>
		<stop  offset="0.98" style="stop-color:#F4E0BD"/>
		<stop  offset="1" style="stop-color:#F3DDB7"/>
	</radialGradient>
	<path style="fill:url(#SVGID_00000047020530784695262650000008196693785550493069_);" d="M24.1,18.2l2.9-2l2.6,1.9l1.9,0.4l2,1.3
		c0,0,2.2-1.5,3.8-2.5c-0.3-0.8-0.7-1.4-1.1-2.1l7.1-5.5l-7.5,4.9c-0.7-0.9-1.5-1.7-2.4-2.3l4.5-7.6l-5.1,7.2c-1-0.6-2-1-3.1-1.3
		l1.3-8.8l-2,8.7c-0.6-0.1-1.1-0.1-1.7-0.1c-0.6,0-1.2,0-1.8,0.1l-2-8.7l1.3,8.8c-1.1,0.3-2.2,0.7-3.1,1.3l-5.1-7.3l4.5,7.8
		c-0.9,0.7-1.7,1.4-2.4,2.3l-7.6-4.9l7.2,5.6c-0.4,0.7-0.8,1.3-1,2.1c0.9,0.7,3.6,2.9,3.7,2.9C20.8,20.2,24.1,18.2,24.1,18.2
		L24.1,18.2z"/>
	<path class="st0" d="M47.4,16.2l-2.7-2c0,0-3.2,2.5-3.4,2.6c-0.2,0-2.3-0.8-2.3-0.8c-0.8,0.4-5.5,3.6-5.5,3.6l-2-1.3l-1.9-0.4
		L27,16L24,18c0,0-3.3,1.9-3.4,1.9c-0.1,0-4-3.1-4-3.1L15,15c-0.3,0.2-1.8,0.8-1.8,0.8l-2.5-1.7l-4.4,2.6c-0.3,1.5-0.5,2.9-0.5,4.5
		c0,1.4,0.1,2.7,0.4,4c1.8-0.3,5.2-0.8,8-0.5c4.1,0.5,6.6,1.2,10.9,2.2c4.3,1,7.5,1.9,12.1,1.4c4.3-0.5,7.5-1.4,10.4-3.5
		c0.2-1.1,0.3-2.4,0.3-3.6C48,19.5,47.9,17.9,47.4,16.2L47.4,16.2z"/>
	<path class="st0" d="M20,37.1l-0.3,0h-0.1c-0.4-0.1-0.6-0.4-0.8-0.8l-0.9-1.6c-0.2-0.3-0.4-0.6-0.7-0.7c1-0.1,1.8-0.7,1.8-1.6
		c0-1.1-1.1-1.6-2.2-1.6h-3.1c-0.2,0-0.2,0-0.2,0.2c0,0.2,0.1,0.1,0.3,0.1c0.8,0,0.8,0.2,0.8,0.8v4.3c0,0.6,0,0.8-0.6,0.8h-0.2
		l-0.3,0c0,0,0,0.2,0,0.3h0.4c0.4,0,0.7,0,1,0s0.7,0,1.1,0h0.4c0,0,0.1-0.2,0-0.3l-0.3,0h-0.1c-0.7,0-0.6-0.2-0.6-0.8v-1.6
		c0-0.1,0-0.3,0-0.4s0.2,0,0.3,0c0.9,0,0.9,0.1,1.3,0.8l1.1,2c0.1,0.2,0.2,0.3,0.4,0.3h1.4C20,37.3,20,37.1,20,37.1L20,37.1z
		 M16,33.9c-0.2,0-0.6,0.1-0.6-0.2v-1.8c0-0.8,0-0.8,0.9-0.8c1,0,1.7,0.5,1.7,1.5c0,0.4-0.1,0.8-0.5,1C17,33.9,16.5,33.9,16,33.9z"
		/>
	<g>
		<path class="st0" d="M16.2,41.5c0-1,0-1.2-0.7-1.2h-0.3c0,0,0-0.2,0-0.3c0.6,0,1,0,1.4,0s0.8,0,1.3,0c0,0,0.1,0.2,0,0.3h-0.3
			c-0.6,0-0.7,0.2-0.7,1.2v3.4c0,0.6,0,0.9,0.2,1c0.1,0.1,0.3,0.2,1.2,0.2c0.9,0,1.1,0,1.3-0.1c0.2-0.1,0.5-0.5,0.7-1
			c0,0,0.3,0,0.3,0c0,0.1-0.3,1.1-0.4,1.4c-0.5,0-1.6,0-2.7,0h-1c-0.4,0-0.8,0-1.4,0c0,0-0.1-0.2,0-0.3l0.3,0c0.6,0,0.7-0.2,0.7-1.2
			L16.2,41.5L16.2,41.5L16.2,41.5z"/>
		<path class="st0" d="M44.9,41.5c0-1,0-1.2-0.7-1.2H44c0,0,0-0.2,0-0.3c0.5,0,0.9,0,1.3,0s0.8,0,1.3,0c0,0,0.1,0.2,0,0.3h-0.3
			c-0.6,0-0.7,0.2-0.7,1.2V45c0,1,0,1.2,0.7,1.2l0.3,0c0,0,0,0.2,0,0.3c-0.5,0-0.9,0-1.3,0s-0.8,0-1.3,0c0,0-0.1-0.2,0-0.3l0.3,0
			c0.6-0.1,0.7-0.2,0.7-1.2V41.5z"/>
		<path class="st0" d="M36.5,46.2h-0.2c-0.1,0-0.2,0-0.3-0.1c-0.1-0.1-0.1-0.6-0.1-0.7v-4.3c0-0.2,0-0.6,0.1-0.8
			c0.1-0.1,0.2-0.1,0.3-0.1h0.4c0,0,0-0.2,0-0.3h-1.5c-0.1,0-0.2,0-0.3,0.1L32.5,45l-2.1-4.7c-0.1-0.2-0.1-0.3-0.3-0.3h-1.6
			c0,0-0.1,0.2,0,0.3H29c0.4,0,0.5,0.1,0.4,0.6l-0.3,4.6c0,0.4,0,0.7-0.5,0.8h-0.2l-0.3,0c0,0,0,0.2,0,0.3h0.4c0.3,0,0.5,0,0.8,0
			s0.5,0,0.8,0h0.4c0,0,0.1-0.2,0-0.3l-0.3,0h-0.1c-0.7,0-0.7-0.5-0.6-1.1l0.3-4.3h0.1l2.2,5.2c0,0.1,0,0.2,0.2,0.2
			c0.1,0,0.1-0.1,0.2-0.2l2.5-5.4h0.1v4.7c0,0.2,0,0.6-0.2,0.7c-0.1,0.1-0.4,0.1-0.4,0.1h-0.1l-0.3,0c0,0,0,0.2,0,0.3h0.4
			c0.3,0,0.8,0,1.1,0c0.3,0,0.8,0,0.8,0c0.1,0,0.3,0,0.4,0c0,0,0.1-0.2,0-0.3L36.5,46.2L36.5,46.2z"/>
		<path class="st0" d="M54.1,46.2L54.1,46.2c-0.1,0-0.1,0-0.2,0c-0.4-0.1-0.6-0.6-0.8-1L51,40.1c0,0,0-0.2-0.1-0.2
			c-0.1,0-0.1,0.1-0.2,0.2l-2.1,5.1c-0.1,0.2-0.3,0.7-0.4,0.8c-0.1,0.1-0.3,0.1-0.4,0.1h-0.2l-0.3,0c0,0,0,0.2,0,0.3h0.4
			c0.3,0,0.6,0,0.8,0c0.2,0,0.5,0,0.7,0h0.4c0,0,0.1-0.2,0-0.3l-0.3,0h-0.1c-0.3,0-0.6-0.1-0.6-0.3c0-0.2,0.1-0.4,0.1-0.6l0.3-0.8
			c0.2-0.3,0.1-0.4,0.5-0.4h1.5c0.5,0,0.4,0,0.7,0.5l0.3,0.8c0,0.1,0.1,0.3,0.1,0.5c0,0.3-0.3,0.3-0.5,0.3h-0.4c0,0,0,0.2,0,0.3h0.4
			c0.3,0,0.6,0,0.9,0c0.4,0,0.8,0,1.1,0H54C54.1,46.5,54.1,46.3,54.1,46.2L54.1,46.2z M51.2,43.8h-1.3c0,0-0.4,0-0.4,0
			c0,0,0-0.1,0-0.1l0.8-1.9c0,0,0.1-0.3,0.2-0.3s0.2,0.3,0.2,0.3l0.8,1.8c0,0,0.1,0.2,0.1,0.2C51.5,43.9,51.3,43.8,51.2,43.8
			L51.2,43.8z"/>
	</g>
</g>
<rect x="-14" y="-12.6" class="st2" width="232.8" height="72.3"/>
</svg>
