<svg width="207" height="50" viewBox="0 0 207 50" fill="none" xmlns="http://www.w3.org/2000/svg">
<path d="M67.2904 0.0461426H66.7817V49.3116H67.2904V0.0461426Z" fill="#FDB913"/>
<path d="M7.9566 33.0743C7.9566 32.1517 7.91036 31.9211 7.26291 31.875L6.8467 31.8288C6.80045 31.7827 6.80045 31.5521 6.8467 31.5059C7.58663 31.4598 8.51156 31.4137 9.7602 31.4137C10.5926 31.4137 11.4251 31.4598 12.0263 31.7366C12.6275 32.0133 13.0437 32.4746 13.0437 33.2588C13.0437 34.1353 12.4887 34.5966 11.6563 34.9195C11.6563 35.0578 11.7488 35.0578 11.9338 35.104C12.6737 35.2424 13.7374 35.842 13.7374 37.1336C13.7374 38.5636 12.5812 39.4862 10.1302 39.4862C9.7602 39.4862 9.06651 39.4401 8.51156 39.4401C7.91036 39.4401 7.4479 39.4862 6.93919 39.4862C6.8467 39.4401 6.8467 39.2556 6.89294 39.1633L7.12417 39.1172C7.86411 39.0249 7.86411 38.8865 7.86411 37.5949V33.0743H7.9566ZM9.06651 34.6888C9.06651 35.0117 9.06651 35.0578 9.7602 35.0117C11.1476 34.9656 11.8875 34.5965 11.8875 33.4433C11.8875 32.244 10.9164 31.7827 9.85269 31.7827C9.57522 31.7827 9.34399 31.8288 9.2515 31.875C9.11276 31.9211 9.06651 31.9672 9.06651 32.1979V34.6888ZM9.06651 37.5027C9.06651 37.9178 9.11276 38.5636 9.34399 38.8404C9.62146 39.1172 9.99143 39.1633 10.4076 39.1633C11.61 39.1633 12.535 38.6559 12.535 37.4565C12.535 36.4878 11.98 35.3807 9.85269 35.3807C9.11276 35.3807 9.06651 35.473 9.06651 35.7036V37.5027Z" fill="#004B8D"/>
<path d="M23.2179 34.2737C23.2179 33.1666 23.1717 32.982 22.5242 32.9359H22.2468C22.1543 32.8898 22.2005 32.7053 22.2468 32.6591C22.848 32.6591 23.2179 32.7053 23.7266 32.7053C24.1891 32.7053 24.6053 32.7053 25.1603 32.6591C25.2528 32.7053 25.2528 32.8898 25.2065 32.9359H24.929C24.2353 32.982 24.2353 33.1666 24.2353 34.2737V37.964C24.2353 39.071 24.2353 39.2094 24.929 39.3017L25.2065 39.3478C25.2528 39.3939 25.2528 39.5785 25.1603 39.6246C24.6053 39.6246 24.1891 39.5785 23.7266 39.5785C23.2642 39.5785 22.848 39.5785 22.2468 39.6246C22.2005 39.5785 22.1543 39.4401 22.2468 39.3478L22.5242 39.3017C23.2179 39.2094 23.2179 39.071 23.2179 37.964V34.2737Z" fill="#004B8D"/>
<path d="M29.5999 37.9639C29.5999 39.071 29.5999 39.2094 30.2473 39.2555L30.6173 39.3017C30.6635 39.3478 30.6635 39.5323 30.6173 39.5785C30.0161 39.5785 29.6461 39.5323 29.1837 39.5323C28.7674 39.5323 28.3512 39.5323 27.6575 39.5785C27.6113 39.5323 27.565 39.3939 27.6575 39.3017L28.0275 39.2555C28.6287 39.2094 28.7212 39.0249 28.7212 37.9639V33.3049C28.7212 32.982 28.7212 32.982 28.3975 32.982H27.7963C27.3338 32.982 26.7326 32.982 26.4551 33.2588C26.1777 33.4895 26.0852 33.7201 25.9464 33.9969C25.8539 34.043 25.7152 33.9969 25.6689 33.9046C25.8539 33.4433 25.9927 32.7514 26.0852 32.3362C26.1314 32.3362 26.2701 32.2901 26.2701 32.3362C26.3164 32.6591 26.6864 32.6591 27.1951 32.6591H31.5885C32.1897 32.6591 32.2821 32.6591 32.4209 32.3824C32.4671 32.3824 32.6059 32.3824 32.6059 32.4285C32.4671 32.8437 32.4209 33.7201 32.4209 33.9969C32.3746 34.0891 32.1896 34.0891 32.1434 33.9969C32.0972 33.7201 32.0509 33.3511 31.8659 33.2588C31.6347 33.0743 31.2185 32.982 30.6173 32.982H29.8311C29.5074 32.982 29.5074 32.982 29.5074 33.3511V37.9639H29.5999Z" fill="#004B8D"/>
<path d="M34.2707 34.2737C34.2707 33.1666 34.2707 32.982 33.577 32.9359H33.2995C33.207 32.8898 33.2532 32.7053 33.2995 32.6591C33.9007 32.6591 34.2707 32.7053 34.7794 32.7053C35.2418 32.7053 35.658 32.7053 36.213 32.6591C36.3055 32.7053 36.3055 32.8898 36.2592 32.9359H35.9818C35.2881 32.982 35.2881 33.1666 35.2881 34.2737V37.964C35.2881 39.071 35.2881 39.2094 35.9818 39.3017L36.2592 39.3478C36.3055 39.3939 36.3055 39.5785 36.213 39.6246C35.658 39.6246 35.2418 39.5785 34.7794 39.5785C34.2707 39.5785 33.9007 39.5785 33.2995 39.6246C33.2532 39.5785 33.207 39.4401 33.2995 39.3478L33.577 39.3017C34.2707 39.2094 34.2707 39.071 34.2707 37.964V34.2737Z" fill="#004B8D"/>
<path d="M39.4503 39.6707C38.4329 39.6707 37.7854 39.3939 37.5542 39.3017C37.4155 39.071 37.2305 38.333 37.2305 37.8256C37.2767 37.7333 37.4617 37.7333 37.5079 37.7794C37.6929 38.333 38.2016 39.3478 39.6353 39.3478C40.6527 39.3478 41.1614 38.7943 41.1614 38.1485C41.1614 37.6872 41.0689 37.1798 40.144 36.6723L38.9878 36.0265C38.3866 35.7036 37.6467 35.104 37.6467 34.2275C37.6467 33.2588 38.5716 32.4285 40.144 32.4285C40.5139 32.4285 40.9764 32.4746 41.3001 32.5669C41.4389 32.613 41.6238 32.613 41.7163 32.613C41.8088 32.8437 41.9476 33.4433 41.9476 33.9046C41.9013 33.9507 41.7163 33.9969 41.6239 33.9507C41.4851 33.4433 41.1151 32.7975 39.959 32.7975C38.7566 32.7975 38.4791 33.4895 38.4791 33.9507C38.4791 34.5504 39.0803 35.0117 39.5428 35.2423L40.5139 35.7498C41.3001 36.1649 42.0401 36.7646 42.0401 37.7333C42.0863 38.8865 41.0227 39.6707 39.4503 39.6707Z" fill="#004B8D"/>
<path d="M45.6471 36.1649C45.0922 36.1649 45.0922 36.1649 45.0922 36.4878V37.964C45.0922 39.071 45.1384 39.2094 45.7859 39.2556L46.1096 39.3017C46.1558 39.3478 46.1558 39.5323 46.1096 39.5785C45.5084 39.5785 45.1384 39.5323 44.676 39.5323C44.2135 39.5323 43.7973 39.5323 43.3811 39.5785C43.3348 39.5323 43.2886 39.3939 43.3811 39.3017L43.5661 39.2556C44.2135 39.1633 44.2135 39.0249 44.2135 37.964V34.2275C44.2135 33.1204 44.121 32.982 43.5661 32.9359H43.2886C43.2423 32.8898 43.2423 32.7053 43.2886 32.6591C43.8435 32.6591 44.2135 32.7053 44.7222 32.7053C45.1384 32.7053 45.5546 32.7053 46.0171 32.6591C46.0634 32.7053 46.1096 32.8898 46.0171 32.9359H45.7859C45.1384 32.982 45.0922 33.1666 45.0922 34.2275V35.4269C45.0922 35.7498 45.0922 35.7498 45.6471 35.7498H48.8381C49.3931 35.7498 49.3931 35.7498 49.3931 35.4269V34.2275C49.3931 33.1204 49.3931 32.982 48.6994 32.9359H48.4682C48.4219 32.8898 48.4219 32.7053 48.4682 32.6591C48.9769 32.6591 49.3468 32.7053 49.8093 32.7053C50.2255 32.7053 50.6417 32.7053 51.1504 32.6591C51.1967 32.7053 51.2429 32.8898 51.1504 32.9359H50.9192C50.2718 32.982 50.2255 33.1666 50.2255 34.2275V37.964C50.2255 39.071 50.2255 39.2094 50.9192 39.2556L51.1967 39.3017C51.2429 39.3478 51.2429 39.5323 51.1967 39.5785C50.6417 39.5785 50.2718 39.5323 49.8555 39.5323C49.3931 39.5323 48.9769 39.5323 48.5144 39.5785C48.4682 39.5323 48.4219 39.3939 48.5144 39.3017L48.7456 39.2556C49.4393 39.1633 49.4393 39.0249 49.4393 37.964V36.4878C49.4393 36.1649 49.4393 36.1649 48.8844 36.1649H45.6471Z" fill="#004B8D"/>
<path d="M1.57469 41.8388C2.49962 41.1007 3.65577 40.7778 4.99691 40.7778C5.6906 40.7778 6.61552 40.9162 7.21672 41.1007C7.35546 41.1468 7.44795 41.1468 7.58669 41.1468C7.58669 41.4236 7.67918 42.2078 7.77168 42.992C7.72543 43.0842 7.54044 43.0842 7.44795 43.0381C7.26297 42.2078 6.70801 41.193 4.85817 41.193C2.91583 41.193 1.29722 42.3923 1.29722 45.0216C1.29722 47.651 2.96208 49.1271 5.04315 49.1271C6.66177 49.1271 7.40171 48.0661 7.67918 47.3281C7.77168 47.282 7.95666 47.282 8.00291 47.3742C7.91041 48.02 7.58669 48.8503 7.40171 49.081C7.26297 49.1271 7.07798 49.1732 6.93925 49.2194C6.66177 49.3116 5.73685 49.4961 4.95066 49.4961C3.79451 49.4961 2.73085 49.2655 1.80592 48.6658C0.788509 47.9739 0.0023262 46.8207 0.0023262 45.2062C-0.0439199 43.7762 0.603525 42.5768 1.57469 41.8388Z" fill="#004B8D"/>
<path d="M8.46533 45.8981C8.46533 43.8223 10.0839 42.2078 12.35 42.2078C14.8935 42.2078 16.1422 43.9607 16.1422 45.7597C16.1422 47.8816 14.4773 49.4039 12.35 49.4039C9.94521 49.4039 8.46533 47.7894 8.46533 45.8981ZM15.0785 46.1287C15.0785 44.422 14.2923 42.5768 12.2113 42.5768C11.0551 42.5768 9.57524 43.3149 9.57524 45.5752C9.57524 47.0974 10.3614 49.1271 12.535 49.1271C13.8299 49.1271 15.0785 48.1584 15.0785 46.1287Z" fill="#004B8D"/>
<path d="M28.4898 45.0216C28.4898 44.3758 28.4898 43.1765 28.2585 42.8536C28.166 42.7152 27.981 42.6691 27.7036 42.6229H27.4261C27.3798 42.5307 27.3798 42.3923 27.4261 42.3923C27.8423 42.3923 28.2585 42.4384 28.6747 42.4384C29.1372 42.4384 29.4147 42.4384 29.8309 42.3923C29.9234 42.4384 29.9234 42.5768 29.8309 42.6229H29.5534C29.2759 42.6229 29.0447 42.7152 28.9985 42.8536C28.8597 43.1765 28.8597 44.3758 28.8597 44.9755V46.1287C28.8597 47.0513 28.721 47.9739 28.0735 48.6197C27.6111 49.1271 26.7786 49.3577 25.9462 49.3577C25.2063 49.3577 24.4201 49.2194 23.8651 48.8042C23.2639 48.3429 22.9865 47.6049 22.9865 46.3594V43.9146C22.9865 42.8536 22.9865 42.6691 22.339 42.6229H22.0615C22.0153 42.5768 22.0153 42.3923 22.0615 42.3923C22.6165 42.3923 22.9865 42.4384 23.4489 42.4384C23.9114 42.4384 24.2814 42.4384 24.7901 42.3923C24.8363 42.4384 24.8826 42.5768 24.7901 42.6229H24.5126C23.8651 42.6691 23.8651 42.8536 23.8651 43.9146V46.1749C23.8651 47.8355 24.4201 48.9426 26.085 48.9426C27.7036 48.9426 28.3048 47.7432 28.3048 46.1749V45.0216H28.4898Z" fill="#004B8D"/>
<path d="M41.3462 43.73C41.3462 42.9458 41.2999 42.7613 40.745 42.7152L40.375 42.6691C40.3288 42.623 40.3288 42.4384 40.375 42.3923C41.0225 42.3462 41.8549 42.3 43.011 42.3C43.7972 42.3 44.4909 42.3462 45.0459 42.5768C45.5546 42.8075 45.9708 43.2226 45.9708 43.8684C45.9708 44.6065 45.4621 45.0216 44.7221 45.2984C44.7221 45.3907 44.8146 45.4368 44.9534 45.4368C45.6008 45.5291 46.572 46.0826 46.572 47.1897C46.572 48.389 45.5083 49.2194 43.3348 49.2194C42.9648 49.2194 42.3636 49.1732 41.8549 49.1732C41.2999 49.1732 40.8837 49.1732 40.4675 49.2194C40.375 49.1732 40.375 49.0348 40.4213 48.9426L40.6525 48.8965C41.2999 48.8042 41.3462 48.6658 41.3462 47.6049V43.73ZM42.3174 45.1139C42.3174 45.3907 42.3174 45.4368 42.9648 45.3907C44.2134 45.3445 44.8609 45.0216 44.8609 44.0529C44.8609 43.0381 43.9822 42.6229 43.0573 42.6229C42.7798 42.6229 42.5948 42.623 42.5023 42.6691C42.3636 42.7152 42.3174 42.7613 42.3174 42.9458V45.1139ZM42.3174 47.5587C42.3174 47.9278 42.3636 48.4813 42.5948 48.7119C42.8261 48.9426 43.196 48.9887 43.566 48.9887C44.6297 48.9887 45.4621 48.5736 45.4621 47.5126C45.4621 46.6823 44.9534 45.7136 43.011 45.7136C42.3636 45.7136 42.3174 45.7597 42.3174 45.9903V47.5587Z" fill="#004B8D"/>
<path d="M21.4606 39.3017L21.1831 39.2556C21.1369 39.2556 21.0907 39.2556 21.0444 39.2556C20.6282 39.1633 20.4432 38.7943 20.2582 38.4714L19.2408 36.7185C19.0558 36.4417 18.8708 36.0266 18.5009 35.9804C19.5183 35.842 20.4432 35.2885 20.4432 34.2737C20.4432 33.1204 19.2871 32.5669 18.1309 32.5669C17.4372 32.5669 16.7898 32.5669 16.0498 32.5669C15.6336 32.5669 15.1711 32.5669 14.8012 32.5669C14.5699 32.5669 14.5699 32.613 14.5699 32.7514C14.5699 32.9359 14.6624 32.8898 14.8937 32.8898C15.7261 32.9359 15.6799 33.0743 15.6799 33.8124V38.3791C15.6799 39.0249 15.7261 39.2094 15.0324 39.3017C15.0324 39.3017 14.9399 39.3017 14.8474 39.3017L14.5699 39.3478C14.4775 39.394 14.5237 39.5785 14.6162 39.6246C14.7549 39.6246 15.0324 39.6246 15.0324 39.6246C15.4024 39.6246 15.7723 39.5785 16.1886 39.5785C16.5585 39.5785 16.9285 39.6246 17.2985 39.6246C17.4372 39.6246 17.5759 39.6246 17.7147 39.6246C17.8072 39.5785 17.8072 39.4401 17.7147 39.3478L17.4372 39.3017C17.391 39.3017 17.2522 39.3017 17.2522 39.3017C16.5585 39.2556 16.6048 39.0711 16.6048 38.3791V36.6724C16.6048 36.5801 16.6048 36.3033 16.651 36.2111C16.6973 36.1649 16.836 36.1649 16.9285 36.1649C17.8534 36.1649 17.8534 36.2572 18.3159 37.0414L19.5183 39.2094C19.6108 39.3939 19.7033 39.5785 19.9345 39.5785H20.9982C21.1369 39.5785 21.2756 39.5785 21.4144 39.5785C21.5069 39.5323 21.5069 39.3478 21.4606 39.3017ZM17.206 35.8882C16.9747 35.8882 16.5585 35.9804 16.5585 35.7037V33.7201C16.5585 32.9359 16.6048 32.8437 17.5297 32.8437C18.6396 32.8437 19.2871 33.3972 19.2871 34.412C19.2871 34.8733 19.1483 35.2885 18.7321 35.5653C18.3159 35.842 17.8072 35.8882 17.206 35.8882Z" fill="#004B8D"/>
<path d="M17.437 44.0068C17.437 42.8997 17.437 42.7613 16.697 42.7152H16.4195C16.3733 42.6691 16.3733 42.4846 16.4658 42.4384C17.1132 42.4384 17.4832 42.4846 17.9457 42.4846C18.4081 42.4846 18.7781 42.4846 19.333 42.4384C19.3793 42.4846 19.4255 42.6691 19.333 42.7152H19.0556C18.3619 42.7613 18.3619 42.9459 18.3619 44.0068V47.6049C18.3619 48.2507 18.4081 48.5274 18.5931 48.712C18.7318 48.8042 18.9168 48.9426 19.8418 48.9426C20.8129 48.9426 21.0441 48.8965 21.2291 48.8042C21.4604 48.6658 21.7378 48.2968 21.9691 47.7894C22.0153 47.7432 22.2466 47.7894 22.2466 47.8355C22.2466 47.9278 21.9228 48.9887 21.7841 49.3116C21.1829 49.3116 20.1192 49.2655 18.9168 49.2655H17.9457C17.4832 49.2655 17.1132 49.2655 16.4658 49.3116C16.4195 49.2655 16.3733 49.1271 16.4195 49.0349L16.7433 48.9887C17.3907 48.9426 17.437 48.7581 17.437 47.6971V44.0068Z" fill="#004B8D"/>
<path d="M48.1442 44.0068C48.1442 42.8997 48.1442 42.7152 47.4505 42.6691H47.173C47.1268 42.623 47.1268 42.4384 47.173 42.3923C47.728 42.3923 48.098 42.4384 48.6067 42.4384C49.0691 42.4384 49.4391 42.4384 49.994 42.3923C50.0403 42.4384 50.0865 42.623 49.994 42.6691H49.7166C49.0691 42.7152 49.0229 42.8997 49.0229 44.0068V47.6971C49.0229 48.8042 49.0229 48.9426 49.7166 49.0348L49.994 49.081C50.0403 49.1271 50.0403 49.3116 49.994 49.3577C49.4391 49.3577 49.0691 49.3116 48.6067 49.3116C48.1442 49.3116 47.7742 49.3116 47.173 49.3577C47.1268 49.3116 47.0805 49.1732 47.173 49.081L47.4505 49.0348C48.098 48.9426 48.1442 48.8042 48.1442 47.6971V44.0068Z" fill="#004B8D"/>
<path d="M39.1724 49.0348C39.1261 49.0348 38.9874 49.0348 38.9874 49.0348C38.8487 49.0348 38.7562 48.9887 38.6637 48.8965C38.525 48.7581 38.5249 48.2968 38.5249 48.1123V43.5455C38.5249 43.361 38.4787 42.8997 38.6174 42.7613C38.7099 42.6691 38.8487 42.6691 38.9874 42.6691C39.0799 42.6691 39.0799 42.6691 39.1262 42.6691H39.4036C39.4961 42.623 39.4499 42.4384 39.4036 42.3923C39.2649 42.3923 39.1261 42.3923 38.9874 42.3923H37.7388C37.6 42.3923 37.4613 42.3923 37.415 42.5307L34.9177 47.7432L32.6979 42.7152C32.6054 42.5307 32.6054 42.3923 32.3742 42.3923H31.0793C30.9406 42.3923 30.8018 42.3923 30.6631 42.3923C30.5706 42.4384 30.5706 42.623 30.6169 42.6691H30.8943C30.9406 42.6691 31.0793 42.6691 31.0793 42.6691C31.5418 42.7152 31.588 42.8075 31.5418 43.3149L31.1718 48.2045C31.1256 48.7119 31.1256 48.9426 30.6169 48.9887C30.6169 48.9887 30.5244 48.9887 30.4319 48.9887L30.1544 49.0348C30.1082 49.081 30.1082 49.2655 30.2006 49.3116C30.3394 49.3116 30.6169 49.3116 30.6169 49.3116C30.8943 49.3116 31.1256 49.2655 31.403 49.2655C31.6805 49.2655 31.958 49.3116 32.2817 49.3116C32.4205 49.3116 32.5592 49.3116 32.6979 49.3116C32.7442 49.2655 32.7904 49.1271 32.7442 49.0348L32.4667 48.9887C32.3742 48.9887 32.328 48.9887 32.328 48.9887C31.588 48.9426 31.588 48.4352 31.6343 47.7894L32.0042 43.2687H32.0967L34.5015 48.8503C34.5478 48.9426 34.5478 49.081 34.6865 49.081C34.779 49.081 34.8253 48.9426 34.8715 48.8965L37.5538 43.1765H37.6463V48.1584C37.6463 48.3429 37.6925 48.7581 37.4613 48.9426C37.3688 49.0348 36.9988 49.081 36.9988 49.081C36.9526 49.081 36.9063 49.081 36.8601 49.081L36.5826 49.1271C36.4901 49.1732 36.5364 49.3577 36.5826 49.4039C36.7214 49.4039 36.9988 49.4039 36.9988 49.4039C37.3688 49.4039 37.785 49.3577 38.2012 49.3577C38.4787 49.3577 39.0337 49.4039 39.0337 49.4039C39.1724 49.4039 39.3111 49.4039 39.4961 49.45C39.5424 49.4039 39.5886 49.2655 39.4961 49.1732L39.1724 49.0348Z" fill="#004B8D"/>
<path d="M57.9487 49.0348C57.8562 48.9887 57.81 48.9887 57.7637 48.9887C57.3012 48.8965 57.1163 48.3429 56.9775 47.9739L54.6652 42.4846C54.6652 42.4384 54.619 42.3 54.5265 42.3C54.3877 42.3 54.3877 42.4384 54.3415 42.5307L52.1217 47.9739C52.0292 48.1584 51.8442 48.6658 51.7055 48.8503C51.613 48.9887 51.428 48.9887 51.2892 48.9887C51.2892 48.9887 51.1505 48.9887 51.1043 48.9887L50.8268 49.0348C50.7343 49.081 50.7805 49.2655 50.873 49.3116C51.0118 49.3116 51.2892 49.3116 51.2892 49.3116C51.613 49.3116 51.8904 49.2655 52.2142 49.2655C52.4916 49.2655 52.7229 49.3116 53.0004 49.3116C53.0004 49.3116 53.2778 49.3116 53.4166 49.3116C53.4628 49.2655 53.5091 49.1271 53.4166 49.0348L53.1391 48.9887C53.0928 48.9887 53.0004 48.9887 53.0004 48.9887C52.7229 48.9426 52.3992 48.8965 52.3992 48.6197C52.3992 48.4352 52.4916 48.2045 52.5379 48.02L52.8616 47.1897C53.0466 46.7745 52.9541 46.7745 53.4166 46.7745H54.9889C55.5439 46.7745 55.4514 46.7745 55.6826 47.3281L56.0526 48.1584C56.0988 48.2968 56.1913 48.5274 56.1913 48.7119C56.1913 48.9887 55.9139 48.9887 55.5901 49.0348C55.5901 49.0348 55.4976 49.0348 55.4051 49.0348H55.1277C55.0814 49.081 55.0814 49.2655 55.1739 49.3116C55.3127 49.3116 55.5901 49.3116 55.5901 49.3116C55.9139 49.3116 56.2376 49.2655 56.5613 49.2655C56.9775 49.2655 57.3475 49.3116 57.7637 49.3116C57.9024 49.3116 57.7637 49.3116 57.9487 49.3116C57.9949 49.2655 58.0412 49.1271 57.9487 49.0348ZM54.8964 46.4978H53.5553C53.5091 46.4978 53.1391 46.5439 53.1391 46.4516C53.1391 46.4055 53.1853 46.3594 53.1853 46.3132L54.0178 44.3297C54.064 44.2836 54.1103 44.0068 54.2027 44.0068C54.2952 44.0068 54.3877 44.2836 54.3877 44.3297L55.1739 46.221C55.1739 46.221 55.2664 46.4055 55.2664 46.4516C55.2664 46.4978 54.9889 46.4978 54.8964 46.4978Z" fill="#004B8D"/>
<path d="M50.7341 17.2983C48.4218 7.3806 39.4963 0 28.8135 0C17.9919 0 8.92761 7.65737 6.80029 17.8057L11.5636 15.0841L14.1997 16.9293C14.1997 16.9293 15.7258 16.2373 16.0495 16.0528L17.9456 18.0363C17.9456 18.0363 22.0615 21.2654 22.2003 21.2654C22.339 21.2654 25.8075 19.2357 25.8075 19.2357L28.9522 17.0676L31.6807 19.0512L33.7155 19.4663L35.7966 20.8963C35.7966 20.8963 40.8837 17.5289 41.6699 17.1138C41.6699 17.1138 43.8897 17.9441 44.0747 17.898C44.2597 17.8518 47.7281 15.1764 47.7281 15.1764L50.7341 17.2983Z" fill="url(#paint0_radial_1497_18099)"/>
<path d="M8.28027 13.239C8.28027 13.239 8.28027 13.1928 8.32656 13.1928L8.28027 13.239Z" fill="url(#paint1_radial_1497_18099)"/>
<path d="M8.51123 12.7307C8.55559 12.6864 8.55559 12.7307 8.51123 12.7307C8.55559 12.6864 8.55559 12.7307 8.51123 12.7307Z" fill="url(#paint2_radial_1497_18099)"/>
<path d="M8.32666 13.1928C8.41915 13.0544 8.4654 12.8699 8.55789 12.7315C8.4654 12.8699 8.37291 13.0544 8.32666 13.1928Z" fill="url(#paint3_radial_1497_18099)"/>
<path d="M29.0448 10.9786C29.276 10.9786 29.5072 10.9786 29.6922 10.9786L30.4784 0.0461298C29.9234 1.05512e-06 29.3685 0 28.8135 0C28.4436 0 28.0736 1.05512e-06 27.7036 0.0461298L28.2586 11.0248C28.536 10.9786 28.7673 10.9786 29.0448 10.9786Z" fill="url(#paint4_radial_1497_18099)"/>
<path d="M25.2989 11.5783L21.9229 1.06097C21.0443 1.33775 20.1656 1.66065 19.3794 2.07581L24.004 12.1319C24.4202 11.9012 24.8364 11.7167 25.2989 11.5783Z" fill="url(#paint5_radial_1497_18099)"/>
<path d="M21.5527 13.7002L14.4308 5.16641C13.7371 5.76609 13.0434 6.36576 12.396 7.05769L20.5353 14.7151C20.859 14.346 21.229 14.0231 21.5527 13.7002Z" fill="url(#paint6_radial_1497_18099)"/>
<path d="M18.9167 16.9754L9.06631 11.7167C8.69634 12.4086 8.14139 13.5157 7.91016 14.2077L18.3618 18.267C18.5005 17.8518 18.7318 17.3905 18.9167 16.9754Z" fill="url(#paint7_radial_1497_18099)"/>
<path d="M33.993 12.0857L38.8026 2.35256C37.9702 1.9374 37.1377 1.56837 36.2591 1.2916L32.6519 11.5783C33.0681 11.6706 33.5305 11.8551 33.993 12.0857Z" fill="url(#paint8_radial_1497_18099)"/>
<path d="M37.4154 14.6228L45.5084 7.42674C44.9072 6.73481 44.2598 6.08901 43.5661 5.53546L36.3979 13.6541C36.7679 13.9309 37.0916 14.2999 37.4154 14.6228Z" fill="url(#paint9_radial_1497_18099)"/>
<path d="M39.7278 18.3131L49.902 14.6689C49.5782 13.7925 49.2083 12.9622 48.792 12.178L39.1729 17.0215C39.3578 17.4828 39.5891 17.8979 39.7278 18.3131Z" fill="url(#paint10_radial_1497_18099)"/>
<path d="M25.7613 19.2818L28.9061 17.1138L31.6346 19.0973L33.6694 19.5125L35.7505 20.9424C35.7505 20.9424 38.0165 19.4202 39.7739 18.3131C39.4502 17.5289 39.0802 16.7909 38.6177 16.0528L46.2021 10.1944L38.1553 15.3609C37.4153 14.4383 36.5829 13.608 35.5655 12.916L40.3288 4.79738L34.8718 12.5009C33.8544 11.9012 32.7445 11.4399 31.5421 11.1631L32.8832 1.79901L30.7097 11.0248C30.1085 10.9325 29.5073 10.8864 28.9061 10.8864C28.2586 10.8864 27.6112 10.9325 26.9637 11.0709L24.7902 1.84514L26.1775 11.2554C25.0214 11.5322 23.9115 11.9935 22.8941 12.5931L17.5295 4.79738L22.3391 13.0083C21.3679 13.7002 20.5355 14.5305 19.7956 15.4531L11.6562 10.1944L19.3331 16.0989C18.8706 16.7909 18.5007 17.4828 18.2232 18.267C19.1481 19.005 22.0616 21.2653 22.1541 21.2653C22.2929 21.3115 25.7613 19.2818 25.7613 19.2818Z" fill="url(#paint11_radial_1497_18099)"/>
<path d="M50.6879 17.1599L47.7744 15.0841C47.7744 15.0841 44.306 17.7596 44.121 17.8057C43.936 17.8518 41.7162 17.0215 41.7162 17.0215C40.93 17.4367 35.8429 20.8041 35.8429 20.8041L33.7618 19.3741L31.727 18.9589L28.9985 16.9754L25.8538 19.1434C25.8538 19.1434 22.3391 21.1731 22.2466 21.1731C22.1078 21.1731 17.9919 17.9441 17.9919 17.9441L16.0958 15.9606C15.7721 16.1451 14.246 16.837 14.246 16.837L11.6099 14.9919L6.8466 17.6673C6.52287 19.1896 6.33789 20.8041 6.33789 22.4186C6.33789 23.8486 6.47663 25.2786 6.7541 26.6163C8.74269 26.2473 12.3499 25.7398 15.3096 26.1089C19.6568 26.6624 22.3853 27.4005 26.9637 28.4153C31.542 29.4301 34.9642 30.445 39.9126 29.8914C44.5372 29.384 47.9132 28.4153 51.0116 26.2011C51.2429 24.9557 51.3354 23.7102 51.3354 22.3725C51.3354 20.6196 51.1041 18.8667 50.6879 17.1599Z" fill="#004B8D"/>
<path d="M78.0196 35.842C78.0196 33.0282 77.9733 32.5669 76.4009 32.4746L75.7535 32.4285C75.6148 32.3362 75.661 31.8288 75.7997 31.7827C77.1409 31.8288 78.0196 31.8749 79.1295 31.8749C80.1931 31.8749 81.0718 31.8288 82.4129 31.7827C82.5517 31.8749 82.6442 32.3362 82.4592 32.4285L81.8117 32.4746C80.2394 32.613 80.1931 33.0743 80.1931 35.842V45.2523C80.1931 48.0661 80.2394 48.4352 81.8117 48.6197L82.4592 48.7119C82.5979 48.8042 82.5517 49.3116 82.4129 49.3577C81.0718 49.3116 80.1931 49.2655 79.1295 49.2655C78.0196 49.2655 77.0946 49.3116 75.7997 49.3577C75.661 49.2655 75.5685 48.8503 75.7535 48.7119L76.4009 48.6197C77.9733 48.4352 78.0196 48.0661 78.0196 45.2523V35.842Z" fill="#004B8D"/>
<path d="M99.4777 42.4846C99.4777 40.6855 98.6915 39.763 97.0266 39.763C96.0092 39.763 95.1768 40.2242 94.8068 40.6855C94.4831 41.1007 94.3906 41.3313 94.3906 42.2539V46.3132C94.3906 48.2045 94.4368 48.4813 95.408 48.6197L95.963 48.7119C96.148 48.8503 96.1017 49.3116 95.9167 49.3577C95.1305 49.3116 94.3444 49.2655 93.4194 49.2655C92.4483 49.2655 91.7546 49.3116 91.0146 49.3577C90.8296 49.2655 90.7834 48.8503 90.9684 48.7119L91.4308 48.6197C92.402 48.4813 92.4483 48.2045 92.4483 46.3132V42.4846C92.4483 40.7317 91.6621 39.763 89.9972 39.763C88.8873 39.763 88.1474 40.2242 87.7774 40.7317C87.4999 41.0546 87.3612 41.3775 87.3612 42.2539V46.3594C87.3612 48.2506 87.4074 48.4813 88.3786 48.6658L88.8411 48.7581C89.0261 48.8965 88.9798 49.3577 88.7948 49.4039C88.1011 49.3577 87.3149 49.3116 86.39 49.3116C85.4189 49.3116 84.6327 49.3577 83.8002 49.4039C83.6153 49.3116 83.569 48.8965 83.754 48.7581L84.4014 48.6658C85.3726 48.5274 85.4188 48.2506 85.4188 46.3594V41.7465C85.4188 40.7317 85.4188 40.5933 84.7252 40.0859L84.4939 39.9475C84.4014 39.8552 84.4014 39.5323 84.5402 39.4862C85.1414 39.2555 86.6675 38.5636 87.1762 38.1946C87.2687 38.1946 87.4074 38.2407 87.4537 38.3791C87.4074 38.9788 87.4074 39.3939 87.4074 39.6246C87.4074 39.763 87.4999 39.9013 87.6849 39.9013C88.7023 39.2094 89.951 38.5636 91.1996 38.5636C92.5408 38.5636 93.2807 39.0249 94.0206 40.132C94.2519 40.1781 94.4368 40.0859 94.6681 39.9013C95.7317 39.1633 97.0266 38.5636 98.2753 38.5636C100.403 38.5636 101.42 40.0397 101.42 41.8388V46.4055C101.42 48.2968 101.466 48.5735 102.437 48.7119L103.085 48.8042C103.27 48.9426 103.224 49.4039 103.039 49.45C102.16 49.4039 101.374 49.3577 100.449 49.3577C99.4777 49.3577 98.784 49.4039 98.044 49.45C97.8591 49.3577 97.8128 48.9426 97.9978 48.8042L98.4603 48.7119C99.4314 48.5735 99.4777 48.2968 99.4777 46.4055V42.4846Z" fill="#004B8D"/>
<path d="M119.826 42.4846C119.826 40.6855 119.04 39.763 117.375 39.763C116.357 39.763 115.525 40.2242 115.155 40.6855C114.831 41.1007 114.739 41.3313 114.739 42.2539V46.3132C114.739 48.2045 114.785 48.4813 115.756 48.6197L116.311 48.7119C116.496 48.8503 116.45 49.3116 116.265 49.3577C115.479 49.3116 114.693 49.2655 113.768 49.2655C112.796 49.2655 112.103 49.3116 111.363 49.3577C111.178 49.2655 111.132 48.8503 111.317 48.7119L111.779 48.6197C112.75 48.4813 112.796 48.2045 112.796 46.3132V42.4846C112.796 40.7317 112.01 39.763 110.345 39.763C109.235 39.763 108.496 40.2242 108.126 40.7317C107.848 41.0546 107.709 41.3775 107.709 42.2539V46.3594C107.709 48.2506 107.756 48.4813 108.727 48.6658L109.189 48.7581C109.374 48.8965 109.328 49.3577 109.143 49.4039C108.449 49.3577 107.663 49.3116 106.738 49.3116C105.767 49.3116 104.981 49.3577 104.148 49.4039C103.963 49.3116 103.917 48.8965 104.102 48.7581L104.75 48.6658C105.721 48.5274 105.767 48.2506 105.767 46.3594V41.7465C105.767 40.7317 105.767 40.5933 105.073 40.0859L104.842 39.9475C104.75 39.8552 104.75 39.5323 104.888 39.4862C105.49 39.2555 107.016 38.5636 107.524 38.1946C107.617 38.1946 107.756 38.2407 107.802 38.3791C107.756 38.9788 107.756 39.3939 107.756 39.6246C107.756 39.763 107.848 39.9013 108.033 39.9013C109.05 39.2094 110.299 38.5636 111.548 38.5636C112.889 38.5636 113.629 39.0249 114.369 40.132C114.6 40.1781 114.785 40.0859 115.016 39.9013C116.08 39.1633 117.375 38.5636 118.623 38.5636C120.751 38.5636 121.768 40.0397 121.768 41.8388V46.4055C121.768 48.2968 121.814 48.5735 122.786 48.7119L123.433 48.8042C123.618 48.9426 123.572 49.4039 123.387 49.45C122.508 49.4039 121.722 49.3577 120.797 49.3577C119.826 49.3577 119.132 49.4039 118.392 49.45C118.207 49.3577 118.161 48.9426 118.346 48.8042L118.808 48.7119C119.78 48.5735 119.826 48.2968 119.826 46.4055V42.4846Z" fill="#004B8D"/>
<path d="M126.717 45.3907C126.717 47.2358 127.179 48.4352 129.168 48.4352C129.862 48.4352 130.74 48.1584 131.295 47.651C131.619 47.3281 131.804 46.9591 131.804 46.1287V41.7926C131.804 40.0859 131.619 40.0398 130.833 39.7168L130.509 39.5785C130.324 39.4862 130.324 39.1172 130.555 38.9788C131.619 38.9327 133.099 38.7481 133.654 38.5175C133.793 38.5636 133.885 38.6098 133.885 38.702C133.839 39.2094 133.793 40.0398 133.793 41.0085V45.4368C133.793 47.5126 133.885 48.3429 134.625 48.3429C134.949 48.3429 135.272 48.2968 135.642 48.2045C135.781 48.3429 135.827 48.8503 135.596 48.9887C134.579 49.2194 133.006 49.45 132.128 49.9574C131.989 49.9574 131.85 49.8652 131.804 49.7729V48.6658C131.804 48.4352 131.712 48.2968 131.573 48.2968C130.787 48.8042 129.492 49.6807 127.919 49.6807C125.607 49.6807 124.728 48.5274 124.728 46.3594V41.931C124.728 40.2704 124.728 40.0398 123.942 39.6707L123.618 39.5323C123.48 39.394 123.48 39.0249 123.665 38.9327C124.867 38.8865 125.931 38.6559 126.486 38.4714C126.624 38.5175 126.717 38.5636 126.763 38.6559C126.717 39.1172 126.671 39.6707 126.671 40.9623V45.3907H126.717Z" fill="#004B8D"/>
<path d="M138.232 41.7004C138.232 40.6855 138.232 40.5472 137.538 40.0397L137.307 39.9014C137.214 39.8091 137.214 39.4862 137.353 39.4401C137.954 39.2094 139.48 38.5175 139.989 38.1485C140.082 38.1485 140.22 38.1946 140.267 38.333C140.22 38.9327 140.22 39.3478 140.22 39.5785C140.22 39.7168 140.313 39.8552 140.498 39.8552C141.608 39.1633 142.856 38.5175 144.198 38.5175C146.417 38.5175 147.296 40.0397 147.296 41.7926V46.3594C147.296 48.2507 147.342 48.5274 148.313 48.6658L148.915 48.7581C149.1 48.8965 149.053 49.3577 148.868 49.4039C148.082 49.3577 147.296 49.3116 146.371 49.3116C145.4 49.3116 144.614 49.3577 143.92 49.4039C143.735 49.3116 143.689 48.8965 143.874 48.7581L144.383 48.6658C145.354 48.5274 145.4 48.2507 145.4 46.3594V42.3923C145.4 40.8701 144.706 39.763 142.903 39.763C141.885 39.763 141.007 40.1781 140.637 40.6855C140.313 41.1468 140.22 41.5159 140.22 42.2539V46.3133C140.22 48.2045 140.267 48.4352 141.238 48.6197L141.7 48.7119C141.885 48.8503 141.839 49.3116 141.654 49.3578C140.96 49.3116 140.174 49.2655 139.249 49.2655C138.278 49.2655 137.492 49.3116 136.752 49.3578C136.567 49.2655 136.521 48.8503 136.706 48.7119L137.261 48.6197C138.232 48.4813 138.278 48.2045 138.278 46.3133V41.7004H138.232Z" fill="#004B8D"/>
<path d="M151.505 41.7004C151.505 40.6855 151.505 40.5472 150.811 40.0397L150.58 39.9014C150.487 39.8091 150.487 39.4862 150.626 39.4401C151.227 39.2094 152.753 38.5175 153.355 38.1485C153.493 38.1485 153.586 38.1946 153.632 38.2869C153.586 39.2094 153.54 40.501 153.54 41.562V46.3133C153.54 48.2045 153.586 48.4813 154.557 48.6197L155.112 48.7119C155.297 48.8503 155.251 49.3116 155.066 49.3578C154.28 49.3116 153.493 49.2655 152.569 49.2655C151.597 49.2655 150.811 49.3116 150.071 49.3578C149.886 49.2655 149.84 48.8503 150.025 48.7119L150.58 48.6197C151.551 48.4813 151.597 48.2045 151.597 46.3133V41.7004H151.505ZM153.725 34.1353C153.725 35.104 153.077 35.5191 152.337 35.5191C151.505 35.5191 150.996 34.9195 150.996 34.1814C150.996 33.3049 151.644 32.7514 152.43 32.7514C153.17 32.7975 153.725 33.3972 153.725 34.1353Z" fill="#004B8D"/>
<path d="M158.765 49.3116C157.332 49.3116 156.314 49.3577 155.99 49.4039C155.898 49.3577 155.852 49.2655 155.852 49.1271C156.36 48.4813 157.609 46.59 158.395 45.2523L161.216 40.501C161.632 39.763 161.447 39.7168 160.985 39.7168H159.135C158.349 39.7168 157.701 39.8091 157.285 40.132C156.823 40.4549 156.592 41.1007 156.314 41.6542C156.175 41.7926 155.805 41.7465 155.713 41.562C155.759 40.8701 156.222 39.1172 156.592 38.4714C156.684 38.4252 156.823 38.4252 156.915 38.4714C157.008 38.9327 157.285 38.9327 158.811 38.9327H162.557C163.251 38.9327 163.76 38.9327 164.176 38.8404C164.268 38.8865 164.315 38.9788 164.315 39.1172C163.76 39.9014 163.112 40.8701 162.372 42.1155L159.181 47.4665C158.626 48.4352 158.673 48.5274 159.69 48.5274H160.615C161.632 48.5274 163.02 48.5274 163.76 47.7432C164.037 47.4203 164.315 46.8668 164.592 46.221C164.777 46.1287 165.101 46.1749 165.193 46.3594C164.962 47.651 164.546 48.8965 164.222 49.4039C163.343 49.3577 162.465 49.3116 161.262 49.3116H158.765Z" fill="#004B8D"/>
<path d="M168.153 42.5307C167.46 42.5307 167.413 42.5768 167.413 43.2226C167.413 45.8981 168.986 48.1584 171.807 48.1584C172.686 48.1584 173.425 47.8816 174.258 46.8668C174.535 46.7745 174.72 46.959 174.72 47.1897C173.842 48.9887 171.946 49.6345 170.558 49.6345C168.847 49.6345 167.46 48.8965 166.72 47.8816C165.934 46.8668 165.61 45.6213 165.61 44.422C165.61 41.1468 167.737 38.4252 170.928 38.4252C173.194 38.4252 174.674 39.9936 174.674 41.562C174.674 41.931 174.628 42.1617 174.582 42.2539C174.489 42.3923 174.119 42.4384 173.009 42.4384H168.153V42.5307ZM169.772 41.7465C171.714 41.7465 172.316 41.6542 172.547 41.4697C172.639 41.4236 172.686 41.3313 172.686 40.9623C172.686 40.2243 172.177 39.3017 170.651 39.3017C169.078 39.3017 167.737 40.7317 167.691 41.6081C167.691 41.6542 167.691 41.7465 167.876 41.7465H169.772Z" fill="#004B8D"/>
<path d="M177.449 35.2885C177.449 33.3511 177.356 32.8437 176.154 32.7053L175.321 32.613C175.09 32.4746 175.136 32.0595 175.368 31.9672C176.801 31.8288 178.605 31.7366 181.056 31.7366C182.721 31.7366 184.339 31.875 185.496 32.4746C186.652 33.0282 187.53 34.0891 187.53 35.7959C187.53 37.6872 186.421 38.702 184.802 39.4401C184.802 39.7168 185.033 39.763 185.311 39.8552C186.744 40.132 188.872 41.4236 188.872 44.2836C188.872 47.3742 186.606 49.4039 181.796 49.4039C181.01 49.4039 179.715 49.3116 178.605 49.3116C177.449 49.3116 176.524 49.3577 175.553 49.4039C175.414 49.3116 175.321 48.8965 175.506 48.7581L175.969 48.6658C177.356 48.4352 177.449 48.1584 177.449 45.3445V35.2885ZM179.622 38.7943C179.622 39.5323 179.669 39.5785 181.01 39.5323C183.738 39.4401 185.172 38.6098 185.172 36.1649C185.172 33.5817 183.23 32.613 181.241 32.613C180.64 32.613 180.27 32.6591 180.039 32.7514C179.761 32.8437 179.669 32.982 179.669 33.4433V38.7943H179.622ZM179.622 44.9294C179.622 45.8981 179.669 47.2358 180.177 47.8355C180.686 48.4352 181.472 48.5736 182.258 48.5736C184.617 48.5736 186.421 47.5126 186.421 44.8833C186.421 42.8075 185.357 40.3626 181.148 40.3626C179.715 40.3626 179.622 40.501 179.622 41.0546V44.9294Z" fill="#FDB913"/>
<path d="M193.543 33.674C195.485 32.1517 197.936 31.4137 200.711 31.4137C202.144 31.4137 204.179 31.6904 205.428 32.0595C205.752 32.1517 205.937 32.1979 206.168 32.1517C206.214 32.7514 206.307 34.412 206.538 36.0265C206.399 36.2111 206.029 36.2572 205.844 36.0727C205.428 34.2737 204.272 32.1979 200.387 32.1979C196.317 32.1979 192.895 34.7811 192.895 40.2243C192.895 45.7597 196.41 48.8503 200.757 48.8503C204.179 48.8503 205.705 46.6362 206.307 45.0678C206.492 44.9294 206.908 44.9755 207 45.16C206.815 46.5439 206.122 48.2968 205.705 48.8042C205.382 48.8503 205.058 48.9426 204.78 49.081C204.179 49.3116 202.283 49.6807 200.572 49.6807C198.167 49.6807 195.901 49.2194 193.959 47.9278C191.832 46.4516 190.213 44.0529 190.213 40.6394C190.213 37.7333 191.554 35.1962 193.543 33.674Z" fill="#FDB913"/>
<defs>
<radialGradient id="paint0_radial_1497_18099" cx="0" cy="0" r="1" gradientUnits="userSpaceOnUse" gradientTransform="translate(28.7601 21.2338) scale(21.9651 21.9094)">
<stop stop-color="white"/>
<stop offset="0.1273" stop-color="#FFFEFC"/>
<stop offset="0.239" stop-color="#FFFAF1"/>
<stop offset="0.3448" stop-color="#FFF4DF"/>
<stop offset="0.4469" stop-color="#FFEBC6"/>
<stop offset="0.5456" stop-color="#FFE0A5"/>
<stop offset="0.6" stop-color="#FFD990"/>
<stop offset="0.6209" stop-color="#FFD482"/>
<stop offset="0.6672" stop-color="#FFCB66"/>
<stop offset="0.7169" stop-color="#FEC44B"/>
<stop offset="0.7703" stop-color="#FEBF34"/>
<stop offset="0.8292" stop-color="#FEBB22"/>
<stop offset="0.898" stop-color="#FDB917"/>
<stop offset="1" stop-color="#FDB913"/>
</radialGradient>
<radialGradient id="paint1_radial_1497_18099" cx="0" cy="0" r="1" gradientUnits="userSpaceOnUse" gradientTransform="translate(28.3356 22.5986) scale(32.1805 32.1001)">
<stop offset="0.53" stop-color="white"/>
<stop offset="0.599" stop-color="#FFF7E9"/>
<stop offset="0.7423" stop-color="#FFE3B0"/>
<stop offset="0.77" stop-color="#FFDFA4"/>
<stop offset="0.7982" stop-color="#FFDA95"/>
<stop offset="0.8549" stop-color="#FFCE6F"/>
<stop offset="0.88" stop-color="#FFC85A"/>
<stop offset="0.9055" stop-color="#FFC54E"/>
<stop offset="0.964" stop-color="#FEBF34"/>
<stop offset="1" stop-color="#FEBD2A"/>
</radialGradient>
<radialGradient id="paint2_radial_1497_18099" cx="0" cy="0" r="1" gradientUnits="userSpaceOnUse" gradientTransform="translate(28.3998 22.1172) scale(31.9609 31.9479)">
<stop offset="0.53" stop-color="white"/>
<stop offset="0.599" stop-color="#FFF7E9"/>
<stop offset="0.7423" stop-color="#FFE3B0"/>
<stop offset="0.77" stop-color="#FFDFA4"/>
<stop offset="0.7982" stop-color="#FFDA95"/>
<stop offset="0.8549" stop-color="#FFCE6F"/>
<stop offset="0.88" stop-color="#FFC85A"/>
<stop offset="0.9055" stop-color="#FFC54E"/>
<stop offset="0.964" stop-color="#FEBF34"/>
<stop offset="1" stop-color="#FEBD2A"/>
</radialGradient>
<radialGradient id="paint3_radial_1497_18099" cx="0" cy="0" r="1" gradientUnits="userSpaceOnUse" gradientTransform="translate(29.9009 22.9213) rotate(-65.9484) scale(33.9049 37.1382)">
<stop offset="0.53" stop-color="white"/>
<stop offset="0.599" stop-color="#FFF7E9"/>
<stop offset="0.7423" stop-color="#FFE3B0"/>
<stop offset="0.77" stop-color="#FFDFA4"/>
<stop offset="0.7982" stop-color="#FFDA95"/>
<stop offset="0.8549" stop-color="#FFCE6F"/>
<stop offset="0.88" stop-color="#FFC85A"/>
<stop offset="0.9055" stop-color="#FFC54E"/>
<stop offset="0.964" stop-color="#FEBF34"/>
<stop offset="1" stop-color="#FEBD2A"/>
</radialGradient>
<radialGradient id="paint4_radial_1497_18099" cx="0" cy="0" r="1" gradientUnits="userSpaceOnUse" gradientTransform="translate(28.8248 22.4442) scale(20.5836 22.4509)">
<stop offset="0.53" stop-color="white"/>
<stop offset="0.599" stop-color="#FFF7E9"/>
<stop offset="0.7423" stop-color="#FFE3B0"/>
<stop offset="0.77" stop-color="#FFDFA4"/>
<stop offset="0.7982" stop-color="#FFDA95"/>
<stop offset="0.8549" stop-color="#FFCE6F"/>
<stop offset="0.88" stop-color="#FFC85A"/>
<stop offset="0.9055" stop-color="#FFC54E"/>
<stop offset="0.964" stop-color="#FEBF34"/>
<stop offset="1" stop-color="#FEBD2A"/>
</radialGradient>
<radialGradient id="paint5_radial_1497_18099" cx="0" cy="0" r="1" gradientUnits="userSpaceOnUse" gradientTransform="translate(28.8249 22.4438) rotate(-21.951) scale(20.6049 22.4905)">
<stop offset="0.53" stop-color="white"/>
<stop offset="0.599" stop-color="#FFF7E9"/>
<stop offset="0.7423" stop-color="#FFE3B0"/>
<stop offset="0.77" stop-color="#FFDFA4"/>
<stop offset="0.7982" stop-color="#FFDA95"/>
<stop offset="0.8549" stop-color="#FFCE6F"/>
<stop offset="0.88" stop-color="#FFC85A"/>
<stop offset="0.9055" stop-color="#FFC54E"/>
<stop offset="0.964" stop-color="#FEBF34"/>
<stop offset="1" stop-color="#FEBD2A"/>
</radialGradient>
<radialGradient id="paint6_radial_1497_18099" cx="0" cy="0" r="1" gradientUnits="userSpaceOnUse" gradientTransform="translate(28.8242 22.4441) rotate(-43.9259) scale(20.589 22.5137)">
<stop offset="0.53" stop-color="white"/>
<stop offset="0.599" stop-color="#FFF7E9"/>
<stop offset="0.7423" stop-color="#FFE3B0"/>
<stop offset="0.77" stop-color="#FFDFA4"/>
<stop offset="0.7982" stop-color="#FFDA95"/>
<stop offset="0.8549" stop-color="#FFCE6F"/>
<stop offset="0.88" stop-color="#FFC85A"/>
<stop offset="0.9055" stop-color="#FFC54E"/>
<stop offset="0.964" stop-color="#FEBF34"/>
<stop offset="1" stop-color="#FEBD2A"/>
</radialGradient>
<radialGradient id="paint7_radial_1497_18099" cx="0" cy="0" r="1" gradientUnits="userSpaceOnUse" gradientTransform="translate(28.8241 22.4442) scale(22.525 22.4678)">
<stop offset="0.53" stop-color="white"/>
<stop offset="0.599" stop-color="#FFF7E9"/>
<stop offset="0.7423" stop-color="#FFE3B0"/>
<stop offset="0.77" stop-color="#FFDFA4"/>
<stop offset="0.7982" stop-color="#FFDA95"/>
<stop offset="0.8549" stop-color="#FFCE6F"/>
<stop offset="0.88" stop-color="#FFC85A"/>
<stop offset="0.9055" stop-color="#FFC54E"/>
<stop offset="0.964" stop-color="#FEBF34"/>
<stop offset="1" stop-color="#FEBD2A"/>
</radialGradient>
<radialGradient id="paint8_radial_1497_18099" cx="0" cy="0" r="1" gradientUnits="userSpaceOnUse" gradientTransform="translate(28.8251 22.4439) rotate(21.951) scale(20.5875 22.4715)">
<stop offset="0.53" stop-color="white"/>
<stop offset="0.599" stop-color="#FFF7E9"/>
<stop offset="0.7423" stop-color="#FFE3B0"/>
<stop offset="0.77" stop-color="#FFDFA4"/>
<stop offset="0.7982" stop-color="#FFDA95"/>
<stop offset="0.8549" stop-color="#FFCE6F"/>
<stop offset="0.88" stop-color="#FFC85A"/>
<stop offset="0.9055" stop-color="#FFC54E"/>
<stop offset="0.964" stop-color="#FEBF34"/>
<stop offset="1" stop-color="#FEBD2A"/>
</radialGradient>
<radialGradient id="paint9_radial_1497_18099" cx="0" cy="0" r="1" gradientUnits="userSpaceOnUse" gradientTransform="translate(28.824 22.4446) rotate(43.9259) scale(20.5228 22.4413)">
<stop offset="0.53" stop-color="white"/>
<stop offset="0.599" stop-color="#FFF7E9"/>
<stop offset="0.7423" stop-color="#FFE3B0"/>
<stop offset="0.77" stop-color="#FFDFA4"/>
<stop offset="0.7982" stop-color="#FFDA95"/>
<stop offset="0.8549" stop-color="#FFCE6F"/>
<stop offset="0.88" stop-color="#FFC85A"/>
<stop offset="0.9055" stop-color="#FFC54E"/>
<stop offset="0.964" stop-color="#FEBF34"/>
<stop offset="1" stop-color="#FEBD2A"/>
</radialGradient>
<radialGradient id="paint10_radial_1497_18099" cx="0" cy="0" r="1" gradientUnits="userSpaceOnUse" gradientTransform="translate(28.8253 22.4436) rotate(65.9484) scale(20.4772 22.4299)">
<stop offset="0.53" stop-color="white"/>
<stop offset="0.599" stop-color="#FFF7E9"/>
<stop offset="0.7423" stop-color="#FFE3B0"/>
<stop offset="0.77" stop-color="#FFDFA4"/>
<stop offset="0.7982" stop-color="#FFDA95"/>
<stop offset="0.8549" stop-color="#FFCE6F"/>
<stop offset="0.88" stop-color="#FFC85A"/>
<stop offset="0.9055" stop-color="#FFC54E"/>
<stop offset="0.964" stop-color="#FEBF34"/>
<stop offset="1" stop-color="#FEBD2A"/>
</radialGradient>
<radialGradient id="paint11_radial_1497_18099" cx="0" cy="0" r="1" gradientUnits="userSpaceOnUse" gradientTransform="translate(28.7798 22.4513) scale(22.5116 22.4545)">
<stop offset="0.72" stop-color="white"/>
<stop offset="0.8086" stop-color="#FFF8ED"/>
<stop offset="0.9864" stop-color="#FFE7BD"/>
<stop offset="1" stop-color="#FFE6B9"/>
</radialGradient>
</defs>
</svg>
