<svg width="134" height="22" viewBox="0 0 134 22" fill="none" xmlns="http://www.w3.org/2000/svg">
<g clip-path="url(#clip0_1436_2387)">
<path d="M0.5 22C0.5 14.6667 0.5 7.33333 0.5 0C44.8333 0 89.1667 0 133.5 0C133.5 7.33333 133.5 14.6667 133.5 22C89.1667 22 44.8333 22 0.5 22ZM65.5939 2.75424C64.8875 5.78221 64.1877 8.79745 63.4858 11.8106C63.4683 11.8063 63.4509 11.8042 63.4334 11.8C62.7315 8.78472 62.0295 5.76948 61.3297 2.76061H57.1484V15.9632H60.2877C60.2877 14.6051 60.3138 13.262 60.2811 11.9188C60.2462 10.5905 60.1525 9.26215 60.0827 7.93383C60.1045 7.93171 60.1263 7.92959 60.1503 7.92747C60.1765 8.00598 60.2048 8.08237 60.2266 8.16088C60.9286 10.6902 61.6306 13.2174 62.326 15.7467C62.3761 15.9271 62.4524 15.9865 62.6443 15.9823C63.1675 15.9695 63.6907 15.961 64.2117 15.9844C64.4646 15.995 64.554 15.908 64.615 15.6831C65.2015 13.5272 65.801 11.3756 66.3961 9.22184C66.5226 8.76138 66.6534 8.30093 66.782 7.84047C66.7624 9.20062 66.6643 10.5502 66.6272 11.9018C66.5923 13.2514 66.6185 14.603 66.6185 15.9653H69.7817V2.75424H65.5917H65.5939ZM80.4879 15.9674H83.7013V10.4716H87.1065V15.9695H90.2938V2.76273H87.0913V7.96566H83.686V2.76273H80.4857V15.9674H80.4879ZM11.9823 15.9823C11.9583 15.8868 11.9496 15.8295 11.9321 15.7764C10.5718 11.4986 9.20927 7.22299 7.85546 2.94522C7.80314 2.78183 7.72902 2.74151 7.56552 2.74363C6.74582 2.75212 5.92612 2.75849 5.10861 2.74151C4.85572 2.73515 4.75762 2.81366 4.6835 3.04919C3.56296 6.61188 2.42934 10.1703 1.30008 13.7288C1.06463 14.4693 0.833546 15.2099 0.591562 15.9716H4.04257C4.24095 15.1568 4.43934 14.3441 4.63772 13.5357H7.94484C8.13015 14.2953 8.30891 15.0444 8.50075 15.7892C8.52037 15.8634 8.61412 15.9759 8.67516 15.978C9.763 15.9886 10.853 15.9865 11.9823 15.9865V15.9823ZM121.117 2.03492V15.961H124.191V15.6703C124.191 13.419 124.191 11.1655 124.196 8.91416C124.196 8.79957 124.233 8.65104 124.313 8.5789C124.804 8.12056 125.68 8.34336 125.87 8.97357C125.929 9.16667 125.966 9.37249 125.966 9.57195C125.975 11.6047 125.977 13.6354 125.979 15.6682C125.979 15.7658 125.979 15.8634 125.979 15.9568H129.068C129.072 15.8953 129.079 15.8528 129.079 15.8125C129.079 13.8137 129.085 11.8169 129.079 9.81809C129.075 8.99479 128.97 8.18847 128.625 7.41609C127.895 5.77373 125.53 5.49363 124.366 6.77527C124.32 6.8262 124.287 6.88985 124.248 6.94715C124.224 6.93017 124.2 6.91319 124.178 6.89834V2.03492H121.12H121.117ZM70.8151 6.15355C70.8412 6.2554 70.8565 6.32967 70.8783 6.40181C71.8048 9.56134 72.7313 12.7209 73.6557 15.8804C73.6818 15.9716 73.6949 16.0799 73.6709 16.1711C73.6143 16.4003 73.5358 16.6252 73.4616 16.8501C73.3526 17.1769 73.1281 17.3827 72.7749 17.4315C72.546 17.4633 72.3128 17.4761 72.0642 17.4973V19.6744C72.2452 19.7189 72.4109 19.772 72.5809 19.7996C73.974 20.0224 75.1664 19.6298 75.8161 18.2633C75.9534 17.9726 76.0755 17.6713 76.1671 17.3636C77.2658 13.6991 78.3602 10.0324 79.4524 6.36786C79.472 6.29996 79.4786 6.22994 79.4895 6.16204H76.2063C75.8335 7.7174 75.4629 9.25791 75.0945 10.7984C75.0771 10.7963 75.0618 10.7921 75.0444 10.7899C74.7326 9.24306 74.4209 7.69618 74.1091 6.15143H70.8151V6.15355ZM100.028 12.0291C100.028 11.5411 100.054 11.0828 100.021 10.6265C99.9753 9.98785 99.9513 9.33854 99.8031 8.71894C99.4892 7.39699 98.7131 6.42515 97.2895 6.12384C96.6878 5.99653 96.0447 5.97743 95.4256 6.00926C93.6794 6.1005 92.4934 7.06809 92.077 8.71258C91.726 10.0939 91.7457 11.5029 91.9484 12.897C92.125 14.1128 92.7376 15.1229 93.9235 15.6534C95.5825 16.3939 97.2655 16.3684 98.9049 15.5579C99.245 15.3902 99.5306 15.1186 99.8511 14.8895C99.402 14.2253 98.9878 13.6121 98.5627 12.9861C97.9326 13.6524 97.1456 13.8158 96.2867 13.7712C95.3841 13.7224 94.7716 12.9097 94.9874 12.0291H100.028ZM38.4262 12.0334C38.4262 11.5878 38.4502 11.1804 38.4197 10.7772C38.3673 10.0876 38.3499 9.38522 38.1951 8.71682C37.8943 7.41397 37.1203 6.48032 35.7338 6.12384C35.0951 5.95833 34.4433 5.94985 33.7892 6.00502C32.0278 6.15355 30.8767 7.08083 30.469 8.74653C30.1159 10.1873 30.1137 11.6557 30.3862 13.1049C30.6086 14.289 31.2669 15.2396 32.442 15.717C34.0923 16.3875 35.7513 16.3621 37.3536 15.5345C37.6741 15.369 37.9466 15.1101 38.2452 14.8916C37.794 14.2253 37.3798 13.6142 36.9568 12.9904C36.3159 13.6694 35.518 13.8285 34.6504 13.7733C34.2122 13.7458 33.8328 13.5951 33.6039 13.2025C33.399 12.8482 33.3402 12.462 33.3423 12.0376H38.4262V12.0334ZM105.537 9.9348C104.959 9.97936 104.429 10.0006 103.904 10.0621C102.144 10.2679 101.085 11.3119 100.952 12.9543C100.808 14.724 101.695 15.8719 103.415 16.1372C104.41 16.2899 105.031 16.0077 105.539 15.1696C105.561 15.1314 105.595 15.0995 105.628 15.0592C105.702 15.3096 105.772 15.5345 105.833 15.7616C105.877 15.9271 105.966 15.9844 106.149 15.9823C107.03 15.9716 107.908 15.978 108.789 15.9759C108.863 15.9759 108.935 15.9632 109.042 15.9525C108.961 15.7213 108.855 15.5282 108.828 15.3266C108.741 14.6667 108.639 14.0046 108.624 13.3405C108.593 11.8933 108.617 10.4462 108.613 8.99904C108.608 7.53491 107.813 6.53337 106.361 6.14294C105.722 5.97107 105.072 5.93711 104.418 6.00077C103.328 6.10687 102.38 6.50154 101.711 7.38638C101.307 7.91686 101.12 8.51736 101.131 9.1794H104.196C104.215 9.0054 104.226 8.84414 104.253 8.68711C104.318 8.30941 104.486 8.15664 104.826 8.15239C105.227 8.14603 105.423 8.28607 105.471 8.69348C105.519 9.10301 105.517 9.51678 105.534 9.93268L105.537 9.9348ZM55.6333 9.08179C55.6333 7.76408 54.9531 6.78164 53.717 6.29572C53.1349 6.06655 52.5245 5.9838 51.9054 5.97319C51.0748 5.96045 50.2834 6.10687 49.5553 6.53125C47.8898 7.49884 47.5998 10.0197 49.3002 11.1676C49.7842 11.4944 50.3118 11.7596 50.8284 12.0376C51.3364 12.3113 51.8683 12.5469 52.3676 12.8376C52.773 13.0731 52.7447 13.75 52.3501 14.0025C51.8443 14.325 51.0443 14.0556 50.8677 13.4975C50.8088 13.3129 50.7892 13.1177 50.7521 12.9246H47.9028C47.9835 14.1956 48.5939 15.1208 49.7232 15.7128C50.7129 16.2305 51.7768 16.2411 52.8537 16.0714C53.7148 15.9356 54.4669 15.5918 55.0272 14.9234C56.1478 13.5887 55.7379 11.662 54.1247 10.7942C53.5579 10.4886 52.9278 10.2913 52.3458 10.0091C51.9904 9.83719 51.646 9.62924 51.3408 9.38522C50.9505 9.0733 50.992 8.47492 51.3822 8.16088C51.7811 7.84047 52.3741 8.01659 52.5005 8.50251C52.5485 8.68924 52.5594 8.88445 52.5877 9.08391H55.6333V9.08179ZM39.2481 12.914C39.2481 12.9882 39.2437 13.037 39.2481 13.088C39.3484 14.2508 39.9413 15.1208 40.979 15.6725C42.2325 16.3366 43.5624 16.3048 44.8813 15.8931C46.44 15.4072 47.2139 14.0662 46.8913 12.5087C46.7104 11.6323 46.0825 11.1061 45.3195 10.7242C44.781 10.4547 44.1946 10.2701 43.6539 10.0006C43.279 9.81385 42.9236 9.57407 42.5988 9.31308C42.3394 9.10301 42.335 8.68075 42.5203 8.37307C42.6904 8.08661 42.9956 7.9593 43.3465 8.02932C43.6648 8.09298 43.8153 8.28607 43.8676 8.69985C43.885 8.82928 43.9003 8.96084 43.9155 9.07967H46.9545C47.0243 8.28395 46.6537 7.35243 45.9844 6.86227C44.4889 5.76736 42.8408 5.69522 41.1752 6.39545C39.1827 7.23148 38.8273 10.0515 40.7414 11.2546C41.221 11.5559 41.7333 11.8127 42.2369 12.0779C42.7165 12.3326 43.2179 12.5554 43.6866 12.8312C44.1008 13.0752 44.0747 13.767 43.667 14.0152C43.1547 14.3272 42.3612 14.0471 42.1911 13.4848C42.1344 13.3023 42.1192 13.1071 42.0821 12.9161H39.2481V12.914ZM20.406 9.90721C20.358 9.47222 20.3449 9.06481 20.2621 8.67014C19.9939 7.36516 19.2396 6.45062 17.8793 6.13021C17.3561 6.00714 16.7936 5.9838 16.2508 6.00077C14.4893 6.05382 13.2511 7.01929 12.8456 8.68711C12.4706 10.2297 12.4924 11.7978 12.8129 13.3468C13.0222 14.3547 13.541 15.2078 14.5198 15.6894C15.7211 16.2836 16.9833 16.3366 18.2455 15.8953C19.7367 15.3754 20.4583 13.9516 20.3515 12.4705H17.513C17.4891 12.7166 17.4803 12.9522 17.4433 13.1856C17.3997 13.4635 17.2623 13.6991 16.9615 13.7564C16.2203 13.8943 15.8453 13.6927 15.7625 13.0179C15.745 12.8843 15.7254 12.7485 15.7232 12.6148C15.7123 11.8106 15.6971 11.0064 15.7014 10.2022C15.7036 9.80536 15.7276 9.40644 15.7799 9.01389C15.8322 8.61921 16.0284 8.43461 16.3772 8.37095C16.9964 8.26061 17.3692 8.52161 17.4476 9.13696C17.4803 9.39371 17.4912 9.65259 17.513 9.90721H20.406ZM29.1588 9.90721C29.124 9.52527 29.1174 9.15394 29.052 8.79109C28.8275 7.53067 28.1604 6.60552 26.8698 6.18326C26.3008 5.99653 25.7144 5.96682 25.117 5.98592C23.2444 6.04958 22.0061 7.03627 21.5679 8.81231C21.3325 9.77141 21.3565 10.7454 21.3848 11.7172C21.4022 12.2795 21.4655 12.8503 21.5919 13.3999C21.8383 14.463 22.4094 15.3329 23.4733 15.7849C24.6265 16.2751 25.8234 16.3175 27.0115 15.8995C28.5135 15.3711 29.246 13.8922 29.1021 12.4705C29.0542 12.4662 29.004 12.4599 28.9539 12.4599C28.0666 12.4599 27.1794 12.4599 26.2746 12.4599C26.2594 12.6763 26.255 12.8779 26.2289 13.0774C26.1896 13.385 26.085 13.6566 25.7383 13.7585C25.0974 13.9452 24.6549 13.6906 24.5284 13.0561C24.5132 12.9819 24.5023 12.9055 24.5023 12.8291C24.487 11.8318 24.4674 10.8324 24.4674 9.83295C24.4674 9.53164 24.5088 9.22608 24.5655 8.92689C24.6222 8.63194 24.8053 8.43036 25.1323 8.37095C25.771 8.25424 26.1526 8.53646 26.2267 9.20274C26.2528 9.43403 26.2572 9.66956 26.2725 9.90721H29.1588ZM115.606 8.29032V8.60224C115.606 10.1088 115.604 11.6154 115.608 13.1219C115.608 13.4169 115.624 13.7161 115.672 14.0068C115.835 15.0041 116.337 15.7446 117.389 16.0268C118.244 16.256 119.096 16.2051 119.936 15.9462C120.003 15.925 120.077 15.8083 120.082 15.7319C120.104 15.4284 120.101 15.1229 120.104 14.8194C120.106 14.4587 120.104 14.0959 120.104 13.716C119.91 13.733 119.748 13.75 119.585 13.7606C118.959 13.803 118.708 13.5951 118.704 12.984C118.693 11.4689 118.695 9.9539 118.693 8.43885C118.693 8.39853 118.702 8.35822 118.711 8.28819H119.984V6.1387H118.687V3.71759H115.606V6.15355H114.649V8.29032H115.611H115.606ZM113.413 15.9653V2.03916H110.376V15.9632H113.413V15.9653Z" fill="#FDFEFE"/>
<path d="M65.5937 2.75424H69.7837V15.9653H66.6205C66.6205 14.603 66.5922 13.2513 66.6292 11.9018C66.6641 10.5502 66.7644 9.20062 66.784 7.84047C66.6554 8.30092 66.5268 8.76138 66.3981 9.22183C65.803 11.3756 65.2035 13.5272 64.617 15.6831C64.556 15.908 64.4666 15.995 64.2137 15.9844C63.6927 15.961 63.1673 15.9695 62.6463 15.9823C62.4544 15.9865 62.376 15.9271 62.328 15.7467C61.6326 13.2174 60.9306 10.6881 60.2286 8.16088C60.2068 8.08237 60.1785 8.00386 60.1523 7.92747C60.1305 7.92959 60.1087 7.93171 60.0847 7.93383C60.1523 9.26215 60.2482 10.5905 60.2831 11.9188C60.318 13.262 60.2897 14.6051 60.2897 15.9632H57.1504V2.76061H61.3317C62.0315 5.76948 62.7335 8.78472 63.4355 11.8C63.4529 11.8042 63.4703 11.8063 63.4878 11.8106C64.1897 8.79533 64.8917 5.78221 65.5959 2.75424H65.5937Z" fill="#006D9E"/>
<path d="M80.4883 15.9674V2.76273H83.6886V7.96566H87.0938V2.76273H90.2963V15.9674H87.1091V10.4695H83.7038V15.9653H80.4905L80.4883 15.9674Z" fill="#016D9E"/>
<path d="M11.9825 15.9801C10.8533 15.9801 9.76323 15.9823 8.67539 15.9716C8.61435 15.9716 8.52061 15.8592 8.50099 15.7828C8.30915 15.038 8.13038 14.289 7.94508 13.5293H4.63795C4.43957 14.3378 4.24119 15.1505 4.0428 15.9653H0.591797C0.831601 15.2035 1.06487 14.463 1.30031 13.7224C2.42957 10.164 3.56319 6.60552 4.68374 3.04283C4.75786 2.8073 4.85378 2.73091 5.10884 2.73515C5.92854 2.75213 6.74823 2.74576 7.56575 2.73727C7.73143 2.73727 7.80338 2.77547 7.8557 2.93886C9.21168 7.21663 10.572 11.4944 11.9324 15.7701C11.9498 15.8252 11.9607 15.8804 11.9825 15.9759V15.9801ZM6.31441 6.79862C6.29915 6.79649 6.28389 6.79437 6.26863 6.79013C5.92636 8.2012 5.58627 9.61227 5.24183 11.0318H7.34121C6.99458 9.60591 6.65449 8.2012 6.31441 6.79862Z" fill="#4D4745"/>
<path d="M121.117 2.03491H124.176V6.89622C124.2 6.91319 124.224 6.93017 124.246 6.94502C124.285 6.88773 124.318 6.82407 124.363 6.77315C125.528 5.49151 127.893 5.7716 128.623 7.41396C128.968 8.18634 129.072 8.99054 129.077 9.81597C129.085 11.8148 129.079 13.8115 129.077 15.8104C129.077 15.8528 129.07 15.8931 129.066 15.9547H125.977C125.977 15.8592 125.977 15.7637 125.977 15.6661C125.975 13.6333 125.975 11.6026 125.964 9.56983C125.964 9.37037 125.927 9.16454 125.868 8.97145C125.676 8.34124 124.802 8.11844 124.311 8.57677C124.233 8.65104 124.196 8.79957 124.193 8.91203C124.187 11.1634 124.189 13.4169 124.189 15.6682V15.9589H121.115V2.03491H121.117Z" fill="#006D9E"/>
<path d="M70.8154 6.15356H74.1095C74.4212 7.70044 74.733 9.24731 75.0447 10.7921C75.0621 10.7942 75.0774 10.7984 75.0949 10.8006C75.4633 9.26005 75.8339 7.71954 76.2067 6.16417H79.4898C79.4789 6.22995 79.4724 6.3021 79.4528 6.37C78.3606 10.0367 77.2662 13.7033 76.1674 17.3658C76.0759 17.6734 75.9538 17.9747 75.8164 18.2654C75.169 19.632 73.9765 20.0245 72.5813 19.8017C72.4112 19.7741 72.2455 19.7211 72.0646 19.6765V17.4994C72.3131 17.4761 72.5442 17.4655 72.7753 17.4337C73.1285 17.3849 73.353 17.179 73.462 16.8523C73.5361 16.6273 73.6146 16.4024 73.6713 16.1732C73.6931 16.082 73.6822 15.9738 73.656 15.8825C72.7317 12.723 71.8052 9.56348 70.8786 6.40395C70.8568 6.33181 70.8416 6.25754 70.8154 6.15569V6.15356Z" fill="#016D9E"/>
<path d="M100.027 12.0312H94.9871C94.7713 12.9118 95.3839 13.7267 96.2864 13.7733C97.1453 13.8179 97.9301 13.6545 98.5624 12.9882C98.9875 13.6142 99.4017 14.2274 99.8508 14.8916C99.5325 15.1208 99.2447 15.3902 98.9046 15.56C97.2674 16.3706 95.5822 16.396 93.9232 15.6555C92.7373 15.125 92.1247 14.1128 91.9481 12.8991C91.7454 11.505 91.7257 10.0961 92.0767 8.7147C92.4953 7.07021 93.6812 6.10262 95.4253 6.01138C96.0444 5.97955 96.6875 5.99865 97.2892 6.12596C98.7106 6.42728 99.4889 7.40123 99.8028 8.72106C99.951 9.34066 99.975 9.98997 100.021 10.6287C100.054 11.0828 100.027 11.5411 100.027 12.0312ZM97.069 10.1003C97.0102 9.67592 96.9905 9.25366 96.8859 8.85262C96.7922 8.49402 96.4739 8.34336 96.0204 8.34336C95.5386 8.34336 95.2138 8.50251 95.1113 8.87384C95.0045 9.2664 94.9675 9.67592 94.8955 10.1003H97.0668H97.069Z" fill="#016D9E"/>
<path d="M38.4267 12.0334H33.3428C33.3406 12.4578 33.3995 12.844 33.6044 13.1983C33.8311 13.5909 34.2126 13.7415 34.6508 13.7691C35.5185 13.8243 36.3164 13.6651 36.9573 12.9861C37.3802 13.6121 37.7945 14.2232 38.2457 14.8874C37.9471 15.1059 37.6746 15.3648 37.3541 15.5303C35.7518 16.3578 34.0949 16.3833 32.4425 15.7128C31.2674 15.2353 30.609 14.2847 30.3867 13.1007C30.1142 11.6514 30.1164 10.1831 30.4695 8.74229C30.8772 7.07871 32.0282 6.15144 33.7897 6.00078C34.4416 5.94561 35.0934 5.9541 35.7343 6.11961C37.1208 6.47609 37.8947 7.41185 38.1956 8.71259C38.3504 9.38311 38.3678 10.0833 38.4201 10.773C38.4507 11.1761 38.4267 11.5835 38.4267 12.0291V12.0334ZM35.4466 10.0982C35.4051 9.69715 35.4008 9.30885 35.3179 8.93539C35.2307 8.53222 34.9168 8.35186 34.4307 8.34125C33.9401 8.33064 33.5957 8.50888 33.4911 8.90568C33.3908 9.28975 33.3581 9.69079 33.2949 10.1003H35.4444L35.4466 10.0982Z" fill="#4D4745"/>
<path d="M105.537 9.93479C105.517 9.5189 105.522 9.10512 105.474 8.69559C105.426 8.28819 105.23 8.14814 104.829 8.15451C104.486 8.15875 104.321 8.31153 104.255 8.68923C104.227 8.84625 104.218 9.00752 104.198 9.18151H101.133C101.122 8.51948 101.312 7.91897 101.713 7.3885C102.383 6.50366 103.331 6.10898 104.421 6.00289C105.073 5.93923 105.725 5.97318 106.363 6.14505C107.815 6.53549 108.609 7.53703 108.615 9.00115C108.62 10.4483 108.596 11.8954 108.626 13.3426C108.639 14.0067 108.744 14.6688 108.831 15.3287C108.857 15.5324 108.964 15.7255 109.045 15.9547C108.94 15.9653 108.866 15.978 108.792 15.978C107.911 15.978 107.033 15.9738 106.152 15.9844C105.969 15.9844 105.879 15.9292 105.836 15.7637C105.775 15.5366 105.705 15.3117 105.631 15.0613C105.596 15.1038 105.563 15.1335 105.541 15.1717C105.033 16.0077 104.412 16.292 103.418 16.1393C101.698 15.874 100.811 14.7282 100.955 12.9564C101.088 11.314 102.147 10.2701 103.906 10.0642C104.432 10.0027 104.961 9.98147 105.539 9.93691L105.537 9.93479ZM105.52 11.6408C105.057 11.5984 104.632 11.5963 104.353 11.9846C103.98 12.5023 103.922 13.0816 104.111 13.6736C104.151 13.7946 104.329 13.9282 104.464 13.9558C104.789 14.0258 105.108 13.9558 105.358 13.7203C105.428 13.6545 105.511 13.559 105.513 13.4741C105.526 12.8673 105.52 12.2625 105.52 11.6408Z" fill="#016D9E"/>
<path d="M55.6328 9.08178H52.5873C52.5589 8.88232 52.5502 8.6871 52.5001 8.50038C52.3736 8.01446 51.7806 7.83834 51.3817 8.15875C50.9915 8.47279 50.95 9.07117 51.3403 9.38309C51.6455 9.62711 51.9921 9.83506 52.3453 10.0069C52.9273 10.2891 53.5574 10.4865 54.1242 10.792C55.7374 11.6599 56.1473 13.5887 55.0267 14.9213C54.4643 15.5897 53.7122 15.9334 52.8532 16.0692C51.7763 16.239 50.7124 16.2284 49.7227 15.7106C48.5934 15.1186 47.983 14.1935 47.9023 12.9224H50.7517C50.7887 13.1155 50.8083 13.3108 50.8672 13.4954C51.0438 14.0555 51.8439 14.3229 52.3496 14.0004C52.7442 13.7479 52.7726 13.071 52.3671 12.8354C51.8678 12.5447 51.3359 12.3092 50.828 12.0355C50.3113 11.7575 49.7837 11.4923 49.2998 11.1655C47.5993 10.0197 47.8893 7.49671 49.5548 6.52912C50.2829 6.10686 51.0743 5.95832 51.9049 5.97105C52.524 5.98166 53.1344 6.06442 53.7165 6.29358C54.9526 6.7795 55.6328 7.76195 55.6328 9.07966V9.08178Z" fill="#4D4745"/>
<path d="M39.248 12.914H42.0821C42.117 13.105 42.1344 13.298 42.1911 13.4827C42.3611 14.0428 43.1547 14.3229 43.667 14.0131C44.0725 13.767 44.1008 13.0731 43.6866 12.8291C43.2179 12.5554 42.7187 12.3326 42.2369 12.0758C41.7333 11.8085 41.221 11.5538 40.7414 11.2525C38.8295 10.0494 39.1848 7.22937 41.1752 6.39334C42.8407 5.69523 44.4889 5.76738 45.9844 6.86016C46.6536 7.35032 47.0242 8.28184 46.9545 9.07756H43.9155C43.9002 8.95873 43.8828 8.82717 43.8675 8.69774C43.8152 8.28396 43.6648 8.09087 43.3465 8.02721C42.9955 7.95719 42.6903 8.0845 42.5203 8.37096C42.3371 8.67864 42.3393 9.1009 42.5988 9.31097C42.9236 9.57197 43.2789 9.81174 43.6539 9.99847C44.1945 10.268 44.7788 10.4504 45.3194 10.722C46.0846 11.104 46.7103 11.6323 46.8913 12.5066C47.2139 14.0641 46.44 15.4051 44.8813 15.891C43.5623 16.3027 42.2325 16.3345 40.979 15.6703C39.9391 15.1186 39.3483 14.2487 39.248 13.0859C39.2437 13.0371 39.248 12.9861 39.248 12.9119V12.914Z" fill="#4D4745"/>
<path d="M20.4057 9.90723H17.5128C17.491 9.6526 17.4801 9.39373 17.4474 9.13697C17.3689 8.52374 16.9961 8.26062 16.377 8.37096C16.0282 8.4325 15.832 8.61711 15.7797 9.0139C15.7274 9.40646 15.7034 9.80538 15.7012 10.2022C15.6968 11.0064 15.7121 11.8106 15.723 12.6148C15.723 12.7485 15.7448 12.8843 15.7622 13.018C15.8451 13.6906 16.2201 13.8943 16.9613 13.7564C17.2621 13.6991 17.3995 13.4636 17.4431 13.1856C17.4801 12.9543 17.4888 12.7188 17.5128 12.4705H20.3512C20.4602 13.9516 19.7365 15.3754 18.2453 15.8953C16.9852 16.3345 15.7208 16.2815 14.5196 15.6894C13.5408 15.2056 13.0219 14.3526 12.8126 13.3469C12.4922 11.7979 12.4682 10.2319 12.8453 8.68713C13.2508 7.0193 14.4891 6.05383 16.2506 6.00079C16.7934 5.98381 17.3559 6.00715 17.8791 6.13022C19.2416 6.45063 19.9937 7.36518 20.2619 8.67015C20.3425 9.06483 20.3556 9.47224 20.4057 9.90723Z" fill="#4D4745"/>
<path d="M29.1587 9.9051H26.2724C26.2571 9.66744 26.2527 9.43403 26.2266 9.20062C26.1525 8.53222 25.7709 8.25 25.1322 8.36883C24.8074 8.42825 24.6221 8.62771 24.5654 8.92477C24.5087 9.22184 24.4673 9.5274 24.4673 9.83083C24.4673 10.8303 24.4869 11.8276 24.5022 12.827C24.5022 12.9034 24.5131 12.9798 24.5283 13.054C24.6548 13.6885 25.0973 13.9452 25.7382 13.7564C26.0849 13.6545 26.1895 13.3829 26.2288 13.0752C26.2549 12.8758 26.2593 12.6742 26.2745 12.4578C27.1793 12.4578 28.0665 12.4578 28.9538 12.4578C29.0039 12.4578 29.0541 12.4641 29.102 12.4684C29.2459 13.8901 28.5134 15.369 27.0114 15.8974C25.8233 16.3154 24.6264 16.2751 23.4732 15.7828C22.4115 15.3308 21.8381 14.4608 21.5918 13.3978C21.4654 12.8482 21.4 12.2774 21.3847 11.7151C21.3564 10.7433 21.3324 9.7693 21.5678 8.81019C22.0038 7.03627 23.2443 6.04746 25.1169 5.9838C25.7143 5.9647 26.3007 5.99441 26.8697 6.18114C28.1603 6.6034 28.8274 7.52855 29.0519 8.78897C29.1173 9.15182 29.1238 9.52315 29.1587 9.9051Z" fill="#4D4746"/>
<path d="M115.604 8.28821H114.643V6.15144H115.6V3.71548H118.68V6.13659H119.977V8.28609H118.704C118.695 8.35611 118.687 8.39643 118.687 8.43674C118.687 9.95179 118.687 11.4668 118.697 12.9819C118.702 13.593 118.953 13.8009 119.578 13.7585C119.742 13.7479 119.905 13.7309 120.097 13.7139C120.097 14.0938 120.097 14.4545 120.097 14.8173C120.097 15.1208 120.097 15.4263 120.075 15.7298C120.071 15.8061 119.997 15.9229 119.929 15.9441C119.09 16.2029 118.237 16.2539 117.383 16.0247C116.33 15.7425 115.829 15.0019 115.665 14.0046C115.617 13.7139 115.602 13.4148 115.602 13.1198C115.595 11.6132 115.6 10.1067 115.6 8.60013V8.28821H115.604Z" fill="#016D9E"/>
<path d="M113.411 15.9632H110.374V2.03915H113.411V15.9632Z" fill="#006D9D"/>
<path d="M6.31379 6.80072C6.65388 8.20331 6.99396 9.60589 7.34059 11.0339H5.24121C5.58566 9.61438 5.92574 8.20331 6.26801 6.79224C6.28327 6.79436 6.29853 6.79648 6.31379 6.80072Z" fill="#FAF9F9"/>
<path d="M97.0698 10.0982H94.8984C94.9704 9.6738 95.0053 9.26427 95.1143 8.87172C95.2145 8.50038 95.5416 8.33912 96.0233 8.34124C96.4746 8.34124 96.7951 8.49401 96.8888 8.8505C96.9935 9.25154 97.0131 9.67168 97.0719 10.0982H97.0698Z" fill="#FDFDFD"/>
<path d="M35.4464 10.0982H33.2969C33.3601 9.69078 33.3928 9.28762 33.4931 8.90355C33.5977 8.50888 33.94 8.33064 34.4327 8.33913C34.9166 8.34974 35.2306 8.5301 35.32 8.93326C35.4006 9.30672 35.4072 9.69715 35.4486 10.0961L35.4464 10.0982Z" fill="#FBFBFB"/>
<path d="M105.519 11.6408C105.519 12.2625 105.526 12.8673 105.513 13.4742C105.513 13.559 105.428 13.6545 105.358 13.7203C105.107 13.9558 104.789 14.0259 104.464 13.9558C104.327 13.9261 104.15 13.7946 104.111 13.6736C103.921 13.0816 103.98 12.5044 104.353 11.9846C104.632 11.5963 105.057 11.6005 105.519 11.6408Z" fill="#FCFDFD"/>
</g>
<defs>
<clipPath id="clip0_1436_2387">
<rect width="133" height="22" fill="white" transform="translate(0.5)"/>
</clipPath>
</defs>
</svg>
