<svg width="47" height="28" viewBox="0 0 47 28" fill="none" xmlns="http://www.w3.org/2000/svg">
<path d="M28.2329 26.7815V23.8519C28.2329 23.1017 27.8981 22.7267 27.2285 22.7267C26.7583 22.7267 26.3929 22.9393 25.9507 23.4604V20.5619H24.9873V26.7841H25.9431V24.3937L26.0709 24.2485C26.4849 23.7715 26.7634 23.5563 26.9627 23.5563C27.1621 23.5563 27.2745 23.7352 27.2745 24.2304V26.7815H28.2329Z" fill="#226FB0"/>
<path d="M32.3599 26.3978L32.0098 25.62C31.7953 25.7846 31.5551 25.9116 31.2994 25.9959C31.1576 26.0431 31.009 26.0659 30.8598 26.0633C30.6926 26.065 30.5279 26.0217 30.3825 25.9379C30.2371 25.8541 30.1161 25.7328 30.0318 25.5863C29.9373 25.3897 29.8933 25.1721 29.904 24.9537H32.3599V24.5207C32.3599 23.4448 31.7236 22.7059 30.8061 22.7059C29.7456 22.7059 28.9482 23.6522 28.9482 24.907C28.9482 26.1178 29.6408 26.8956 30.7371 26.8956C31.1593 26.8961 31.5761 26.7995 31.9561 26.613C32.043 26.5689 32.1785 26.5015 32.3548 26.4004L32.3599 26.3978ZM31.4041 24.3237H29.9526C30.0318 23.7845 30.3206 23.4785 30.7422 23.4785C31.1639 23.4785 31.3811 23.717 31.4041 24.3237Z" fill="#226FB0"/>
<path d="M36.0222 26.0659C35.7666 26.04 35.7283 25.9804 35.7283 25.6226V23.9659C35.7283 23.0948 35.3296 22.7033 34.4505 22.7033C33.4462 22.7033 32.8737 23.1052 32.8737 23.8052C32.871 23.8984 32.8876 23.9911 32.9223 24.0774L33.8295 23.8648C33.8161 23.8318 33.8083 23.7968 33.8065 23.7611C33.8065 23.5641 34.0365 23.4033 34.3176 23.4033C34.5987 23.4033 34.7725 23.6004 34.7725 24.0256V24.3704L33.7222 24.6841C33.1804 24.8552 32.9555 25.0419 32.8303 25.41C32.7888 25.5398 32.7673 25.6754 32.7664 25.8119C32.7609 25.956 32.785 26.0997 32.8373 26.2338C32.8897 26.3679 32.969 26.4895 33.0702 26.5908C33.1715 26.692 33.2924 26.7707 33.4254 26.8219C33.5583 26.873 33.7003 26.8955 33.8423 26.8878C34.0386 26.8832 34.2318 26.8376 34.4099 26.7537C34.588 26.6698 34.7471 26.5495 34.8773 26.4004C35.046 26.7504 35.1967 26.8359 35.6746 26.8359H35.874L36.0247 26.0582L36.0222 26.0659ZM34.77 25.7937C34.6911 25.8621 34.6055 25.9221 34.5144 25.9726C34.3964 26.046 34.2617 26.0871 34.1234 26.0919C34.0704 26.0952 34.0173 26.0868 33.9679 26.0671C33.9185 26.0474 33.8739 26.017 33.8374 25.9779C33.8008 25.9388 33.7732 25.8921 33.7564 25.841C33.7395 25.7899 33.734 25.7357 33.7401 25.6822C33.742 25.5679 33.7663 25.4551 33.8116 25.3504L34.7597 25.0185V25.7963L34.77 25.7937Z" fill="#226FB0"/>
<path d="M37.7163 26.7815V20.5619H36.7656V26.7815H37.7163Z" fill="#226FB0"/>
<path d="M40.6704 26.3978L40.3662 25.6667C40.225 25.8026 40.0471 25.8929 39.8551 25.9259C39.7044 25.9259 39.6635 25.7989 39.6635 25.3556V23.5641H40.4685V22.8148H39.6635V21.6274H38.7614V22.8148L38.2119 22.9159V23.5641H38.7614V26.0296C38.7614 26.6182 38.9914 26.8904 39.4871 26.8904C39.781 26.8808 40.067 26.7913 40.3151 26.6311L40.6652 26.4004L40.6704 26.3978Z" fill="#226FB0"/>
<path d="M44.4553 26.7815V23.8519C44.4553 23.1017 44.1205 22.7267 43.451 22.7267C42.9807 22.7267 42.6127 22.9393 42.1732 23.4604V20.5619H41.2148V26.7841H42.1732V24.3937L42.301 24.2485C42.715 23.7715 42.9935 23.5563 43.1928 23.5563C43.3922 23.5563 43.5021 23.7352 43.5021 24.2304V26.7815H44.4553Z" fill="#226FB0"/>
<path d="M4.66056 22.0682C4.50745 22.0311 4.37114 21.9427 4.27361 21.8173C4.17609 21.692 4.12305 21.5369 4.12305 21.3772C4.12305 21.2175 4.17609 21.0625 4.27361 20.9371C4.37114 20.8118 4.50745 20.7234 4.66056 20.6863C4.81194 20.7254 4.94617 20.8146 5.04204 20.9397C5.13791 21.0648 5.18996 21.2188 5.18996 21.3772C5.18996 21.5357 5.13791 21.6897 5.04204 21.8148C4.94617 21.9399 4.81194 22.0291 4.66056 22.0682ZM4.18267 26.7711V22.8019H5.13078V26.7711H4.18267Z" fill="#226FB0"/>
<path d="M8.61343 23.9011C8.51888 23.8337 8.42943 23.7741 8.35788 23.73C8.10326 23.5618 7.80803 23.4676 7.50432 23.4578C7.13888 23.4578 6.89866 23.6107 6.89866 23.8337C6.89866 24.0126 7.02643 24.1241 7.36121 24.2511C7.75255 24.3903 8.12718 24.5738 8.47799 24.7981C8.60055 24.9057 8.69839 25.0392 8.76461 25.1893C8.83084 25.3393 8.86385 25.5023 8.86132 25.6667C8.86132 26.3926 8.27099 26.8696 7.3791 26.8696C7.17499 26.8666 6.97185 26.8405 6.77343 26.7918C6.45419 26.7277 6.14763 26.6103 5.86621 26.4444L6.16777 25.6174C6.4117 25.7958 6.68041 25.9365 6.9651 26.0348C7.0977 26.0845 7.23773 26.1109 7.3791 26.1126C7.74454 26.1126 7.96177 25.9856 7.96177 25.773C7.96177 25.5604 7.84166 25.4567 7.5861 25.3556L6.94721 25.0963C6.29299 24.837 5.99143 24.4559 5.99143 23.927C5.99143 23.1856 6.5971 22.6826 7.49921 22.6826C7.70579 22.6865 7.91138 22.7125 8.11254 22.7604C8.39937 22.8073 8.67348 22.9141 8.91754 23.0741L8.61343 23.9011Z" fill="#226FB0"/>
<path d="M9.68164 26.7685V20.5463H10.6298V26.7685H9.68164Z" fill="#226FB0"/>
<path d="M14.497 26.8204H14.3002C13.8223 26.8204 13.6716 26.7348 13.5029 26.3848C13.3724 26.5342 13.2128 26.6545 13.0343 26.7384C12.8557 26.8223 12.662 26.8678 12.4653 26.8722C12.3234 26.8799 12.1814 26.8575 12.0484 26.8063C11.9155 26.7552 11.7945 26.6764 11.6933 26.5752C11.592 26.4739 11.5127 26.3524 11.4604 26.2182C11.4081 26.0841 11.3839 25.9404 11.3894 25.7963C11.3917 25.6642 11.4132 25.5331 11.4533 25.4074C11.5811 25.0393 11.8034 24.8526 12.3452 24.6815L13.3981 24.3574V24.0126C13.3981 23.5848 13.255 23.3904 12.9432 23.3904C12.6314 23.3904 12.4321 23.5511 12.4321 23.7481C12.434 23.7829 12.4418 23.8171 12.4551 23.8493L11.5453 24.0618C11.5081 23.9761 11.4889 23.8834 11.4891 23.7896C11.4891 23.0896 12.0641 22.6878 13.0684 22.6878C13.9527 22.6878 14.3462 23.0793 14.3462 23.9504V25.6044C14.3462 25.9622 14.3871 26.0218 14.6401 26.0478L14.497 26.8204ZM13.3981 25.0056L12.45 25.34C12.4044 25.4429 12.3793 25.5539 12.3759 25.6667C12.3698 25.7202 12.3754 25.7744 12.3922 25.8255C12.409 25.8766 12.4367 25.9233 12.4732 25.9623C12.5098 26.0014 12.5543 26.0319 12.6037 26.0515C12.6532 26.0712 12.7062 26.0797 12.7592 26.0763C12.8975 26.0715 13.0323 26.0304 13.1502 25.957C13.2413 25.9066 13.327 25.8467 13.4058 25.7781L13.3981 25.0056Z" fill="#226FB0"/>
<path d="M17.7579 26.7685V24.2174C17.7579 23.7222 17.6787 23.5433 17.4461 23.5433C17.2136 23.5433 16.9683 23.7559 16.5543 24.2355L16.4265 24.3807V26.7711H15.4707V22.8018H16.4265V23.4604C16.8737 22.9418 17.2391 22.7267 17.7043 22.7267C18.3738 22.7267 18.7086 23.1017 18.7086 23.8518V26.7711L17.7579 26.7685Z" fill="#226FB0"/>
<path d="M22.0303 26.7685V26.2293C21.9461 26.4041 21.8161 26.5521 21.6546 26.657C21.451 26.8 21.2097 26.8777 20.962 26.88C20.0855 26.88 19.4287 26.0426 19.4287 24.8993C19.4287 23.6704 20.2184 22.68 21.1972 22.68C21.3076 22.6774 21.4178 22.6914 21.5243 22.7215C21.7064 22.7558 21.8765 22.8381 22.0175 22.96V20.5489H22.9886V26.7711L22.0303 26.7685ZM22.0303 24.3963C22.0336 24.2221 22.0174 24.0482 21.9817 23.8778C21.9275 23.7596 21.8389 23.661 21.728 23.5952C21.617 23.5294 21.4889 23.4996 21.3607 23.5096C20.8343 23.5096 20.4433 24.0644 20.4433 24.8059C20.4433 25.5474 20.755 26.027 21.2099 26.027C21.5038 26.027 21.8003 25.8144 22.0303 25.4307V24.3963Z" fill="#226FB0"/>
<path d="M22.8871 0.508148L34.52 12.4833H11.083L22.8871 0.508148Z" fill="#A7C5DF"/>
<path d="M31.7776 2.82074L42.2247 13.5722H21.1797L31.7776 2.82074Z" fill="#7AA9D0"/>
<path d="M13.9708 3.68408L23.5848 13.5774H4.21875L13.9708 3.68408Z" fill="#226FB0"/>
<path d="M1.38672 14.7778C6.2065 12.5637 9.75105 11.4567 13.7531 11.4567C18.3377 11.4567 21.2996 12.657 25.2096 14.1322C28.7158 15.3326 30.8727 15.6878 34.5757 15.6878C38.9202 15.6878 41.4757 15.1952 45.4854 13.567C41.5217 17.1474 38.2455 18.9181 32.9376 18.9181C29.1196 18.9181 26.0018 18.6796 22.1634 16.7507C18.7083 15.4544 16.9347 14.2152 13.0273 13.9378C8.67772 13.6526 5.93305 14.3293 1.38672 14.7778Z" fill="#A7C5DF"/>
</svg>
