<svg width="812" height="207" viewBox="0 0 812 207" fill="none" xmlns="http://www.w3.org/2000/svg">
<path fill-rule="evenodd" clip-rule="evenodd" d="M0.144784 0C-0.732881 21.4884 2.34922 44.1419 10.2238 67.3806C26.2031 114.733 62.1393 164.631 106.753 207H681.768C680.368 181.647 671.549 152.867 652.987 120.53C627.521 75.9471 597.314 35.8047 563.017 0H0.144784Z" fill="white"/>
<path d="M655 177L811.25 177V207H662.234L655 177Z" fill="#E86472"/>
<path d="M684.869 189.128C684.057 189.128 683.437 189.431 683.007 190.038C682.578 190.645 682.363 191.475 682.363 192.53C682.363 193.594 682.559 194.42 682.951 195.008C683.353 195.587 683.992 195.876 684.869 195.876C685.271 195.876 685.677 195.829 686.087 195.736C686.498 195.643 686.941 195.512 687.417 195.344V197.122C686.979 197.299 686.545 197.43 686.115 197.514C685.686 197.598 685.205 197.64 684.673 197.64C683.637 197.64 682.788 197.43 682.125 197.01C681.463 196.581 680.973 195.983 680.655 195.218C680.338 194.443 680.179 193.543 680.179 192.516C680.179 191.508 680.361 190.617 680.725 189.842C681.089 189.067 681.617 188.461 682.307 188.022C683.007 187.583 683.861 187.364 684.869 187.364C685.364 187.364 685.859 187.429 686.353 187.56C686.857 187.681 687.338 187.849 687.795 188.064L687.109 189.786C686.736 189.609 686.358 189.455 685.975 189.324C685.602 189.193 685.233 189.128 684.869 189.128ZM698.34 192.488C698.34 193.524 698.167 194.429 697.822 195.204C697.486 195.969 696.963 196.567 696.254 196.996C695.554 197.425 694.662 197.64 693.58 197.64C692.497 197.64 691.601 197.425 690.892 196.996C690.192 196.567 689.669 195.965 689.324 195.19C688.988 194.415 688.82 193.51 688.82 192.474C688.82 191.438 688.988 190.537 689.324 189.772C689.669 189.007 690.192 188.414 690.892 187.994C691.601 187.565 692.502 187.35 693.594 187.35C694.676 187.35 695.568 187.565 696.268 187.994C696.968 188.414 697.486 189.011 697.822 189.786C698.167 190.551 698.34 191.452 698.34 192.488ZM691.046 192.488C691.046 193.533 691.246 194.359 691.648 194.966C692.049 195.563 692.693 195.862 693.58 195.862C694.485 195.862 695.134 195.563 695.526 194.966C695.918 194.359 696.114 193.533 696.114 192.488C696.114 191.443 695.918 190.621 695.526 190.024C695.134 189.417 694.49 189.114 693.594 189.114C692.698 189.114 692.049 189.417 691.648 190.024C691.246 190.621 691.046 191.443 691.046 192.488ZM699.014 187.504H701.156L703.032 193.454C703.05 193.519 703.083 193.645 703.13 193.832C703.186 194.019 703.242 194.224 703.298 194.448C703.354 194.663 703.405 194.882 703.452 195.106C703.508 195.33 703.545 195.512 703.564 195.652C703.582 195.512 703.615 195.33 703.662 195.106C703.708 194.882 703.76 194.663 703.816 194.448C703.872 194.224 703.923 194.019 703.97 193.832C704.016 193.645 704.054 193.519 704.082 193.454L705.972 187.504H708.114L704.712 197.5H702.402L699.014 187.504ZM708.567 188.708V187.504H713.117V188.708L711.899 189.268V195.736L713.117 196.296V197.5H708.567V196.296L709.785 195.736V189.268L708.567 188.708ZM723.109 192.404C723.109 194.093 722.628 195.367 721.667 196.226C720.705 197.075 719.366 197.5 717.649 197.5H714.821V187.504H717.957C719.002 187.504 719.907 187.691 720.673 188.064C721.447 188.437 722.045 188.988 722.465 189.716C722.894 190.444 723.109 191.34 723.109 192.404ZM720.911 192.46C720.911 191.359 720.668 190.547 720.183 190.024C719.697 189.501 718.993 189.24 718.069 189.24H716.935V195.75H717.845C719.889 195.75 720.911 194.653 720.911 192.46ZM724.344 194.602V192.894H728.012V194.602H724.344ZM734.218 197.5H732.104V191.718C732.104 191.485 732.108 191.172 732.118 190.78C732.127 190.379 732.141 190.029 732.16 189.73C732.113 189.786 732.01 189.889 731.852 190.038C731.702 190.178 731.562 190.304 731.432 190.416L730.284 191.34L729.262 190.066L732.482 187.504H734.218V197.5ZM743.951 191.774C743.951 192.343 743.909 192.913 743.825 193.482C743.741 194.042 743.592 194.574 743.377 195.078C743.172 195.573 742.878 196.016 742.495 196.408C742.122 196.791 741.641 197.094 741.053 197.318C740.475 197.533 739.77 197.64 738.939 197.64C738.743 197.64 738.515 197.631 738.253 197.612C737.992 197.603 737.773 197.579 737.595 197.542V195.848C737.782 195.885 737.978 195.918 738.183 195.946C738.389 195.974 738.594 195.988 738.799 195.988C739.63 195.988 740.269 195.857 740.717 195.596C741.175 195.335 741.497 194.971 741.683 194.504C741.87 194.028 741.977 193.482 742.005 192.866H741.921C741.725 193.193 741.464 193.468 741.137 193.692C740.82 193.916 740.344 194.028 739.709 194.028C738.86 194.028 738.179 193.753 737.665 193.202C737.152 192.651 736.895 191.872 736.895 190.864C736.895 189.781 737.199 188.932 737.805 188.316C738.421 187.7 739.252 187.392 740.297 187.392C740.979 187.392 741.595 187.551 742.145 187.868C742.696 188.176 743.135 188.657 743.461 189.31C743.788 189.954 743.951 190.775 743.951 191.774ZM740.339 189.086C739.929 189.086 739.593 189.231 739.331 189.52C739.07 189.8 738.939 190.239 738.939 190.836C738.939 191.321 739.051 191.704 739.275 191.984C739.499 192.264 739.84 192.404 740.297 192.404C740.605 192.404 740.876 192.334 741.109 192.194C741.343 192.054 741.525 191.881 741.655 191.676C741.786 191.461 741.851 191.242 741.851 191.018C741.851 190.71 741.795 190.407 741.683 190.108C741.571 189.809 741.403 189.567 741.179 189.38C740.955 189.184 740.675 189.086 740.339 189.086Z" fill="#FEE100"/>
<path d="M748.544 188.708V187.504H753.094V188.708L751.876 189.268V195.736L753.094 196.296V197.5H748.544V196.296L749.762 195.736V189.268L748.544 188.708ZM757.471 187.504L761.811 194.994H761.853C761.834 194.537 761.816 194.084 761.797 193.636C761.778 193.179 761.764 192.712 761.755 192.236V187.504H763.659V197.5H760.971L756.617 189.94H756.561L756.687 192.796V197.5H754.797V187.504H757.471ZM772.931 187.504C774.256 187.504 775.259 187.691 775.941 188.064C776.631 188.437 776.977 189.095 776.977 190.038C776.977 190.607 776.846 191.088 776.585 191.48C776.323 191.872 775.941 192.11 775.437 192.194V192.264C775.689 192.32 775.922 192.399 776.137 192.502C776.351 192.605 776.538 192.745 776.697 192.922C776.865 193.099 776.995 193.328 777.089 193.608C777.182 193.879 777.229 194.21 777.229 194.602C777.229 195.507 776.897 196.217 776.235 196.73C775.581 197.243 774.69 197.5 773.561 197.5H769.823V187.504H772.931ZM771.937 193.146V195.75H773.323C773.967 195.75 774.41 195.629 774.653 195.386C774.905 195.143 775.031 194.812 775.031 194.392C775.031 194.019 774.9 193.72 774.639 193.496C774.387 193.263 773.925 193.146 773.253 193.146H771.937ZM773.169 191.466C773.785 191.466 774.209 191.373 774.443 191.186C774.685 190.999 774.807 190.71 774.807 190.318C774.807 189.926 774.667 189.651 774.387 189.492C774.116 189.324 773.673 189.24 773.057 189.24H771.937V191.466H773.169ZM783.471 189.128C782.659 189.128 782.038 189.431 781.609 190.038C781.179 190.645 780.965 191.475 780.965 192.53C780.965 193.594 781.161 194.42 781.553 195.008C781.954 195.587 782.593 195.876 783.471 195.876C783.872 195.876 784.278 195.829 784.689 195.736C785.099 195.643 785.543 195.512 786.019 195.344V197.122C785.58 197.299 785.146 197.43 784.717 197.514C784.287 197.598 783.807 197.64 783.275 197.64C782.239 197.64 781.389 197.43 780.727 197.01C780.064 196.581 779.574 195.983 779.257 195.218C778.939 194.443 778.781 193.543 778.781 192.516C778.781 191.508 778.963 190.617 779.327 189.842C779.691 189.067 780.218 188.461 780.909 188.022C781.609 187.583 782.463 187.364 783.471 187.364C783.965 187.364 784.46 187.429 784.955 187.56C785.459 187.681 785.939 187.849 786.397 188.064L785.711 189.786C785.337 189.609 784.959 189.455 784.577 189.324C784.203 189.193 783.835 189.128 783.471 189.128Z" fill="white"/>
</svg>
