<svg width="128" height="121" viewBox="0 0 128 121" fill="none" xmlns="http://www.w3.org/2000/svg">
<rect width="53.2924" height="87.9099" transform="matrix(0.971193 -0.238296 0.245829 0.969313 3.88672 21.6992)" fill="white"/>
<rect x="19.9844" y="87.0664" width="55.0092" height="19.1122" transform="rotate(-11.71 19.9844 87.0664)" fill="#313132"/>
<path d="M51.566 86.736C50.8989 83.6209 47.5578 81.4426 44.4384 82.0889C41.1354 82.7732 39.155 86.0541 39.8222 89.1692C40.5285 92.4675 43.6469 94.5006 46.9498 93.8163C50.0693 93.1699 52.2724 90.0343 51.566 86.736ZM60.6128 14.4371C59.5925 9.6728 54.6922 6.47793 49.9213 7.46643L8.81773 15.9827C3.86329 17.0092 0.87315 21.8389 1.89344 26.6032L18.218 102.831C19.2776 107.779 23.9551 110.828 28.9095 109.802L70.0131 101.286C74.784 100.297 77.9969 95.6126 76.9374 90.6651L60.6128 14.4371ZM54.7409 15.6537L71.0654 91.8817C71.4186 93.5308 70.2253 95.1177 68.7573 95.4218L27.6538 103.938C26.0023 104.28 24.4431 103.264 24.09 101.615L7.76537 25.3866C7.45144 23.9206 8.42199 22.1886 10.0735 21.8464L51.177 13.3301C52.645 13.026 54.4269 14.1877 54.7409 15.6537Z" fill="#313132"/>
<path d="M68.2502 91.8938C61.4691 79.7077 65.9393 64.4144 78.2111 57.8077C90.4829 51.201 105.989 55.7398 112.77 67.9259C119.551 80.1121 115.081 95.4053 102.809 102.012C90.5372 108.619 75.0313 104.08 68.2502 91.8938Z" fill="#66B032" stroke="#FFDD00" stroke-width="3.19821"/>
<path fill-rule="evenodd" clip-rule="evenodd" d="M88.2731 85.4795L94.2278 65.1035C94.5095 64.1398 95.4773 63.6188 96.4052 63.9313L99.0833 64.6752C100.012 64.9873 100.547 65.9482 100.286 66.8371L93.0755 91.5109C92.7672 92.4266 91.7994 92.9477 90.8982 92.6831L78.8029 89.142C77.9008 88.8779 77.3661 87.917 77.5999 86.9801L78.4062 84.3603C78.6395 83.4226 79.6074 82.9016 80.5836 83.1881L88.2731 85.4795Z" fill="white"/>
<ellipse rx="5.59419" ry="5.66619" transform="matrix(0.869567 0.493815 -0.506211 0.86241 48.5294 91.7545)" fill="white"/>
</svg>
