<svg width="40" height="40" viewBox="0 0 40 40" fill="none" xmlns="http://www.w3.org/2000/svg">
<rect width="40" height="40" rx="20" fill="url(#paint0_linear)"/>
<path d="M22.9081 19.1011L20.9668 23.1834C20.7324 23.6803 20.0528 23.6639 19.8379 23.1588L17.6154 17.9717L16.4436 20.9164H12.768L19.8965 28.5758C20.1738 28.8756 20.623 28.8756 20.9004 28.5758L28.0328 20.9164H23.7713L22.9081 19.1011ZM28.9038 12.1235L28.8101 12.0208C26.7985 9.86058 23.5057 9.86058 21.4902 12.0208L20.4004 13.1954L19.3106 12.0249C17.299 9.86058 14.0023 9.86058 11.9907 12.0249L11.897 12.1235C9.99474 14.1687 9.91272 17.4255 11.6118 19.6022H15.6116L17.0139 16.062C17.2248 15.5322 17.9357 15.5199 18.1622 16.0456L20.4355 21.3558L22.3495 17.3352C22.58 16.8505 23.2362 16.8505 23.4666 17.3352L24.5447 19.6022H29.1889C30.8881 17.4255 30.806 14.1687 28.9038 12.1235Z" fill="white"/>
<defs>
<linearGradient id="paint0_linear" x1="20" y1="0" x2="20" y2="40" gradientUnits="userSpaceOnUse">
<stop stop-color="#E3A82B"/>
<stop offset="0.0001" stop-color="#FFC940"/>
<stop offset="0.402559" stop-color="#FFC940"/>
<stop offset="0.402659" stop-color="#234075"/>
<stop offset="1" stop-color="#234075"/>
</linearGradient>
</defs>
</svg>
